<svg width="40" height="40" viewBox="0 0 40 40" fill="none" xmlns="http://www.w3.org/2000/svg">
<g clip-path="url(#clip0)">
<path d="M21.6797 31.986C21.4279 31.2939 20.764 30.8291 20.0279 30.8291C19.8229 30.8291 19.6207 30.8649 19.4268 30.9354C18.5161 31.2669 18.045 32.2776 18.3763 33.1884C18.6282 33.8803 19.2921 34.3452 20.0282 34.3452C20.2332 34.3452 20.4354 34.3094 20.6292 34.2389C21.54 33.9074 22.0112 32.8967 21.6797 31.986ZM20.2285 33.1378C20.1636 33.1614 20.0961 33.1734 20.0282 33.1734C19.7828 33.1734 19.5615 33.0184 19.4775 32.7876C19.367 32.484 19.5241 32.1471 19.8276 32.0366C19.8925 32.0129 19.96 32.001 20.0279 32.001C20.2732 32.001 20.4946 32.156 20.5786 32.3868C20.6891 32.6903 20.5321 33.0272 20.2285 33.1378Z" fill="#EC9DAB"/>
<path d="M39.9645 26.5832L39.1627 24.3809C39.1079 24.2302 38.9976 24.1159 38.8634 24.0521C38.8622 24.0516 38.861 24.0509 38.8598 24.0503C38.8511 24.0462 38.842 24.043 38.833 24.0393C38.8245 24.0359 38.8163 24.032 38.8077 24.0289C38.8056 24.0281 38.8034 24.0277 38.8013 24.027C38.6792 23.9853 38.5426 23.983 38.4119 24.0306L36.4959 24.7274L32.42 13.5284C32.42 13.5281 32.4197 13.5279 32.4197 13.5277L30.817 9.12393C30.7326 8.89346 30.5115 8.7387 30.2662 8.7387C30.1983 8.7387 30.1303 8.75042 30.0662 8.77386C29.7623 8.88401 29.6053 9.22151 29.7154 9.52463L31.1186 13.3787L23.5941 16.1172C23.594 16.1172 23.5938 16.1172 23.5937 16.1173C23.5935 16.1174 23.5933 16.1176 23.5931 16.1176L19.0057 17.7871L15.9326 9.34534L19.9707 7.87581L20.8391 10.2613C20.9227 10.4917 21.1438 10.6473 21.3891 10.6473C21.4578 10.6473 21.525 10.6356 21.5899 10.6113L24.5265 9.54252C24.6734 9.4894 24.7906 9.38159 24.857 9.24018C24.906 9.13503 24.922 9.02042 24.9057 8.90846C24.9056 8.90784 24.9056 8.90721 24.9056 8.90667C24.9033 8.89143 24.9 8.87612 24.8965 8.86104C24.8955 8.85674 24.8949 8.85268 24.8939 8.84839C24.8892 8.8294 24.8834 8.81057 24.8766 8.79182L24.0085 6.40629L28.0456 4.937L28.9139 7.32222C28.9983 7.55269 29.2194 7.70816 29.4647 7.70816C29.5326 7.70816 29.6006 7.69644 29.6654 7.67222C29.9686 7.56206 30.1256 7.22527 30.0154 6.92144L28.9467 3.98482C28.8729 3.78318 28.6944 3.63951 28.4866 3.6067C28.4569 3.60201 28.4265 3.59959 28.3959 3.59959C28.328 3.59959 28.26 3.61131 28.1959 3.63474L23.0597 5.50434C23.0588 5.50466 23.0579 5.50473 23.0571 5.50505C23.0555 5.50559 23.0541 5.50637 23.0525 5.50692L20.1256 6.57238C20.1239 6.57301 20.1221 6.57316 20.1204 6.57379C20.1175 6.57488 20.1148 6.57629 20.1119 6.57738L14.9816 8.44479C14.8347 8.49792 14.7175 8.60573 14.6511 8.74714C14.5847 8.88932 14.5776 9.04862 14.6316 9.19557L18.1048 18.7389L21.4449 27.9163C21.0214 27.7869 20.5768 27.7143 20.1215 27.7055L11.6599 4.45701C11.1074 2.93912 9.42307 2.15374 7.90503 2.70608C7.9048 2.70616 7.90456 2.70631 7.90433 2.70639L0.38695 5.41763C0.386872 5.4177 0.386716 5.4177 0.386559 5.41778C0.386169 5.41794 0.385778 5.41802 0.385309 5.41817C0.371794 5.42309 0.358981 5.42895 0.346091 5.43473C0.341169 5.43692 0.336013 5.43872 0.331169 5.44106C0.318513 5.44708 0.306482 5.45411 0.294451 5.46098C0.289529 5.4638 0.284294 5.46622 0.279451 5.46927C0.267888 5.4763 0.257107 5.48411 0.24617 5.49184C0.241326 5.49528 0.23617 5.49841 0.231482 5.50192C0.221326 5.50966 0.211873 5.51802 0.202264 5.52637C0.19742 5.53067 0.192186 5.5345 0.187498 5.53887C0.178436 5.54716 0.170154 5.5563 0.161717 5.56512C0.157108 5.57005 0.152186 5.5745 0.147733 5.5795C0.139764 5.58848 0.132498 5.59809 0.125077 5.60755C0.120858 5.61286 0.116249 5.61801 0.112264 5.62356C0.105545 5.63278 0.099608 5.64247 0.0934361 5.65208C0.0894518 5.65833 0.0850768 5.66426 0.0813268 5.67059C0.0757019 5.68012 0.0708581 5.69012 0.0657801 5.69997C0.0622644 5.70676 0.0583582 5.7134 0.055077 5.72036C0.0505458 5.73005 0.0468739 5.74005 0.0428114 5.74997C0.0397646 5.75754 0.0363271 5.76473 0.0336709 5.77239C0.0302334 5.78208 0.0275772 5.79208 0.0246865 5.80192C0.0222647 5.81004 0.0194522 5.81809 0.0173428 5.82637C0.014921 5.83606 0.0132804 5.84606 0.0113272 5.8559C0.00960851 5.8645 0.00749915 5.87309 0.00617103 5.88176C0.00460854 5.89176 0.00406166 5.90192 0.00304605 5.912C0.00218668 5.92075 0.000858559 5.9295 0.000389812 5.93833C-0.00015706 5.94864 0.000233563 5.95895 0.000233563 5.96926C0.000233563 5.97809 -0.000235185 5.98692 0.000155438 5.99575C0.000624185 6.00622 0.00210855 6.01676 0.00312417 6.02723C0.00398354 6.0359 0.00445229 6.04465 0.00570228 6.0534C0.00726477 6.06379 0.00976476 6.07418 0.0118741 6.08457C0.013671 6.0934 0.0149991 6.10231 0.0171866 6.11114C0.0197647 6.12153 0.0234366 6.13176 0.0266397 6.14207C0.0292959 6.15059 0.0314053 6.15926 0.0344521 6.16778C0.0345302 6.16793 0.0346084 6.16817 0.0346865 6.16832C0.0347646 6.16871 0.0348427 6.16903 0.034999 6.16942L0.836635 8.37175C0.84265 8.38831 0.850932 8.40339 0.858197 8.41909C0.8639 8.43128 0.86851 8.44425 0.874994 8.45589C0.884135 8.47237 0.89515 8.48706 0.905697 8.50245C0.912338 8.51206 0.917962 8.52261 0.92515 8.53175C0.937728 8.54792 0.952103 8.56229 0.966165 8.57682C0.972728 8.58362 0.978509 8.59136 0.985384 8.59784C1.00124 8.61276 1.01867 8.62573 1.03593 8.6387C1.04218 8.64347 1.04781 8.64901 1.05421 8.65339C1.07288 8.66628 1.09288 8.67714 1.11288 8.68768C1.11882 8.69081 1.12429 8.69487 1.13031 8.69784C1.15077 8.70784 1.17226 8.71557 1.19374 8.72307C1.19999 8.72526 1.20585 8.72839 1.21218 8.73042C1.23421 8.73737 1.25687 8.74182 1.27968 8.7462C1.28593 8.74737 1.29202 8.74956 1.29835 8.7505C1.32757 8.75511 1.35733 8.75737 1.38733 8.75737C1.4039 8.75737 1.42054 8.75659 1.43726 8.75526C1.44069 8.75495 1.44405 8.75425 1.44749 8.75393C1.46077 8.75253 1.47397 8.75104 1.48726 8.74878C1.49335 8.74768 1.49944 8.74604 1.50554 8.74479C1.51608 8.74261 1.52663 8.74057 1.5371 8.73776C1.54827 8.73487 1.55929 8.73104 1.57038 8.72737C1.57561 8.72573 1.58085 8.72432 1.58601 8.72245L1.58663 8.72221C1.58694 8.72214 1.58726 8.72198 1.58757 8.7219C1.5878 8.72182 1.58804 8.72167 1.58827 8.72159L8.55596 6.20848L16.8186 28.9094C15.3448 30.1986 14.7309 32.3098 15.4399 34.2575C16.1396 36.1798 17.9836 37.4714 20.0285 37.4714C20.5974 37.4714 21.1591 37.372 21.6981 37.1758C22.9236 36.7297 23.902 35.8332 24.4533 34.6512C24.7463 34.0228 24.8984 33.354 24.911 32.6811L39.6141 27.3343C39.6141 27.3343 39.6142 27.3343 39.6143 27.3342H39.6144C39.6183 27.3328 39.6219 27.3309 39.6257 27.3294C39.6406 27.3237 39.6554 27.3178 39.6695 27.3109C39.6755 27.308 39.6811 27.3045 39.687 27.3014C39.6986 27.2954 39.7102 27.2895 39.7212 27.2828C39.7274 27.2789 39.7332 27.2744 39.7393 27.2704C39.7493 27.2637 39.7595 27.2572 39.7691 27.25C39.7721 27.2477 39.7748 27.245 39.7777 27.2427C39.7898 27.233 39.8017 27.2234 39.8129 27.213C39.8148 27.211 39.8165 27.2091 39.8184 27.2073C39.8302 27.1959 39.8417 27.1844 39.8526 27.1722C39.8548 27.1698 39.8566 27.167 39.8587 27.1645C39.8689 27.1527 39.8788 27.1406 39.888 27.128C39.889 27.1267 39.8898 27.1252 39.8907 27.1238C39.9006 27.1098 39.9102 27.0956 39.9188 27.0809C39.9204 27.0782 39.9216 27.0753 39.9232 27.0726C39.9309 27.059 39.9384 27.0453 39.945 27.0312C39.9476 27.0256 39.9496 27.0198 39.952 27.0141C39.957 27.0026 39.962 26.991 39.9663 26.9791C39.9692 26.9709 39.9713 26.9625 39.9738 26.9542C39.9768 26.9446 39.9802 26.9351 39.9826 26.9253C39.9862 26.9109 39.9888 26.8962 39.9913 26.8815C39.992 26.8776 39.993 26.8738 39.9936 26.87C40.0076 26.7766 39.9991 26.6783 39.9645 26.5832ZM22.9074 6.80707L23.575 8.64221L21.7397 9.31018L21.0718 7.47511L22.9074 6.80707ZM26.3809 16.3503L27.0489 18.1853L25.2131 18.8534L24.5452 17.0183L26.3809 16.3503ZM19.4068 18.8883L23.4442 17.419L24.3127 19.8045C24.3963 20.035 24.6174 20.1903 24.8634 20.1903C24.9314 20.1903 24.9986 20.1779 25.0634 20.1544L28.0001 19.0857C28.304 18.9755 28.461 18.6388 28.3501 18.3349L27.4817 15.9496L31.5197 14.48L35.3951 25.1274L23.7046 29.3787C23.4851 29.128 23.2417 28.9003 22.9777 28.7001L19.4068 18.8883ZM9.45752 5.25849C9.45408 5.24911 9.44979 5.24028 9.44596 5.23106C9.44213 5.22208 9.43869 5.21278 9.43447 5.20395C9.43065 5.19591 9.42612 5.18856 9.42198 5.18083C9.41682 5.17122 9.4119 5.16138 9.40627 5.15216C9.40237 5.14583 9.39791 5.14005 9.39377 5.13388C9.38713 5.12388 9.38073 5.11372 9.37346 5.10427C9.36971 5.09927 9.36541 5.09481 9.36151 5.08989C9.35338 5.07981 9.34534 5.06974 9.33651 5.06028C9.33299 5.05646 9.32901 5.05302 9.32533 5.04927C9.31565 5.03942 9.30604 5.02958 9.29573 5.02044C9.29276 5.01786 9.28955 5.0156 9.28659 5.0131C9.27518 5.00333 9.26362 4.99372 9.25151 4.98497C9.24979 4.98372 9.24791 4.98278 9.24619 4.98146C9.2326 4.97177 9.21869 4.96255 9.20432 4.95403C9.20323 4.95341 9.20205 4.95286 9.20096 4.95232C9.12096 4.90583 9.03034 4.87841 8.93659 4.87349C8.93573 4.87349 8.93495 4.87357 8.93409 4.87349C8.91596 4.87263 8.89776 4.87255 8.8794 4.87341C8.87604 4.87357 8.87268 4.87419 8.86932 4.87443C8.85354 4.87544 8.83776 4.87669 8.82198 4.87903C8.8144 4.88021 8.8069 4.88208 8.79932 4.88357C8.78776 4.88567 8.77612 4.88763 8.76456 4.89052C8.75143 4.8938 8.73839 4.89825 8.72534 4.90239C8.71956 4.90427 8.7137 4.90567 8.70792 4.90771L8.70714 4.90802C8.7069 4.9081 8.70659 4.90817 8.70628 4.90825C8.70604 4.90833 8.70581 4.90849 8.70557 4.90857L1.73788 7.42168L1.33702 6.32043L8.30386 3.80763C8.30401 3.80756 8.30409 3.80748 8.30425 3.80748C8.30464 3.80732 8.30503 3.80724 8.3055 3.80709C9.21643 3.47561 10.227 3.94685 10.5585 4.85771L18.9204 27.8323C18.7306 27.8767 18.5427 27.9318 18.3576 27.9992C18.1711 28.0671 17.9922 28.1464 17.8194 28.2339L9.45752 5.25849ZM23.391 34.1557C22.9721 35.0541 22.2285 35.7355 21.2971 36.0745C20.887 36.2238 20.46 36.2995 20.0283 36.2995C18.4742 36.2995 17.0727 35.3178 16.541 33.8566C15.8412 31.934 16.8361 29.8003 18.7588 29.1004C19.1689 28.9511 19.5958 28.8754 20.0276 28.8754C21.5817 28.8754 22.9832 29.8571 23.5149 31.3183C23.854 32.2497 23.81 33.2575 23.391 34.1557ZM24.7827 31.4806C24.7382 31.2912 24.6837 31.1033 24.6161 30.9176C24.5486 30.7321 24.4701 30.5526 24.3821 30.3793L38.2619 25.332L38.6627 26.4332L24.7827 31.4806Z" fill="#EC9DAB"/>
</g>
<defs>
<clipPath id="clip0">
<rect width="40" height="40" fill="white"/>
</clipPath>
</defs>
</svg>
