<svg width="40" height="40" viewBox="0 0 40 40" fill="none" xmlns="http://www.w3.org/2000/svg">
<g clip-path="url(#clip0)">
<path d="M32.6708 28.6567C32.1436 26.0157 29.6661 25.5662 29.6583 25.5626V25.5627C29.6316 25.5549 29.8855 25.6185 23.616 24.0645V23.8517H28.2312C29.1826 23.8517 29.9565 23.0778 29.9565 22.1265V13.3245C30.034 12.9972 30.0342 12.657 29.9565 12.329V9.11659C29.9565 8.79284 29.694 8.53057 29.3704 8.53057C29.0467 8.53057 28.7844 8.79284 28.7844 9.11659V10.7984C28.4751 10.6137 28.1217 10.4813 27.7409 10.4157C27.6034 9.80503 27.0962 9.32221 26.453 9.23776C25.7826 9.14964 25.2744 8.75878 24.9428 8.07612C24.7876 7.75651 24.4835 7.54659 24.1296 7.5144C23.7754 7.48237 23.44 7.6337 23.2301 7.91948C22.2227 9.29042 19.4223 12.3653 14.5866 12.3652C14.2187 12.3652 13.9693 12.3478 13.8824 12.3439C12.9938 12.2903 12.2425 13.0003 12.2425 13.8907V15.2372C12.2425 17.3893 13.1353 19.4757 14.6919 20.9614C15.2081 21.4541 15.7776 21.8651 16.3848 22.1928V22.6799H11.7907C11.4856 22.6799 11.2374 22.4317 11.2374 22.1267V8.9587C11.2374 4.68971 14.7181 1.17206 18.9226 1.17206C18.9362 1.17206 18.9498 1.17214 18.9633 1.17221C20.4697 1.18026 22.209 1.60815 23.3943 2.26198C24.1455 2.67659 24.6094 2.34706 25.3512 2.34706C27.1618 2.34706 28.6127 4.20878 28.7866 5.88323C28.7877 5.90776 28.7903 6.00596 28.7906 6.38221C28.791 6.94792 29.4299 6.99135 29.3771 6.96776C29.7008 6.96753 29.9629 6.70487 29.9626 6.38128C29.9626 6.27721 29.9634 5.86917 29.9537 5.77448C29.718 3.44346 27.7297 1.17503 25.3513 1.17503C24.4224 1.17503 24.2776 1.41049 23.9605 1.23581C22.6165 0.494323 20.6575 0.00924471 18.9697 0.000182206C14.1047 -0.0313022 10.0653 4.02159 10.0653 8.95862V22.1266C10.0653 23.0779 10.8393 23.8518 11.7906 23.8518H16.3848V24.0646L10.3662 25.5562C10.3583 25.5582 10.3504 25.5604 10.3426 25.5627L9.90287 25.6924C9.88967 25.6963 9.8767 25.7006 9.86381 25.7053C9.07912 25.9981 7.70654 26.7709 7.3299 28.6571C5.54631 37.6166 5.62139 37.234 5.61709 37.2647C5.40224 38.7843 6.16295 39.9999 7.99287 39.9999H14.33C14.6537 39.9999 14.916 39.7375 14.916 39.4139C14.916 39.0901 14.6537 38.8278 14.33 38.8278H12.1247V33.3005C12.1247 32.9767 11.8624 32.7145 11.5387 32.7145C11.2151 32.7145 10.9527 32.9768 10.9527 33.3005V38.8278H7.99287C7.21443 38.8278 6.7624 38.5772 6.7549 37.7595C6.75162 37.3606 6.73592 37.7494 8.47935 28.8862C8.74178 27.5719 9.69615 27.0229 10.2553 26.8103L10.6617 26.6905L14.1179 25.8339C17.9627 30.3632 17.7351 30.1232 17.9572 30.3399C19.2405 31.5917 21.0716 31.5034 22.2768 30.0881L25.8959 25.8371L29.339 26.6904C29.4386 26.7362 31.1525 27.0377 31.5215 28.886C33.2499 37.6724 33.2493 37.3587 33.246 37.759C33.2401 38.5599 32.8068 38.8279 32.008 38.8279H29.0692V33.3005C29.0692 32.9767 28.8069 32.7145 28.4832 32.7145C28.1594 32.7145 27.8972 32.9768 27.8972 33.3005V38.8278H17.0647C16.741 38.8278 16.4787 39.0902 16.4787 39.4139C16.4787 39.7376 16.7411 39.9999 17.0647 39.9999H32.0081C33.4559 39.9999 34.4047 39.2032 34.4181 37.7684C34.423 37.0983 34.3831 37.4185 32.6708 28.6567ZM27.7793 11.6247C28.2687 11.7703 28.6461 12.0928 28.7845 12.491V13.1624C28.6461 13.5608 28.2687 13.8833 27.7793 14.0288V11.6247ZM27.7793 15.3392V15.231C28.1455 15.1634 28.4856 15.0337 28.7845 14.8552V22.1266C28.7845 22.4317 28.5363 22.6797 28.2313 22.6797H23.616V22.2268C26.1007 20.9278 27.7793 18.327 27.7793 15.3392ZM15.5012 20.1134C14.1751 18.8477 13.4147 17.0704 13.4147 15.2371C13.4495 13.9611 13.3302 13.8065 13.5338 13.6148C13.6059 13.5468 13.7029 13.5074 13.812 13.5136C18.0139 13.7666 21.6279 11.9194 24.014 8.82659C24.6574 9.95628 25.6009 10.308 26.3004 10.3999C26.4753 10.4229 26.6072 10.5721 26.6072 10.7472C26.6072 12.3684 26.6072 13.7298 26.6072 15.3393C26.6072 21.1703 19.6266 24.0508 15.5012 20.1134ZM21.3842 29.3282C20.5677 30.2874 19.4247 30.2848 18.6102 29.3234L17.3875 27.8802H22.617L21.3842 29.3282ZM23.615 26.7081H16.3946L15.3875 25.5193L17.112 25.0918C17.3736 25.0271 17.557 24.7866 17.557 24.5172L17.5571 22.7042C19.1696 23.2417 20.8725 23.2359 22.444 22.721C22.455 24.594 22.4188 24.5511 22.4766 24.7164C22.5405 24.899 22.6928 25.0431 22.8889 25.0917L24.6247 25.522L23.615 26.7081Z" fill="#EC9DAB"/>
</g>
<defs>
<clipPath id="clip0">
<rect width="40" height="40" fill="white"/>
</clipPath>
</defs>
</svg>
