<svg width="40" height="40" viewBox="0 0 40 40" fill="none" xmlns="http://www.w3.org/2000/svg">
<path d="M25.6861 16.939V14.2316C26.2266 13.5558 28.0897 11.0353 28.0897 8.40119C28.0897 7.09596 27.5508 5.91424 26.6838 5.06393V0.567911C26.6838 -0.16537 25.5119 -0.198729 25.5119 0.567911V4.22354C24.8736 3.9001 24.1525 3.71643 23.3888 3.71643C22.1002 3.71643 20.8796 4.24377 20 5.15541C19.1204 4.24369 17.8997 3.71643 16.6111 3.71643C15.8474 3.71643 15.1263 3.90002 14.488 4.22354V0.567911C14.488 -0.16537 13.3161 -0.198729 13.3161 0.567911V5.06401C12.4491 5.9144 11.9102 7.09604 11.9102 8.40127C11.9102 11.0988 13.766 13.566 14.3138 14.2356V16.939L5.15942 32.2724C4.48372 33.4043 5.0127 34.9154 6.24356 35.3837C7.61887 35.907 9.05145 36.3531 10.5086 36.7138C10.5379 37.5878 11.1004 38.3802 11.98 38.6722C14.5766 39.5342 17.2815 39.9792 20.0197 39.9946C20.0686 39.9948 20.1174 39.9949 20.1661 39.9949C22.9229 39.9949 25.5772 39.5561 28.0577 38.6902C28.9304 38.3856 29.4839 37.5788 29.4995 36.7023C30.9507 36.3429 32.3784 35.8997 33.75 35.3812C34.9834 34.9148 35.5147 33.4017 34.8381 32.2685L25.6861 16.939ZM13.0821 8.40127C13.0821 6.46424 14.6652 4.8883 16.6111 4.8883C17.7714 4.8883 18.8582 5.45729 19.5183 6.41041C19.7476 6.74151 20.2523 6.74151 20.4816 6.41041C21.1418 5.45729 22.2286 4.8883 23.3888 4.8883C25.3347 4.8883 26.9179 6.46424 26.9179 8.40127C26.9179 10.5635 25.3401 12.7681 24.8202 13.4356H23.0097C22.2765 13.4356 22.2431 14.6075 23.0097 14.6075H24.5143V16.5147H15.4857V14.6075H19.8957C20.629 14.6075 20.6624 13.4356 19.8957 13.4356H15.1754C14.657 12.7848 13.0821 10.624 13.0821 8.40127ZM27.6715 37.5839C25.2737 38.421 22.7009 38.8373 20.0264 38.8227C17.4117 38.808 14.8288 38.3831 12.3493 37.5599C11.8544 37.3956 11.5733 36.8458 11.7224 36.3511L12.8455 32.62C13.0569 31.9179 11.9443 31.5481 11.7234 32.2823L10.7358 35.5631C9.34317 35.2161 7.97458 34.7884 6.66028 34.2884C6.09989 34.0752 5.85762 33.3891 6.16559 32.8731L15.2323 17.6865H16.1171L12.618 29.3103C12.4093 30.0035 13.5113 30.4086 13.7401 29.6481L17.3408 17.6866H22.659L28.2842 36.3735C28.2852 36.3782 28.2857 36.3831 28.2868 36.3878C28.2881 36.3936 28.2907 36.3987 28.2922 36.4044C28.4272 36.8992 28.1592 37.4136 27.6715 37.5839ZM33.9155 33.6905C33.8197 33.9653 33.6082 34.182 33.3356 34.285C32.0209 34.7821 30.6529 35.2079 29.2615 35.5542L23.8829 17.6865H24.7676L33.832 32.8692C33.9804 33.1178 34.0108 33.4171 33.9155 33.6905Z" fill="#EC9DAB"/>
<path d="M2.62602 5.85074V4.98246H3.4943C3.81797 4.98246 4.08023 4.72012 4.08023 4.39652C4.08023 4.07293 3.81797 3.81058 3.4943 3.81058H2.62602V2.94238C2.62602 2.61879 2.36375 2.35645 2.04008 2.35645C1.71641 2.35645 1.45414 2.61879 1.45414 2.94238V3.81058H0.585938C0.262266 3.81058 0 4.07293 0 4.39652C0 4.72012 0.262266 4.98246 0.585938 4.98246H1.45414V5.85074C1.45414 6.17433 1.71641 6.43668 2.04008 6.43668C2.36375 6.43668 2.62602 6.17433 2.62602 5.85074Z" fill="#EC9DAB"/>
<path d="M6.33334 16.3097H7.20155V17.1779C7.20155 17.5015 7.46381 17.7638 7.78748 17.7638C8.11116 17.7638 8.37342 17.5015 8.37342 17.1779V16.3097H9.2417C9.56537 16.3097 9.82764 16.0473 9.82764 15.7237C9.82764 15.4002 9.56537 15.1378 9.2417 15.1378H8.37342V14.2695C8.37342 13.9459 8.11116 13.6836 7.78748 13.6836C7.46381 13.6836 7.20155 13.9459 7.20155 14.2695V15.1378H6.33334C6.00967 15.1378 5.74741 15.4002 5.74741 15.7237C5.74741 16.0473 6.00975 16.3097 6.33334 16.3097Z" fill="#EC9DAB"/>
<path d="M5.89306 22.2863C5.89306 21.9627 5.63079 21.7003 5.30712 21.7003H4.43884V20.832C4.43884 20.5084 4.17657 20.2461 3.8529 20.2461C3.52923 20.2461 3.26696 20.5084 3.26696 20.832V21.7003H2.39868C2.07501 21.7003 1.81274 21.9627 1.81274 22.2863C1.81274 22.6098 2.07501 22.8722 2.39868 22.8722H3.26696V23.7404C3.26696 24.064 3.52923 24.3263 3.8529 24.3263C4.17657 24.3263 4.43884 24.064 4.43884 23.7404V22.8722H5.30704C5.63071 22.8722 5.89306 22.6098 5.89306 22.2863Z" fill="#EC9DAB"/>
<path d="M39.4141 3.81058H38.5459V2.94238C38.5459 2.61879 38.2837 2.35645 37.96 2.35645C37.6363 2.35645 37.374 2.61879 37.374 2.94238V3.81058H36.5058C36.1821 3.81058 35.9198 4.07293 35.9198 4.39652C35.9198 4.72012 36.1821 4.98246 36.5058 4.98246H37.374V5.85074C37.374 6.17433 37.6363 6.43668 37.96 6.43668C38.2837 6.43668 38.5459 6.17433 38.5459 5.85074V4.98246H39.4141C39.7378 4.98246 40.0001 4.72012 40.0001 4.39652C40.0001 4.07293 39.7378 3.81058 39.4141 3.81058Z" fill="#EC9DAB"/>
<path d="M30.7581 16.3097H31.6264V17.1779C31.6264 17.5015 31.8886 17.7638 32.2123 17.7638C32.536 17.7638 32.7982 17.5015 32.7982 17.1779V16.3097H33.6664C33.9901 16.3097 34.2524 16.0473 34.2524 15.7237C34.2524 15.4002 33.9901 15.1378 33.6664 15.1378H32.7982V14.2695C32.7982 13.9459 32.536 13.6836 32.2123 13.6836C31.8886 13.6836 31.6264 13.9459 31.6264 14.2695V15.1378H30.7581C30.4344 15.1378 30.1721 15.4002 30.1721 15.7237C30.1721 16.0473 30.4345 16.3097 30.7581 16.3097Z" fill="#EC9DAB"/>
<path d="M37.6012 21.7003H36.7329V20.832C36.7329 20.5084 36.4707 20.2461 36.147 20.2461C35.8233 20.2461 35.561 20.5084 35.561 20.832V21.7003H34.6928C34.3692 21.7003 34.1069 21.9627 34.1069 22.2863C34.1069 22.6098 34.3692 22.8722 34.6928 22.8722H35.561V23.7404C35.561 24.064 35.8233 24.3263 36.147 24.3263C36.4707 24.3263 36.7329 24.064 36.7329 23.7404V22.8722H37.6012C37.9249 22.8722 38.1871 22.6098 38.1871 22.2863C38.1871 21.9627 37.9248 21.7003 37.6012 21.7003Z" fill="#EC9DAB"/>
</svg>
