<svg width="40" height="40" viewBox="0 0 40 40" fill="none" xmlns="http://www.w3.org/2000/svg">
<g clip-path="url(#clip0)">
<path d="M30.1459 4.20491C27.3501 1.44616 23.6789 -0.0459524 19.8174 0.00107882C17.4908 0.0298288 15.1838 0.624516 13.1458 1.72108C12.8609 1.87436 12.7541 2.22967 12.9075 2.51467C13.0608 2.79959 13.4159 2.90655 13.7011 2.75303C15.5733 1.74569 17.6933 1.19928 19.8319 1.17288C23.3808 1.12795 26.7515 2.50202 29.3228 5.03913C31.8928 7.57499 33.3102 10.925 33.3138 14.4719C33.3181 18.6906 31.2903 22.7052 27.8893 25.2111C27.0426 25.8349 26.4832 26.7744 26.3272 27.7993H23.9453V20.5551L27.6736 16.8269C28.0062 17.0146 28.3776 17.109 28.7492 17.109C29.3094 17.109 29.8696 16.8958 30.2961 16.4694C31.149 15.6165 31.149 14.2287 30.2961 13.3758C29.4432 12.523 28.0555 12.5229 27.2024 13.3758C26.493 14.0851 26.3743 15.1643 26.8449 15.9982L22.945 19.8981C22.8351 20.008 22.7734 20.157 22.7734 20.3124V27.7992H20.5859V9.09928C21.5084 8.84241 22.1875 7.99538 22.1875 6.99209C22.1875 5.78592 21.2062 4.80459 20 4.80459C18.7938 4.80459 17.8125 5.78592 17.8125 6.99209C17.8125 7.9953 18.4915 8.84241 19.414 9.09928V14.4724L17.0475 12.1058C17.5181 11.2719 17.3993 10.1927 16.69 9.48335C15.837 8.63038 14.4492 8.63038 13.5962 9.48335C12.7434 10.3362 12.7434 11.724 13.5962 12.5769C14.0227 13.0033 14.5829 13.2165 15.1431 13.2165C15.5148 13.2165 15.8862 13.1221 16.2188 12.9344L19.414 16.1297V27.7992H13.673C13.5177 26.774 12.9606 25.8365 12.1176 25.2162C8.71663 22.7137 6.68616 18.7022 6.68616 14.4856C6.68616 10.4145 8.5128 6.62069 11.6976 4.07694C11.9504 3.87499 11.9917 3.50624 11.7898 3.25342C11.5879 3.00061 11.2191 2.95936 10.9662 3.16124C7.50139 5.92866 5.51428 10.0562 5.51428 14.4856C5.51428 16.7951 6.07139 19.0929 7.12522 21.1308C8.14491 23.1023 9.631 24.8415 11.4231 26.1601C11.9664 26.5598 12.3394 27.148 12.4812 27.7992H12.408C11.5288 27.7992 10.8136 28.5144 10.8136 29.3936V31.2083C10.8136 32.0875 11.5288 32.8027 12.408 32.8027H12.545V37.3555C12.545 38.8137 13.7313 40 15.1895 40H24.8108C26.269 40 27.4553 38.8137 27.4553 37.3555V35C27.4553 34.6764 27.193 34.414 26.8694 34.414C26.5457 34.414 26.2834 34.6764 26.2834 35V37.3555C26.2834 38.1675 25.6228 38.8281 24.8108 38.8281H24.3436L23.6341 37.0304C23.2024 35.9364 22.1634 35.2295 20.9873 35.2295H19.0129C17.8368 35.2295 16.7978 35.9364 16.3661 37.0305L15.6565 38.8281H15.1893C14.3773 38.8281 13.7166 38.1675 13.7166 37.3555V32.8027H27.592C28.4712 32.8027 29.1864 32.0875 29.1864 31.2083V29.3936C29.1864 28.5144 28.4712 27.7992 27.592 27.7992H27.5193C27.662 27.1476 28.0375 26.5574 28.5845 26.1544C30.3764 24.8342 31.8617 23.0933 32.8801 21.1203C33.9329 19.0807 34.488 16.7813 34.4857 14.4706C34.4819 10.6083 32.9405 6.96241 30.1459 4.20491ZM28.0312 14.2044C28.2291 14.0065 28.4892 13.9075 28.7492 13.9075C29.0093 13.9075 29.2694 14.0065 29.4673 14.2044C29.8633 14.6005 29.8633 15.2448 29.4673 15.6408C29.0715 16.0367 28.4272 16.0369 28.0311 15.6408C27.6351 15.2447 27.6351 14.6004 28.0312 14.2044ZM14.4249 11.7483C14.029 11.3524 14.029 10.708 14.4249 10.312C14.8208 9.916 15.4652 9.91608 15.8612 10.312C16.2572 10.708 16.2572 11.3523 15.8612 11.7483C15.4653 12.1444 14.8209 12.1443 14.4249 11.7483ZM18.9844 6.99217C18.9844 6.43217 19.44 5.97655 20 5.97655C20.56 5.97655 21.0156 6.43217 21.0156 6.99217C21.0156 7.55217 20.56 8.0078 20 8.0078C19.44 8.0078 18.9844 7.55217 18.9844 6.99217ZM17.456 37.4605C17.7099 36.8171 18.3209 36.4013 19.0127 36.4013H20.9872C21.6789 36.4013 22.29 36.8171 22.5439 37.4605L23.0836 38.8281H16.9163L17.456 37.4605ZM28.0147 29.3936V31.2083C28.0147 31.4413 27.8251 31.6308 27.5922 31.6308H12.4078C12.1748 31.6308 11.9853 31.4413 11.9853 31.2083V29.3936C11.9853 29.1606 12.1748 28.9711 12.4078 28.9711H27.5921C27.8251 28.9712 28.0147 29.1606 28.0147 29.3936Z" fill="#EC9DAB"/>
<path d="M23.31 9.48348C22.4572 10.3364 22.4572 11.7241 23.31 12.577C23.7365 13.0035 24.2967 13.2167 24.8569 13.2167C25.4171 13.2167 25.9773 13.0035 26.4038 12.577C27.2566 11.7241 27.2566 10.3364 26.4038 9.48348C25.5509 8.63059 24.1631 8.63043 23.31 9.48348ZM25.575 11.7484C25.1791 12.1444 24.5347 12.1443 24.1387 11.7484C23.7427 11.3525 23.7428 10.7081 24.1387 10.3121C24.3367 10.1141 24.5967 10.015 24.8568 10.015C25.1169 10.015 25.377 10.1141 25.5749 10.3121C25.971 10.7081 25.971 11.3524 25.575 11.7484Z" fill="#EC9DAB"/>
<path d="M12.7975 13.376C11.9445 12.523 10.5568 12.5232 9.70388 13.376C8.85099 14.2289 8.85099 15.6167 9.70388 16.4696C10.1304 16.896 10.6905 17.1093 11.2508 17.1093C11.6224 17.1093 11.9937 17.0148 12.3264 16.8271L16.0547 20.5554V25.5991C16.0547 25.9227 16.3169 26.185 16.6406 26.185C16.9643 26.185 17.2265 25.9227 17.2265 25.5991V20.3127C17.2265 20.1573 17.1648 20.0083 17.055 19.8984L13.155 15.9985C13.6257 15.1645 13.5069 14.0854 12.7975 13.376ZM10.5326 15.6409C10.1366 15.2449 10.1366 14.6006 10.5326 14.2046C10.7306 14.0066 10.9907 13.9076 11.2508 13.9076C11.5108 13.9076 11.7708 14.0066 11.9688 14.2046C12.3648 14.6006 12.3648 15.2449 11.9688 15.6409C11.5729 16.037 10.9286 16.0369 10.5326 15.6409Z" fill="#EC9DAB"/>
</g>
<defs>
<clipPath id="clip0">
<rect width="40" height="40" fill="white"/>
</clipPath>
</defs>
</svg>
