<svg width="135" height="100" viewBox="0 0 135 100" fill="none" xmlns="http://www.w3.org/2000/svg">
<g clip-path="url(#clip0)">
<path d="M67.75 100C57.8601 100 48.1922 97.067 39.9693 91.572C31.7464 86.077 25.3378 78.2668 21.554 69.1292C17.7702 59.9917 16.7813 49.9373 18.7123 40.2376C20.6433 30.538 25.4075 21.6289 32.4022 14.6371C39.397 7.64536 48.3082 2.885 58.0086 0.958156C67.7091 -0.968693 77.7631 0.0245218 86.899 3.81218C96.0349 7.59983 103.842 14.0118 109.334 22.2371C114.825 30.4623 117.754 40.1314 117.75 50.0214C117.73 63.274 112.455 75.9777 103.082 85.3467C93.7086 94.7157 81.0026 99.9853 67.75 100ZM67.75 0.42719C57.9454 0.42719 48.361 3.33459 40.2088 8.78172C32.0566 14.2289 25.7027 21.9711 21.9507 31.0293C18.1986 40.0876 17.2169 50.055 19.1297 59.6712C21.0425 69.2874 25.7638 78.1204 32.6967 85.0533C39.6296 91.9862 48.4627 96.7075 58.0788 98.6203C67.695 100.533 77.6625 99.5514 86.7207 95.7993C95.779 92.0473 103.521 85.6934 108.968 77.5412C114.415 69.389 117.323 59.8046 117.323 50C117.308 36.857 112.081 24.2565 102.787 14.963C93.4936 5.66945 80.893 0.441889 67.75 0.42719Z" fill="#272525"/>
<path d="M134.785 53.8873C134.737 53.7848 134.65 53.7056 134.544 53.6671C134.437 53.6287 134.32 53.6341 134.217 53.6822C129.245 56.0359 125.298 54.2461 120.723 52.1701C119.561 51.6446 118.365 51.1021 117.113 50.6152C111.001 48.2273 104.474 45.9505 97.767 46.6211C92.9059 47.1038 88.5359 49.1372 85.4518 52.3495C85.0801 52.7425 84.717 53.1525 84.371 53.5541C83.7252 54.3292 83.0104 55.0441 82.2352 55.6899C80.9281 56.7322 79.4372 57.138 78.2497 56.7835C77.7479 56.6396 77.2958 56.3594 76.9437 55.9741C76.5915 55.5887 76.3531 55.1133 76.2549 54.6006C77.2591 54.0665 78.0426 53.1952 78.4676 52.1402C78.7068 51.5635 78.6555 51.0594 78.3266 50.7519C78.2001 50.6425 78.0483 50.5664 77.8849 50.5306C77.7215 50.4948 77.5518 50.5004 77.3911 50.5468C77.1499 50.6212 76.9281 50.7481 76.7418 50.9185C76.2863 51.3015 75.9231 51.7824 75.679 52.3252C75.435 52.868 75.3164 53.4589 75.3322 54.0539C75.202 54.0891 75.0691 54.1134 74.9349 54.1265C73.9439 54.2376 72.9358 53.8659 72.4872 53.2166C72.1113 52.6827 72.1284 51.9693 72.5428 51.1491C72.6392 50.9975 72.6953 50.8237 72.7058 50.6443C72.7163 50.4649 72.6807 50.2858 72.6026 50.1239C72.5339 50.0358 72.4433 49.9674 72.3399 49.9254C72.2364 49.8834 72.1237 49.8694 72.0131 49.8847C71.0007 49.9872 68.3266 52.3965 67.1861 54.9509C67.1861 55.0022 67.1434 55.0364 67.1305 55.062C66.7461 54.7929 66.0754 53.238 65.9644 52.7425C65.8979 52.4294 65.8494 52.1128 65.8191 51.7942C66.5709 51.1063 67.0727 50.1882 67.2459 49.1842C67.2966 48.959 67.2707 48.7233 67.1725 48.5144C67.0742 48.3055 66.9092 48.1354 66.7034 48.0308C66.2164 47.8386 65.6953 48.1461 65.4219 48.7954C65.0755 49.6337 64.918 50.5379 64.9605 51.4439C64.4012 51.9279 63.7304 52.2655 63.0084 52.4264C63.5395 51.5095 63.9039 50.5058 64.0848 49.4618C64.2173 48.3725 64.0037 47.5609 63.4441 47.0526C63.1192 46.79 62.7294 46.62 62.3158 46.5606C61.9023 46.5012 61.4804 46.5546 61.0947 46.7151C60.2871 47.0088 59.6122 47.5835 59.1938 48.3341C58.6599 49.0186 58.2454 49.7884 57.9678 50.6109C57.1818 52.0462 54.4607 56.0103 51.3937 59.7096C47.7499 64.1094 44.9007 66.6041 43.3757 66.7365C43.2355 66.76 43.0915 66.745 42.9591 66.6931C42.8267 66.6411 42.7108 66.5543 42.6239 66.4417C41.9832 65.6387 42.0814 64.3059 42.2822 63.0244C43.0724 57.9881 45.6739 52.9774 47.9721 48.5519L48.0575 48.3896C48.8008 46.9657 49.5597 45.5603 50.3343 44.1735C55.4859 41.5336 60.283 38.0778 62.9187 34.7373C64.9648 32.1444 67.0836 29.4618 67.515 25.9206C67.6195 25.3278 67.5814 24.7187 67.4039 24.1436C67.3314 23.8528 67.1756 23.5895 66.9555 23.3862C66.7354 23.1828 66.4607 23.0481 66.1651 22.9988C64.0293 22.704 60.1335 27.5097 57.2544 31.5848L57.2202 31.6318C54.5182 35.4813 52.0146 39.4663 49.7192 43.5712C44.8965 46.0103 39.7918 47.7062 35.9302 47.8428C31.9106 48.0009 27.4595 46.9543 23.1579 45.9377C14.9904 44.0112 6.54533 42.0163 0.765744 48.317C0.689272 48.4008 0.649236 48.5116 0.654443 48.625C0.65965 48.7383 0.709674 48.845 0.79351 48.9214C0.877346 48.9979 0.988127 49.038 1.10148 49.0327C1.21484 49.0275 1.32148 48.9775 1.39795 48.8937C6.84007 42.9646 14.6701 44.81 22.9614 46.7578C27.3185 47.783 31.8294 48.851 35.9644 48.6801C39.6295 48.5349 44.3924 47.0312 49.0015 44.8356C48.432 45.8722 47.871 46.9216 47.3185 47.9838L47.2331 48.1504C44.905 52.6314 42.2651 57.7104 41.4578 62.8834C41.2997 63.8873 41.0306 65.754 41.9704 66.9629C42.1262 67.1605 42.3257 67.3193 42.5532 67.4267C42.7808 67.5342 43.0302 67.5875 43.2818 67.5823H43.4697C47.0238 67.2705 54.2941 57.7574 57.4253 53.0927C57.3771 53.5736 57.4206 54.0592 57.5534 54.5238C57.6303 54.8103 57.7852 55.0698 58.0009 55.2735C58.2167 55.4771 58.4847 55.6168 58.7751 55.6771C58.906 55.7026 59.0391 55.7155 59.1724 55.7156C60.2318 55.7156 61.3937 54.8869 62.4317 53.3789C63.3773 53.2955 64.2867 52.9753 65.0759 52.4477C65.1015 52.6058 65.1271 52.7638 65.1613 52.9219C65.1613 52.9518 66.0156 55.8223 67.1135 55.9377C67.327 55.9377 67.7243 55.9035 67.9977 55.2969C68.8503 53.5345 70.14 52.0198 71.744 50.8971C71.1203 52.2256 71.4321 53.1525 71.8123 53.6993C72.4445 54.6092 73.7516 55.1175 75.0588 54.9808C75.2026 54.9657 75.3452 54.9414 75.4859 54.9082C75.6355 55.5445 75.9517 56.1296 76.4021 56.6033C76.8525 57.077 77.4209 57.4223 78.049 57.6036C78.4247 57.7151 78.8147 57.7712 79.2066 57.7702C80.5252 57.7239 81.7902 57.2366 82.7991 56.3862C83.6101 55.6985 84.3578 54.9394 85.0331 54.1179C85.3749 53.725 85.7252 53.3234 86.0883 52.9475C89.0272 49.8804 93.2134 47.9368 97.8695 47.4755C104.384 46.8219 110.804 49.0646 116.823 51.414C118.049 51.8967 119.236 52.4349 120.386 52.9518C124.956 55.0235 129.271 56.9842 134.602 54.4597C134.702 54.4077 134.777 54.3184 134.811 54.2113C134.846 54.1041 134.836 53.9876 134.785 53.8873ZM57.9379 32.1487L57.9678 32.106C62.2651 26.0146 64.8965 23.8659 65.9686 23.8659H66.0669C66.2207 23.8659 66.4428 23.9727 66.6179 24.4554C66.7431 24.906 66.7664 25.3787 66.6863 25.8394C66.2591 29.1414 64.3283 31.6147 62.2651 34.229C59.8858 37.2448 55.7081 40.3546 51.116 42.845C53.2732 39.103 55.5543 35.5191 57.9379 32.1487ZM58.946 54.8655C58.8033 54.8355 58.6723 54.7645 58.5692 54.6614C58.466 54.5582 58.3951 54.4273 58.3651 54.2845C58.1088 53.49 58.3651 52.1487 58.7666 50.9911C58.9674 51.8454 59.5953 52.5631 60.6547 53.1269C60.8893 53.2473 61.1417 53.3295 61.4022 53.3704C60.5436 54.4597 59.6551 55.0107 58.946 54.8655ZM61.9618 52.5673C61.6474 52.5682 61.3368 52.4996 61.0519 52.3666C59.5739 51.5848 59.2151 50.6237 59.8302 49.0475C59.8599 48.9666 59.8956 48.888 59.937 48.8125C60.2541 48.231 60.7719 47.7847 61.3937 47.5566C61.6345 47.4538 61.8978 47.4147 62.1582 47.4431C62.4186 47.4715 62.6672 47.5665 62.8802 47.719C63.3074 48.112 63.3074 48.8467 63.2519 49.3935C63.0344 50.5258 62.596 51.6043 61.9618 52.5673ZM66.2335 49.15C66.2761 49.0441 66.34 48.9481 66.4214 48.8681C66.434 48.9487 66.434 49.0309 66.4214 49.1115C66.3507 49.5978 66.1599 50.0589 65.8661 50.4528C65.9253 50.0083 66.0461 49.5741 66.225 49.1628L66.2335 49.15ZM77.3399 51.5806C77.4321 51.4939 77.5411 51.427 77.6602 51.3841C77.6814 51.38 77.7031 51.38 77.7243 51.3841C77.7465 51.3769 77.7704 51.3769 77.7927 51.3841C77.8183 51.4097 77.8268 51.5678 77.7243 51.8112C77.4176 52.5535 76.9048 53.1924 76.2463 53.6523C76.3248 52.8525 76.7107 52.1143 77.3228 51.5934L77.3399 51.5806Z" fill="#272525"/>
<path d="M29.8004 59.5515H29.6851L29.6552 59.5301C29.6432 59.4676 29.626 59.4061 29.6039 59.3464C29.5891 59.2949 29.5593 59.2488 29.5185 59.214C29.4779 59.186 29.4332 59.1643 29.3861 59.1499C29.3033 59.1293 29.2168 59.1293 29.134 59.1499L28.976 59.1798L28.8008 59.214L28.5616 59.2653L28.2028 59.3464L27.0751 59.607L26.7077 59.6924L26.4514 59.748L26.2848 59.8035L26.1396 59.8334C25.9772 59.8712 25.8108 59.8898 25.6441 59.8889C25.4857 59.8907 25.3278 59.8721 25.1742 59.8334C25.0395 59.7979 24.9122 59.7386 24.7983 59.6583C24.6911 59.5812 24.6069 59.4763 24.5548 59.355C24.5362 59.3217 24.5232 59.2857 24.5164 59.2482L24.4907 59.1371V59.0859L24.6189 59.0432H24.6573C24.6573 59.0944 24.6829 59.1414 24.6915 59.1841C24.7013 59.2254 24.7187 59.2645 24.7428 59.2995C24.784 59.3445 24.8314 59.3833 24.8837 59.4148C25.0982 59.5126 25.3405 59.5308 25.5672 59.466C25.8833 59.4148 26.3105 59.3251 26.8487 59.2012L28.0917 58.915L28.4548 58.8338L28.7026 58.7698C28.7709 58.7698 28.8307 58.7399 28.8777 58.7228L29.023 58.6801C29.1047 58.6632 29.1809 58.6265 29.2451 58.5733C29.2828 58.5389 29.3146 58.4985 29.3391 58.4537C29.3523 58.4047 29.3523 58.3531 29.3391 58.3042C29.3391 58.2444 29.3391 58.1803 29.3049 58.1162V58.082L29.4117 58.0393C29.4117 58.0692 29.4117 58.1162 29.4416 58.1803C29.4715 58.2443 29.4715 58.3127 29.4886 58.381C29.5057 58.4494 29.5228 58.5177 29.5356 58.5818C29.5484 58.6459 29.5612 58.6971 29.5697 58.7228L29.5954 58.8381C29.5954 58.868 29.5954 58.915 29.6253 58.9791C29.6552 59.0432 29.6552 59.1115 29.6723 59.1841C29.6894 59.2567 29.7064 59.3165 29.7193 59.3849C29.7321 59.4532 29.7449 59.496 29.7534 59.5259L29.8004 59.5515Z" fill="#272525"/>
<path d="M31.2526 63.9471C31.3672 64.2243 31.4197 64.5232 31.4064 64.8228C31.396 65.0893 31.3275 65.3502 31.2056 65.5874C31.0844 65.8244 30.9192 66.036 30.7187 66.2111C30.512 66.3934 30.2748 66.538 30.0181 66.6382C29.7641 66.7353 29.4954 66.7888 29.2236 66.7963C28.9585 66.8059 28.6941 66.7624 28.4461 66.6681C28.1933 66.5754 27.9632 66.4298 27.7712 66.241C27.5532 66.0187 27.3856 65.7521 27.28 65.4593C27.1648 65.169 27.1166 64.8566 27.139 64.5451C27.1514 64.2844 27.2199 64.0294 27.3398 63.7976C27.4565 63.576 27.6162 63.38 27.8096 63.2209C28.0232 63.0526 28.2608 62.9172 28.5145 62.8194C28.779 62.7157 29.0592 62.6579 29.3432 62.6485C29.6099 62.6417 29.8753 62.6867 30.1249 62.7809C30.3737 62.8742 30.5995 63.0199 30.787 63.2081C30.9923 63.4191 31.1509 63.6709 31.2526 63.9471ZM27.6046 65.3567C27.6919 65.5681 27.8246 65.7577 27.9933 65.9121C28.1461 66.0583 28.3302 66.1679 28.5316 66.2324C28.7381 66.3001 28.9553 66.3291 29.1723 66.3179C29.4081 66.305 29.6403 66.2546 29.8601 66.1684C30.084 66.0838 30.2931 65.9641 30.4794 65.8138C30.6541 65.6778 30.7994 65.5077 30.9066 65.314C31.0088 65.1289 31.0673 64.9229 31.0775 64.7117C31.0896 64.48 31.0517 64.2483 30.9664 64.0325C30.8891 63.8198 30.765 63.6271 30.6033 63.4687C30.4571 63.3256 30.2804 63.2175 30.0865 63.1526C29.8837 63.0885 29.6703 63.0653 29.4585 63.0842C29.2198 63.1014 28.985 63.1547 28.7622 63.2423C28.5229 63.3315 28.2994 63.4584 28.1001 63.6182C27.9247 63.7534 27.7793 63.9236 27.673 64.118C27.5764 64.2985 27.5224 64.4986 27.5149 64.7032C27.4972 64.925 27.5278 65.1479 27.6046 65.3567Z" fill="#272525"/>
<path d="M33.8755 69.59L33.7688 69.6284H33.7346C33.7063 69.5717 33.6734 69.5174 33.6363 69.4661C33.6067 69.4215 33.5653 69.3861 33.5167 69.3636C33.4701 69.3462 33.4211 69.3362 33.3715 69.3337C33.2877 69.3386 33.206 69.362 33.1323 69.402L32.9828 69.4746L32.829 69.5515L32.6111 69.6711L32.2865 69.8463L31.2784 70.4059L30.958 70.5853L30.7529 70.7006L30.6163 70.786L30.4966 70.8629C30.4358 70.8911 30.3824 70.9333 30.3408 70.986C30.2992 71.0387 30.2707 71.1004 30.2574 71.1662C30.2498 71.2189 30.2588 71.2726 30.2831 71.32C30.3081 71.3786 30.3366 71.4357 30.3685 71.4909V71.525L30.2788 71.5977C30.2788 71.572 30.2403 71.5293 30.2062 71.4695L30.1079 71.2901L30.0054 71.1107L29.9371 70.9825L29.8815 70.88C29.8815 70.8544 29.8431 70.8117 29.8089 70.7519L29.7107 70.5725L29.6081 70.393L29.5398 70.2649L29.6466 70.2264H29.685C29.7143 70.2826 29.7471 70.3368 29.7833 70.3888C29.8117 70.4317 29.8517 70.4658 29.8986 70.487C29.9452 70.5043 29.9942 70.5144 30.0439 70.5169C30.1291 70.5163 30.2128 70.4943 30.2873 70.4528L30.3813 70.4059L30.5137 70.3375L30.7017 70.2393L30.9751 70.0855L32.09 69.4704L32.4104 69.291L32.6368 69.1628L32.7905 69.0688L32.9187 68.9877C32.9895 68.9471 33.0506 68.8917 33.0981 68.8253C33.1255 68.7819 33.1457 68.7343 33.1579 68.6844C33.1652 68.6335 33.1578 68.5816 33.1365 68.5349C33.1109 68.4793 33.0853 68.4238 33.0511 68.364V68.3255L33.1408 68.2529L33.2134 68.3768L33.3117 68.5605L33.4142 68.7399L33.4826 68.8681L33.5424 68.9706L33.6107 69.0987C33.6449 69.1543 33.6748 69.2141 33.709 69.2781L33.8115 69.4575L33.8798 69.5857L33.8755 69.59Z" fill="#272525"/>
<path d="M37.7157 75.1516L37.6218 75.2071H37.5833C37.5454 75.1559 37.504 75.1074 37.4594 75.0619C37.4289 75.0212 37.3851 74.9925 37.3356 74.9807C37.2875 74.9725 37.2384 74.9725 37.1903 74.9807C37.1066 74.9968 37.0276 75.0318 36.9596 75.0833L36.823 75.173L36.682 75.2755L36.4812 75.4207L36.1865 75.6429L35.3022 76.305L34.8452 76.6552L34.5419 76.8902L34.3198 77.0739L34.1104 77.2575L34.0677 77.2276L33.8328 76.9158V76.8218L35.1741 73.0243L35.0716 73.0969L34.9477 73.1866L34.7811 73.3105L34.5461 73.4899L33.6235 74.1819L33.4654 74.3015L33.2646 74.4553L33.0639 74.6134L32.9101 74.7373C32.8491 74.7897 32.7972 74.8517 32.7563 74.9209C32.7312 74.9697 32.7194 75.0242 32.7221 75.079C32.724 75.127 32.7371 75.1738 32.7606 75.2157C32.7951 75.2752 32.8336 75.3323 32.8759 75.3865V75.425L32.799 75.5104C32.7701 75.4763 32.743 75.4406 32.7179 75.4036L32.6025 75.2499L32.4872 75.1003C32.453 75.0491 32.4231 75.0149 32.406 74.9893L32.3334 74.8953L32.2651 74.7543L32.1412 74.5877L32.0173 74.4254L31.9319 74.3101L32.0344 74.2588H32.0729C32.1114 74.3109 32.1527 74.3608 32.1967 74.4083C32.2306 74.4454 32.2732 74.4733 32.3206 74.4895C32.3673 74.4968 32.4149 74.4968 32.4616 74.4895C32.5477 74.4751 32.6294 74.4416 32.7008 74.3912L32.7905 74.3357L32.9101 74.2503L33.081 74.1221L33.333 73.9342L34.3497 73.1695L34.6444 72.9474L34.8537 72.7894L34.9947 72.6783L35.11 72.5801C35.1673 72.5296 35.2163 72.4705 35.2552 72.4049C35.2824 72.3548 35.2984 72.2994 35.3022 72.2426C35.3022 72.1911 35.2874 72.1407 35.2595 72.0974C35.2274 72.0424 35.1917 71.9896 35.1527 71.9393V71.8966L35.2296 71.8154H35.2552L35.3279 71.9222L35.4218 72.0675L35.5158 72.2084L35.5884 72.3152L35.7209 72.4904L35.8063 72.6057C35.8373 72.6442 35.8716 72.6799 35.9088 72.7125V72.7467C35.859 72.8179 35.8161 72.8937 35.7807 72.9731C35.7294 73.0798 35.6739 73.1952 35.6183 73.3319L35.4389 73.759L35.2552 74.2161C35.0417 74.78 34.8751 75.2499 34.7597 75.63C34.6444 76.0102 34.5675 76.2622 34.5291 76.3733L34.5974 76.3263L34.67 76.2751L34.7683 76.1982L34.9306 76.0786L35.9473 75.3139L36.2463 75.0918L36.447 74.9338L36.5923 74.8184L36.7033 74.7202C36.7721 74.6701 36.8278 74.6041 36.8657 74.5279C36.8841 74.4829 36.8956 74.4354 36.8998 74.387C36.8996 74.3335 36.8832 74.2814 36.8529 74.2375C36.8217 74.1819 36.786 74.129 36.7461 74.0794V74.0452L36.823 73.9598H36.8529L36.9255 74.0666L37.0152 74.2033L37.1049 74.3443L37.1775 74.4468L37.3526 74.6817C37.3526 74.7031 37.3954 74.7373 37.4295 74.78C37.4628 74.826 37.4984 74.8702 37.5363 74.9124L37.6474 75.0405L37.7328 75.1345L37.7157 75.1516Z" fill="#272525"/>
<path d="M45.2723 82.0846L45.1912 82.1615H45.1527C45.1035 82.123 45.0522 82.0874 44.9989 82.0547C44.9552 82.0233 44.9032 82.0054 44.8494 82.0034C44.8001 82.008 44.7514 82.0181 44.7042 82.0333C44.6299 82.0722 44.5644 82.126 44.512 82.1914L44.4095 82.3025L44.2941 82.4434L44.1318 82.6442L43.9011 82.9347L43.1621 83.883C43.0413 84.0356 42.8971 84.1683 42.735 84.276C42.582 84.3771 42.4083 84.4428 42.2266 84.4682C42.0375 84.4947 41.8449 84.4787 41.6628 84.4212C41.4467 84.3501 41.2455 84.24 41.069 84.0966C40.8664 83.9468 40.6928 83.7616 40.5564 83.5498C40.4489 83.3855 40.3816 83.1982 40.3599 83.003C40.3416 82.8218 40.3665 82.6388 40.4325 82.4691C40.5003 82.2868 40.5969 82.1166 40.7187 81.965L41.462 81.0167L41.6927 80.7262L41.8507 80.5254C41.8888 80.4789 41.9244 80.4304 41.9575 80.3802C41.9884 80.3406 42.0169 80.2993 42.0429 80.2563C42.0947 80.1901 42.1299 80.1125 42.1455 80.0299C42.152 79.9803 42.152 79.93 42.1455 79.8804C42.1318 79.8294 42.1036 79.7834 42.0643 79.748C42.0216 79.7053 41.9746 79.6668 41.9233 79.6241V79.5857L41.9789 79.4832L42.0942 79.5729L42.2565 79.701L42.4188 79.8292L42.5299 79.9189L42.6239 79.9915L42.7392 80.0812L42.9016 80.2051L43.0639 80.3332L43.1792 80.4229L43.0938 80.4998H43.0596L42.9016 80.3887C42.857 80.3597 42.8052 80.3434 42.752 80.3418C42.7038 80.3444 42.6562 80.3544 42.6111 80.3717C42.5351 80.4098 42.4681 80.4637 42.4146 80.5297L42.3078 80.6536L42.1925 80.786L42.0387 80.9782L41.8123 81.2687L41.1715 82.0803C41.0514 82.2073 40.9579 82.357 40.8963 82.5205C40.8346 82.6841 40.8062 82.8583 40.8127 83.0329C40.8387 83.1842 40.8948 83.3287 40.9777 83.4579C41.0606 83.587 41.1687 83.6982 41.2954 83.7847C41.4111 83.8879 41.5463 83.9667 41.6931 84.0166C41.8399 84.0665 41.9951 84.0865 42.1497 84.0752C42.3239 84.044 42.4898 83.977 42.6368 83.8785C42.7839 83.7799 42.9089 83.652 43.0041 83.5028L43.6448 82.6869L43.8712 82.3964L44.0207 82.2042L44.1233 82.059L44.2172 81.9265C44.2687 81.8585 44.3037 81.7796 44.3197 81.6959C44.3264 81.6477 44.3264 81.5988 44.3197 81.5506C44.3085 81.4986 44.2799 81.4519 44.2386 81.4182C44.1959 81.3755 44.1489 81.3371 44.0976 81.2943V81.2559L44.1532 81.1534H44.1788C44.2132 81.1799 44.246 81.2085 44.277 81.2388C44.3198 81.2815 44.3667 81.32 44.418 81.3627L44.5632 81.478C44.5992 81.5027 44.6335 81.5298 44.6658 81.5592L44.7725 81.6446L44.8836 81.7258L45.0374 81.8497L45.1954 81.9735L45.3022 82.0547L45.2723 82.0846Z" fill="#272525"/>
<path d="M47.4253 84.5194C47.3703 84.6051 47.3393 84.7039 47.3356 84.8056C47.337 84.8994 47.3604 84.9916 47.404 85.0747C47.4574 85.1839 47.5265 85.2846 47.609 85.3738C47.6987 85.4805 47.8098 85.6002 47.9422 85.7369C48.0746 85.8735 48.1558 85.9803 48.2583 86.1085C48.3561 86.2385 48.4339 86.3825 48.489 86.5357C48.5733 86.7808 48.5743 87.0469 48.4916 87.2926C48.4089 87.5383 48.2473 87.7498 48.0319 87.894C47.8915 87.9824 47.7317 88.0352 47.5663 88.0478C47.3918 88.059 47.2167 88.0387 47.0494 87.988C46.8653 87.9316 46.6877 87.8557 46.5197 87.7616C46.31 87.6446 46.1161 87.501 45.943 87.3345C45.7971 87.1894 45.6655 87.0306 45.55 86.8603V86.7749L45.9772 86.2409L46.1139 86.3178V86.3691C46.0623 86.4672 46.0353 86.5764 46.0353 86.6873C46.0353 86.7982 46.0623 86.9074 46.1139 87.0055C46.2478 87.2325 46.4453 87.4152 46.682 87.531C46.904 87.6762 47.1713 87.7354 47.4339 87.6976C47.5406 87.6749 47.6409 87.6286 47.7274 87.562C47.8139 87.4955 47.8843 87.4104 47.9336 87.3131C48.0007 87.2025 48.0348 87.075 48.0319 86.9457C48.0233 86.8281 47.9913 86.7134 47.9379 86.6083C47.8783 86.4909 47.8036 86.3817 47.7158 86.2836L47.4381 85.9718C47.3185 85.8379 47.2117 85.7098 47.1178 85.5873C47.0292 85.4689 46.956 85.3397 46.8999 85.2029C46.851 85.0764 46.8292 84.9411 46.8358 84.8056C46.8474 84.6551 46.8927 84.5091 46.9682 84.3785C47.0481 84.2274 47.1622 84.0972 47.3014 83.9983C47.4288 83.9122 47.5756 83.8594 47.7286 83.8445C47.8826 83.831 48.0377 83.8469 48.1857 83.8915C48.3543 83.942 48.5163 84.0123 48.6684 84.1008C48.858 84.2032 49.0357 84.3264 49.1981 84.4682C49.3283 84.577 49.4458 84.7003 49.5483 84.8355V84.9081L49.1981 85.3353L49.0443 85.2499V85.2072C49.0889 85.1203 49.1025 85.0208 49.0827 84.9252C49.0586 84.8372 49.018 84.7546 48.9631 84.6817C48.9058 84.6044 48.8366 84.5367 48.7581 84.481C48.6892 84.4272 48.6164 84.3786 48.5402 84.3357C48.3483 84.2138 48.1217 84.1583 47.8952 84.1777C47.7945 84.1908 47.6988 84.2289 47.6167 84.2886C47.5346 84.3483 47.4688 84.4277 47.4253 84.5194Z" fill="#272525"/>
<path d="M56.7034 91.8411L56.5709 91.8026L56.3787 91.7514L56.1822 91.6958L56.0498 91.6574L55.7081 91.5591L55.5757 91.5207L55.3834 91.4651L55.1955 91.4139L55.063 91.3754L55.1143 91.2687H55.1528L55.3706 91.3199C55.4306 91.3376 55.4943 91.3376 55.5543 91.3199C55.6001 91.2957 55.6443 91.2685 55.6867 91.2388C55.752 91.1813 55.7982 91.1053 55.8191 91.0209C55.8191 90.9953 55.8448 90.9611 55.8576 90.9269C55.8704 90.8927 55.8875 90.8415 55.9046 90.786C55.9217 90.7304 55.943 90.6621 55.9644 90.5809C55.9857 90.4998 56.0156 90.4015 56.0541 90.2776L56.4001 89.0559C56.477 88.7953 56.541 88.5604 56.5923 88.3554C56.6436 88.1503 56.6863 87.9965 56.7119 87.894H56.6478L56.1523 87.7531L55.8405 87.6762L55.6568 87.6463C55.6273 87.639 55.5966 87.639 55.5671 87.6463C55.4646 87.6676 55.3792 87.7573 55.3151 87.9154H55.2852L55.1442 87.8769L55.3834 87.202L55.4219 87.1508H55.4646C55.5273 87.1914 55.5947 87.2244 55.6654 87.249C55.78 87.2947 55.897 87.3346 56.0156 87.3686L56.383 87.4754L56.6393 87.548L57.3997 87.7616L57.656 87.8342L58.0276 87.941C58.147 87.9761 58.2682 88.0047 58.3907 88.0265C58.4643 88.037 58.5391 88.037 58.6128 88.0265L58.6427 88.0564V88.1204L58.4932 88.821L58.348 88.7783V88.7484C58.3674 88.6866 58.3709 88.621 58.3582 88.5575C58.3456 88.494 58.317 88.4348 58.2753 88.3853C58.2552 88.3619 58.2305 88.343 58.2027 88.3297C58.1489 88.3031 58.0932 88.2802 58.0361 88.2614C57.9355 88.2231 57.8328 88.1903 57.7286 88.1631L57.2373 88.0222H57.1733C57.1348 88.1375 57.0878 88.287 57.0323 88.475C56.9768 88.6629 56.9127 88.9021 56.8315 89.1713L56.5154 90.2776C56.477 90.4229 56.4428 90.5425 56.4172 90.6322L56.3531 90.8586C56.3531 90.9184 56.3275 90.9696 56.3189 91.0166C56.3056 91.0614 56.2956 91.1071 56.289 91.1533C56.2637 91.2354 56.2637 91.3232 56.289 91.4053C56.3084 91.4539 56.3312 91.501 56.3574 91.5463C56.399 91.5921 56.4521 91.626 56.5111 91.6446C56.5923 91.6745 56.6649 91.6958 56.729 91.7129L56.7504 91.7471V91.8624L56.7034 91.8411Z" fill="#272525"/>
<path d="M63.111 88.7869C63.4116 88.8152 63.7027 88.9069 63.9653 89.056C64.1974 89.1886 64.3972 89.371 64.5505 89.59C64.7019 89.8061 64.8093 90.05 64.8666 90.3076C64.9302 90.5733 64.9446 90.8483 64.9093 91.1192C64.8798 91.3896 64.8032 91.6527 64.6829 91.8967C64.5673 92.1349 64.4062 92.3482 64.2088 92.5246C64.0026 92.7039 63.761 92.8378 63.4997 92.9176C63.2025 93.0083 62.889 93.0331 62.5813 92.9902C62.2801 92.9616 61.9887 92.8684 61.7269 92.7168C61.5055 92.585 61.3148 92.4075 61.1674 92.1961C61.0201 91.9846 60.9196 91.7442 60.8726 91.4909C60.8195 91.2236 60.8095 90.9497 60.8427 90.6792C60.8728 90.397 60.9523 90.1223 61.0776 89.8676C61.1913 89.6259 61.3543 89.4105 61.5561 89.2354C61.758 89.0589 61.9954 88.9278 62.2523 88.851C62.5312 88.7715 62.8234 88.7497 63.111 88.7869ZM62.6453 92.6656C62.8737 92.6952 63.1058 92.6733 63.3245 92.6015C63.5312 92.5339 63.7197 92.4199 63.8756 92.2683C64.0298 92.1151 64.1556 91.9357 64.2472 91.7386C64.3437 91.523 64.407 91.294 64.4352 91.0594C64.4656 90.8233 64.4569 90.5837 64.4095 90.3503C64.3663 90.1355 64.2822 89.931 64.1618 89.748C64.0419 89.5745 63.886 89.4288 63.7047 89.3208C63.5041 89.2049 63.2815 89.1321 63.0512 89.1073C62.8276 89.0767 62.6001 89.0956 62.3848 89.1628C62.1889 89.2263 62.0105 89.3346 61.8636 89.4789C61.7113 89.6267 61.5907 89.8041 61.5091 90C61.4158 90.2207 61.3554 90.4539 61.3297 90.6921C61.2954 90.945 61.3026 91.2018 61.351 91.4524C61.3945 91.6652 61.4802 91.8671 61.603 92.0462C61.7197 92.2195 61.8728 92.3653 62.0516 92.4734C62.2346 92.5767 62.4365 92.6421 62.6453 92.6656Z" fill="#272525"/>
<path d="M74.6573 89.3037C74.6338 89.2173 74.581 89.1417 74.5078 89.0901C74.4254 89.0365 74.3343 88.9975 74.2386 88.9748C74.1291 88.952 74.0174 88.9405 73.9055 88.9406C73.7868 88.9442 73.6685 88.9542 73.5509 88.9705C73.2022 89.0029 72.8751 89.1536 72.624 89.3977C72.4458 89.5907 72.3232 89.8283 72.2694 90.0854C72.2092 90.375 72.2005 90.6728 72.2438 90.9654C72.2748 91.2284 72.3545 91.4833 72.4787 91.7172C72.582 91.916 72.7279 92.0895 72.9059 92.2255C73.0767 92.3544 73.2735 92.4448 73.4826 92.4904C73.707 92.5398 73.9385 92.5485 74.166 92.516C74.3628 92.4836 74.5559 92.4321 74.7427 92.3622C74.9629 92.282 75.1648 92.1586 75.3365 91.9991L75.4091 92.0589L75.3108 92.358C75.1308 92.4924 74.9341 92.603 74.7256 92.6869C74.5244 92.7693 74.3133 92.8253 74.0977 92.8535C73.8133 92.8953 73.5235 92.8837 73.2434 92.8193C72.9858 92.7604 72.744 92.6468 72.5343 92.4861C72.3255 92.3238 72.1524 92.1203 72.0259 91.8881C71.8859 91.6311 71.796 91.3499 71.7611 91.0594C71.712 90.7767 71.712 90.4877 71.7611 90.205C71.8119 89.9429 71.9166 89.6941 72.0686 89.4746C72.2255 89.2549 72.4262 89.0702 72.6581 88.9321C72.9287 88.7765 73.2281 88.6777 73.5381 88.6416L73.8029 88.6032C73.9096 88.5965 74.0166 88.5965 74.1233 88.6032C74.2387 88.6032 74.354 88.6032 74.4736 88.6245C74.5914 88.6375 74.7084 88.6575 74.8239 88.6843L74.8538 88.7441V89.3165L74.6744 89.3422L74.6573 89.3037Z" fill="#272525"/>
<path d="M79.1595 87.42L79.3945 87.3516L79.7149 87.2534L80.0096 87.168L80.1677 87.121L80.2146 87.168L80.3855 87.8258L80.2317 87.8728H80.2018C80.1757 87.8001 80.1428 87.73 80.1036 87.6635C80.0872 87.6377 80.0644 87.6167 80.0375 87.6025C80.0105 87.5882 79.9803 87.5813 79.9498 87.5823C79.8452 87.5829 79.7414 87.6002 79.6422 87.6336L79.0826 87.8002L78.506 87.971L78.5615 88.206C78.5615 88.2701 78.5914 88.3256 78.5999 88.3683L78.6427 88.5306L78.7067 88.7613L78.899 89.4063L79.2535 89.2782L79.5824 89.1799C79.6664 89.1563 79.7479 89.1249 79.8259 89.0859C79.8748 89.0619 79.9161 89.025 79.9455 88.9792C79.9662 88.9395 79.9834 88.898 79.9968 88.8553C80.0137 88.8069 80.0137 88.7542 79.9968 88.7058V88.6673L80.095 88.6246H80.1249L80.1719 88.8724C80.1719 88.9407 80.2104 89.0219 80.236 89.1073C80.26 89.197 80.2885 89.2854 80.3214 89.3722C80.3513 89.4533 80.3855 89.5387 80.424 89.6327V89.6541H80.3129H80.283C80.2635 89.5922 80.2332 89.5343 80.1933 89.4832C80.1575 89.4404 80.1158 89.403 80.0694 89.3722C80.0177 89.3575 79.963 89.3575 79.9113 89.3722C79.8273 89.3814 79.7444 89.3986 79.6636 89.4234L79.3389 89.5217L78.9716 89.6285L79.1425 90.2094L79.245 90.5597C79.2749 90.6494 79.2962 90.7305 79.3219 90.7989C79.3475 90.8672 79.3646 90.9313 79.3859 90.9868C79.4073 91.0424 79.4329 91.1107 79.4628 91.1833C79.4927 91.256 79.5354 91.2859 79.6166 91.2602L80.1292 91.1107C80.3684 91.0381 80.5564 90.9783 80.6931 90.927C80.7997 90.8918 80.8995 90.8384 80.9878 90.769C81.0481 90.7215 81.0879 90.6527 81.0989 90.5768C81.106 90.4815 81.106 90.3858 81.0989 90.2906V90.2607L81.2569 90.2137L81.3723 91.0039L81.3424 91.0766L81.2057 91.1193L80.9579 91.1919L80.6888 91.2688L80.4752 91.3329L79.2621 91.6917L79.1254 91.7344L78.9246 91.7942L78.7281 91.854L78.5871 91.8924V91.7771L78.6085 91.7429C78.6693 91.7262 78.7292 91.7063 78.7879 91.6831C78.8364 91.6626 78.879 91.6303 78.9118 91.5892C78.9366 91.5459 78.9567 91.5001 78.9716 91.4525C78.992 91.3711 78.992 91.286 78.9716 91.2047C78.9716 91.1734 78.963 91.1392 78.946 91.1022C78.9289 91.0652 78.9161 91.0182 78.9075 90.9612C78.9075 90.9014 78.8776 90.8331 78.852 90.7519C78.8263 90.6707 78.7964 90.5725 78.7623 90.4529L78.3992 89.2355C78.3565 89.0988 78.3223 88.9792 78.2924 88.8809C78.2625 88.7827 78.2411 88.7058 78.2198 88.6374C78.1984 88.5691 78.1813 88.5093 78.1642 88.4623L78.113 88.3213C78.088 88.2409 78.044 88.1676 77.9848 88.1077C77.947 88.0745 77.9054 88.0459 77.8609 88.0223C77.8109 88.0068 77.7573 88.0068 77.7072 88.0223C77.6452 88.0329 77.5838 88.0472 77.5235 88.065H77.485L77.438 87.9625L77.5747 87.9241L77.7841 87.86L78.0019 87.7959L78.1728 87.7489L79.1595 87.42Z" fill="#272525"/>
<path d="M83.491 86.4375C83.4557 86.3597 83.4031 86.291 83.3372 86.2367C83.2958 86.2102 83.2513 86.1887 83.2048 86.1726C83.1543 86.1603 83.1016 86.1603 83.051 86.1726L82.8759 86.2452H82.8374L82.7734 86.1512C82.819 86.1347 82.8632 86.1147 82.9058 86.0914L83.0938 86.006L83.2817 85.9206L83.4141 85.8608L83.5209 85.8095L83.6533 85.754L83.8413 85.6643L84.0292 85.5788L84.1617 85.519L84.1916 85.6301V85.6643C84.132 85.689 84.0749 85.719 84.0207 85.754C83.9741 85.778 83.9355 85.8151 83.9096 85.8608C83.8913 85.9076 83.8784 85.9563 83.8712 86.006C83.8656 86.0912 83.8818 86.1765 83.9182 86.2538C83.9182 86.305 83.9566 86.3563 83.9737 86.4033C83.9908 86.4503 84.0164 86.5058 84.0463 86.5656L84.1489 86.7877L84.3026 87.1252L84.7811 88.1718L84.9306 88.5049C84.9733 88.5904 85.0075 88.6673 85.0374 88.7313C85.0673 88.7954 85.1014 88.8552 85.1313 88.9065C85.1612 88.9577 85.1954 89.0261 85.2296 89.0987C85.2367 89.114 85.247 89.1275 85.2598 89.1385C85.2725 89.1495 85.2874 89.1577 85.3036 89.1626C85.3197 89.1674 85.3367 89.1688 85.3534 89.1666C85.3701 89.1644 85.3861 89.1588 85.4005 89.15L85.8832 88.9278C86.1138 88.8253 86.2847 88.7399 86.3958 88.6801C86.4803 88.6364 86.5557 88.5769 86.6179 88.5049C86.6364 88.4786 86.6487 88.4483 86.6539 88.4165C86.6591 88.3847 86.657 88.3522 86.6478 88.3213C86.6478 88.2529 86.6136 88.1632 86.5923 88.0479V87.9966L86.7418 87.9283L86.9682 88.6929L86.9468 88.7698L86.8443 88.821L86.6649 88.8979C86.6008 88.9321 86.5325 88.962 86.4598 88.9919L86.2804 89.0774L85.1313 89.6028L84.9989 89.6626L84.811 89.748L84.623 89.8334C84.5805 89.8567 84.5362 89.8767 84.4906 89.8932L84.4607 89.7822V89.748C84.5183 89.7239 84.574 89.6953 84.6273 89.6626C84.6742 89.637 84.7128 89.5984 84.7383 89.5515C84.7586 89.5026 84.7701 89.4506 84.7725 89.3977C84.774 89.3174 84.7595 89.2375 84.7298 89.1628C84.7209 89.1292 84.7095 89.0964 84.6956 89.0645C84.6956 89.0261 84.6615 88.9834 84.6401 88.9278L84.5504 88.7356C84.5162 88.6587 84.4735 88.5647 84.418 88.4494L83.8926 87.2918L83.7345 86.9586C83.6961 86.8646 83.6576 86.7877 83.6277 86.7237C83.5978 86.6596 83.5679 86.6083 83.5466 86.5613L83.491 86.4375Z" fill="#272525"/>
<path d="M89.04 82.8108L89.2493 82.6784L89.5313 82.499L89.7876 82.3324L89.9285 82.2427L89.984 82.2769L90.3301 82.8621L90.2019 82.9475H90.1635C90.1196 82.8843 90.0695 82.8256 90.014 82.7724C89.9903 82.7533 89.9625 82.7402 89.9327 82.7343C89.903 82.7283 89.8722 82.7297 89.8431 82.7382C89.7427 82.769 89.6476 82.8151 89.5612 82.8749L89.0699 83.191L88.5616 83.5156L88.6812 83.7249C88.7154 83.7805 88.741 83.8317 88.7623 83.8702C88.7837 83.9086 88.8136 83.9556 88.8478 84.0154L88.9759 84.2162L89.3348 84.7843L89.6551 84.5793L89.9413 84.3956C90.0154 84.3489 90.0854 84.296 90.1506 84.2376C90.1913 84.2008 90.2209 84.1535 90.2361 84.1009C90.2361 84.0539 90.2361 84.0112 90.2361 83.9684C90.2371 83.9174 90.2205 83.8677 90.1891 83.8275V83.7848L90.2745 83.7164H90.3002L90.4198 83.9385C90.4559 84.0104 90.4958 84.0802 90.5394 84.1478C90.5949 84.2333 90.6462 84.3102 90.6974 84.3785L90.8683 84.6006V84.6263L90.77 84.6775H90.7359C90.702 84.623 90.6569 84.5764 90.6034 84.5408C90.5577 84.509 90.5073 84.4845 90.4539 84.4682C90.4008 84.4619 90.347 84.4724 90.3002 84.4981C90.2218 84.5323 90.1461 84.5723 90.0738 84.6177L89.7876 84.8014L89.4672 85.0065L89.7918 85.5191C89.873 85.6429 89.9413 85.7455 89.9883 85.8266L90.1293 86.0359C90.1677 86.0957 90.2062 86.147 90.2446 86.1983L90.3728 86.3648C90.3808 86.3795 90.392 86.3921 90.4055 86.4018C90.4191 86.4115 90.4346 86.418 90.451 86.4209C90.4674 86.4237 90.4843 86.4229 90.5003 86.4184C90.5163 86.4138 90.5311 86.4058 90.5436 86.3948L90.9922 86.1085C91.2015 85.9719 91.3638 85.8608 91.4834 85.7754C91.5751 85.7119 91.6558 85.634 91.7226 85.5447C91.7452 85.5136 91.7613 85.4783 91.7701 85.4409C91.7789 85.4035 91.7802 85.3647 91.7739 85.3268C91.7589 85.2325 91.736 85.1397 91.7055 85.0492V85.0065L91.8465 84.9167L92.1754 85.6429V85.7241L92.0558 85.801L91.8422 85.9377L91.603 86.0915L91.4151 86.2111L90.3471 86.8945L90.2275 86.9714L90.0524 87.0825L89.8773 87.1936L89.7576 87.2704L89.7107 87.1637V87.1252C89.7662 87.091 89.8175 87.0526 89.8644 87.0184C89.9059 86.9859 89.9382 86.9432 89.9584 86.8945C89.9706 86.8456 89.9778 86.7955 89.9798 86.745C89.9713 86.6615 89.9435 86.5811 89.8986 86.5101L89.8431 86.4204L89.7705 86.2922L89.6594 86.1128L89.5056 85.8608L88.8179 84.7886L88.6214 84.4768L88.4804 84.2589L88.3822 84.1094L88.2925 83.9855C88.2456 83.9163 88.1845 83.8581 88.1131 83.8147C88.0666 83.7943 88.0178 83.78 87.9678 83.7719C87.9162 83.7678 87.8644 83.7781 87.8183 83.8018C87.7628 83.8275 87.7115 83.8616 87.6517 83.8958H87.6133L87.5364 83.8104L87.656 83.7292L87.8397 83.6139L88.0276 83.4943L88.1814 83.396L89.04 82.8108Z" fill="#272525"/>
<path d="M95.4047 83.2593L95.2937 83.3532L95.1399 83.4899L94.9818 83.6266L94.8751 83.7206L94.8152 83.6224V83.5839C94.8601 83.5449 94.9029 83.5036 94.9434 83.46C94.9829 83.4224 95.0123 83.3754 95.0288 83.3233C95.0393 83.2726 95.0393 83.2203 95.0288 83.1696C95.0026 83.0885 94.9637 83.012 94.9135 82.9432L94.7384 82.7253L94.3753 82.2981L93.3501 81.1192L93.1621 80.9056C93.0938 80.8244 93.0211 80.7475 92.9485 80.6749C92.8923 80.6113 92.8221 80.5616 92.7435 80.5297C92.6956 80.5123 92.6449 80.5036 92.594 80.504L92.4744 80.5468C92.4127 80.5828 92.3554 80.6258 92.3035 80.6749H92.2608L92.1754 80.598V80.5767L92.2693 80.504L92.3889 80.4101L92.5171 80.3161L92.6324 80.2221L92.8033 80.0726L92.9229 79.9701L93.0553 79.8547L93.1835 79.7437L93.2732 79.6668C93.5146 79.4212 93.8357 79.2698 94.1788 79.2396C94.3078 79.2396 94.4352 79.2688 94.5514 79.325C94.6675 79.3812 94.7694 79.463 94.8494 79.5643C94.9244 79.6486 94.9863 79.7436 95.0331 79.8462C95.0694 79.9349 95.0924 80.0285 95.1015 80.1239C95.1123 80.2104 95.1123 80.2979 95.1015 80.3844C95.0838 80.4674 95.0595 80.5488 95.0288 80.6279C95.2534 80.4793 95.5206 80.4088 95.7892 80.4271C96.0535 80.4678 96.2921 80.6085 96.4556 80.8201C96.581 80.9584 96.673 81.1235 96.7247 81.3028C96.7631 81.4614 96.7631 81.6269 96.7247 81.7855C96.6788 81.9582 96.6005 82.1206 96.494 82.264C96.3706 82.4343 96.2272 82.5892 96.0669 82.7253L95.4047 83.2593ZM94.3112 81.1234C94.4096 81.0414 94.501 80.9514 94.5846 80.8543C94.6633 80.7651 94.719 80.6581 94.7469 80.5425C94.7749 80.4303 94.7749 80.3129 94.7469 80.2008C94.7114 80.0704 94.6455 79.9504 94.5547 79.8505C94.4994 79.7751 94.4284 79.7127 94.3464 79.6677C94.2645 79.6227 94.1738 79.5961 94.0805 79.5899C93.8868 79.5902 93.701 79.6669 93.5636 79.8035L93.1365 80.1751L93.3244 80.4186C93.38 80.4827 93.4227 80.5382 93.4611 80.5895L93.5679 80.7219L93.6619 80.8287L93.9182 81.1234C93.9597 81.1769 94.007 81.2256 94.0592 81.2687C94.0891 81.2687 94.1232 81.2687 94.166 81.2473L94.3112 81.1234ZM94.2428 81.4951L94.512 81.8069L94.8195 82.1572L95.0929 82.4647C95.1741 82.5544 95.2296 82.6142 95.2595 82.6399C95.2894 82.6655 95.4047 82.7595 95.4475 82.7509C95.5007 82.7443 95.5503 82.7203 95.5884 82.6826L95.8746 82.4306C95.9595 82.3587 96.0355 82.277 96.101 82.1871C96.1739 82.0918 96.2302 81.985 96.2676 81.871C96.3063 81.751 96.3151 81.6235 96.2933 81.4993C96.2672 81.3499 96.1973 81.2117 96.0925 81.1021C96.0052 80.9952 95.894 80.9103 95.7678 80.8543C95.6565 80.8046 95.5351 80.7812 95.4133 80.786C95.2861 80.7914 95.1613 80.8218 95.0459 80.8757C94.9166 80.932 94.7969 81.0084 94.6914 81.1021L94.2428 81.4951Z" fill="#272525"/>
<path d="M100.484 78.2658L100.39 78.3726L100.253 78.5306L100.121 78.6887C100.087 78.7236 100.055 78.7607 100.027 78.7997L99.9498 78.8894L99.8558 78.9962L99.7191 79.1543L99.5867 79.3123C99.5529 79.3472 99.5215 79.3843 99.4927 79.4234L99.4158 79.3337V79.2953C99.4457 79.2568 99.4842 79.2098 99.5226 79.1543C99.5566 79.1109 99.5787 79.0594 99.5867 79.0048C99.5894 78.9532 99.5791 78.9018 99.5568 78.8553C99.5215 78.7785 99.4723 78.709 99.4115 78.6502L99.3304 78.599L99.2193 78.4965L99.0613 78.3555C98.9972 78.3 98.916 78.2359 98.8221 78.1504L97.5833 77.0911L97.3654 76.9074C97.2842 76.839 97.1988 76.775 97.1134 76.7152C97.0512 76.6663 96.9801 76.63 96.9041 76.6084C96.8517 76.6007 96.7984 76.6007 96.746 76.6084L96.635 76.6639C96.5793 76.7106 96.5279 76.7621 96.4812 76.8177H96.4427L96.3445 76.7579V76.7365C96.3674 76.7057 96.3932 76.6771 96.4214 76.6511L96.5282 76.5443L96.6392 76.429L96.7418 76.3179L96.887 76.147L96.9895 76.0274L97.1048 75.8907L97.2159 75.7668L97.2971 75.6686C97.4499 75.4837 97.6266 75.32 97.8225 75.1816C97.9652 75.0804 98.1262 75.0078 98.2966 74.968C98.4367 74.9319 98.5837 74.9319 98.7238 74.968C98.8624 75.0129 98.9903 75.0856 99.0997 75.1816C99.2257 75.2814 99.3254 75.4105 99.3902 75.5575C99.4494 75.6925 99.4828 75.8374 99.4884 75.9847C99.4941 76.1202 99.4783 76.2557 99.4414 76.3862C99.4023 76.5108 99.3538 76.6322 99.2962 76.7493C99.5269 76.7721 99.7575 76.7892 99.9882 76.8006C100.223 76.8006 100.454 76.8006 100.685 76.8006H101.031C101.13 76.7961 101.229 76.7803 101.325 76.7536C101.423 76.724 101.516 76.6823 101.603 76.6297C101.709 76.5649 101.808 76.489 101.898 76.4033H101.94L102.034 76.4674L102.056 76.5016L101.851 76.7408L101.671 76.9501C101.612 77.0231 101.541 77.0865 101.462 77.1381C101.386 77.1842 101.304 77.2187 101.218 77.2406C101.118 77.2639 101.014 77.2754 100.911 77.2748H100.484H100.3L99.9241 77.2449L99.4628 77.2021L99.0057 77.1551L98.711 77.5012L98.9886 77.7404L99.2834 77.9881L99.5354 78.1974C99.5884 78.2434 99.644 78.2862 99.702 78.3256C99.7689 78.3848 99.8498 78.4259 99.937 78.4452H100.069C100.109 78.4328 100.147 78.4141 100.18 78.3897C100.239 78.3421 100.292 78.2876 100.338 78.2273H100.373L100.471 78.2871L100.484 78.2658ZM98.8819 76.8561C98.9791 76.7618 99.0564 76.649 99.1093 76.5242C99.1621 76.3995 99.1893 76.2654 99.1894 76.1299C99.155 75.8936 99.0312 75.6795 98.8434 75.5319C98.7629 75.4545 98.6651 75.3974 98.5581 75.3655C98.4511 75.3335 98.338 75.3276 98.2283 75.3482C97.977 75.4136 97.7564 75.5647 97.6046 75.7754L97.2501 76.2026L97.4765 76.4119L97.6345 76.5614C97.6735 76.6023 97.7149 76.6408 97.7584 76.6767L97.8695 76.7707L98.3351 77.1722L98.4376 77.2491C98.4582 77.2652 98.4842 77.2729 98.5102 77.2705C98.5359 77.2663 98.5598 77.2544 98.5786 77.2363C98.6105 77.207 98.6405 77.1756 98.6683 77.1423L98.8819 76.8561Z" fill="#272525"/>
<path d="M101.159 70.2478L104.119 70.8629L104.444 70.9355L104.67 70.9783L104.828 71.0039H104.939C105.031 71.019 105.125 71.019 105.217 71.0039C105.282 70.9982 105.345 70.9778 105.401 70.9441C105.449 70.9191 105.49 70.8823 105.52 70.8373C105.553 70.7956 105.583 70.7513 105.61 70.7049H105.648L105.755 70.7476V70.7732C105.733 70.8112 105.707 70.847 105.678 70.88L105.576 71.0295L105.482 71.1833L105.413 71.2901L105.307 71.4695C105.307 71.4695 105.268 71.5336 105.23 71.5891C105.191 71.6446 105.161 71.7087 105.123 71.7685L105.012 71.9479L104.935 72.0718L104.849 71.9949V71.9608C104.903 71.8814 104.942 71.7932 104.965 71.7002C104.965 71.6276 104.931 71.5592 104.828 71.4951C104.703 71.432 104.569 71.3888 104.431 71.367L103.747 71.2303L103.436 71.1619L102.701 72.358L102.897 72.6058L103.324 73.1568C103.407 73.2698 103.506 73.3693 103.619 73.4516C103.722 73.5156 103.803 73.5242 103.863 73.4815C103.936 73.4196 103.998 73.346 104.046 73.2636H104.081L104.187 73.3063L104.115 73.4259L104.012 73.5925L103.91 73.7591C103.876 73.8147 103.85 73.8531 103.837 73.8787L103.773 73.9813C103.748 74.017 103.725 74.054 103.705 74.0923L103.611 74.2461C103.578 74.2965 103.55 74.3493 103.525 74.4041L103.465 74.5195H103.44L103.35 74.4469V74.4084C103.38 74.3614 103.401 74.3187 103.427 74.2717C103.449 74.2233 103.462 74.1712 103.465 74.1179C103.467 74.054 103.457 73.9903 103.436 73.93C103.406 73.84 103.363 73.755 103.307 73.678C103.295 73.6542 103.28 73.6314 103.265 73.6096L103.188 73.5028L103.047 73.3149L102.82 73.0116L102.479 72.5588L101.987 71.9095C101.893 71.7856 101.795 71.6617 101.706 71.5336L101.445 71.1833L101.236 70.8971L101.099 70.7134L101.129 70.2862L101.159 70.2478ZM102.517 72.1444L103.145 71.1235L101.436 70.786L102.517 72.1444Z" fill="#272525"/>
<path d="M107.874 66.211L107.818 66.3391L107.741 66.5228L107.66 66.7065L107.605 66.8347L107.464 67.1636L107.412 67.2917L107.336 67.4711L107.254 67.6548C107.233 67.7103 107.212 67.7531 107.203 67.7787L107.109 67.7189V67.6804C107.135 67.6206 107.16 67.548 107.19 67.4669C107.21 67.4087 107.21 67.3456 107.19 67.2874C107.175 67.2371 107.155 67.1884 107.13 67.1422C107.081 67.0725 107.013 67.0178 106.934 66.9842L106.84 66.9372C106.798 66.9116 106.754 66.8902 106.708 66.8731L106.515 66.7834L106.225 66.6595L105.054 66.1597C104.807 66.0529 104.585 65.959 104.388 65.8821L103.961 65.7027L103.931 65.7667L103.73 66.2409C103.679 66.3605 103.636 66.463 103.611 66.5399C103.585 66.6168 103.568 66.6766 103.559 66.715C103.553 66.7446 103.553 66.7752 103.559 66.8047C103.575 66.867 103.604 66.9251 103.644 66.9746C103.685 67.0242 103.736 67.0639 103.794 67.0909V67.1251L103.739 67.2575L103.098 66.9329L103.055 66.8902V66.8475C103.104 66.7902 103.146 66.7271 103.179 66.6595C103.239 66.5529 103.293 66.4431 103.341 66.3306C103.393 66.2067 103.444 66.0871 103.495 65.976L103.598 65.7283L103.91 65.0021L104.016 64.7586L104.166 64.4041C104.217 64.2788 104.26 64.1634 104.294 64.0581C104.319 63.9876 104.337 63.9145 104.345 63.8402L104.375 63.8103H104.439L105.114 64.0452L105.054 64.1862H105.02C104.961 64.1609 104.897 64.15 104.833 64.1544C104.77 64.1589 104.708 64.1786 104.653 64.2118C104.628 64.2278 104.607 64.2498 104.593 64.2759C104.558 64.3263 104.527 64.3791 104.499 64.434C104.461 64.5066 104.414 64.6048 104.362 64.7287C104.311 64.8526 104.243 65.0064 104.162 65.1943L104.136 65.2584L104.563 65.4549L105.225 65.7411L106.285 66.1939C106.421 66.2537 106.532 66.305 106.622 66.3391L106.84 66.4288L106.985 66.4886L107.122 66.5356C107.201 66.5709 107.289 66.5813 107.374 66.5655L107.519 66.5143C107.57 66.4787 107.61 66.43 107.635 66.3733C107.673 66.2964 107.707 66.2323 107.733 66.1683H107.771L107.882 66.1939L107.874 66.211Z" fill="#272525"/>
<path d="M105.64 59.7352C105.64 59.6839 105.674 59.6027 105.704 59.4959C105.734 59.3892 105.759 59.2824 105.789 59.1713C105.819 59.0602 105.845 58.9663 105.866 58.8766C105.887 58.7869 105.905 58.7356 105.909 58.7185H105.969L106.622 58.915L106.584 59.0688H106.554C106.478 59.054 106.401 59.0455 106.323 59.0432C106.293 59.0445 106.263 59.0535 106.237 59.0691C106.211 59.0848 106.189 59.1067 106.174 59.1329C106.119 59.2224 106.08 59.3207 106.058 59.4233C106.024 59.56 105.973 59.7437 105.909 59.9872L105.755 60.5681L105.986 60.645L106.144 60.6963L106.306 60.7433L106.537 60.8074L107.186 60.9782C107.216 60.8586 107.25 60.739 107.28 60.6151C107.31 60.4912 107.34 60.3845 107.37 60.2862C107.392 60.2024 107.407 60.1165 107.412 60.0299C107.42 59.9758 107.411 59.9206 107.387 59.8719C107.363 59.8335 107.338 59.7964 107.31 59.7608C107.275 59.7232 107.228 59.6977 107.178 59.6882L107.156 59.6497V59.5429L107.391 59.6284C107.459 59.654 107.536 59.6754 107.626 59.701C107.715 59.7257 107.804 59.7456 107.895 59.7608L108.173 59.8121V59.8035L108.13 59.9103L108.109 59.9317C108.045 59.9192 107.98 59.9192 107.917 59.9317C107.86 59.939 107.806 59.9549 107.754 59.9786C107.713 60.0107 107.682 60.0536 107.664 60.1025C107.63 60.1815 107.602 60.2629 107.579 60.346C107.553 60.4443 107.524 60.5553 107.494 60.6749C107.464 60.7945 107.43 60.9184 107.395 61.0466L107.981 61.2004L108.335 61.2943L108.574 61.3541L108.771 61.3968L108.98 61.431C109.057 61.4524 109.104 61.431 109.125 61.3413L109.262 60.8244C109.326 60.581 109.373 60.3973 109.399 60.2478C109.423 60.1385 109.431 60.0261 109.42 59.9146C109.407 59.8383 109.368 59.7689 109.309 59.7181C109.234 59.659 109.154 59.6062 109.07 59.56V59.5301L109.113 59.3721L109.847 59.6839L109.894 59.748C109.894 59.748 109.894 59.8163 109.856 59.8889C109.817 59.9616 109.817 60.0427 109.792 60.1324C109.766 60.2221 109.745 60.3161 109.719 60.4058C109.694 60.4955 109.676 60.5681 109.664 60.6237L109.339 61.8454C109.339 61.8753 109.339 61.9223 109.305 61.9863C109.271 62.0504 109.271 62.1188 109.249 62.1871L109.198 62.3836C109.198 62.4519 109.168 62.4947 109.16 62.5246L109.057 62.4776V62.4391C109.073 62.3786 109.086 62.3173 109.096 62.2555C109.109 62.2051 109.109 62.1521 109.096 62.1017C109.07 62.0581 109.042 62.0167 109.01 61.9778C108.946 61.921 108.87 61.88 108.788 61.8582L108.69 61.8283L108.549 61.7856L108.344 61.73L108.04 61.6489L106.81 61.3242L106.451 61.2302L106.204 61.1619L106.028 61.1192L105.879 61.0893C105.797 61.0721 105.713 61.0721 105.631 61.0893C105.584 61.1066 105.538 61.128 105.494 61.1534C105.453 61.1871 105.422 61.2314 105.405 61.2815C105.383 61.3403 105.365 61.4002 105.349 61.4609L105.311 61.5122H105.195C105.195 61.4823 105.195 61.4353 105.23 61.3712C105.264 61.3071 105.268 61.2388 105.285 61.1619C105.302 61.085 105.324 61.0167 105.345 60.944C105.366 60.8714 105.379 60.8159 105.388 60.7732L105.64 59.7352Z" fill="#272525"/>
<path d="M30.8042 36.604L28.0532 36.493H27.7499H27.2928C27.2089 36.494 27.1254 36.5069 27.0451 36.5314C26.9876 36.5479 26.9339 36.5754 26.887 36.6126C26.8487 36.6448 26.8168 36.6839 26.7931 36.7279C26.7931 36.7706 26.7546 36.8134 26.7333 36.8603H26.7034L26.6051 36.8304L26.6564 36.7236C26.6825 36.6769 26.7054 36.6284 26.7247 36.5784L26.7888 36.4246C26.7888 36.3776 26.823 36.3392 26.8358 36.3136L26.9084 36.1342L26.9554 36.0103L27.028 35.8351C27.0536 35.7753 27.075 35.7155 27.1006 35.66L27.1476 35.5361L27.2373 35.5917V35.6258C27.2004 35.7051 27.1787 35.7906 27.1732 35.8779C27.1732 35.9462 27.2245 35.9975 27.327 36.0402C27.4487 36.0782 27.5755 36.0969 27.7029 36.0957H28.3351L29.4543 36.1299L30.0224 36.1555H30.4496L30.1292 35.8821L29.7021 35.4891L28.8905 34.733L28.5786 34.4511C28.4889 34.37 28.4078 34.2931 28.3351 34.2333C28.2726 34.2291 28.2098 34.2291 28.1472 34.2333C28.0864 34.2362 28.0262 34.2463 27.9678 34.2632C27.9096 34.2801 27.8557 34.3092 27.8097 34.3486C27.755 34.3982 27.7101 34.4576 27.6773 34.5237H27.6474L27.5662 34.5024H27.5449C27.55 34.4636 27.5571 34.4251 27.5662 34.387C27.5916 34.3399 27.6144 34.2914 27.6346 34.2418C27.6559 34.1905 27.6773 34.1393 27.6944 34.0923C27.7115 34.0453 27.7286 34.0069 27.7371 33.9855L27.8097 33.8104C27.8097 33.7847 27.8353 33.7463 27.8567 33.695L27.9251 33.5242C27.9507 33.4644 27.972 33.4088 27.9934 33.3533C28.0148 33.2978 28.0318 33.2636 28.0404 33.238L28.1301 33.2935V33.3277C28.1147 33.3704 28.1047 33.4149 28.1002 33.4601C28.0919 33.5081 28.0919 33.5573 28.1002 33.6053C28.1075 33.65 28.1251 33.6924 28.1515 33.7292C28.179 33.7665 28.2158 33.796 28.2582 33.8146C28.2849 33.8208 28.3127 33.8208 28.3394 33.8146C28.458 33.8336 28.5781 33.8422 28.6982 33.8403H29.2023L30.3172 33.8744H30.8853H31.3125L31.0049 33.5882L30.5778 33.1952L29.7491 32.4434L29.2792 32.0163C29.1896 31.9257 29.0857 31.8507 28.9716 31.7941C28.8691 31.7557 28.7965 31.7557 28.7495 31.7941C28.6918 31.8608 28.6469 31.9376 28.6171 32.0205H28.5872L28.4846 31.9949C28.4846 31.9949 28.5103 31.9308 28.5316 31.8796C28.553 31.8283 28.5743 31.7728 28.6 31.7172L28.6641 31.5506C28.6641 31.4994 28.7025 31.4609 28.711 31.4353L28.7538 31.3371L28.7965 31.226C28.7965 31.179 28.8349 31.1277 28.8563 31.0765C28.8786 31.0252 28.8971 30.9724 28.9118 30.9184C28.9198 30.8799 28.9327 30.8426 28.9503 30.8074H28.9759L29.0613 30.8629V30.8971C29.0613 30.9441 29.0271 30.9868 29.0143 31.0338C29.0034 31.0801 29.0034 31.1284 29.0143 31.1747C29.0224 31.2332 29.0412 31.2897 29.0699 31.3413C29.1208 31.4431 29.1903 31.5343 29.2749 31.6104L29.3603 31.7002C29.3945 31.7386 29.4629 31.8027 29.5611 31.8924L29.9883 32.2939C30.1677 32.4691 30.4154 32.7211 30.7315 32.9987L31.0562 33.3063L31.3723 33.6053C31.4705 33.6993 31.556 33.7847 31.6371 33.8574L31.7995 34.0111L31.7482 34.3101L31.7226 34.37L28.8007 34.2589C28.9033 34.3614 29.04 34.4853 29.2023 34.6391C29.3646 34.7928 29.5739 34.9936 29.8302 35.2286L30.1549 35.5318L30.4667 35.8351C30.5649 35.9334 30.6547 36.0145 30.7315 36.0872L30.8981 36.2409L30.8469 36.54L30.8042 36.604Z" fill="#272525"/>
<path d="M31.351 26.9586L31.4706 26.7664C31.5218 26.6809 31.5774 26.5955 31.6286 26.5058L31.7781 26.2751C31.802 26.2304 31.8291 26.1876 31.8593 26.147H31.9148L32.4317 26.4972L32.3548 26.6169H32.3249C32.2619 26.5829 32.1962 26.5544 32.1284 26.5314C32.1015 26.5259 32.0738 26.5266 32.0472 26.5332C32.0206 26.5399 31.9958 26.5524 31.9746 26.5699C31.9047 26.634 31.8456 26.709 31.7995 26.792L31.5176 27.2192L31.2271 27.6848L31.4065 27.8129L31.5304 27.8984L31.6585 27.9838L31.8379 28.1034L32.3591 28.4238L32.5385 28.1376C32.5983 28.0393 32.6538 27.9496 32.7051 27.8727C32.7475 27.8051 32.7833 27.7336 32.8119 27.6591C32.8275 27.6135 32.8275 27.5639 32.8119 27.5182C32.803 27.4776 32.7916 27.4377 32.7777 27.3986C32.7543 27.3723 32.725 27.3518 32.6923 27.3388V27.3003L32.7307 27.2106H32.7564L32.9358 27.3473C32.987 27.39 33.0511 27.4285 33.1195 27.4755C33.1912 27.5207 33.2654 27.5621 33.3416 27.5993L33.5637 27.7189V27.7446L33.4996 27.8257H33.4697C33.4207 27.7941 33.3652 27.7737 33.3074 27.7659C33.2578 27.7597 33.2075 27.7597 33.1579 27.7659C33.1123 27.7833 33.0724 27.8128 33.0426 27.8514C32.9912 27.9106 32.944 27.9734 32.9016 28.0393L32.7393 28.2999C32.6795 28.3981 32.6197 28.4964 32.5556 28.5946L33.0212 28.8894L33.3031 29.0645L33.4996 29.1841L33.6577 29.2738L33.8286 29.3593C33.8414 29.3671 33.8558 29.3719 33.8708 29.3732C33.8857 29.3746 33.9008 29.3725 33.9148 29.3672C33.9288 29.3618 33.9414 29.3533 33.9517 29.3423C33.9619 29.3313 33.9695 29.3181 33.9738 29.3037L34.2301 28.8766C34.3497 28.6843 34.4437 28.5306 34.5035 28.4152C34.554 28.3261 34.59 28.2295 34.6103 28.129C34.6168 28.0951 34.6163 28.0602 34.609 28.0264C34.6016 27.9927 34.5875 27.9607 34.5675 27.9325C34.5183 27.8593 34.4625 27.7907 34.401 27.7275V27.6976L34.4778 27.5737L35.0332 28.0393L35.0588 28.1077L34.9862 28.2187L34.8666 28.4152L34.7299 28.6331L34.6231 28.804L34.0165 29.795C33.9916 29.8307 33.9688 29.8678 33.9482 29.906L33.8456 30.0641L33.7474 30.2264L33.679 30.3375L33.6021 30.2691V30.235C33.6321 30.1837 33.662 30.1324 33.6833 30.0855C33.7064 30.0438 33.7168 29.9963 33.7132 29.9488C33.7038 29.9037 33.6909 29.8594 33.6748 29.8163C33.6335 29.7508 33.578 29.6953 33.5124 29.654L33.4356 29.6028L33.3245 29.5259L33.1622 29.4191L32.9187 29.2696L31.9362 28.6544L31.65 28.475L31.4535 28.3512L31.3125 28.2657L31.1758 28.1931C31.1093 28.1542 31.0348 28.1309 30.958 28.1248C30.9127 28.1174 30.8666 28.1174 30.8213 28.1248C30.7779 28.1437 30.7397 28.1731 30.7102 28.2102C30.6803 28.2529 30.6461 28.2999 30.6162 28.3512H30.5778L30.4838 28.3127L30.5564 28.2016C30.5863 28.1504 30.6205 28.0906 30.659 28.0351L30.7658 27.8599C30.8042 27.8044 30.8298 27.7574 30.8555 27.7232L31.351 26.9586Z" fill="#272525"/>
<path d="M34.5163 23.3661C34.459 23.3189 34.3919 23.2853 34.3198 23.2678C34.2734 23.2572 34.2252 23.2572 34.1788 23.2678C34.143 23.2814 34.1087 23.2986 34.0763 23.3191C34.0249 23.3615 33.9777 23.4087 33.9353 23.46H33.9012L33.8115 23.4045L33.8926 23.3233C33.9342 23.2897 33.9728 23.2526 34.008 23.2123C34.0421 23.1653 34.0806 23.1269 34.1148 23.0841L34.2087 22.9731L34.4223 22.7253L34.5419 22.5843L34.6914 22.4092C34.7384 22.3494 34.7897 22.2939 34.8367 22.2383L34.9563 22.1016C35.1289 21.8896 35.3443 21.7164 35.5885 21.5933C35.8036 21.4839 36.0394 21.4213 36.2805 21.4096C36.516 21.3986 36.7513 21.435 36.9725 21.5164C37.2034 21.6024 37.4173 21.7282 37.6047 21.8881C37.7908 22.0466 37.9483 22.2359 38.0703 22.4477C38.1909 22.6558 38.2662 22.8871 38.2912 23.1263C38.3162 23.3655 38.2904 23.6074 38.2156 23.8359C38.1233 24.1055 37.9781 24.3538 37.7884 24.5664C37.7628 24.592 37.7329 24.6348 37.6859 24.686L37.5449 24.8483L37.4039 25.0192L37.2929 25.1431L37.0964 25.3738L37.0109 25.4763L36.8913 25.6172L36.7675 25.7625L36.682 25.8607L36.618 25.7796V25.7454C36.6479 25.7112 36.6778 25.6685 36.7162 25.6172C36.7477 25.5777 36.7683 25.5305 36.776 25.4805C36.775 25.4348 36.7648 25.3898 36.7461 25.3481C36.7161 25.2777 36.6726 25.2138 36.618 25.1602L36.5368 25.0833L36.4385 24.9893L36.2933 24.8612L36.0755 24.6775L35.1869 23.9214L35.0545 23.806L34.8666 23.648L34.6701 23.4942L34.5163 23.3661ZM37.5876 24.3485C37.7269 24.1932 37.8278 24.0074 37.8824 23.806C37.9329 23.6254 37.9431 23.4358 37.9123 23.2507C37.8803 23.0608 37.8106 22.8792 37.7072 22.7168C37.4796 22.3503 37.1438 22.0637 36.7461 21.8966C36.5673 21.8229 36.3757 21.7852 36.1822 21.7855C35.9925 21.7893 35.8059 21.8345 35.6355 21.918C35.4481 22.0108 35.2822 22.1417 35.1485 22.3024L34.6359 22.9005L34.8281 23.067C34.8851 23.1126 34.9406 23.1639 34.9947 23.2208C35.0502 23.2721 35.1101 23.3276 35.1784 23.3832L35.439 23.6053L36.2378 24.2887L36.6649 24.6305C36.7632 24.7116 36.8401 24.7714 36.8913 24.8056C36.9426 24.8398 37.0409 24.8868 37.0836 24.8697C37.1474 24.8409 37.2031 24.7969 37.2459 24.7415L37.5876 24.3485Z" fill="#272525"/>
<path d="M39.1853 18.4068C39.1357 18.3513 39.0744 18.3076 39.0059 18.2786C38.9618 18.2584 38.9133 18.2496 38.8649 18.253C38.828 18.2596 38.7921 18.2711 38.7581 18.2872C38.7019 18.3205 38.649 18.3591 38.6001 18.4025H38.5616L38.4805 18.3341V18.3085L38.5744 18.2444C38.6192 18.2159 38.662 18.1845 38.7026 18.1505C38.7496 18.112 38.7923 18.0778 38.8307 18.0394L38.9418 17.9454L39.1896 17.7361L39.3305 17.6165L39.5057 17.467L39.6808 17.3218L39.8175 17.2021C40.0222 17.0221 40.2623 16.8867 40.5223 16.8049C40.7526 16.7319 40.9958 16.7086 41.2357 16.7365C41.4703 16.7634 41.697 16.8375 41.9021 16.9544C42.3346 17.1954 42.6664 17.5833 42.8376 18.0479C42.9234 18.2724 42.9609 18.5125 42.9477 18.7524C42.9344 18.9924 42.8707 19.2268 42.7607 19.4405C42.6236 19.6863 42.4392 19.9026 42.2182 20.077L42.1028 20.1795L41.9363 20.3205L41.7697 20.4614L41.6415 20.5682L41.4108 20.7647L41.3126 20.8502L41.1674 20.9698L41.0264 21.0936L40.9239 21.1791L40.8726 21.0894V21.0509C40.9147 21.0179 40.9546 20.9822 40.9922 20.9441C41.0288 20.9082 41.0565 20.8644 41.0734 20.816C41.0835 20.771 41.0835 20.7243 41.0734 20.6793C41.0554 20.6048 41.0219 20.535 40.9751 20.4742L40.9153 20.3974C40.9153 20.3717 40.8683 20.3333 40.8342 20.2948L40.7103 20.1453L40.5266 19.9275L39.7748 19.0432L39.6637 18.9108L39.5014 18.7229L39.3348 18.5264L39.1853 18.4068ZM42.0601 19.8463C42.224 19.7167 42.3543 19.5497 42.4403 19.3593C42.5194 19.1894 42.5602 19.0042 42.5599 18.8168C42.5572 18.6229 42.5166 18.4313 42.4403 18.253C42.2717 17.8587 41.9871 17.525 41.6244 17.2961C41.4602 17.1892 41.2754 17.1179 41.0819 17.0868C40.8945 17.0606 40.7036 17.0752 40.5223 17.1295C40.322 17.1909 40.137 17.2943 39.9798 17.4328L39.3818 17.9411L39.5484 18.1633L39.6894 18.3384C39.7321 18.3982 39.7876 18.4623 39.8431 18.5306L40.0653 18.7912L40.7445 19.59C40.8897 19.7652 41.005 19.8976 41.0905 19.9958C41.1759 20.0941 41.24 20.1624 41.287 20.2051C41.3091 20.232 41.3363 20.2541 41.3672 20.2703C41.398 20.2864 41.4317 20.2962 41.4664 20.2991C41.5341 20.2789 41.5957 20.2422 41.6458 20.1923L42.0601 19.8463Z" fill="#272525"/>
<path d="M45.0246 13.3917L45.0673 13.4857V13.5156L44.9264 13.6181C44.8868 13.6469 44.8569 13.6872 44.8409 13.7335C44.8341 13.7773 44.8341 13.822 44.8409 13.8659C44.8504 13.9419 44.8767 14.0148 44.9178 14.0795L44.9904 14.2076C44.9904 14.2503 45.0417 14.293 45.0716 14.3486C45.1015 14.4041 45.1442 14.4596 45.1912 14.5365L45.3706 14.8185L45.9345 15.6984L46.1139 15.9804L46.2292 16.1598L46.3147 16.2794L46.3916 16.3819C46.4338 16.4455 46.4892 16.4994 46.5539 16.54C46.5943 16.5594 46.6376 16.5724 46.682 16.5784C46.7309 16.5821 46.7798 16.5717 46.823 16.5485C46.87 16.5229 46.9212 16.4972 46.9725 16.4631H47.0024L47.075 16.54L46.964 16.6126L46.8059 16.7108C46.7552 16.748 46.7024 16.7822 46.6479 16.8133L46.5368 16.886L46.4471 16.9458L46.336 17.0141L46.178 17.1166L46.0199 17.2191L45.9089 17.2918L45.8661 17.1978V17.1636L46.0028 17.0611C46.0421 17.0338 46.072 16.995 46.0883 16.95C46.093 16.906 46.093 16.8616 46.0883 16.8176C46.0844 16.7397 46.0593 16.6644 46.0157 16.5998C46.0157 16.5998 45.9857 16.5485 45.9644 16.5186L45.896 16.4033C45.8704 16.3577 45.8362 16.3022 45.7935 16.2367L45.6397 15.9974L45.0118 15.0235L44.8324 14.7416L44.7042 14.5493C44.6658 14.4938 44.6359 14.4468 44.606 14.4127C44.5814 14.3739 44.5543 14.3368 44.5248 14.3016C44.4851 14.2385 44.4309 14.1858 44.3668 14.1478C44.3254 14.1253 44.2807 14.1094 44.2344 14.1008C44.187 14.0988 44.1399 14.1091 44.0977 14.1307L43.9524 14.2162H43.914L43.8456 14.1393L43.9567 14.0666L44.1148 13.9641L44.2728 13.8616L44.3839 13.7933L44.4736 13.7335L44.5846 13.6608L44.7427 13.5626L44.9007 13.4601L45.0118 13.3875L45.0246 13.3917Z" fill="#272525"/>
<path d="M51.18 10.1837L51.2142 10.282V10.3119C51.1611 10.3369 51.1097 10.3654 51.0604 10.3973C51.0178 10.4184 50.9833 10.4529 50.9622 10.4955C50.9463 10.5367 50.9362 10.5798 50.9323 10.6237C50.9343 10.7004 50.9517 10.776 50.9835 10.8458C50.9835 10.8928 51.022 10.9398 51.0391 10.9825L51.1031 11.1277C51.1231 11.1819 51.153 11.2502 51.1929 11.3328L51.3381 11.6361L51.7653 12.5459C51.855 12.7382 51.9319 12.8962 51.9917 13.0201L52.1454 13.3362L52.265 13.5669L52.3932 13.7847L52.359 13.8189L52.0386 13.9684L51.9575 13.9342L48.8221 12.0333C48.8221 12.0632 48.852 12.1017 48.8691 12.1359C48.8861 12.17 48.9032 12.2128 48.9246 12.264L49.0058 12.4349C49.0342 12.5032 49.0727 12.5844 49.1211 12.6784L49.5483 13.631C49.5483 13.6694 49.591 13.7249 49.6251 13.7933C49.6593 13.8616 49.6892 13.93 49.7234 13.9983L49.8302 14.2076C49.8601 14.2717 49.89 14.3272 49.9113 14.3657C49.9451 14.4324 49.9916 14.4919 50.048 14.5408C50.0873 14.5701 50.1325 14.5905 50.1805 14.6006C50.2226 14.6108 50.2665 14.6108 50.3086 14.6006C50.3684 14.58 50.4269 14.5557 50.4838 14.528H50.5179L50.5777 14.6134L50.4667 14.6647L50.3086 14.7373L50.1506 14.8099L50.0395 14.8655L49.9412 14.9082L49.8216 14.9637L49.655 15.0449L49.4842 15.126L49.3646 15.1816L49.3347 15.0791V15.0491C49.3878 15.0258 49.4392 14.9987 49.4885 14.968C49.5281 14.9443 49.5605 14.9104 49.5824 14.8697C49.6022 14.8309 49.6152 14.789 49.6209 14.7459C49.6212 14.6652 49.6052 14.5853 49.5739 14.5109C49.567 14.4815 49.5569 14.4528 49.544 14.4255C49.544 14.3913 49.5098 14.3486 49.4885 14.3016L49.4073 14.1265C49.3731 14.0581 49.3347 13.9684 49.2834 13.8659L48.7836 12.8151L48.6427 12.5075L48.5444 12.2982C48.5145 12.2384 48.4932 12.1871 48.4718 12.1487C48.4516 12.1074 48.4287 12.0675 48.4034 12.0291C48.3707 11.9666 48.3257 11.9113 48.271 11.8668C48.2334 11.8322 48.188 11.8073 48.1386 11.7941C48.0939 11.7815 48.0466 11.7815 48.0019 11.7941C47.9462 11.813 47.892 11.8358 47.8396 11.8625H47.8054L47.7456 11.777V11.7514L47.8524 11.7087L48.0019 11.6489L48.1471 11.5891L48.2539 11.5464L48.4333 11.4609L48.553 11.4054C48.5939 11.3878 48.6315 11.3633 48.664 11.3328H48.6982C48.7528 11.3911 48.8128 11.4441 48.8776 11.4908C48.9588 11.5549 49.057 11.6275 49.1638 11.7002L49.5141 11.9394L49.89 12.1871C50.3513 12.4719 50.7401 12.7068 51.0562 12.892L51.6756 13.2337L51.6457 13.1653C51.637 13.1399 51.6255 13.1156 51.6115 13.0927C51.5977 13.0577 51.5821 13.0235 51.5645 12.9902C51.5474 12.9475 51.5218 12.892 51.4876 12.8236L50.9964 11.7728C50.9408 11.6532 50.8938 11.5506 50.8511 11.4695L50.7529 11.2559L50.676 11.1107C50.6558 11.0694 50.6329 11.0294 50.6076 10.9911C50.5756 10.9221 50.529 10.8608 50.4709 10.8116C50.4328 10.7857 50.3911 10.7655 50.3471 10.7518C50.3009 10.7395 50.2523 10.7395 50.2061 10.7518L50.0438 10.8202H50.0139L49.9583 10.739V10.7134L50.0609 10.6664L50.2018 10.6109L50.3428 10.5553L50.4496 10.5126L50.6931 10.3973L50.7956 10.3503L50.9323 10.282L51.069 10.2051L51.1672 10.1453L51.18 10.1837Z" fill="#272525"/>
<path d="M58.2369 11.6617C58.0788 11.7642 57.9079 11.8625 57.7285 11.9564C57.5415 12.0523 57.3455 12.1296 57.1433 12.1871C56.8666 12.2701 56.5771 12.302 56.289 12.2811C56.0412 12.2571 55.802 12.1783 55.5884 12.0504C55.3839 11.9261 55.2078 11.7602 55.0715 11.5635C54.7836 11.1388 54.6412 10.6321 54.6657 10.1196C54.6845 9.87818 54.7513 9.64291 54.8622 9.42762C54.9765 9.20565 55.1367 9.01052 55.3321 8.85521C55.5672 8.67915 55.8341 8.55007 56.1181 8.47503L56.3573 8.40668C56.4553 8.37897 56.5553 8.35897 56.6563 8.34688C56.7653 8.33018 56.8751 8.32019 56.9853 8.31698C57.0947 8.3084 57.2047 8.3084 57.3142 8.31698L57.3398 8.36397L57.3996 8.92783L57.2458 8.97482H57.2202C57.1854 8.90641 57.1353 8.84694 57.0738 8.80101C57.0124 8.75509 56.9411 8.72393 56.8657 8.70997C56.6314 8.67619 56.3925 8.69965 56.1694 8.77832C55.8335 8.85212 55.5324 9.03728 55.315 9.30374C55.2462 9.39804 55.1941 9.50353 55.1613 9.61557C55.1229 9.73022 55.1 9.84944 55.0929 9.97012C55.0802 10.098 55.0802 10.2267 55.0929 10.3546C55.1095 10.4844 55.1352 10.6128 55.1698 10.739C55.2286 10.9633 55.3286 11.1748 55.4645 11.3627C55.5775 11.5318 55.7226 11.6769 55.8917 11.7899C56.0542 11.8885 56.2366 11.9498 56.4257 11.9693C56.6239 11.9908 56.8244 11.9719 57.0152 11.9137L57.2245 11.8539C57.3023 11.834 57.3781 11.8069 57.4509 11.7728C57.5158 11.7445 57.5786 11.7116 57.6388 11.6745C57.68 11.6554 57.7175 11.6294 57.7499 11.5976C57.76 11.5778 57.7653 11.5558 57.7653 11.5336C57.7653 11.5113 57.76 11.4893 57.7499 11.4695C57.7499 11.4438 57.7499 11.4097 57.72 11.367L57.6815 11.226C57.6684 11.1754 57.6528 11.1255 57.6346 11.0765L57.5918 10.9483C57.5655 10.8742 57.5248 10.806 57.4722 10.7476C57.4399 10.7168 57.4023 10.6922 57.3612 10.6749C57.3096 10.6594 57.2547 10.6594 57.2031 10.6749L57.0408 10.6792H57.0109L56.9596 10.5639L57.0835 10.5297L57.2586 10.4784L57.4338 10.4272L57.5577 10.393L57.72 10.346L57.8268 10.3119L57.9592 10.2691L58.0959 10.2221L58.1984 10.1922L58.2241 10.3289V10.3588C58.1808 10.3652 58.1399 10.3827 58.1054 10.4097C58.071 10.4367 58.0441 10.4721 58.0276 10.5126C57.9997 10.6089 57.9997 10.7111 58.0276 10.8074C58.0452 10.9067 58.068 11.0051 58.0959 11.1021C58.1215 11.2046 58.1429 11.2815 58.16 11.3328C58.16 11.3883 58.1899 11.4438 58.2112 11.5079C58.2242 11.5488 58.2399 11.5887 58.2582 11.6275L58.2369 11.6617Z" fill="#272525"/>
<path d="M69.779 6.96289V7.06541L69.7576 7.08677C69.6978 7.08677 69.638 7.08677 69.5825 7.08677C69.5339 7.09196 69.4872 7.10802 69.4458 7.13376C69.413 7.16254 69.3843 7.19558 69.3603 7.23201C69.3241 7.30067 69.3037 7.37656 69.3005 7.45413V7.60364C69.3005 7.64636 69.3005 7.70189 69.3005 7.76169C69.3005 7.8215 69.3005 7.89839 69.3005 7.98382C69.3005 8.06926 69.3005 8.18459 69.3005 8.32128L69.2706 9.36785C69.2706 9.50454 69.2706 9.61987 69.2706 9.70104V10.0641C69.2706 10.1026 69.2706 10.1453 69.2706 10.1923C69.2679 10.2686 69.2825 10.3446 69.3133 10.4144C69.3373 10.4534 69.366 10.4893 69.3988 10.5212C69.4379 10.5491 69.4835 10.5668 69.5312 10.5725C69.5881 10.5768 69.6452 10.5768 69.7021 10.5725L69.7277 10.5981V10.7006H68.3309L68.3522 10.5981H68.3821H68.553C68.6002 10.5963 68.6461 10.5815 68.6854 10.5554C68.7194 10.525 68.7496 10.4906 68.7751 10.4529C68.814 10.3866 68.836 10.3118 68.8392 10.235C68.8372 10.2037 68.8372 10.1723 68.8392 10.141C68.8392 10.1026 68.8392 10.0599 68.8392 10.0043C68.8392 9.94879 68.8392 9.88899 68.8392 9.8121C68.8392 9.73521 68.8392 9.64123 68.8392 9.5259L68.8734 8.36827C68.8734 8.23443 68.8734 8.12336 68.8734 8.03508V7.63354C68.8734 7.58656 68.8734 7.54384 68.8734 7.49685C68.8748 7.42202 68.8603 7.34774 68.8307 7.279C68.8089 7.23725 68.78 7.19966 68.7452 7.16793C68.709 7.13767 68.6642 7.11972 68.6171 7.11667C68.5602 7.11211 68.5031 7.11211 68.4462 7.11667L68.4206 7.09104V6.98852H68.5658H68.7538H69.8174L69.779 6.96289Z" fill="#272525"/>
<path d="M76.6906 7.80861L76.665 7.90686H76.6308C76.5744 7.8958 76.5173 7.88866 76.4599 7.8855C76.4128 7.87949 76.365 7.88846 76.3232 7.91113C76.2864 7.93622 76.2533 7.96643 76.225 8.00084C76.1824 8.06355 76.1546 8.13513 76.1438 8.21015C76.1438 8.26568 76.1182 8.31267 76.1096 8.35539C76.1011 8.3981 76.1096 8.45364 76.0755 8.51344C76.0413 8.57324 76.0541 8.64586 76.037 8.73129C76.0199 8.81673 76.0071 8.92779 75.9815 9.06448L75.8192 10.0555C75.785 10.2648 75.7551 10.44 75.738 10.5724C75.7209 10.7048 75.6996 10.8244 75.6825 10.9227C75.6654 11.0209 75.6825 11.1021 75.6526 11.179C75.6227 11.2559 75.6526 11.3413 75.6312 11.431H75.5842L75.234 11.3755L75.1912 11.2986L73.6833 7.95385C73.6858 7.99083 73.6858 8.02793 73.6833 8.06491C73.6774 8.11234 73.6689 8.1594 73.6577 8.20588C73.6577 8.25714 73.6577 8.32121 73.6278 8.39383C73.5979 8.46645 73.6022 8.55188 73.5851 8.65868L73.4142 9.69242C73.4142 9.73941 73.4142 9.79494 73.3843 9.87183C73.3544 9.94872 73.3587 10.0213 73.3501 10.0982C73.3416 10.1751 73.3288 10.252 73.316 10.3289C73.3032 10.4058 73.316 10.4613 73.316 10.504C73.3016 10.5774 73.3016 10.6528 73.316 10.7262C73.3294 10.7705 73.3536 10.8109 73.3864 10.8437C73.4192 10.8765 73.4596 10.9007 73.5039 10.9141C73.5638 10.9337 73.6253 10.948 73.6876 10.9568V10.9825V11.1063H73.5296L73.3587 11.0764L73.1878 11.0508L73.0682 11.0295H72.9614L72.829 11.0081L72.6453 10.9739L72.4574 10.944H72.3292L72.3591 10.8458L72.3933 10.8244C72.4509 10.8368 72.5095 10.844 72.5684 10.8458C72.614 10.8481 72.6594 10.8393 72.7009 10.8201C72.737 10.7975 72.7701 10.7702 72.7991 10.739C72.8449 10.6735 72.8768 10.5994 72.8931 10.5211C72.8931 10.4955 72.9016 10.4656 72.9187 10.4314C72.9187 10.393 72.9187 10.3503 72.9443 10.299C72.97 10.2477 72.9443 10.1837 72.9742 10.1068C73.0041 10.0299 73.0042 9.93591 73.0212 9.82484L73.2092 8.68003C73.2092 8.55188 73.2519 8.44082 73.2647 8.35111C73.2775 8.26141 73.2946 8.18025 73.3032 8.11617C73.3149 8.06262 73.3235 8.00841 73.3288 7.95385V7.81715C73.3403 7.74786 73.3403 7.67714 73.3288 7.60784C73.3149 7.55967 73.2916 7.51468 73.2604 7.47542C73.2273 7.44155 73.1862 7.41657 73.1408 7.4028C73.0846 7.38813 73.0275 7.37672 72.97 7.36863L72.9443 7.343V7.24048L73.0597 7.26611L73.2092 7.30028L73.363 7.33446L73.4783 7.35581L73.6748 7.38999L73.803 7.41135C73.8469 7.41754 73.8914 7.41754 73.9354 7.41135H73.961C73.9739 7.48989 73.9939 7.56709 74.0208 7.64202C74.0507 7.74454 74.0892 7.8556 74.1361 7.97948C74.1831 8.10336 74.2344 8.23578 74.2899 8.37247C74.3455 8.50917 74.4053 8.6544 74.4608 8.79964C74.6715 9.3037 74.8595 9.71805 75.0246 10.0427C75.187 10.3673 75.2938 10.5767 75.3365 10.6706C75.334 10.6465 75.334 10.6222 75.3365 10.598C75.3365 10.5752 75.3365 10.5496 75.3365 10.5211C75.3365 10.4912 75.3365 10.4528 75.3578 10.4101C75.3792 10.3673 75.3578 10.3033 75.3877 10.2264L75.5757 9.08584C75.597 8.95342 75.6184 8.84236 75.6312 8.75265C75.644 8.66295 75.6569 8.58606 75.6654 8.52198C75.6739 8.45791 75.6654 8.40237 75.6654 8.35539C75.6677 8.30985 75.6677 8.26423 75.6654 8.21869C75.683 8.14426 75.683 8.06673 75.6654 7.99229C75.6497 7.95006 75.6266 7.911 75.597 7.87696C75.5643 7.84042 75.521 7.81502 75.4732 7.80434L75.3066 7.77017V7.74454V7.64202V7.62066L75.4219 7.64629L75.5671 7.68046L75.7167 7.71463L75.8277 7.73599L76.0926 7.77871L76.2036 7.80007H76.3574C76.4087 7.80007 76.4599 7.80007 76.5112 7.80007C76.5495 7.80358 76.5882 7.80358 76.6265 7.80007L76.6906 7.80861Z" fill="#272525"/>
<path d="M79.9755 12.674L79.9157 9.92308C79.9157 9.80347 79.9157 9.70095 79.9157 9.61979C79.9157 9.53863 79.9157 9.47028 79.9157 9.41048C79.9184 9.36353 79.9184 9.31646 79.9157 9.26951C79.9157 9.23534 79.9157 9.19689 79.9157 9.16699C79.911 9.08232 79.8937 8.99882 79.8644 8.91923C79.8436 8.86321 79.8132 8.81119 79.7747 8.76545C79.7407 8.72955 79.7001 8.70054 79.6551 8.68002L79.5184 8.62876V8.59886V8.49634L79.6252 8.53905L79.7747 8.59886L79.9328 8.65439L80.0481 8.68856L80.2318 8.75264L80.3557 8.79536L80.5351 8.85516L80.7188 8.91496L80.8426 8.95768L80.7957 9.04738H80.7615C80.679 9.01871 80.5925 9.00286 80.5052 9.0004C80.4368 9.0004 80.3899 9.0602 80.3557 9.16699C80.323 9.28944 80.3114 9.41657 80.3215 9.5429C80.3215 9.70949 80.3215 9.92308 80.3215 10.1794L80.3599 11.2943C80.3599 11.5079 80.3599 11.6958 80.3599 11.8624C80.3599 12.029 80.3599 12.1743 80.3599 12.2896C80.4326 12.1956 80.5223 12.0888 80.6291 11.9607L80.9922 11.5079L81.6927 10.6535C81.8508 10.4528 81.9832 10.2862 82.09 10.158C82.1746 10.0634 82.2425 9.95505 82.2907 9.83765C82.3249 9.73085 82.3206 9.65823 82.2694 9.61552C82.2 9.56354 82.1219 9.52447 82.0387 9.50018L82.0174 9.46601L82.0387 9.36776L82.1583 9.41048L82.3249 9.46601L82.4915 9.52154L82.6111 9.55999L82.7136 9.59416L82.8247 9.6326L82.9785 9.68386C83.0315 9.70209 83.0857 9.71636 83.1408 9.72658L83.2561 9.75648V9.78211L83.2049 9.87609H83.1707L83.0981 9.82483C83.0515 9.81624 83.0037 9.81624 82.9571 9.82483C82.8983 9.83628 82.8419 9.85797 82.7905 9.88891C82.7191 9.93698 82.6532 9.99286 82.594 10.0555C82.5688 10.0883 82.5417 10.1197 82.5129 10.1495C82.4787 10.1837 82.4189 10.2563 82.3335 10.3588L81.9576 10.786L81.2997 11.5719C81.21 11.683 81.1118 11.7941 81.0178 11.9137L80.7359 12.2469L80.5009 12.5245L80.3599 12.6997L80.0567 12.6655L79.9755 12.674Z" fill="#272525"/>
<path d="M87.1135 11.5336L87.0537 11.619H87.0238L86.8657 11.5507C86.8195 11.5387 86.771 11.5387 86.7248 11.5507C86.6806 11.5619 86.6387 11.5807 86.6009 11.6062C86.5406 11.6537 86.4911 11.7133 86.4556 11.7813C86.43 11.8283 86.4087 11.8753 86.383 11.9138L86.3104 12.0547C86.2805 12.1103 86.2506 12.1743 86.2122 12.2555L86.0626 12.5545L85.6056 13.5028L85.4603 13.8018L85.3706 13.9941C85.3706 14.0496 85.3279 14.0923 85.3151 14.1308L85.2638 14.2461C85.2316 14.3173 85.2141 14.3943 85.2126 14.4725C85.2189 14.5164 85.2304 14.5594 85.2468 14.6006C85.2688 14.6437 85.303 14.6793 85.345 14.7032C85.3944 14.7337 85.4457 14.7608 85.4988 14.7843V14.8142L85.4689 14.9167L85.3493 14.8569L85.1784 14.7758L85.0118 14.6946L84.8922 14.6391L84.794 14.5921L84.6786 14.5238L84.5078 14.4426L84.3369 14.3614L84.2216 14.3059L84.2814 14.2205H84.3155C84.3661 14.2478 84.419 14.2707 84.4736 14.2888C84.5198 14.3011 84.5684 14.3011 84.6146 14.2888C84.6577 14.2765 84.6992 14.2593 84.7384 14.2376C84.7996 14.1894 84.8493 14.128 84.8837 14.0581L84.9264 13.977L84.9905 13.8574C85.0161 13.8104 85.046 13.7506 85.0759 13.6822C85.1058 13.6139 85.1528 13.5285 85.1998 13.4259L85.7038 12.3836C85.7636 12.264 85.8149 12.1658 85.8533 12.0804C85.8918 11.9949 85.926 11.9308 85.9516 11.871C85.9772 11.8112 85.9986 11.76 86.0199 11.7173L86.0712 11.5934C86.1011 11.5246 86.1171 11.4505 86.1182 11.3755C86.1158 11.3286 86.1057 11.2824 86.0883 11.2388C86.0671 11.1962 86.0326 11.1617 85.99 11.1406C85.9418 11.1094 85.8919 11.0808 85.8405 11.0552V11.0252L85.8661 10.9227L85.9858 10.9825L86.1566 11.0637L86.3232 11.1449L86.4428 11.2004L86.5411 11.2474L86.6607 11.3072L86.8273 11.3883L86.9981 11.4695L87.1178 11.5293L87.1135 11.5336Z" fill="#272525"/>
<path d="M89.6808 17.3559L89.574 17.2875L89.4245 17.1893L89.2707 17.091L89.1639 17.0227L88.8905 16.8475L88.7837 16.7792L88.6342 16.681L88.4805 16.5827L88.3779 16.5144L88.4505 16.4375H88.4847C88.5424 16.4753 88.6023 16.5095 88.6641 16.54C88.7106 16.5718 88.7659 16.5882 88.8222 16.587C88.8689 16.5807 88.9147 16.5692 88.9589 16.5528C89.0304 16.5188 89.091 16.4655 89.134 16.399L89.1895 16.3264L89.2707 16.2153L89.3775 16.053L89.5057 15.8053L90.1336 14.8313C90.266 14.6263 90.3813 14.4383 90.4839 14.276L90.7103 13.9001L90.659 13.8659L90.266 13.6139L90.014 13.4644C89.9661 13.4364 89.9161 13.4121 89.8645 13.3918C89.8378 13.3852 89.81 13.3852 89.7833 13.3918C89.7248 13.3931 89.6676 13.409 89.6169 13.4381C89.5661 13.4672 89.5235 13.5085 89.4928 13.5584H89.4587L89.3476 13.4857L89.7363 12.9603L89.7833 12.9304H89.8218C89.8641 12.9821 89.9129 13.028 89.967 13.0671C90.0534 13.139 90.1447 13.2047 90.2404 13.2636L90.5351 13.4558L90.7402 13.584L91.3467 13.977L91.5475 14.1051L91.8423 14.2974C91.9448 14.36 92.043 14.4155 92.137 14.464C92.1956 14.4986 92.2589 14.5245 92.325 14.5408V14.575V14.6305L92.0131 15.203L91.8978 15.1261V15.0962C91.9292 15.0472 91.9486 14.9915 91.9545 14.9336C91.9605 14.8758 91.9527 14.8173 91.932 14.763C91.9196 14.737 91.9021 14.7138 91.8807 14.6946L91.7525 14.5878L91.5133 14.4212L91.1246 14.1735L91.0691 14.1393L90.8299 14.4981L90.471 15.0492L89.9328 15.9206C89.8602 16.0359 89.7961 16.1299 89.7534 16.2025L89.6381 16.3819L89.5655 16.5101L89.5014 16.6211C89.4585 16.6875 89.4348 16.7643 89.433 16.8433C89.433 16.8945 89.433 16.9415 89.4587 16.98C89.4819 17.0329 89.5206 17.0776 89.5697 17.1081L89.7363 17.2277V17.2619L89.6936 17.3559H89.6808Z" fill="#272525"/>
<path d="M96.0627 17.4669L95.0802 20.0299C95.0332 20.141 94.9991 20.2349 94.9692 20.3076C94.9393 20.3802 94.9179 20.4528 94.9008 20.5041C94.882 20.5485 94.8663 20.5942 94.8538 20.6407C94.8538 20.6792 94.8282 20.7091 94.8197 20.739C94.7933 20.8205 94.7789 20.9054 94.7769 20.991C94.7738 21.0491 94.7825 21.1073 94.8026 21.1619C94.8177 21.2088 94.8441 21.2513 94.8795 21.2858C94.913 21.3207 94.9487 21.3535 94.9863 21.384V21.4225L94.9307 21.5122H94.9051L94.8239 21.4267C94.7846 21.3862 94.7433 21.3477 94.7001 21.3114L94.5804 21.2089L94.4907 21.132L94.3498 21.0081L94.2473 20.9227L94.102 20.7988C94.0557 20.7551 94.0073 20.7137 93.9568 20.6749L93.8585 20.5852L93.9397 20.5169H93.9696C94.0343 20.5771 94.1096 20.6249 94.1917 20.6578C94.2515 20.6578 94.3199 20.6578 94.3925 20.5639C94.4669 20.4611 94.5245 20.3472 94.5634 20.2264L94.7855 19.6326L94.8923 19.3635L93.9226 18.5092L93.6706 18.6501L93.1153 18.9577C93.0023 19.0161 92.8986 19.0909 92.8077 19.1798C92.7351 19.2653 92.718 19.3336 92.7479 19.3934C92.791 19.4685 92.8475 19.5351 92.9145 19.5899V19.6241L92.859 19.7138L92.7607 19.6326L92.624 19.5173L92.4873 19.3977L92.3933 19.3165L92.3122 19.2482L92.2225 19.167L92.0943 19.0602C92.0548 19.0235 92.0119 18.9906 91.9662 18.962L91.8722 18.8894V18.868L91.9448 18.7997H91.9833C92.0181 18.8321 92.0553 18.8621 92.0943 18.8894C92.134 18.9172 92.1791 18.9361 92.2267 18.9449C92.2846 18.9558 92.344 18.9558 92.4019 18.9449C92.486 18.9276 92.5677 18.9004 92.6454 18.8637L92.7137 18.8338L92.8205 18.7826L93.0085 18.6843L93.316 18.522L93.7731 18.2828L94.4267 17.9368C94.5505 17.8642 94.6744 17.8001 94.8026 17.736L95.1529 17.5523L95.4433 17.4028L95.6313 17.3088L95.9944 17.3985L96.0627 17.4669ZM94.1618 18.4152L94.9863 19.1243L95.533 17.6591L94.1618 18.4152Z" fill="#272525"/>
<path d="M97.8439 24.6733L97.7628 24.5793L97.6432 24.4426C97.5962 24.3956 97.5577 24.3487 97.5193 24.3059L97.4381 24.212L97.2245 23.9642L97.1391 23.8702L97.0238 23.7378L96.9042 23.6011L96.8187 23.5071L96.9042 23.4516H96.9426L97.0836 23.6011C97.1212 23.6428 97.1702 23.6725 97.2245 23.6865C97.2714 23.691 97.3186 23.691 97.3655 23.6865C97.4436 23.6758 97.5166 23.6415 97.5748 23.5883L97.6517 23.5328L97.7585 23.4473L97.9037 23.3235L98.1173 23.1355L98.9717 22.3709C99.1553 22.2085 99.3219 22.0633 99.4629 21.9437L99.7833 21.649L99.7406 21.602L99.433 21.2517C99.3699 21.1756 99.3029 21.1029 99.2322 21.0338C99.1937 20.9938 99.1523 20.9567 99.1083 20.9228C99.087 20.9051 99.0623 20.892 99.0357 20.8843C98.979 20.8719 98.9202 20.8727 98.8639 20.8868C98.8075 20.9009 98.7553 20.9278 98.7111 20.9655H98.6769L98.5915 20.8672L99.1083 20.4657H99.1596H99.1938C99.2242 20.5271 99.2599 20.5857 99.3006 20.6408C99.3604 20.722 99.4287 20.8117 99.5099 20.9057L99.7406 21.1663L99.8986 21.3499L100.373 21.8882L100.535 22.0718L100.766 22.3367C100.84 22.4206 100.918 22.5004 101.001 22.5759C101.049 22.6241 101.102 22.6671 101.159 22.7041V22.7382L101.137 22.7895L100.68 23.2551L100.586 23.1526V23.1184C100.631 23.0802 100.665 23.0319 100.686 22.9777C100.708 22.9234 100.716 22.8647 100.71 22.8066C100.704 22.7795 100.694 22.7535 100.68 22.7297C100.652 22.6822 100.62 22.6366 100.586 22.593C100.528 22.5142 100.465 22.4386 100.398 22.3666L100.095 22.0163L100.052 21.9693L99.7192 22.2513L99.228 22.6784L98.4761 23.3619L98.2241 23.5798L98.0661 23.725L97.9593 23.8232C97.9315 23.8552 97.9016 23.8852 97.8696 23.9129C97.8109 23.9657 97.768 24.0338 97.7457 24.1094C97.7397 24.1562 97.7397 24.2036 97.7457 24.2504C97.752 24.3062 97.776 24.3586 97.814 24.3999C97.8539 24.4562 97.8966 24.5104 97.9422 24.5622V24.5964L97.8781 24.6776L97.8439 24.6733Z" fill="#272525"/>
<path d="M103.769 26.352L103.675 26.3947H103.641L103.538 26.258C103.508 26.2202 103.468 26.1908 103.423 26.1726C103.377 26.1679 103.331 26.1679 103.286 26.1726C103.211 26.1856 103.14 26.2148 103.077 26.258L102.949 26.3349L102.812 26.4203L102.628 26.5399L102.351 26.7321L101.496 27.3216L101.219 27.5096C101.146 27.5566 101.09 27.5993 101.043 27.6335C101.003 27.6592 100.964 27.6877 100.928 27.7189L100.826 27.8001C100.76 27.8407 100.707 27.8983 100.672 27.9667C100.651 28.0067 100.638 28.0501 100.633 28.0948C100.631 28.1428 100.643 28.1904 100.668 28.2315C100.696 28.2832 100.727 28.3331 100.761 28.381V28.4109L100.689 28.4835C100.689 28.4622 100.65 28.4237 100.616 28.3725L100.509 28.2187L100.403 28.0649L100.33 27.9538L100.266 27.8641L100.193 27.7573L100.087 27.5993L99.9841 27.4455L99.9072 27.3387L100.001 27.2917H100.035C100.069 27.343 100.104 27.3857 100.138 27.4284C100.168 27.4656 100.208 27.4936 100.253 27.5096C100.299 27.5144 100.344 27.5144 100.39 27.5096C100.466 27.5001 100.539 27.4738 100.603 27.4327L100.68 27.3814L100.796 27.3088C100.843 27.2832 100.894 27.2447 100.958 27.202L101.193 27.044L102.15 26.3904L102.427 26.2025L102.62 26.0658C102.671 26.0273 102.718 25.9974 102.752 25.9675L102.863 25.8863C102.924 25.8417 102.975 25.785 103.013 25.7198C103.034 25.6782 103.048 25.6335 103.055 25.5873C103.056 25.541 103.044 25.4953 103.021 25.4549C102.996 25.4079 102.966 25.3567 102.931 25.3054V25.2712L103.008 25.1986C103.008 25.2242 103.047 25.2584 103.081 25.3097L103.188 25.4635C103.222 25.519 103.26 25.5702 103.295 25.6215L103.367 25.7283L103.427 25.818C103.427 25.818 103.465 25.8778 103.504 25.9248C103.542 25.9718 103.572 26.0273 103.606 26.0828L103.713 26.2366C103.747 26.2879 103.773 26.3221 103.786 26.3477L103.769 26.352Z" fill="#272525"/>
<path d="M106.327 30.7005C106.453 30.9417 106.527 31.2065 106.545 31.478C106.556 31.7211 106.516 31.9639 106.43 32.1913C106.339 32.4132 106.207 32.616 106.041 32.7894C105.698 33.1433 105.248 33.3733 104.76 33.4429C104.517 33.4773 104.269 33.4605 104.033 33.3936C103.797 33.3266 103.577 33.211 103.388 33.0542C103.173 32.8722 102.998 32.6465 102.876 32.3921C102.748 32.1503 102.674 31.8836 102.658 31.6104C102.648 31.3728 102.687 31.1356 102.773 30.9141C102.861 30.6965 102.993 30.5 103.162 30.3374C103.525 29.9822 103.992 29.7518 104.495 29.6796C104.737 29.649 104.982 29.6664 105.217 29.7308C105.451 29.7949 105.669 29.9102 105.853 30.0683C106.054 30.2435 106.215 30.4589 106.327 30.7005ZM103.145 32.2853C103.235 32.4756 103.368 32.6424 103.534 32.7723C103.684 32.8907 103.859 32.9739 104.046 33.0158C104.241 33.0523 104.441 33.0523 104.636 33.0158C104.848 32.9849 105.053 32.9185 105.242 32.8193C105.438 32.7236 105.617 32.5966 105.772 32.4434C105.913 32.3039 106.026 32.1386 106.105 31.9564C106.178 31.7778 106.212 31.5854 106.204 31.3925C106.195 31.1822 106.139 30.9764 106.041 30.7902C105.953 30.6049 105.824 30.4415 105.665 30.3118C105.52 30.1935 105.349 30.1115 105.165 30.0726C104.975 30.0339 104.779 30.0339 104.589 30.0726C104.376 30.1105 104.17 30.1795 103.978 30.2776C103.767 30.3785 103.575 30.5142 103.41 30.6792C103.267 30.8168 103.155 30.9827 103.081 31.1661C103.013 31.3401 102.982 31.5264 102.991 31.7129C103.001 31.9125 103.053 32.1077 103.145 32.2853Z" fill="#272525"/>
<path d="M109.454 39.0517H109.356H109.322C109.322 38.9962 109.288 38.9406 109.267 38.8894C109.249 38.8454 109.219 38.807 109.181 38.7783C109.142 38.7569 109.101 38.7411 109.057 38.7313C108.983 38.7143 108.905 38.7143 108.831 38.7313L108.686 38.7655L108.532 38.8082C108.472 38.8082 108.404 38.8424 108.318 38.8723L107.998 38.9705L107.02 39.2995L106.52 39.4575L106.187 39.5686L105.939 39.654L105.738 39.7266L105.708 39.6882L105.601 39.3507L105.653 39.2781L107.968 36.4332L107.857 36.4673L107.72 36.5058L107.541 36.5613L107.284 36.6382L106.281 36.95L106.11 37.0013L105.888 37.0739L105.67 37.1465L105.503 37.2106C105.433 37.233 105.367 37.2694 105.311 37.3174C105.275 37.3517 105.249 37.3943 105.234 37.4413C105.223 37.4833 105.223 37.5275 105.234 37.5694C105.242 37.6319 105.257 37.6934 105.277 37.7531V37.7873L105.183 37.8343C105.183 37.8087 105.183 37.7659 105.149 37.7147C105.114 37.6634 105.114 37.6079 105.097 37.5481C105.076 37.4938 105.059 37.4381 105.046 37.3815L105.008 37.2661L104.978 37.1636L104.939 37.0355C104.918 36.9767 104.899 36.9168 104.884 36.8561C104.862 36.7963 104.845 36.7365 104.828 36.6767C104.812 36.6364 104.799 36.595 104.79 36.5528H104.892H104.922C104.922 36.6211 104.965 36.6724 104.982 36.7194C105.002 36.7612 105.031 36.7978 105.067 36.8262C105.102 36.8515 105.141 36.869 105.183 36.8774C105.262 36.8934 105.343 36.8934 105.422 36.8774H105.512L105.64 36.839L105.828 36.7835L106.101 36.698L107.208 36.3563L107.528 36.258L107.75 36.1854L107.908 36.1342L108.036 36.0872C108.103 36.0629 108.164 36.0251 108.216 35.9761C108.256 35.9453 108.287 35.9039 108.305 35.8565C108.318 35.8118 108.318 35.7645 108.305 35.7198C108.296 35.6617 108.282 35.6045 108.263 35.5489V35.5148L108.352 35.4678H108.378C108.378 35.4934 108.378 35.5319 108.408 35.5831L108.446 35.7326C108.446 35.7867 108.459 35.838 108.485 35.8864C108.485 35.9377 108.506 35.9761 108.515 36.0017L108.574 36.1897C108.574 36.2196 108.574 36.2623 108.609 36.3136C108.623 36.3575 108.643 36.3992 108.668 36.4374V36.4673C108.603 36.5149 108.542 36.5678 108.485 36.6254L108.237 36.8774L107.955 37.1935C107.853 37.3046 107.754 37.4199 107.66 37.5353C107.302 37.9624 107.015 38.2999 106.806 38.5904L106.379 39.1542H106.451H106.528L106.639 39.1201L106.81 39.0645L107.921 38.7228L108.241 38.6245L108.463 38.5519L108.621 38.4964L108.75 38.4494C108.809 38.4349 108.864 38.4069 108.911 38.3676C108.957 38.3283 108.994 38.2789 109.019 38.223C109.032 38.1755 109.032 38.1253 109.019 38.0778C109.019 38.0222 108.993 37.9667 108.976 37.9112V37.8813L109.066 37.8343H109.091C109.091 37.8599 109.091 37.8984 109.121 37.9453C109.151 37.9923 109.143 38.0436 109.155 38.0949L109.194 38.2401C109.194 38.2871 109.215 38.3255 109.22 38.3512L109.301 38.6075C109.301 38.6331 109.301 38.6673 109.335 38.7142C109.348 38.7639 109.365 38.8125 109.386 38.8595C109.386 38.9107 109.425 38.9577 109.442 39.0047L109.484 39.1115L109.454 39.0517Z" fill="#272525"/>
</g>
<defs>
<clipPath id="clip0">
<rect width="134.191" height="100" fill="white" transform="translate(0.654602)"/>
</clipPath>
</defs>
</svg>
