<svg width="91" height="100" viewBox="0 0 91 100" fill="none" xmlns="http://www.w3.org/2000/svg">
<g clip-path="url(#clip0)">
<path d="M54.4733 4.34319C54.4728 4.33317 54.4728 4.32313 54.4733 4.31311C54.4754 4.29312 54.4754 4.27297 54.4733 4.25297C54.4659 4.23307 54.4558 4.21428 54.4433 4.19712L51.0967 0.077355L51.0495 0.0429877H51.0237C50.9951 0.026047 50.9625 0.017142 50.9292 0.0172123H39.6525C39.6193 0.0177357 39.5868 0.0265998 39.558 0.0429877H39.5322L39.4892 0.077355L36.1513 4.15846C36.1379 4.17664 36.1278 4.19699 36.1212 4.2186C36.1169 4.23842 36.1169 4.25893 36.1212 4.27875C36.1212 4.27875 36.1212 4.27875 36.1212 4.30882V4.35178V4.38185C36.1212 4.38185 36.1212 4.38185 36.1212 4.40333L45.0954 14.5116H45.1254H45.1512C45.1839 14.5305 45.2209 14.5409 45.2586 14.5417C45.2963 14.5403 45.3331 14.53 45.366 14.5116H45.3961L54.3745 4.40333V4.38185C54.3753 4.37184 54.3753 4.36178 54.3745 4.35178C54.3896 4.36139 54.4075 4.36576 54.4254 4.36421C54.4432 4.36266 54.4601 4.35527 54.4733 4.34319ZM39.588 0.631526L41.577 5.63196L36.6883 4.18424L39.588 0.631526ZM53.8977 4.18424L49.0089 5.63196L50.9936 0.631526L53.8977 4.18424ZM42.2987 5.74795L45.293 0.640118L48.27 5.74795H42.2987ZM48.313 6.17754L45.293 13.8199L42.2558 6.17754H48.313ZM41.7618 6.13887L44.6228 13.3474L36.9761 4.72552L41.7618 6.13887ZM48.7898 6.13887L53.6056 4.72552L45.9417 13.3474L48.7898 6.13887ZM48.5922 5.47301L45.6667 0.429619H50.6113L48.5922 5.47301ZM44.9192 0.429619L41.9766 5.47301L39.9704 0.429619H44.9192Z" fill="#272525"/>
<path d="M38.5055 60.757C38.5038 60.7441 38.5038 60.7311 38.5055 60.7183L38.3766 59.9579L38.2005 59.7861C37.7572 59.7871 37.3141 59.7656 36.873 59.7217C36.5024 59.6965 36.1464 59.5669 35.8463 59.3479C35.591 59.1184 35.3697 58.8537 35.189 58.5618C34.9293 58.0263 34.7956 57.4385 34.7981 56.8434C34.768 56.4954 34.7465 56.169 34.7337 55.8596C34.7208 55.5503 34.7036 55.1852 34.6907 54.747C34.6778 54.3088 34.6649 53.7675 34.6649 53.1103V47.6072C34.9714 47.3482 35.2927 47.1072 35.6272 46.8855C35.9136 46.6965 36.2186 46.486 36.5422 46.254H36.7184C37.1823 46.9528 37.8009 47.8478 38.5742 48.9389L40.8424 52.1695C41.5842 53.2291 42.2458 54.1599 42.8271 54.9618C42.9818 55.1723 43.3469 55.589 43.4672 55.7523C44.2629 54.9911 45.2859 54.5114 46.3798 54.3862C43.749 51.2321 41.2965 47.9334 39.0339 44.5056L42.5221 40.9228C43.5159 39.9347 44.3608 39.0484 45.0567 38.2636C45.7526 37.4775 46.3455 36.7944 46.8653 36.2102C47.3851 35.626 47.8104 35.1491 48.1755 34.7711C48.4697 34.4507 48.8048 34.1705 49.1722 33.9377C49.6645 33.6234 50.213 33.4075 50.7874 33.3019C51.4275 33.173 51.9344 33.0656 52.3125 32.9754L52.4886 32.8035V32.026L52.3125 31.8499C51.8829 31.91 51.5564 31.953 51.2643 31.983C50.9722 32.0131 50.7058 32.0389 50.461 32.0689C50.2143 32.0981 49.9661 32.1125 49.7178 32.1119H46.6677C45.3742 32.1216 44.0817 32.034 42.8014 31.8499L42.5866 32.026V32.8121L42.8014 32.984L43.6605 33.1601C43.9184 33.2108 44.1673 33.2991 44.3994 33.4222C44.6123 33.5342 44.7985 33.691 44.945 33.8818C45.1011 34.1036 45.1782 34.3714 45.1641 34.6422C45.1641 35.0489 44.7431 35.7992 43.9011 36.8932C42.9267 38.1272 41.8765 39.2994 40.7565 40.403C39.7083 41.4512 38.6243 42.4407 37.5045 43.3715C36.5976 44.1477 35.642 44.8652 34.6434 45.5194V39.9519C34.6434 39.2818 34.652 38.709 34.6692 38.2336C34.6692 37.7653 34.695 37.3744 34.7122 37.0092C34.7294 36.6441 34.7465 36.2832 34.7766 35.8751C34.7741 35.28 34.9079 34.6922 35.1675 34.1568C35.3482 33.8648 35.5695 33.6001 35.8248 33.3706C36.1249 33.1516 36.4809 33.022 36.8515 32.9969C37.2926 32.9529 37.7357 32.9314 38.179 32.9324L38.3551 32.7606L38.5055 32.026L38.4152 31.983H27.8258L27.7399 32.026L27.8688 32.8121L28.0879 32.984C28.5183 32.9833 28.9485 33.0048 29.3767 33.0484C29.7401 33.0766 30.0883 33.2061 30.3819 33.4222C30.6425 33.6594 30.8694 33.9311 31.0564 34.2298C31.3292 34.7483 31.4764 35.3236 31.486 35.9095C31.5117 36.2574 31.5375 36.6097 31.5504 36.9577C31.5633 37.3056 31.5504 37.7266 31.5504 38.2207V53.6301C31.5504 54.2143 31.5504 54.7083 31.5504 55.1165C31.5504 55.5246 31.5203 55.8639 31.5074 56.1389C31.4945 56.4138 31.5074 56.6587 31.5074 56.8606C31.5069 57.4599 31.3594 58.0499 31.0778 58.579C30.8875 58.8687 30.6609 59.1329 30.4034 59.3651C30.1098 59.5812 29.7616 59.7107 29.3981 59.7388C28.97 59.7825 28.5398 59.804 28.1094 59.8033L27.8903 59.9751L27.7614 60.7613L27.8473 60.8042H38.4324L38.5055 60.757Z" fill="#272525"/>
<path d="M54.976 59.9579L54.7139 59.7861C53.855 59.6969 53.0073 59.5213 52.1836 59.262C51.5125 59.0437 50.8738 58.7359 50.2848 58.3469C49.9552 58.1218 49.6409 57.8749 49.344 57.608C48.7565 57.6438 48.1826 57.7999 47.6579 58.0667C47.1332 58.3334 46.669 58.7052 46.2939 59.1589C46.6089 59.4837 46.951 59.7812 47.3164 60.0481C47.7952 60.4102 48.335 60.6837 48.9102 60.8557C49.5502 61.0267 50.211 61.1077 50.8734 61.0963C51.3373 61.0963 51.9774 61.0662 52.7936 61.0061C53.6099 60.9502 54.3359 60.9202 54.976 60.9202L55.0619 60.744L54.976 59.9579Z" fill="#272525"/>
<path d="M44.7559 61.5388C44.7282 62.2399 44.8759 62.9368 45.1855 63.5664C45.506 64.1414 45.9634 64.6283 46.5172 64.9841C47.2235 65.4489 47.9856 65.8227 48.7854 66.0967C49.7005 66.4318 50.7873 66.7884 52.0374 67.1664C53.1114 67.5187 54.1854 67.9096 55.225 68.3478C56.2408 68.7654 57.1891 69.3315 58.0388 70.0275C58.8667 70.709 59.5428 71.5562 60.0235 72.5148C60.5478 73.6254 60.8024 74.8442 60.7667 76.0718C60.8112 77.3836 60.5152 78.6845 59.9075 79.8479C59.3473 80.8572 58.5533 81.7175 57.592 82.3567C56.5748 83.0236 55.4432 83.4969 54.2541 83.7529C52.943 84.0469 51.6026 84.1911 50.2589 84.1825C48.5951 84.2007 46.9364 83.9955 45.3272 83.5725C43.9388 83.2032 42.5915 82.6937 41.3063 82.0517L41.1344 81.4846L41.8733 76.815H42.9688L43.1836 77.0771C43.3296 78.8527 44.0456 80.1543 45.3315 80.982C46.6174 81.8097 48.363 82.225 50.5682 82.2278C52.8393 82.2278 54.5491 81.7109 55.6975 80.677C56.2634 80.1718 56.7109 79.548 57.0079 78.8499C57.3049 78.1519 57.4442 77.3969 57.4159 76.6389C57.4483 75.7426 57.22 74.8562 56.7586 74.0871C56.3132 73.3915 55.728 72.7961 55.0403 72.3387C54.2789 71.8384 53.4576 71.4357 52.5959 71.1401L49.825 70.1778C48.7193 69.8234 47.6337 69.409 46.573 68.9363C45.6327 68.5237 44.7514 67.9877 43.9525 67.3425C43.1779 66.7227 42.5592 65.9302 42.1459 65.0283C41.7326 64.1264 41.5363 63.1402 41.5726 62.1488C41.536 60.951 41.7833 59.7616 42.2943 58.6777C42.756 57.756 43.4377 56.9622 44.279 56.3665C45.1684 55.7497 46.1694 55.312 47.226 55.0777C48.4226 54.8067 49.6464 54.674 50.8732 54.6825C52.3676 54.6722 53.859 54.8162 55.3238 55.1121C56.4937 55.3325 57.6351 55.6841 58.7262 56.1603L58.9023 56.6415L58.2923 60.5078H57.0636L56.8488 60.2887C56.8196 59.6099 56.5571 58.962 56.1056 58.4543C55.6677 57.9896 55.1402 57.6184 54.5548 57.3632C53.9428 57.0985 53.2962 56.922 52.6346 56.8391C52.0335 56.7589 51.4281 56.7158 50.8217 56.7102C48.9315 56.7102 47.448 57.1255 46.3711 57.956C45.8314 58.3773 45.4022 58.9236 45.1208 59.5478C44.8394 60.172 44.7141 60.8553 44.7559 61.5388Z" fill="#272525"/>
<path d="M5.47852 45.8502L2.32533 46.138L1.97736 46.1724L1.74109 46.1982H1.57784H1.46185C1.36405 46.2123 1.26865 46.2397 1.17832 46.2798C1.11664 46.3093 1.06008 46.3484 1.01078 46.3958C0.972647 46.4366 0.943392 46.4849 0.924864 46.5376C0.924864 46.5891 0.890497 46.645 0.877609 46.6965L0.843242 46.7223H0.727252H0.701477C0.713284 46.6799 0.727629 46.6383 0.744436 46.5977C0.766211 46.5386 0.784853 46.4784 0.800283 46.4173C0.800283 46.3528 0.83465 46.2927 0.847538 46.2326C0.861462 46.1888 0.872936 46.1444 0.881905 46.0994L0.937752 45.8846L0.976415 45.7385C0.976415 45.6698 1.01508 45.5968 1.03226 45.5237C1.04945 45.4507 1.07092 45.3777 1.08811 45.3132L1.12677 45.1672L1.23417 45.2144V45.2531C1.20696 45.3494 1.19678 45.4497 1.2041 45.5495C1.2041 45.6268 1.28142 45.6784 1.40171 45.7127C1.5439 45.7368 1.68911 45.7368 1.8313 45.7127L2.55731 45.644L3.84608 45.5151L4.49476 45.455L4.99308 45.4034L4.62364 45.107L4.07376 44.7247L3.01697 43.9901L2.61745 43.7152C2.50576 43.6335 2.40265 43.5605 2.30814 43.5004H2.09335C2.0249 43.5107 1.95832 43.5309 1.89574 43.5605C1.83157 43.5875 1.77431 43.6286 1.7282 43.6808C1.67156 43.7441 1.62908 43.8188 1.60362 43.8999L1.56925 43.9257H1.45326H1.42748C1.42748 43.8956 1.44896 43.8526 1.47044 43.7968C1.49192 43.7409 1.50911 43.6851 1.52629 43.6249C1.54347 43.5648 1.55636 43.5004 1.57355 43.4445C1.59073 43.3887 1.59932 43.3457 1.60791 43.3156L1.65946 43.1051L1.69813 42.9634C1.69813 42.9032 1.73249 42.8345 1.74968 42.7615C1.76686 42.6884 1.78404 42.624 1.80123 42.5596L1.83989 42.4178L1.94729 42.465V42.5037C1.94054 42.555 1.94054 42.607 1.94729 42.6584C1.94712 42.7138 1.95582 42.7689 1.97306 42.8216C1.99249 42.8716 2.02007 42.9181 2.05469 42.9591C2.09033 42.9976 2.13673 43.0245 2.18786 43.0364C2.21896 43.0436 2.25127 43.0436 2.28237 43.0364C2.42592 43.0354 2.56932 43.0268 2.71196 43.0106C2.8752 43.0106 3.06852 42.972 3.29191 42.9505L4.58068 42.8216L5.22936 42.7615L5.72768 42.7142L5.33246 42.4307C5.17781 42.3233 4.99738 42.1944 4.77829 42.0483L3.70861 41.3223L3.11148 40.8927C2.99496 40.803 2.86429 40.7333 2.72485 40.6865C2.60456 40.6565 2.51864 40.6865 2.47568 40.7295C2.41904 40.8125 2.3796 40.906 2.3597 41.0044H2.32533H2.20504C2.20504 40.9744 2.20504 40.9271 2.23941 40.8627C2.27378 40.7982 2.27378 40.7338 2.29096 40.6694L2.34251 40.4717C2.34251 40.4073 2.37258 40.3601 2.37688 40.33L2.41984 40.2183C2.41984 40.1882 2.41984 40.1453 2.45421 40.0894C2.48857 40.0336 2.48428 39.9691 2.49716 39.909C2.51375 39.8468 2.52666 39.7837 2.53583 39.72C2.53583 39.6598 2.53583 39.6126 2.5616 39.5868H2.59167L2.69907 39.634V39.6727C2.69907 39.7286 2.6733 39.7844 2.6647 39.836C2.65427 39.8899 2.65427 39.9453 2.6647 39.9992C2.68318 40.0658 2.71376 40.1284 2.75492 40.1839C2.82053 40.2592 2.89562 40.3256 2.97831 40.3815L3.09 40.4675C3.13296 40.5061 3.21888 40.5706 3.34346 40.6608L3.88474 41.056L4.83843 41.7476L5.26802 42.0483L5.67184 42.3405L6.01121 42.5896L6.22171 42.74V43.088V43.1653L2.84943 43.4789C2.97831 43.5777 3.15014 43.7023 3.36064 43.8526L4.1382 44.4326L4.56779 44.729L4.9716 45.0254L5.31098 45.2746L5.52577 45.4249V45.7729L5.47852 45.8502Z" fill="#272525"/>
<path d="M4.99736 34.4059C5.02314 34.3543 5.0618 34.277 5.11765 34.1739L5.2723 33.8603L5.41836 33.5768C5.44028 33.5234 5.46613 33.4717 5.49569 33.4221H5.56442L6.18733 33.7658L6.1143 33.9119H6.07993C6.00492 33.8796 5.92732 33.8537 5.84795 33.8345C5.81662 33.8307 5.78483 33.8342 5.75504 33.8446C5.72525 33.855 5.69825 33.8722 5.67612 33.8947C5.60227 33.9765 5.54142 34.0693 5.49569 34.1696L5.22075 34.7152L4.93722 35.2779L5.15631 35.4025L5.31096 35.4884L5.46132 35.5744L5.68471 35.6904L6.31191 36.004C6.37205 35.888 6.43219 35.772 6.48804 35.656L6.65129 35.3338C6.6936 35.2533 6.72674 35.1683 6.75009 35.0803C6.76671 35.0257 6.76671 34.9674 6.75009 34.9128C6.73489 34.8684 6.71621 34.8253 6.69424 34.7839C6.66731 34.7383 6.62675 34.7022 6.57826 34.6808V34.6379L6.61692 34.5305H6.64269L6.86608 34.6679C6.93052 34.7066 7.00355 34.7496 7.08947 34.7925C7.17539 34.8355 7.2699 34.8827 7.35152 34.9171L7.62216 35.0245V35.0546L7.55772 35.1534H7.53195C7.47097 35.1205 7.4035 35.1014 7.33433 35.0975C7.27742 35.0884 7.21941 35.0884 7.1625 35.0975C7.12384 35.0975 7.08517 35.1448 7.03792 35.2049C6.98618 35.2786 6.94022 35.3561 6.90045 35.4369L6.7415 35.7505C6.68136 35.8708 6.62121 35.9868 6.56107 36.1114L7.12813 36.3949L7.46751 36.5667L7.70378 36.6827L7.8971 36.7686L8.099 36.846C8.11355 36.8562 8.13034 36.8629 8.14799 36.8654C8.16564 36.8679 8.18362 36.8661 8.20044 36.8602C8.21726 36.8543 8.23242 36.8445 8.24467 36.8316C8.25692 36.8186 8.26589 36.8029 8.27084 36.7858L8.52 36.2875C8.64029 36.0555 8.72621 35.8579 8.78635 35.7247C8.83511 35.6186 8.86699 35.5056 8.88086 35.3896C8.88589 35.3093 8.86145 35.2299 8.81212 35.1663C8.74607 35.0893 8.67426 35.0175 8.59733 34.9515V34.9171L8.67036 34.7667L9.3577 35.2436L9.39207 35.3166C9.37191 35.3638 9.34896 35.4097 9.32334 35.4541C9.28897 35.5228 9.25031 35.6044 9.20305 35.6904L9.07417 35.9567C9.02692 36.0426 8.99255 36.1114 8.96678 36.1629L8.33528 37.3743L8.27084 37.5075L8.17203 37.7008C8.13767 37.7696 8.1076 37.834 8.07323 37.8942C8.05325 37.94 8.03028 37.9845 8.00449 38.0273L7.90569 37.9586V37.9156C7.93729 37.8591 7.96457 37.8002 7.98731 37.7395C8.00172 37.686 8.00172 37.6297 7.98731 37.5763C7.97312 37.5267 7.95292 37.4791 7.92717 37.4345C7.87542 37.3611 7.80597 37.302 7.72526 37.2627L7.63075 37.2111L7.49758 37.1338L7.29997 37.0307L7.00785 36.8846L5.81788 36.2875L5.46991 36.1114L5.22934 35.9911L5.05751 35.9094L4.91145 35.845C4.83263 35.8064 4.74572 35.7873 4.65799 35.7892C4.60511 35.7935 4.55307 35.8051 4.50334 35.8235C4.45573 35.8502 4.41578 35.8887 4.38735 35.9352C4.35298 35.9868 4.32291 36.0426 4.28854 36.1071H4.25417L4.13818 36.0856C4.13818 36.0598 4.17255 36.0125 4.20692 35.9524L4.30572 35.7505C4.34439 35.6775 4.37875 35.6044 4.41312 35.5357L4.49904 35.3725L4.99736 34.4059Z" fill="#272525"/>
<path d="M8.50712 29.6418C8.43646 29.595 8.35784 29.5615 8.27514 29.543C8.21984 29.532 8.16291 29.532 8.1076 29.543C8.06887 29.5633 8.03155 29.5863 7.99591 29.6117C7.94046 29.6641 7.89011 29.7216 7.84555 29.7835H7.80689L7.69949 29.7277V29.7019C7.72699 29.6681 7.75716 29.6364 7.78971 29.6074C7.83415 29.564 7.87442 29.5166 7.90999 29.4656L8.02598 29.311L8.12908 29.1778L8.35247 28.8814L8.48135 28.7096L8.6403 28.4991L8.79924 28.2929L8.91953 28.1253C9.10186 27.8721 9.33255 27.6574 9.59828 27.4938C9.83737 27.3528 10.104 27.2649 10.3801 27.2361C10.6515 27.2069 10.926 27.2318 11.1878 27.3091C11.7314 27.4748 12.1996 27.826 12.5109 28.3014C12.6586 28.5288 12.7608 28.7826 12.8116 29.0489C12.8585 29.3263 12.8453 29.6105 12.773 29.8823C12.6908 30.1954 12.5445 30.488 12.3434 30.7415C12.3219 30.7759 12.2832 30.8231 12.236 30.8833L12.0856 31.0852L11.9353 31.2871C11.888 31.3515 11.845 31.4031 11.8193 31.4418L11.6088 31.7167L11.5185 31.837L11.3897 32.0131C11.3424 32.069 11.2995 32.1291 11.2565 32.1849L11.1663 32.3052L11.0847 32.2193C11.1211 32.1716 11.1541 32.1213 11.1835 32.069C11.2183 32.0212 11.2391 31.9647 11.2436 31.9057C11.2415 31.8534 11.2283 31.8022 11.2049 31.7554C11.1639 31.6758 11.1069 31.6056 11.0374 31.5492L10.9558 31.4804L10.8183 31.3601L10.6422 31.2227L10.3801 31.0251L9.31475 30.226L9.1558 30.1057L8.92812 29.9339L8.69185 29.7578L8.50712 29.6418ZM12.0985 30.5353C12.248 30.3466 12.3524 30.1262 12.4035 29.8909C12.4508 29.6802 12.4508 29.4616 12.4035 29.2508C12.353 29.0348 12.2611 28.8305 12.1329 28.6494C11.9906 28.4505 11.8182 28.2751 11.6217 28.1296C11.4257 27.9792 11.2066 27.8617 10.973 27.7816C10.7626 27.706 10.5387 27.6753 10.3157 27.6914C10.0981 27.708 9.8868 27.7725 9.69709 27.8805C9.48461 27.997 9.29993 28.1582 9.1558 28.353L8.61022 29.0747C8.70473 29.1606 8.78636 29.2294 8.85509 29.2809L9.057 29.4442C9.12144 29.5 9.19876 29.5601 9.28038 29.6203L9.58969 29.8566L10.5563 30.5826L11.046 30.952C11.1663 31.0379 11.2565 31.0981 11.3209 31.1367C11.3848 31.1849 11.4649 31.2065 11.5443 31.1969C11.6159 31.1582 11.6765 31.1021 11.7205 31.0336L12.0985 30.5353Z" fill="#272525"/>
<path d="M13.8427 23.3612C13.7842 23.2985 13.7122 23.25 13.6322 23.2194C13.5803 23.199 13.5246 23.1902 13.4689 23.1936C13.4252 23.2028 13.3831 23.2188 13.3443 23.2409C13.2809 23.2803 13.2219 23.3264 13.1682 23.3784H13.1252L13.0307 23.301V23.2753L13.1381 23.1979L13.2842 23.0819L13.426 22.9531L13.5505 22.8414L13.8255 22.5879L13.9844 22.4461L14.1777 22.27L14.3753 22.0939L14.5257 21.9521C14.7527 21.7447 15.0184 21.5841 15.3076 21.4796C15.5663 21.3853 15.8422 21.3468 16.1169 21.3668C16.3916 21.3868 16.6589 21.4648 16.9013 21.5956C17.4057 21.858 17.8012 22.2901 18.0183 22.8156C18.1258 23.07 18.1784 23.3443 18.1725 23.6205C18.1665 23.8966 18.1023 24.1684 17.9839 24.418C17.8419 24.7152 17.6401 24.9799 17.3911 25.1955L17.2622 25.3115L17.0775 25.4791L16.8885 25.6509L16.7467 25.7798L16.4889 26.016L16.3772 26.1148L16.2183 26.2609L16.055 26.407L15.9434 26.5101L15.8789 26.407V26.3683L16.0121 26.2351C16.0522 26.1942 16.0817 26.144 16.098 26.0891C16.1079 26.0365 16.1079 25.9826 16.098 25.9301C16.069 25.8467 16.027 25.7684 15.9734 25.6981L15.9004 25.6165C15.8746 25.5822 15.8445 25.5435 15.8016 25.4962C15.7586 25.449 15.7157 25.3931 15.6555 25.3287L15.4364 25.0838L14.5386 24.1001L14.4054 23.9497L14.2121 23.7392L14.0145 23.5244C13.9329 23.4471 13.8813 23.3955 13.8427 23.3612ZM17.2063 24.9163C17.3907 24.7589 17.5375 24.5622 17.6359 24.3406C17.7206 24.1412 17.7602 23.9256 17.7519 23.7091C17.742 23.4873 17.688 23.2697 17.593 23.0691C17.491 22.8459 17.3548 22.64 17.1892 22.459C17.0181 22.2709 16.8179 22.1113 16.5963 21.9865C16.4017 21.8764 16.187 21.8063 15.9648 21.7803C15.749 21.7538 15.53 21.7773 15.3247 21.849C15.0958 21.9265 14.8862 22.0525 14.7104 22.2185L14.0403 22.8285C14.1176 22.9273 14.1863 23.0089 14.2422 23.0733L14.4097 23.271C14.4656 23.3397 14.5257 23.4127 14.5944 23.4858L14.8608 23.7779L15.6684 24.6714L16.098 25.101C16.1968 25.2084 16.2784 25.2857 16.3343 25.3373C16.3901 25.3888 16.4889 25.4447 16.5405 25.4361C16.6186 25.4131 16.6887 25.3684 16.7424 25.3072L17.2063 24.9163Z" fill="#272525"/>
<path d="M20.729 17.1836L20.7763 17.291V17.3297L20.613 17.4456C20.5699 17.4814 20.536 17.5271 20.5142 17.5788C20.5093 17.6288 20.5093 17.6792 20.5142 17.7292C20.5283 17.8178 20.5604 17.9027 20.6087 17.9783C20.6388 18.0299 20.6646 18.0814 20.6947 18.1244L20.7892 18.2833L20.9266 18.4981L21.1414 18.8203L21.8073 19.8256L22.0178 20.1478L22.1553 20.3497L22.2541 20.4871C22.2814 20.5278 22.3116 20.5666 22.3443 20.6031C22.393 20.6778 22.4576 20.7408 22.5333 20.7879C22.581 20.8095 22.6317 20.824 22.6837 20.8308C22.7393 20.8336 22.7945 20.8201 22.8426 20.7922L23.0144 20.689H23.0488L23.1304 20.775L23.0016 20.8609L22.8211 20.9769L22.6106 21.1358L22.4861 21.2217L22.383 21.2905L22.2541 21.3721L22.0736 21.4924L21.8932 21.6127L21.7686 21.6943L21.7214 21.5869V21.5482C21.7777 21.5127 21.8308 21.4724 21.8803 21.4279C21.9243 21.3957 21.9573 21.3507 21.9748 21.2991C21.9823 21.2478 21.9823 21.1957 21.9748 21.1444C21.9647 21.0568 21.9338 20.9728 21.8846 20.8995L21.8288 20.805C21.8288 20.7707 21.7815 20.7234 21.7472 20.6719C21.7128 20.6203 21.6784 20.5602 21.6269 20.4871L21.4464 20.2122L20.7118 19.0996L20.5013 18.7774L20.3467 18.554L20.2393 18.3993L20.1448 18.2748C20.0949 18.2034 20.0305 18.1434 19.9558 18.0986C19.9089 18.0732 19.858 18.0558 19.8054 18.0471C19.7511 18.0436 19.697 18.0571 19.6508 18.0857C19.5913 18.1147 19.5339 18.1477 19.4789 18.1845H19.436L19.3543 18.0986L19.4789 18.0127L19.6593 17.8967L19.8441 17.7764L19.9687 17.6905L20.0718 17.6218L20.1963 17.5402L20.3768 17.4199C20.4412 17.3812 20.5013 17.3382 20.5572 17.2996L20.6861 17.218L20.729 17.1836Z" fill="#272525"/>
<path d="M28.1952 13.3173L28.2296 13.4247V13.4633L28.0492 13.5535C28.004 13.5804 27.9669 13.619 27.9418 13.6652C27.9199 13.7126 27.9068 13.7635 27.9031 13.8156C27.902 13.9032 27.9211 13.99 27.959 14.069L28.0191 14.228C28.0406 14.2795 28.0621 14.3354 28.0921 14.3998C28.1222 14.4643 28.1523 14.5416 28.1952 14.6361C28.2382 14.7306 28.2897 14.8423 28.3542 14.9884L28.8353 16.0366C28.9384 16.26 29.0243 16.4662 29.0931 16.5864C29.1618 16.7067 29.2177 16.8485 29.2649 16.9516C29.3122 17.0547 29.3594 17.1406 29.4024 17.2179L29.5441 17.4714L29.484 17.5272L29.1103 17.6948L29.02 17.6518L25.433 15.4308C25.4537 15.4693 25.471 15.5096 25.4845 15.5511L25.549 15.7015L25.6177 15.8948L25.7466 16.174L26.2492 17.2738L26.3351 17.4628L26.4511 17.7034L26.5671 17.9397L26.6616 18.1244C26.7004 18.2006 26.7528 18.269 26.8163 18.3263C26.8594 18.3621 26.9113 18.3858 26.9666 18.395C27.0142 18.4096 27.0651 18.4096 27.1127 18.395C27.1814 18.3732 27.2488 18.3474 27.3146 18.3177H27.3575L27.422 18.4165L27.2974 18.4766L27.1127 18.5583L26.9322 18.6442L26.8034 18.7L26.6917 18.7516L26.5542 18.816L26.3566 18.9062L26.159 18.9964L26.0215 19.0566L25.9871 18.9406L26.0086 18.9062C26.0774 18.8719 26.1375 18.8418 26.1848 18.8117C26.232 18.786 26.2707 18.7472 26.2964 18.7C26.319 18.6572 26.3335 18.6106 26.3394 18.5626C26.3425 18.4696 26.3249 18.3772 26.2879 18.2919L26.2535 18.1888C26.2535 18.1502 26.2191 18.1029 26.1933 18.047L26.0988 17.8451L25.9614 17.5444L25.4072 16.333C25.3428 16.1955 25.2912 16.0752 25.244 15.9807C25.1967 15.8862 25.1666 15.8046 25.1323 15.7359C25.0979 15.6671 25.0764 15.6113 25.0506 15.564C25.0289 15.5169 25.0045 15.471 24.9776 15.4265C24.9375 15.3562 24.8868 15.2924 24.8272 15.2375C24.7816 15.1994 24.7291 15.1703 24.6726 15.1516C24.6203 15.1392 24.5659 15.1392 24.5136 15.1516C24.4508 15.1726 24.3891 15.1969 24.3289 15.2246H24.2903L24.2215 15.1258V15.1215L24.3461 15.07L24.5179 15.0013L24.6855 14.9368L24.8101 14.8853L25.0206 14.7908L25.1537 14.7306C25.2002 14.7094 25.2436 14.682 25.2826 14.649H25.3213C25.3858 14.7151 25.4547 14.7768 25.5275 14.8337C25.622 14.9067 25.7294 14.9884 25.854 15.0743L26.2578 15.3535L26.6874 15.6413C27.2115 15.9893 27.654 16.2643 28.0191 16.4662L28.7279 16.8657C28.7279 16.8356 28.7022 16.8098 28.6936 16.7841L28.6592 16.7024L28.6033 16.5821C28.6033 16.5349 28.5518 16.4705 28.5174 16.3888L27.9633 15.1774L27.8 14.8251L27.6711 14.606C27.6411 14.5416 27.611 14.4857 27.5852 14.4385C27.5594 14.3912 27.538 14.344 27.5122 14.2967C27.4751 14.2171 27.4208 14.1466 27.3532 14.0905C27.3106 14.0591 27.2626 14.0358 27.2115 14.0218C27.1578 14.0095 27.1019 14.0095 27.0482 14.0218L26.8635 14.0991H26.8291L26.7647 14.0003V13.9702L26.885 13.923L27.0482 13.8585L27.2115 13.7984L27.3361 13.7469L27.6196 13.618L27.7356 13.5664L27.8945 13.4848L28.0492 13.3989L28.1652 13.3344L28.1952 13.3173Z" fill="#272525"/>
<path d="M36.6023 15.113C36.4133 15.2247 36.2157 15.3321 36.0052 15.4352C35.7851 15.5367 35.5566 15.6186 35.3222 15.6801C34.9948 15.7682 34.6536 15.793 34.3169 15.7531C34.0327 15.7169 33.7599 15.6186 33.5179 15.4653C33.2882 15.3136 33.0922 15.1162 32.9422 14.8854C32.6185 14.391 32.4674 13.8034 32.5126 13.2143C32.5398 12.935 32.6246 12.6643 32.7618 12.4195C32.9111 12.1685 33.1116 11.9519 33.3503 11.7837C33.6257 11.5891 33.9366 11.4505 34.2654 11.3756L34.5446 11.3026C34.6591 11.2748 34.7754 11.2547 34.8926 11.2424C35.0181 11.2286 35.1443 11.2214 35.2706 11.221C35.3964 11.21 35.5229 11.21 35.6486 11.221L35.6744 11.2768L35.726 11.9298L35.5455 11.9727H35.5155C35.4788 11.8927 35.424 11.8223 35.3554 11.7671C35.2868 11.712 35.2063 11.6735 35.1202 11.6548C34.8522 11.6068 34.5766 11.6245 34.3169 11.7064C33.9259 11.7838 33.5712 11.9875 33.3074 12.2863C33.2269 12.3935 33.1632 12.5123 33.1184 12.6386C33.0743 12.7712 33.044 12.9079 33.0281 13.0467C33.014 13.1896 33.014 13.3335 33.0281 13.4763C33.0419 13.6211 33.0664 13.7647 33.1012 13.9059C33.1632 14.1662 33.2709 14.4134 33.4191 14.6362C33.5467 14.8263 33.7102 14.9897 33.9002 15.1173C34.0838 15.2343 34.2904 15.3105 34.5059 15.3407C34.734 15.3726 34.966 15.3595 35.189 15.3021L35.4338 15.2376C35.5232 15.2155 35.6108 15.1868 35.6959 15.1517L35.915 15.0486C35.9615 15.0258 36.0049 14.9969 36.0439 14.9627C36.0555 14.9401 36.0616 14.9151 36.0616 14.8897C36.0616 14.8642 36.0555 14.8392 36.0439 14.8166C36.0439 14.7866 36.0439 14.7436 36.0095 14.692C35.9751 14.6405 35.9837 14.5889 35.9708 14.5288C35.9579 14.4687 35.9408 14.4171 35.9236 14.357L35.8763 14.2109C35.8501 14.1241 35.8062 14.0437 35.7474 13.9746C35.7108 13.9383 35.6688 13.9079 35.6229 13.8844C35.5623 13.8684 35.4987 13.8684 35.4381 13.8844L35.2191 13.9274H35.1804L35.1288 13.7942L35.2749 13.7555L35.4768 13.704L35.6787 13.6524L35.8248 13.6181L36.0138 13.5708L36.1341 13.5364L36.293 13.4892L36.4477 13.4419L36.568 13.4076L36.5937 13.5665L36.568 13.5966C36.5177 13.6043 36.4701 13.6244 36.4296 13.6552C36.3891 13.6859 36.3569 13.7263 36.336 13.7727C36.3072 13.8826 36.3072 13.998 36.336 14.1078C36.336 14.2152 36.3789 14.3312 36.4047 14.4515C36.4305 14.5718 36.4563 14.6577 36.4692 14.7178C36.482 14.778 36.5035 14.851 36.525 14.924C36.5371 14.9716 36.5544 15.0177 36.5766 15.0615L36.6023 15.113Z" fill="#272525"/>
<path d="M55.457 11.1995L55.414 11.3112L55.384 11.3326C55.3187 11.3188 55.2528 11.3088 55.1864 11.3026C55.131 11.2937 55.0743 11.3012 55.0231 11.3241C54.9798 11.3528 54.9395 11.3859 54.9028 11.4229C54.8505 11.493 54.8139 11.5736 54.7954 11.6591C54.7954 11.7193 54.7654 11.7751 54.7525 11.8267C54.7396 11.8782 54.7224 11.9341 54.7095 12.0028C54.6966 12.0715 54.6751 12.1575 54.6537 12.2563C54.6322 12.3551 54.6064 12.4797 54.5763 12.6343L54.3315 13.8157C54.3014 13.9703 54.2756 14.0949 54.2541 14.1937C54.2327 14.2925 54.2198 14.3698 54.2112 14.4343C54.2026 14.4987 54.2112 14.5546 54.1811 14.6018C54.151 14.6491 54.1811 14.692 54.1811 14.7479C54.1607 14.834 54.1607 14.9238 54.1811 15.0099C54.2001 15.0571 54.2246 15.1018 54.2541 15.1431C54.2921 15.1848 54.3414 15.2147 54.3959 15.229C54.4589 15.2512 54.5236 15.2684 54.5892 15.2806V15.3107V15.4309L54.4432 15.4009L54.2327 15.3579L54.0179 15.3149L53.8718 15.2806H53.7472L53.6012 15.2505L53.3864 15.2033L53.1759 15.1603L53.0298 15.1302L53.0728 15.0185H53.1114L53.3048 15.0486C53.3591 15.0542 53.4139 15.0453 53.4637 15.0228C53.5085 14.9958 53.5502 14.9642 53.5883 14.9283C53.644 14.8581 53.6823 14.7756 53.7 14.6877C53.7055 14.6527 53.7141 14.6182 53.7258 14.5846C53.7258 14.5417 53.7258 14.4944 53.7644 14.4343C53.8031 14.3741 53.7945 14.3011 53.8117 14.2152L53.8761 13.893L54.1425 12.6042L54.2198 12.2219C54.2198 12.1188 54.2584 12.0329 54.2713 11.9598C54.2842 11.8868 54.2971 11.8224 54.3057 11.7708C54.3143 11.7193 54.3057 11.6677 54.3057 11.6162C54.3222 11.531 54.3222 11.4436 54.3057 11.3584C54.2884 11.3079 54.2638 11.2601 54.2327 11.2167C54.1959 11.1756 54.1482 11.1458 54.0952 11.1307C54.0331 11.1114 53.97 11.0956 53.9062 11.0835L53.8804 11.0491V10.9288L54.0265 10.9589L54.2413 11.0019L54.4518 11.0448L54.6021 11.0749L54.7224 11.1007L54.8728 11.1307L55.0833 11.1737L55.2938 11.2167L55.4441 11.2467L55.457 11.1995Z" fill="#272525"/>
<path d="M62.1629 13.197L62.1328 13.3173H62.0942C62.0309 13.2961 61.9663 13.2789 61.9009 13.2658C61.8493 13.2484 61.7935 13.2484 61.7419 13.2658C61.6952 13.2841 61.6528 13.3119 61.6173 13.3474C61.5557 13.4109 61.5088 13.4872 61.4799 13.5708L61.4197 13.7297L61.351 13.9016C61.351 13.9703 61.2994 14.0476 61.2694 14.1464C61.2393 14.2452 61.1963 14.3612 61.1448 14.5116L60.7753 15.607C60.698 15.839 60.6336 16.0366 60.5863 16.1827C60.5391 16.3287 60.4961 16.4576 60.4617 16.565C60.4274 16.6724 60.4016 16.7669 60.3801 16.8528C60.3586 16.9388 60.3329 17.0333 60.3114 17.1364H60.2555L59.8689 17.0075L59.8302 16.9087L58.6961 12.8405C58.6844 12.8828 58.67 12.9244 58.6532 12.965L58.5973 13.1154C58.5973 13.1755 58.5544 13.2443 58.5286 13.3259L58.4298 13.618L58.0431 14.7607C58.0431 14.8123 58.0045 14.8767 57.9787 14.9583C57.9529 15.04 57.9229 15.1216 57.8971 15.2118L57.8369 15.4653C57.8143 15.5299 57.7956 15.5959 57.7811 15.6629C57.7531 15.7442 57.7443 15.831 57.7553 15.9163C57.761 15.9689 57.7797 16.0192 57.8097 16.0627C57.8397 16.1062 57.8801 16.1415 57.9272 16.1655C57.993 16.1961 58.0604 16.2233 58.1291 16.2471L58.1548 16.2815L58.1334 16.3975L58.0002 16.3502L57.8069 16.2901L57.6179 16.2256L57.4847 16.1784L57.3687 16.1397L57.2226 16.0925L57.0207 16.0237L56.8145 15.955L56.6685 15.9034L56.7243 15.796H56.763L56.9563 15.8519C57.0085 15.8648 57.063 15.8648 57.1152 15.8519C57.1603 15.8361 57.2024 15.8128 57.2398 15.7832C57.306 15.7175 57.3573 15.6384 57.3902 15.5512C57.4068 15.5193 57.4212 15.4863 57.4331 15.4524C57.4537 15.4049 57.4709 15.3561 57.4847 15.3063C57.5062 15.2462 57.5319 15.1774 57.5577 15.0958C57.5835 15.0142 57.6221 14.9068 57.6608 14.7822L58.0904 13.5192C58.142 13.3732 58.1806 13.2529 58.215 13.1541C58.2494 13.0553 58.2794 12.9693 58.3009 12.8963C58.3224 12.8233 58.3439 12.7674 58.361 12.7159L58.3997 12.5612C58.4162 12.4833 58.4162 12.4029 58.3997 12.325C58.3956 12.2659 58.3779 12.2086 58.3482 12.1574C58.3168 12.1123 58.2737 12.0767 58.2236 12.0543L58.0389 11.9813V11.9469V11.8309L58.0603 11.8094L58.1849 11.861L58.3524 11.9254L58.52 11.9942L58.6446 12.0457L58.8637 12.1188L59.0054 12.166C59.054 12.1826 59.1046 12.1928 59.1558 12.1961L59.1816 12.2219C59.18 12.314 59.1872 12.406 59.203 12.4968C59.203 12.6171 59.246 12.7503 59.2761 12.9006C59.3061 13.051 59.3405 13.2056 59.3792 13.3775C59.4178 13.5493 59.4522 13.7125 59.4952 13.8801C59.6412 14.4944 59.7744 14.997 59.9033 15.3965C60.0321 15.796 60.1095 16.0538 60.1438 16.1698C60.1438 16.1397 60.1438 16.1139 60.1739 16.0882C60.1876 16.0605 60.1991 16.0317 60.2083 16.0022L60.2469 15.8777C60.2469 15.8304 60.2899 15.7617 60.3157 15.6801L60.7453 14.4171C60.7925 14.271 60.8355 14.1507 60.8698 14.0476C60.9042 13.9445 60.93 13.8629 60.9515 13.7942C60.973 13.7254 60.9901 13.661 61.0073 13.6094L61.046 13.4591C61.0777 13.3756 61.0866 13.2851 61.0718 13.197C61.0605 13.1464 61.0432 13.0974 61.0202 13.051C60.9858 13.0082 60.9416 12.9743 60.8913 12.9522C60.8297 12.9231 60.7666 12.8972 60.7023 12.8748V12.8448V12.7288V12.7073L60.8269 12.7545L60.9858 12.819L61.1491 12.8877L61.2737 12.935L61.5658 13.0338L61.6904 13.0724C61.7452 13.0928 61.8011 13.11 61.8579 13.124L62.0297 13.167L62.1586 13.197H62.1629Z" fill="#272525"/>
<path d="M64.1305 18.9277L64.5601 15.7874C64.5601 15.65 64.5902 15.534 64.5988 15.4438C64.6074 15.3535 64.6203 15.2719 64.6246 15.2032C64.628 15.1488 64.628 15.0943 64.6246 15.0399V14.9197C64.6387 14.8228 64.6387 14.7244 64.6246 14.6275C64.611 14.5615 64.5847 14.4988 64.5472 14.4428C64.5173 14.3948 64.476 14.355 64.4269 14.3268C64.3798 14.2957 64.331 14.267 64.2809 14.2409V14.2022L64.3238 14.0948V14.0734L64.4398 14.1421C64.4916 14.178 64.5462 14.2096 64.6031 14.2366L64.7706 14.3225L64.8952 14.387L65.0928 14.4901L65.226 14.5588L65.4236 14.6576L65.6169 14.7607L65.7501 14.8294L65.6813 14.9282H65.6384C65.551 14.8777 65.4548 14.8442 65.3549 14.8294C65.2818 14.8294 65.2131 14.8767 65.1572 14.9884C65.0984 15.1246 65.0635 15.2699 65.0541 15.418C65.0327 15.607 65.0026 15.8476 64.9639 16.144L64.8093 17.4328C64.7792 17.6733 64.7534 17.8881 64.7277 18.0771C64.7019 18.2662 64.6804 18.4337 64.6675 18.5755L65.0284 18.2533C65.1701 18.1287 65.3334 17.9783 65.5224 17.7979L66.4718 16.9387L67.0088 16.4404C67.1219 16.3492 67.2178 16.2387 67.2923 16.1139C67.3524 15.9965 67.3524 15.9106 67.2923 15.8562C67.2239 15.7839 67.1422 15.7256 67.0517 15.6843V15.6457L67.0947 15.534C67.1205 15.534 67.1634 15.5726 67.2236 15.5984L67.404 15.6929L67.5844 15.7874L67.7133 15.8519L67.825 15.9077L67.9453 15.9722L68.1128 16.0581C68.1684 16.0874 68.2258 16.1132 68.2847 16.1354L68.4135 16.1869V16.217L68.3448 16.3158H68.3018L68.1558 16.2428C68.1032 16.2252 68.048 16.2165 67.9925 16.217C67.9242 16.2198 67.8571 16.2359 67.7949 16.2643C67.7046 16.3056 67.6195 16.3575 67.5415 16.4189L67.4341 16.5091C67.3882 16.5435 67.3066 16.6122 67.1892 16.7153L66.6866 17.1449L65.8016 17.9268L65.4193 18.2662L65.0413 18.5969L64.7277 18.8719L64.5343 19.048L64.1993 18.9578L64.1305 18.9277Z" fill="#272525"/>
<path d="M71.6182 18.3134L71.5366 18.3993H71.4979C71.4426 18.3618 71.3852 18.3274 71.3261 18.2962C71.2776 18.2686 71.2229 18.2538 71.1671 18.2533C71.097 18.2614 71.0298 18.2858 70.9708 18.3246C70.9119 18.3634 70.8629 18.4155 70.8277 18.4767L70.7246 18.6141L70.6172 18.7602L70.4712 18.9707L70.2564 19.2929L69.5819 20.2938L69.3671 20.616L69.2297 20.8179L69.1437 20.964C69.118 21.0027 69.0965 21.0456 69.0707 21.0886C69.0186 21.1623 68.9861 21.248 68.9762 21.3377C68.9693 21.3876 68.9693 21.4382 68.9762 21.4881C68.9979 21.5398 69.0318 21.5855 69.075 21.6213L69.234 21.7415V21.7759L69.1824 21.8876L69.0578 21.806L68.8774 21.6857L68.697 21.5611L68.5767 21.4795L68.4736 21.4108L68.349 21.3248L68.1686 21.2046L67.9881 21.0843L67.8636 20.9984L67.9495 20.9124H67.9881L68.16 21.0155C68.2078 21.0404 68.2608 21.0536 68.3146 21.0542C68.366 21.0448 68.4164 21.0304 68.465 21.0112C68.5432 20.9697 68.6096 20.9091 68.6583 20.8351L68.7227 20.7449L68.813 20.6203C68.8516 20.5731 68.8946 20.5086 68.9418 20.4399L69.1266 20.165L69.8654 19.048L70.0802 18.7258C70.1404 18.6399 70.1876 18.5626 70.2263 18.5024L70.3294 18.3392C70.3577 18.2948 70.3835 18.2489 70.4067 18.2017C70.4566 18.132 70.4877 18.0507 70.4969 17.9654C70.504 17.9127 70.504 17.8592 70.4969 17.8065C70.4771 17.7549 70.4446 17.7091 70.4024 17.6733C70.3517 17.6317 70.2986 17.5929 70.2435 17.5573V17.5144L70.295 17.407L70.4196 17.4886L70.6001 17.6089L70.7805 17.7335L70.9051 17.8151L71.0082 17.8838L71.1327 17.9697L71.3132 18.09L71.4936 18.2103L71.6182 18.2962V18.3134Z" fill="#272525"/>
<path d="M72.8726 24.7916L72.7652 24.6971L72.6019 24.5597C72.5461 24.5124 72.4945 24.4652 72.443 24.4265L72.3356 24.332L72.0478 24.0871L71.9404 23.9969L71.7814 23.8594L71.6225 23.7263L71.5151 23.6318L71.6096 23.5544H71.6525C71.7041 23.5974 71.7642 23.6446 71.8373 23.6962C71.8866 23.7395 71.9481 23.7666 72.0134 23.7735C72.0677 23.779 72.1224 23.779 72.1766 23.7735C72.2625 23.7475 72.3387 23.6967 72.3957 23.6275L72.4731 23.5501L72.5762 23.4384L72.7265 23.2709L72.937 23.0174L73.7962 22.0036C73.9809 21.7888 74.1442 21.5955 74.2816 21.4237L74.5995 21.0327L74.5437 20.9855L74.1141 20.6375C74.011 20.5473 73.9208 20.4743 73.852 20.4227L73.6931 20.3196C73.665 20.3034 73.6346 20.2918 73.6029 20.2853C73.5358 20.2807 73.4686 20.2919 73.4067 20.318C73.3448 20.3441 73.2899 20.3844 73.2463 20.4356H73.2077L73.0917 20.3411L73.6158 19.7612L73.6759 19.7311H73.7189C73.76 19.7969 73.8091 19.8575 73.8649 19.9115C73.9582 20.0103 74.0572 20.1035 74.1614 20.1907C74.2688 20.281 74.3719 20.3669 74.4664 20.4528L74.6812 20.6332L75.3084 21.1702C75.3556 21.2046 75.4243 21.2647 75.5232 21.3506L75.8325 21.6084C75.9275 21.6954 76.0295 21.7744 76.1375 21.8447C76.1992 21.8923 76.2671 21.9313 76.3394 21.9607V22.0036V22.0638L75.9098 22.6695L75.7938 22.5664V22.532C75.8367 22.4801 75.8669 22.4189 75.8818 22.3532C75.8967 22.2876 75.896 22.2193 75.8797 22.154C75.8724 22.1236 75.8576 22.0956 75.8368 22.0723C75.7964 22.0215 75.7518 21.974 75.7036 21.9306C75.6434 21.8704 75.5618 21.7931 75.4544 21.7029L75.0506 21.3592L74.9948 21.312L74.664 21.6857C74.5308 21.8404 74.3633 22.0294 74.1742 22.2571L73.3537 23.1979C73.2549 23.3182 73.169 23.417 73.1046 23.49L72.9499 23.6833L72.8468 23.8122L72.7566 23.9325C72.6965 23.9994 72.6589 24.0836 72.6492 24.173C72.6423 24.2272 72.6423 24.2821 72.6492 24.3363C72.6644 24.4007 72.7007 24.4581 72.7523 24.4995C72.8124 24.5597 72.8726 24.6112 72.9241 24.6585V24.7014L72.864 24.8002L72.8726 24.7916Z" fill="#272525"/>
<path d="M79.4282 25.1783L77.9332 27.9706C77.8645 28.0909 77.8087 28.194 77.7657 28.2756L77.6583 28.4904C77.6282 28.5505 77.6025 28.5978 77.5853 28.6407C77.5681 28.6837 77.5509 28.7181 77.5337 28.7481C77.4924 28.8353 77.4634 28.9279 77.4478 29.0231C77.4347 29.0912 77.4347 29.1612 77.4478 29.2293C77.4606 29.2842 77.4856 29.3356 77.5208 29.3796C77.5541 29.4247 77.5899 29.4677 77.6282 29.5085V29.5515L77.5552 29.646H77.5251C77.4943 29.612 77.4656 29.5761 77.4392 29.5386C77.4041 29.486 77.3638 29.4371 77.3189 29.3925L77.1943 29.2508L77.1041 29.152L76.9624 28.993L76.8593 28.877L76.7132 28.7138C76.6616 28.6579 76.6101 28.6064 76.5671 28.5505L76.464 28.4388L76.5671 28.3744H76.6015C76.6668 28.452 76.7454 28.5175 76.8335 28.5677C76.9022 28.6021 76.9795 28.5677 77.0741 28.4904C77.1768 28.385 77.261 28.263 77.3232 28.1295C77.4091 27.9577 77.5251 27.7429 77.6626 27.4852L77.8215 27.1887L76.8378 26.0976L76.5285 26.2265L75.8497 26.4971C75.7124 26.5457 75.5834 26.6153 75.4674 26.7033C75.3729 26.7892 75.3385 26.8665 75.3643 26.9396C75.4051 27.0318 75.4618 27.1162 75.5318 27.1887V27.2274L75.4588 27.3219L75.36 27.2145L75.2225 27.0599L75.0851 26.9052L74.9862 26.7978L74.9046 26.7076L74.8101 26.6045L74.6855 26.4627C74.6426 26.4155 74.5953 26.3725 74.5524 26.3296L74.4536 26.2393V26.2136L74.5481 26.1448H74.591C74.6275 26.1856 74.6662 26.2243 74.707 26.2608C74.7476 26.2993 74.7959 26.3286 74.8488 26.3467C74.913 26.3651 74.9796 26.3738 75.0464 26.3725C75.1456 26.365 75.2436 26.3463 75.3385 26.3167H75.4201L75.549 26.2694L75.781 26.1835L76.1504 26.046L76.7046 25.8355L77.5036 25.5348L77.9633 25.363L78.3929 25.2083C78.5218 25.1568 78.6421 25.1138 78.7452 25.0794L78.9685 24.9935L79.3724 25.1525L79.4282 25.1783ZM77.1213 25.9816L77.9805 26.9138L78.8182 25.3243L77.1213 25.9816Z" fill="#272525"/>
<path d="M79.8362 32.8894L79.7546 32.7734L79.6386 32.5973L79.5183 32.4255C79.484 32.3696 79.4539 32.331 79.4367 32.3052L79.2262 31.9959L79.1446 31.8756L79.0286 31.7081L78.9126 31.5362L78.831 31.4159L78.9384 31.3644H78.9771C79.0157 31.4202 79.063 31.4847 79.1188 31.5534C79.1565 31.607 79.2086 31.6487 79.2692 31.6737C79.3212 31.6875 79.3744 31.6961 79.4281 31.6995C79.5193 31.6966 79.6075 31.6667 79.6816 31.6136L79.7761 31.562L79.9093 31.4804L80.094 31.3558L80.3646 31.1711L81.4644 30.4236L82.0873 29.994L82.5169 29.6976L82.4782 29.6417L82.1732 29.2121C82.0959 29.0962 82.0271 29.0059 81.9756 28.9372L81.8467 28.7954C81.8249 28.7718 81.7986 28.7529 81.7694 28.7396C81.7064 28.7172 81.639 28.7098 81.5726 28.718C81.5063 28.7262 81.4427 28.7498 81.3871 28.7868H81.3484L81.2668 28.6623L81.9112 28.2756H81.9713L82.01 28.2971C82.034 28.3704 82.0657 28.4409 82.1045 28.5076C82.1658 28.6214 82.2332 28.7318 82.3064 28.8384L82.5341 29.1735L82.693 29.4055L83.1355 30.0713C83.1699 30.1143 83.2214 30.1916 83.2944 30.299L83.5221 30.6341C83.5932 30.7417 83.6706 30.845 83.7541 30.9434C83.8012 31.0061 83.8577 31.0611 83.9216 31.1066V31.1496L83.8873 31.2054L83.2987 31.6737L83.2085 31.5405V31.5062C83.2642 31.4675 83.31 31.4162 83.3421 31.3565C83.3743 31.2968 83.3918 31.2303 83.3932 31.1625C83.3904 31.1315 83.3832 31.1012 83.3718 31.0723C83.3718 31.0336 83.3245 30.9778 83.2815 30.9004C83.2386 30.8231 83.1784 30.7329 83.1011 30.6169L82.8004 30.1873L82.7617 30.1272L82.3322 30.4021L81.7093 30.8317L80.7126 31.5104L80.3947 31.7295L80.1928 31.8713C80.1412 31.91 80.094 31.94 80.0596 31.9701L79.9393 32.0603C79.8649 32.1116 79.8068 32.1832 79.7718 32.2665C79.7555 32.3184 79.744 32.3716 79.7374 32.4255C79.7356 32.4901 79.7552 32.5536 79.7933 32.6059C79.8362 32.6832 79.8792 32.752 79.9179 32.8078V32.8508L79.8319 32.9324L79.8362 32.8894Z" fill="#272525"/>
<path d="M85.885 34.7968L85.7733 34.8312H85.7346C85.7061 34.7715 85.6731 34.714 85.6358 34.6594C85.6072 34.6114 85.5655 34.5727 85.5155 34.5477C85.4673 34.5292 85.4167 34.5177 85.3652 34.5133C85.2751 34.516 85.1869 34.5396 85.1074 34.5821L84.9528 34.6508C84.9055 34.6508 84.8497 34.698 84.7895 34.7324L84.5575 34.8484L84.2182 35.0245L83.1442 35.5873L82.8048 35.7634L82.59 35.8794L82.444 35.9653L82.3194 36.0427C82.2394 36.0832 82.1703 36.1421 82.1175 36.2145C82.0915 36.2585 82.0727 36.3064 82.0616 36.3563C82.0523 36.4102 82.0598 36.4657 82.0831 36.5152C82.1046 36.5754 82.1347 36.6355 82.1647 36.6999V36.7343L82.0659 36.8073C82.0659 36.7816 82.0273 36.7343 81.9929 36.6742C81.9585 36.614 81.9285 36.5453 81.8941 36.4808C81.8597 36.4164 81.8254 36.352 81.7953 36.2875L81.7223 36.1544L81.6664 36.047C81.6664 36.0169 81.6277 35.9739 81.5977 35.9095L81.4946 35.7205C81.4602 35.6517 81.4258 35.5916 81.3958 35.5271C81.3657 35.4627 81.3399 35.4198 81.327 35.394L81.443 35.3553H81.4817C81.516 35.4155 81.5461 35.4713 81.5805 35.5229C81.6081 35.5706 81.6502 35.6082 81.7008 35.6303C81.7493 35.6487 81.7997 35.6617 81.8511 35.6689C81.9407 35.6665 82.0287 35.6445 82.1089 35.6045L82.2077 35.5572L82.3452 35.4928L82.5428 35.3897L82.8349 35.2393L84.0163 34.6207L84.3599 34.4403L84.5962 34.3114L84.7595 34.2212L84.8969 34.1353C84.9718 34.0927 85.0375 34.0358 85.0902 33.9677C85.1172 33.9232 85.1388 33.8756 85.1547 33.826C85.1689 33.7725 85.1689 33.7162 85.1547 33.6627C85.1319 33.602 85.1046 33.5432 85.0731 33.4866V33.4436L85.1676 33.3706C85.1676 33.4007 85.2062 33.4436 85.2363 33.5081C85.2664 33.5725 85.3007 33.6327 85.3394 33.6971L85.4382 33.8904L85.5069 34.0236L85.5671 34.1353L85.6358 34.2684C85.6702 34.3286 85.7003 34.393 85.7346 34.4575L85.8377 34.6508C85.8678 34.7152 85.8936 34.7582 85.9065 34.784L85.885 34.7968Z" fill="#272525"/>
<path d="M87.8482 39.2045C87.9603 39.4975 88.0114 39.8103 87.9985 40.1238C87.9808 40.4015 87.9047 40.6723 87.7751 40.9185C87.6453 41.1625 87.4686 41.3786 87.2553 41.5543C87.0346 41.7376 86.7849 41.8828 86.5164 41.9839C86.2493 42.082 85.9675 42.1342 85.683 42.1386C85.4055 42.1428 85.1298 42.0932 84.8711 41.9925C84.6061 41.8835 84.3663 41.7212 84.1666 41.5157C83.734 41.0394 83.5016 40.4147 83.5179 39.7715C83.535 39.4978 83.6112 39.2311 83.7413 38.9897C83.8689 38.7527 84.0444 38.545 84.2568 38.3797C84.4781 38.1973 84.7277 38.0522 84.9957 37.9501C85.2704 37.846 85.5611 37.7908 85.8549 37.7868C86.134 37.7796 86.4117 37.8293 86.6711 37.9329C86.9313 38.0375 87.1658 38.1972 87.3584 38.4011C87.5772 38.6309 87.7441 38.9048 87.8482 39.2045ZM84.0076 40.6049C84.0863 40.8328 84.2156 41.0398 84.3857 41.2106C84.5449 41.364 84.7354 41.4812 84.9441 41.5543C85.1592 41.6294 85.3867 41.6629 85.6143 41.6531C85.8609 41.6419 86.1044 41.5926 86.336 41.5071C86.5715 41.4225 86.792 41.3006 86.989 41.1462C87.1634 41.003 87.3091 40.8281 87.4186 40.6307C87.527 40.4366 87.5915 40.221 87.6076 39.9992C87.6213 39.7563 87.5832 39.5132 87.4959 39.2861C87.4183 39.0635 87.2921 38.8609 87.1264 38.6933C86.9749 38.5417 86.7914 38.4257 86.5894 38.3539C86.378 38.2828 86.1548 38.2537 85.9322 38.268C85.6827 38.2876 85.437 38.341 85.2019 38.4269C84.9506 38.5155 84.7155 38.6447 84.5059 38.8092C84.3289 38.9515 84.1827 39.1284 84.0764 39.329C83.9765 39.5179 83.9179 39.7258 83.9045 39.9391C83.893 40.1657 83.928 40.3924 84.0076 40.6049Z" fill="#272525"/>
<path d="M90.0562 48.2215H89.9403L89.9102 48.1957C89.9102 48.127 89.8801 48.0626 89.8629 47.9981C89.8494 47.9467 89.821 47.9004 89.7813 47.8649C89.7404 47.8347 89.6956 47.8101 89.6481 47.7919C89.5616 47.7753 89.4726 47.7753 89.3861 47.7919H89.2142L89.0338 47.822L88.7804 47.8649L88.398 47.938L87.2639 48.1485L86.6711 48.2645L86.2758 48.3418C86.1642 48.3418 86.0654 48.3891 85.9837 48.4105L85.7045 48.4879L85.6744 48.4363L85.5971 48.0368L85.6658 47.9595L88.673 45.0168H88.5441L88.3851 45.0425L88.1703 45.0855L87.8653 45.1413L86.6797 45.3604L86.4778 45.3991L86.2157 45.4507L85.958 45.5065L85.756 45.5538C85.6728 45.5727 85.594 45.6077 85.5241 45.6569C85.4759 45.6878 85.4384 45.7328 85.4167 45.7857C85.3937 45.8308 85.3847 45.8816 85.3909 45.9318C85.3927 46.004 85.4013 46.076 85.4167 46.1466V46.181L85.3007 46.2239C85.3007 46.1938 85.3007 46.1466 85.2749 46.0864C85.2491 46.0263 85.2749 45.9576 85.2405 45.8888L85.2019 45.6912C85.2019 45.6311 85.1804 45.5838 85.1761 45.5538L85.1546 45.4292C85.1546 45.3991 85.1546 45.3518 85.1245 45.2831L85.0859 45.0683L85.0472 44.8578C85.0472 44.7891 85.0472 44.7375 85.0172 44.7075H85.1374L85.1718 44.7375C85.1718 44.8149 85.2019 44.8793 85.2148 44.9308C85.2325 44.9827 85.2619 45.0297 85.3007 45.0683C85.3365 45.0991 85.3771 45.1238 85.421 45.1413C85.5115 45.1613 85.6053 45.1613 85.6959 45.1413H85.8033L85.958 45.1156L86.177 45.0726L86.4992 45.0125L87.788 44.7676L88.1703 44.6989L88.4324 44.6473L88.6214 44.613L88.7761 44.5743C88.8533 44.5531 88.926 44.5182 88.9909 44.4712C89.0408 44.4386 89.082 44.3943 89.1111 44.3423C89.1371 44.2952 89.1476 44.2411 89.1412 44.1877C89.1366 44.1211 89.1265 44.055 89.1111 43.99V43.9514L89.2228 43.9127H89.2486V44.0459C89.2486 44.106 89.2486 44.1662 89.2701 44.2263C89.2916 44.2865 89.2701 44.3466 89.2701 44.4067C89.2701 44.4669 89.2701 44.5098 89.2701 44.5399L89.3131 44.7676C89.3131 44.802 89.3131 44.8492 89.3431 44.9094C89.3495 44.962 89.3655 45.0129 89.3904 45.0597V45.0941C89.3091 45.1395 89.2316 45.1912 89.1584 45.2487C89.0639 45.3218 88.9608 45.4077 88.8448 45.5065L88.4754 45.8287L88.093 46.1767C87.6334 46.6063 87.2553 46.9671 86.9718 47.2721C86.6883 47.5771 86.4992 47.7747 86.4133 47.8607H86.4992H86.5894L86.7183 47.8349L86.9245 47.7962L88.2348 47.5514L88.6171 47.4826L88.8792 47.4268L89.0682 47.3881L89.2185 47.3494C89.3063 47.3337 89.3888 47.2968 89.4591 47.242C89.4981 47.209 89.5315 47.1698 89.5579 47.1261C89.5845 47.076 89.5936 47.0186 89.5837 46.9628C89.5791 46.8965 89.5705 46.8305 89.5579 46.7652L89.5794 46.7351L89.6911 46.6922H89.7169C89.7169 46.7222 89.7169 46.7652 89.7169 46.8253C89.7169 46.8855 89.7169 46.937 89.7383 46.9972C89.7598 47.0573 89.7383 47.1132 89.7598 47.169C89.7813 47.2249 89.7598 47.2678 89.7598 47.2979L89.8157 47.6029L89.8372 47.7318L89.8758 47.9036C89.8758 47.9638 89.9102 48.0196 89.9231 48.0755C89.9323 48.1194 89.9452 48.1625 89.9617 48.2043L90.0562 48.2215Z" fill="#272525"/>
<path d="M45.293 100C38.9862 99.9975 32.7534 98.6425 27.0148 96.0264C21.2763 93.4104 16.1655 89.594 12.0272 84.8348C7.88897 80.0757 4.81947 74.4844 3.02578 68.4381C1.2321 62.3918 0.755941 56.0312 1.62944 49.7852C1.63794 49.7296 1.6679 49.6796 1.71288 49.6459C1.75786 49.6121 1.81427 49.5974 1.87001 49.6048C1.92637 49.6123 1.97746 49.6418 2.01209 49.6869C2.04671 49.732 2.06205 49.789 2.05473 49.8453C1.22062 55.7775 1.61622 61.8178 3.21692 67.5905C4.81762 73.3631 7.58917 78.7446 11.3591 83.4001C15.1291 88.0556 19.8167 91.8854 25.1305 94.6514C30.4442 97.4173 36.2703 99.0601 42.2462 99.4775C48.2221 99.895 54.22 99.0782 59.8667 97.0779C65.5134 95.0777 70.688 91.9368 75.0686 87.8507C79.4492 83.7646 82.9421 78.8207 85.3298 73.3266C87.7176 67.8326 88.9492 61.9059 88.9479 55.9155C88.9473 54.3369 88.8627 52.7595 88.6945 51.19C88.6882 51.133 88.7048 51.0759 88.7407 51.0312C88.7765 50.9864 88.8287 50.9578 88.8856 50.9515C88.9426 50.9453 88.9997 50.9619 89.0444 50.9977C89.0892 51.0336 89.1178 51.0857 89.1241 51.1427C89.2925 52.7295 89.3771 54.324 89.3775 55.9197C89.3627 67.6068 84.7132 78.8108 76.4489 87.0744C68.1845 95.338 56.98 99.9864 45.293 100Z" fill="#272525"/>
</g>
<defs>
<clipPath id="clip0">
<rect width="89.3977" height="100" fill="white" transform="translate(0.701477)"/>
</clipPath>
</defs>
</svg>
