<svg width="157" height="40" viewBox="0 0 157 40" fill="none" xmlns="http://www.w3.org/2000/svg">
<g clip-path="url(#clip0)">
<path d="M29.4775 23.1195H21.0695L20.9454 23.0847L21.0497 22.4593L21.1886 22.3203C21.5417 22.3219 21.8945 22.3053 22.2458 22.2707C22.5292 22.2538 22.8008 22.1517 23.0251 21.9779C23.2108 21.7852 23.374 21.5721 23.5115 21.3426C23.6932 20.917 23.7698 20.4539 23.7349 19.9925V19.4316C23.7349 19.2133 23.7349 18.9353 23.7349 18.6177C23.7349 18.3 23.7051 17.9029 23.6803 17.4413C23.6555 16.9797 23.6207 16.404 23.576 15.7091C23.3841 13.287 23.2352 11.3595 23.1293 9.92675C23.0235 8.49398 22.9374 7.36894 22.8712 6.55164C22.8018 5.74261 22.7472 5.16685 22.7124 4.81941C22.6777 4.47198 22.6528 4.17417 22.628 3.97067L21.8686 5.89151C21.5212 6.75514 21.1225 7.74782 20.6725 8.86954C20.2208 9.99127 19.7443 11.1825 19.238 12.4531C18.7318 13.7237 18.2454 14.9795 17.749 16.2253C17.2527 17.4711 16.7563 18.6474 16.3295 19.7543C15.9026 20.8611 15.4857 21.7793 15.1532 22.5636H13.5252L6.60619 4.01534C6.60619 4.24366 6.55656 4.48687 6.53671 4.74C6.51685 4.99313 6.48707 5.30086 6.46722 5.65823C6.44736 6.01559 6.41262 6.43252 6.37788 6.90404C6.34313 7.37556 6.30343 7.96124 6.25876 8.65116L5.76242 15.0192C5.69789 15.8034 5.64826 16.4486 5.62344 16.9549C5.59862 17.4612 5.57877 17.9029 5.55892 18.2702C5.53906 18.6375 5.55892 18.9552 5.55892 19.2083V20.0024C5.51774 20.4586 5.5858 20.918 5.75745 21.3426C5.88959 21.5754 6.05703 21.7864 6.25379 21.9679C6.43399 22.1261 6.6566 22.2279 6.89407 22.2608C7.19865 22.2983 7.50545 22.3149 7.8123 22.3104L7.95127 22.4494L8.04061 23.0847L7.97113 23.2187H7.26136L6.30839 23.184L5.35542 23.1492H4.64565H0.16867L0.0991821 23.0847L0.203413 22.4593L0.411876 22.3352C0.743411 22.3362 1.07476 22.3196 1.40456 22.2856C1.70115 22.2596 1.98633 22.1588 2.23344 21.9928C2.44757 21.7953 2.64205 21.5775 2.81416 21.3426C3.06592 20.9344 3.21416 20.471 3.24597 19.9925C3.24597 19.8337 3.29561 19.6401 3.31546 19.4217C3.33532 19.2033 3.37006 18.9254 3.4048 18.6077C3.43955 18.2901 3.47925 17.893 3.52392 17.4314C3.5686 16.9698 3.61823 16.3941 3.6629 15.6992L4.15924 8.67597C4.22873 7.86694 4.27836 7.18695 4.3131 6.63602C4.34785 6.08508 4.37267 5.60859 4.38259 5.21649C4.39252 4.82438 4.40741 4.48687 4.41734 4.22381C4.42726 3.96075 4.41734 3.66791 4.41734 3.38996C4.46038 2.91581 4.35825 2.43978 4.1245 2.02502C3.97118 1.79753 3.78559 1.59355 3.57356 1.41949C3.34275 1.24711 3.06688 1.14539 2.77942 1.12665C2.43485 1.08995 2.08858 1.07172 1.74207 1.07205L1.56835 0.933076L1.44923 0.312652L1.51871 0.277908H7.38545C7.71799 0.277908 7.99098 0.277908 8.19448 0.243164L8.3682 0.347395C8.41425 0.75253 8.50241 1.15176 8.63126 1.53861C8.78016 2.03495 8.96381 2.59581 9.18219 3.21624C9.40058 3.83666 9.63883 4.50672 9.89196 5.2016C10.1451 5.89647 10.3883 6.60624 10.6563 7.29615L13.004 13.7039C13.3961 14.8107 13.7535 15.7538 14.0761 16.5231L14.9397 18.5829C15.0092 18.4687 15.2028 18.027 15.5304 17.2527L16.7266 14.3938C17.2229 13.2522 17.7192 12.0014 18.2156 10.6365C18.7119 9.27158 19.2579 7.94635 19.7393 6.6658C20.2208 5.38524 20.6377 4.1841 20.9851 3.05245C21.2778 2.18081 21.5034 1.28812 21.6602 0.382139L21.8339 0.243164L22.4345 0.267981H23.0251H28.1324L28.2019 0.302725L28.0977 0.923149L27.924 1.06212C27.5709 1.06195 27.218 1.08017 26.8668 1.11672C26.5827 1.13015 26.3101 1.2326 26.0875 1.40956C25.8688 1.58826 25.6766 1.79716 25.5167 2.02999C25.2901 2.44203 25.1884 2.91113 25.2239 3.38003C25.2239 3.70265 25.2239 4.00542 25.2239 4.28337C25.2239 4.56132 25.2487 4.87897 25.2586 5.25123C25.2686 5.62348 25.2934 6.07019 25.3281 6.60127C25.3629 7.13236 25.4175 7.81234 25.4869 8.64123L25.9088 15.0192C25.9783 15.8481 26.0329 16.5082 26.0677 17.0443C26.1024 17.5803 26.1372 17.9972 26.1719 18.3397C26.2066 18.6822 26.2414 18.98 26.2761 19.2232C26.3109 19.4664 26.3506 19.7195 26.3952 20.0024C26.4314 20.4756 26.5757 20.9341 26.8171 21.3426C26.978 21.57 27.1627 21.7797 27.3681 21.9679C27.6072 22.1388 27.8889 22.2401 28.1821 22.2608C28.5334 22.2956 28.8863 22.3122 29.2393 22.3104L29.413 22.4494L29.5123 23.0748L29.4775 23.1195Z" fill="#272525"/>
<path d="M40.3821 23.1195H31.9443L31.8798 23.0847L31.984 22.4594L32.1527 22.3204C32.4307 22.3204 32.7533 22.3204 33.1454 22.2707C33.4505 22.2549 33.747 22.1645 34.0091 22.0077C34.2198 21.8277 34.3892 21.6042 34.5054 21.3525C34.7027 20.9275 34.8204 20.4699 34.8528 20.0025C34.8528 19.8436 34.8528 19.6501 34.8528 19.4317C34.8528 19.2133 34.8528 18.9353 34.8876 18.6177C34.9223 18.3 34.8876 17.903 34.8876 17.4414V6.70553C34.8876 6.24394 34.8876 5.71285 34.8876 5.13214C34.8876 4.55142 34.8925 3.9707 34.8429 3.38006C34.8222 2.94341 34.7159 2.51508 34.5302 2.11936C34.4094 1.85449 34.2412 1.61394 34.0339 1.40959C33.8199 1.29334 33.5911 1.20652 33.3539 1.15149C32.9598 1.07676 32.5585 1.04679 32.1577 1.06215L31.989 0.923179L31.9046 0.297791L31.9691 0.173706C32.1345 0.173706 32.348 0.183633 32.6094 0.203486L33.4432 0.258084L34.3466 0.317645C34.6444 0.317645 34.9223 0.347425 35.1755 0.347425H39.8808C41.1935 0.323894 42.5036 0.474098 43.777 0.79413C44.7183 1.03294 45.6047 1.45087 46.3878 2.02505C47.039 2.50596 47.5525 3.14952 47.8768 3.89129C48.1905 4.63044 48.3493 5.42609 48.3433 6.22905C48.3655 7.11755 48.1821 7.99916 47.8073 8.80505C47.4689 9.506 47.0065 10.1399 46.4424 10.6763C45.8902 11.1898 45.2561 11.6075 44.5662 11.9121C43.9097 12.2116 43.2268 12.4492 42.5262 12.6219C43.2641 13.6609 44.0252 14.6867 44.8094 15.6992C45.5936 16.7117 46.401 17.7044 47.2315 18.6772C47.6931 19.2083 48.12 19.6699 48.5121 20.0968C48.8907 20.5023 49.3155 20.8621 49.7778 21.1689C50.2389 21.4768 50.7399 21.7206 51.2668 21.8935C51.9122 22.1016 52.5776 22.2413 53.2521 22.3104L53.4556 22.4494L53.5251 23.0748L53.4556 23.2783H50.2294C49.7027 23.2876 49.1776 23.2191 48.6709 23.0748C48.2124 22.9248 47.7803 22.7037 47.3904 22.4196C46.9278 22.0792 46.505 21.688 46.1297 21.2532C45.7028 20.7701 45.2065 20.196 44.6406 19.5309C44.5712 19.4664 44.3726 19.1934 44.0351 18.7269C43.6976 18.2603 43.3005 17.6945 42.824 17.0393C42.3476 16.3842 41.8314 15.6893 41.335 14.9448C40.8387 14.2003 40.3424 13.5054 39.9006 12.8651H37.404V14.9051C37.404 15.6446 37.404 16.3494 37.404 17.0145C37.404 17.6796 37.404 18.2901 37.4388 18.8361C37.4735 19.382 37.4388 19.7642 37.4884 19.9925C37.4853 20.4808 37.6048 20.9621 37.8358 21.3922C37.9779 21.6031 38.1445 21.7964 38.3322 21.968C38.5347 22.0789 38.7496 22.1655 38.9725 22.2261C39.3787 22.2967 39.7913 22.325 40.2034 22.3104L40.3424 22.4494L40.4466 23.0748L40.3821 23.1195ZM40.5558 11.3513C42.465 11.3513 43.8432 10.9062 44.6903 10.0161C45.5641 9.04101 46.0173 7.7601 45.951 6.4524C45.9856 5.83502 45.8736 5.21821 45.6243 4.65235C45.375 4.08648 44.9955 3.58759 44.5166 3.19641C43.376 2.37997 41.991 1.97725 40.5905 2.05483H37.5777C37.5331 2.72489 37.5033 3.29072 37.4934 3.75231C37.4834 4.21391 37.4636 4.61594 37.4388 4.96338C37.4139 5.31082 37.404 5.62351 37.404 5.8965V10.0856C37.3999 10.3227 37.4115 10.5598 37.4388 10.7954C37.4488 10.9395 37.5105 11.0752 37.6125 11.1776C37.7272 11.2662 37.8651 11.3196 38.0096 11.3314C38.2451 11.3587 38.4822 11.3703 38.7193 11.3662L40.5558 11.3513Z" fill="#272525"/>
<path d="M116.168 23.1195H107.76L107.656 23.0847L107.76 22.4593L107.899 22.3203C108.251 22.322 108.602 22.3054 108.951 22.2707C109.235 22.2547 109.507 22.1525 109.731 21.9779C109.91 21.7886 110.067 21.5786 110.197 21.3525C110.379 20.9269 110.455 20.4639 110.421 20.0024V19.4316C110.421 19.2133 110.421 18.9353 110.421 18.6177C110.421 18.3 110.391 17.9029 110.371 17.4413C110.351 16.9797 110.311 16.404 110.267 15.7091C110.078 13.287 109.932 11.3562 109.83 9.91682C109.731 8.47247 109.641 7.34578 109.572 6.54171C109.502 5.73764 109.453 5.15693 109.418 4.80949C109.383 4.46205 109.339 4.17417 109.294 3.97067C109.135 4.38098 108.882 5.02126 108.534 5.89151C108.187 6.76176 107.788 7.75444 107.338 8.86954C106.892 9.99127 106.41 11.1825 105.904 12.4531L104.415 16.2253C103.918 17.4695 103.445 18.6458 102.995 19.7543L101.849 22.5636H100.226L93.277 4.01534C93.277 4.24366 93.2323 4.48687 93.2075 4.74C93.1827 4.99313 93.1628 5.30086 93.138 5.65823C93.1132 6.01559 93.0884 6.43252 93.0536 6.90404C93.0189 7.37556 92.9792 7.96124 92.9295 8.65116L92.4332 15.0192C92.3637 15.8034 92.319 16.4486 92.2942 16.9549C92.2694 17.4612 92.2496 17.9029 92.2247 18.2702C92.1999 18.6375 92.19 18.9552 92.19 19.2083V20.0024C92.1551 20.4639 92.2317 20.9269 92.4134 21.3525C92.5471 21.5843 92.7143 21.795 92.9097 21.9779C93.091 22.1343 93.3131 22.2359 93.55 22.2707C93.8546 22.3081 94.1614 22.3247 94.4682 22.3203L94.6072 22.4593L94.7114 23.0847L94.6419 23.2187H93.9322L92.9792 23.184L92.0312 23.1492H91.3214H86.8196L86.7501 23.1145L86.8543 22.4891L87.0628 22.3501C87.3944 22.3512 87.7257 22.3346 88.0555 22.3005C88.3534 22.2736 88.64 22.173 88.8893 22.0077C89.1148 21.8057 89.3209 21.583 89.5048 21.3426C89.7507 20.9354 89.8985 20.4766 89.9366 20.0024C89.9366 19.8436 89.9813 19.65 90.0061 19.4316C90.0309 19.2133 90.0557 18.9353 90.0905 18.6177C90.1252 18.3 90.1649 17.9029 90.2146 17.4413C90.2642 16.9797 90.3039 16.404 90.3486 15.7091L90.8449 8.6859C90.9144 7.87687 90.969 7.19688 91.0037 6.64594C91.0385 6.09501 91.0583 5.61852 91.0683 5.22641C91.0782 4.8343 91.0931 4.49679 91.103 4.23373C91.1129 3.97067 91.103 3.67783 91.103 3.39988C91.1436 2.92589 91.0416 2.45059 90.8102 2.03495C90.6492 1.80739 90.4571 1.60355 90.2394 1.42942C90.0072 1.25458 89.73 1.14956 89.4403 1.12665C89.0957 1.08995 88.7494 1.07172 88.4029 1.07205L88.2292 0.933076L88.1349 0.312652L88.2044 0.277908H94.0711C94.4037 0.277908 94.6767 0.277908 94.8851 0.243164L95.0588 0.347395C95.1028 0.752433 95.1893 1.15171 95.3169 1.53861C95.4658 2.03495 95.6495 2.59581 95.8728 3.21624C96.0962 3.83666 96.3245 4.50672 96.5826 5.2016C96.8407 5.89647 97.0789 6.60624 97.342 7.29615L99.6947 13.6989C100.087 14.8058 100.444 15.7488 100.767 16.5181C101.089 17.2875 101.377 17.9774 101.635 18.5779C101.7 18.4638 101.898 18.022 102.221 17.2478L103.417 14.3938C103.89 13.2522 104.387 11.9998 104.906 10.6365C105.426 9.27323 105.934 7.94966 106.43 6.6658C106.91 5.36539 107.325 4.16094 107.676 3.05245C107.958 2.19268 108.177 1.31348 108.331 0.421846L108.505 0.282871L109.095 0.307688H109.681H114.803L114.873 0.342432L114.768 0.962856L114.595 1.10183C114.242 1.10192 113.889 1.12014 113.538 1.15643C113.255 1.16988 112.984 1.27239 112.763 1.44927C112.541 1.62615 112.347 1.83528 112.188 2.06969C111.961 2.48174 111.859 2.95084 111.895 3.41974C111.895 3.74236 111.895 4.04512 111.895 4.32307C111.895 4.60103 111.895 4.91868 111.929 5.29094C111.964 5.66319 111.964 6.1099 111.999 6.64098C112.034 7.17206 112.083 7.85205 112.153 8.68094L112.57 15.049C112.639 15.8779 112.689 16.538 112.724 17.074C112.758 17.6101 112.793 18.027 112.828 18.3695C112.863 18.712 112.897 19.0098 112.932 19.253C112.967 19.4962 113.006 19.7493 113.051 20.0322C113.089 20.5075 113.231 20.9685 113.468 21.3823C113.629 21.6111 113.816 21.8209 114.024 22.0077C114.261 22.1792 114.541 22.2807 114.833 22.3005C115.184 22.3351 115.537 22.3516 115.89 22.3501L116.064 22.4891L116.168 23.1145V23.1195Z" fill="#272525"/>
<path d="M127.068 23.1195H118.66L118.59 23.0847L118.695 22.4594L118.868 22.3204C119.141 22.3204 119.469 22.3204 119.861 22.2707C120.166 22.2549 120.463 22.1645 120.725 22.0077C120.93 21.822 121.094 21.5954 121.206 21.3426C121.401 20.9166 121.518 20.4595 121.553 19.9925C121.553 19.8337 121.553 19.6401 121.553 19.4218C121.553 19.2034 121.578 18.9254 121.588 18.6078C121.598 18.2901 121.588 17.893 121.588 17.4314V6.70553C121.588 6.24394 121.588 5.71285 121.588 5.13214C121.588 4.55142 121.549 3.96078 121.504 3.38006C121.483 2.94508 121.382 2.51769 121.206 2.11936C121.083 1.8555 120.915 1.61526 120.71 1.40959C120.508 1.29657 120.293 1.20983 120.069 1.15149C119.677 1.07667 119.277 1.0467 118.878 1.06215L118.704 0.923179L118.59 0.297791L118.66 0.173706C118.819 0.173706 119.032 0.183633 119.3 0.203486L120.129 0.258084L121.012 0.317645C121.31 0.317645 121.588 0.347425 121.841 0.347425H126.552C127.874 0.321253 129.195 0.471478 130.478 0.79413C131.419 1.03188 132.306 1.4499 133.088 2.02505C133.738 2.50779 134.251 3.15083 134.577 3.89129C134.891 4.63044 135.05 5.42609 135.044 6.22905C135.066 7.11755 134.883 7.99916 134.508 8.80505C134.164 9.50885 133.692 10.1432 133.118 10.6762C132.571 11.1888 131.942 11.6065 131.257 11.9121C130.598 12.2109 129.914 12.4484 129.212 12.6219C129.953 13.6609 130.716 14.6867 131.5 15.6992C132.284 16.7167 133.088 17.7094 133.922 18.6772C134.384 19.2083 134.811 19.6699 135.203 20.0968C135.581 20.501 136.004 20.8607 136.464 21.1689C136.925 21.4759 137.426 21.7196 137.953 21.8935C138.606 22.1028 139.28 22.2425 139.963 22.3104L140.171 22.4494L140.241 23.0748L140.171 23.2783H136.915C136.39 23.2877 135.867 23.2191 135.362 23.0748C134.913 22.9272 134.491 22.7094 134.111 22.4296C133.647 22.0893 133.222 21.6981 132.845 21.2632C132.418 20.7801 131.922 20.206 131.356 19.5409C131.14 19.284 130.938 19.0156 130.751 18.7368L129.54 17.0492C129.063 16.3875 128.567 15.6893 128.051 14.9547C127.534 14.2201 127.056 13.5269 126.616 12.875H124.09V14.915C124.09 15.6545 124.09 16.3593 124.09 17.0244C124.09 17.6895 124.115 18.3 124.125 18.846C124.134 19.392 124.154 19.7742 124.174 20.0025C124.174 20.4904 124.293 20.9711 124.522 21.4021C124.662 21.6143 124.829 21.8077 125.018 21.9779C125.22 22.0888 125.435 22.1755 125.658 22.236C126.063 22.3066 126.474 22.3348 126.884 22.3204L127.023 22.4594L127.127 23.0847L127.068 23.1195ZM127.242 11.3513C129.157 11.3513 130.536 10.9062 131.376 10.0161C132.244 9.03868 132.692 7.75803 132.622 6.4524C132.656 5.83461 132.543 5.21754 132.293 4.65164C132.043 4.08574 131.662 3.58708 131.182 3.19641C130.225 2.43701 128.919 2.05483 127.256 2.05483H124.244C124.199 2.72489 124.169 3.29072 124.159 3.75231C124.149 4.21391 124.129 4.61594 124.11 4.96338C124.09 5.31082 124.075 5.62351 124.075 5.8965V10.0856C124.071 10.3227 124.082 10.5598 124.11 10.7954C124.118 10.939 124.178 11.0747 124.278 11.1776C124.395 11.2653 124.535 11.3186 124.68 11.3314C124.914 11.3588 125.15 11.3704 125.385 11.3662L127.242 11.3513Z" fill="#272525"/>
<path d="M143.958 5.45974C143.938 6.01579 144.056 6.56813 144.301 7.06788C144.559 7.52056 144.921 7.90511 145.358 8.18961C145.918 8.56033 146.524 8.85728 147.16 9.0731C147.884 9.34112 148.743 9.62403 149.736 9.92183C150.589 10.1998 151.431 10.5108 152.262 10.855C153.067 11.1892 153.82 11.639 154.495 12.1901C155.206 12.7629 155.772 13.4949 156.147 14.3271C156.522 15.1592 156.696 16.068 156.655 16.9798C156.684 18.0152 156.447 19.0409 155.965 19.9578C155.521 20.7563 154.893 21.437 154.133 21.9432C153.324 22.4702 152.426 22.8452 151.483 23.05C150.443 23.2823 149.381 23.3972 148.316 23.3925C146.996 23.4024 145.681 23.2354 144.405 22.8962C143.306 22.6018 142.24 22.196 141.223 21.6851L141.084 21.2334L141.675 17.5307H142.549L142.722 17.7392C142.733 18.3541 142.891 18.9574 143.184 19.4982C143.477 20.0391 143.896 20.5014 144.405 20.8463C145.666 21.567 147.108 21.9115 148.559 21.8389C150.359 21.8389 151.714 21.4286 152.624 20.608C153.074 20.2077 153.429 19.7133 153.666 19.16C153.903 18.6067 154.015 18.0081 153.994 17.4066C154.018 16.6966 153.835 15.995 153.468 15.3865C153.112 14.8372 152.647 14.366 152.103 14.0017C151.499 13.6046 150.847 13.286 150.162 13.0537C149.438 12.7956 148.703 12.5574 147.964 12.2894C147.086 12.0086 146.226 11.6771 145.388 11.2967C144.641 10.9738 143.943 10.5495 143.313 10.036C142.733 9.56397 142.261 8.97334 141.928 8.30377C141.577 7.55818 141.407 6.74016 141.432 5.91638C141.402 4.96757 141.598 4.02524 142.003 3.16665C142.368 2.43414 142.908 1.80327 143.576 1.3302C144.282 0.843558 145.076 0.498055 145.914 0.312702C146.861 0.0974439 147.831 -0.00748465 148.802 8.43627e-06C149.988 -0.00686884 151.17 0.10957 152.331 0.347446C153.26 0.521033 154.166 0.799097 155.031 1.17633L155.17 1.55851L154.674 4.63582H153.716L153.542 4.46706C153.528 3.93044 153.326 3.41579 152.972 3.01279C152.628 2.64144 152.21 2.34565 151.746 2.1442C151.26 1.93379 150.747 1.79502 150.222 1.73223C149.746 1.66738 149.267 1.63256 148.788 1.628C147.534 1.55886 146.292 1.90802 145.259 2.62068C144.828 2.95303 144.484 3.38512 144.258 3.87971C144.031 4.3743 143.929 4.91655 143.958 5.45974Z" fill="#272525"/>
<path d="M70.0135 25.7501C69.955 25.7509 69.8983 25.7296 69.8547 25.6905C67.8684 24.0178 65.9777 22.2348 64.1915 20.3499C64.1661 20.3271 64.1457 20.2993 64.1316 20.2682C64.1174 20.2371 64.1098 20.2035 64.1093 20.1693C64.1087 20.1352 64.1153 20.1013 64.1284 20.0698C64.1416 20.0383 64.1611 20.0098 64.1857 19.9862C64.2104 19.9626 64.2396 19.9443 64.2717 19.9325C64.3037 19.9207 64.3378 19.9157 64.3719 19.9176C64.406 19.9196 64.4393 19.9286 64.4697 19.9441C64.5002 19.9595 64.5271 19.9811 64.5488 20.0074C66.2773 21.8192 68.0997 23.5389 70.0086 25.1595C70.9665 24.2611 76.0044 19.4218 78.8831 14.5874C78.8972 14.555 78.918 14.5259 78.9441 14.5021C78.9703 14.4784 79.0013 14.4605 79.0349 14.4497C79.0686 14.4388 79.1042 14.4353 79.1393 14.4394C79.1744 14.4434 79.2083 14.4549 79.2386 14.4731C79.2689 14.4913 79.295 14.5158 79.3151 14.5448C79.3352 14.5739 79.3488 14.607 79.3551 14.6418C79.3614 14.6766 79.3602 14.7123 79.3516 14.7466C79.3429 14.7809 79.327 14.8129 79.305 14.8406C76.0987 20.2358 70.2419 25.621 70.1823 25.6756C70.1374 25.7208 70.0772 25.7474 70.0135 25.7501Z" fill="#272525"/>
<path d="M61.953 17.7143C61.9158 17.7138 61.8791 17.7051 61.8457 17.6888C61.8122 17.6725 61.7828 17.649 61.7594 17.62C58.8261 14.0514 57.337 11.0684 57.337 8.76534C57.337 7.33118 57.8237 5.93947 58.7175 4.81792C59.6114 3.69637 60.8594 2.9114 62.2574 2.59144C63.6554 2.27149 65.1206 2.43549 66.4133 3.05663C67.706 3.67776 68.7495 4.71924 69.3733 6.01065C69.9953 4.71682 71.0385 3.6727 72.3317 3.04946C73.625 2.42623 75.0916 2.26086 76.4912 2.58046C77.8907 2.90006 79.1402 3.68568 80.0347 4.80851C80.9292 5.93135 81.4157 7.32478 81.4145 8.76037C81.4086 9.48312 81.3017 10.2015 81.0968 10.8946C81.079 10.9605 81.0359 11.0165 80.9767 11.0505C80.9176 11.0845 80.8475 11.0936 80.7816 11.0758C80.7158 11.058 80.6598 11.0148 80.6258 10.9557C80.5918 10.8966 80.5827 10.8264 80.6005 10.7606C80.7937 10.1162 80.8956 9.44795 80.9032 8.77526C80.9125 7.40095 80.4365 6.06745 79.5591 5.00962C78.6817 3.9518 77.4591 3.2375 76.1068 2.99254C74.7545 2.74757 73.3591 2.98766 72.1663 3.6705C70.9736 4.35334 70.0601 5.43515 69.5867 6.72538C69.5653 6.76823 69.5323 6.80426 69.4915 6.82944C69.4508 6.85462 69.4038 6.86795 69.3559 6.86795C69.308 6.86795 69.261 6.85462 69.2203 6.82944C69.1795 6.80426 69.1466 6.76823 69.1251 6.72538C68.6496 5.43943 67.7366 4.36192 66.5461 3.68175C65.3557 3.00158 63.9638 2.76218 62.6145 3.00551C61.2652 3.24884 60.0447 3.95938 59.1668 5.01255C58.289 6.06572 57.8099 7.39429 57.8135 8.76534C57.8135 10.9542 59.2628 13.828 62.1218 17.3073C62.143 17.3319 62.1592 17.3605 62.1692 17.3914C62.1793 17.4223 62.183 17.455 62.1802 17.4873C62.1775 17.5197 62.1682 17.5512 62.1531 17.58C62.1379 17.6088 62.1171 17.6342 62.092 17.6548C62.0528 17.6883 62.0043 17.7091 61.953 17.7143Z" fill="#272525"/>
<path d="M59.3423 19.402C57.6845 19.402 56.2055 19.1091 55.8679 18.1363C55.3716 16.7714 57.486 15.0391 59.3423 13.8181C59.3959 13.7906 59.4577 13.7834 59.5161 13.798C59.5746 13.8126 59.6257 13.848 59.66 13.8976C59.6784 13.9244 59.6913 13.9548 59.6978 13.9867C59.7043 14.0186 59.7043 14.0516 59.6978 14.0835C59.6913 14.1155 59.6785 14.1458 59.66 14.1727C59.6416 14.1996 59.618 14.2225 59.5905 14.24C57.2577 15.7737 56.0367 17.1734 56.3196 17.9725C56.672 18.9652 59.248 19.1836 63.045 18.5582C66.1631 18.0114 69.2273 17.1926 72.2025 16.1112C74.8508 15.1837 77.4272 14.0622 79.9106 12.756C83.8119 10.6714 86.0851 8.62147 85.7029 7.53945C85.415 6.72545 83.5587 6.41772 80.7395 6.71056C80.6739 6.71616 80.6087 6.69596 80.5577 6.65426C80.5068 6.61256 80.474 6.55264 80.4665 6.48721C80.4631 6.45459 80.4662 6.42162 80.4756 6.39019C80.485 6.35877 80.5005 6.32952 80.5213 6.30413C80.542 6.27875 80.5676 6.25773 80.5966 6.2423C80.6255 6.22687 80.6572 6.21733 80.6899 6.21423C82.9184 5.98591 85.6533 5.99584 86.1496 7.3707C86.8495 9.35605 82.1789 12.1008 80.1241 13.1928C77.6215 14.5104 75.0252 15.6418 72.3563 16.5778C69.3535 17.6715 66.2613 18.5019 63.1145 19.0595C61.8679 19.2715 60.6067 19.386 59.3423 19.402Z" fill="#272525"/>
<path d="M96.9896 37.8707C97.7243 37.8707 98.3198 37.2752 98.3198 36.5405C98.3198 35.8059 97.7243 35.2103 96.9896 35.2103C96.255 35.2103 95.6594 35.8059 95.6594 36.5405C95.6594 37.2752 96.255 37.8707 96.9896 37.8707Z" fill="#272525"/>
<path d="M19.0593 34.9968C19.0556 35.1511 19.0879 35.304 19.1536 35.4436C19.2296 35.564 19.3334 35.6645 19.4564 35.7364C19.6098 35.8412 19.7768 35.9247 19.9527 35.9846C20.1562 36.059 20.3945 36.1384 20.6674 36.2178C20.9404 36.2973 21.1638 36.3866 21.3722 36.4809C21.599 36.5713 21.8101 36.6969 21.9976 36.8532C22.1999 37.0158 22.36 37.2248 22.4645 37.4623C22.5691 37.6999 22.6149 37.9591 22.5982 38.2181C22.6071 38.5081 22.5404 38.7955 22.4046 39.0519C22.2859 39.2728 22.1157 39.4618 21.9083 39.6029C21.6848 39.7515 21.4357 39.8575 21.1737 39.9156C20.8837 39.98 20.5873 40.0116 20.2902 40.0099C19.9219 40.0137 19.5547 39.9686 19.1983 39.8759C18.893 39.7939 18.5969 39.6808 18.3148 39.5384L18.2751 39.4143L18.4389 38.3819H18.6771L18.7268 38.4365C18.7334 38.6099 18.7821 38.779 18.8685 38.9294C18.955 39.0799 19.0767 39.2071 19.2231 39.3001C19.5739 39.5018 19.9754 39.5983 20.3796 39.5781C20.7774 39.5909 21.1666 39.4605 21.4765 39.2108C21.6008 39.0985 21.699 38.9603 21.7642 38.8059C21.8294 38.6516 21.8599 38.4848 21.8537 38.3174C21.8617 38.1188 21.8117 37.9221 21.7098 37.7515C21.6116 37.5996 21.4832 37.4694 21.3325 37.3694C21.1642 37.2575 20.9825 37.1675 20.7915 37.1013L20.1761 36.8929C19.9318 36.8177 19.6916 36.7299 19.4564 36.6298C19.2479 36.5388 19.0526 36.4203 18.8757 36.2774C18.7119 36.1422 18.5798 35.9728 18.4885 35.7811C18.3915 35.573 18.344 35.3454 18.3495 35.116C18.3422 34.8523 18.3966 34.5905 18.5084 34.3516C18.613 34.1526 18.7646 33.9823 18.9501 33.8553C19.1456 33.7172 19.3666 33.6193 19.6003 33.5674C19.8645 33.5103 20.1341 33.482 20.4044 33.483C20.7377 33.4798 21.0704 33.5114 21.3971 33.5773C21.6563 33.6272 21.9093 33.7054 22.1515 33.8106L22.1862 33.9148L22.0522 34.7735H21.7842L21.7346 34.7239C21.7306 34.5744 21.6724 34.4315 21.5708 34.3218C21.4753 34.2173 21.3585 34.1343 21.2283 34.0786C21.0933 34.0221 20.9515 33.9837 20.8064 33.9645C20.6732 33.9461 20.5389 33.9361 20.4044 33.9347C20.0517 33.9132 19.702 34.0111 19.4117 34.2126C19.2938 34.305 19.2 34.4246 19.1386 34.5612C19.0772 34.6978 19.05 34.8474 19.0593 34.9968Z" fill="#272525"/>
<path d="M30.5694 33.4831L32.1527 37.8608C32.2173 38.0544 32.2719 38.2132 32.3215 38.3572L32.4456 38.6848C32.4803 38.7741 32.5151 38.8485 32.5399 38.9131L32.6044 39.0719C32.6603 39.2036 32.7338 39.3272 32.8228 39.4392C32.8847 39.5188 32.9625 39.5847 33.0511 39.6328C33.1214 39.6767 33.2016 39.7023 33.2844 39.7072H33.5326L33.5822 39.7469L33.607 39.9206V39.9554H33.4085C33.3142 39.9503 33.2198 39.9503 33.1256 39.9554H31.2296L31.2593 39.7817L31.2941 39.742C31.4425 39.7491 31.5909 39.7272 31.7309 39.6774C31.8301 39.6377 31.8847 39.5236 31.8847 39.335C31.8689 39.1215 31.8186 38.912 31.7358 38.7145L31.3636 37.7219L31.1799 37.2255H29.0208L28.8571 37.6871L28.4848 38.6798C28.402 38.8772 28.3518 39.0867 28.3359 39.3002C28.3359 39.4888 28.3855 39.603 28.4898 39.6427C28.6281 39.692 28.7748 39.7139 28.9216 39.7072L28.9712 39.7469L29.001 39.9206H27.2837C27.1927 39.9155 27.1016 39.9155 27.0107 39.9206H26.8121V39.8859V39.7122L26.8618 39.6725H27.1C27.1825 39.666 27.2623 39.6405 27.3333 39.598C27.4194 39.5483 27.4952 39.4826 27.5566 39.4044C27.6475 39.2919 27.7242 39.1685 27.785 39.0372C27.8071 39.0011 27.8254 38.9628 27.8396 38.923L27.914 38.7344C27.9488 38.655 27.9934 38.5408 28.048 38.4018C28.1026 38.2629 28.1771 38.0842 28.2614 37.8658C28.3458 37.6474 28.455 37.3695 28.5791 37.0518C28.7032 36.7341 28.8571 36.3371 29.0407 35.8854C29.1201 35.6571 29.2095 35.4337 29.2988 35.2153C29.3881 34.9969 29.4725 34.7835 29.547 34.59L29.7554 34.0936C29.82 33.9447 29.8597 33.8355 29.8845 33.766L30.4553 33.4781L30.5694 33.4831ZM29.1846 36.7887H31.0261L30.1078 34.307L29.1846 36.7887Z" fill="#272525"/>
<path d="M39.8063 40L38.2379 35.6223C38.1635 35.4287 38.1039 35.2699 38.0592 35.1259C38.0146 34.982 37.9699 34.8877 37.9302 34.7983L37.8408 34.575C37.8408 34.5204 37.7912 34.4658 37.7714 34.4112C37.7176 34.2779 37.6458 34.1527 37.5579 34.0389C37.4946 33.9621 37.4171 33.898 37.3296 33.8503C37.2593 33.8064 37.1791 33.7808 37.0963 33.7759H36.8482L36.8283 33.7511V33.5773V33.5426H37.0268H37.2998H39.2008L39.1611 33.7511L39.1115 33.7908C38.9647 33.784 38.818 33.806 38.6797 33.8553C38.5754 33.895 38.5258 34.0092 38.5258 34.1978C38.5408 34.4114 38.5911 34.621 38.6747 34.8182L39.0469 35.8109L39.7021 37.5828C39.8262 37.9203 39.9304 38.2181 40.0247 38.4861C40.119 38.7542 40.2034 38.9825 40.2828 39.1761C40.3523 38.9874 40.4367 38.7691 40.536 38.511C40.6352 38.2529 40.7494 37.9451 40.8784 37.5828L41.5336 35.8109L41.9059 34.8182C41.9895 34.621 42.0398 34.4114 42.0548 34.1978C42.0548 34.0092 42.0051 33.895 41.9009 33.8553C41.7609 33.8056 41.6125 33.7837 41.4641 33.7908L41.4194 33.7511V33.5773H43.0971H43.375H43.5785V33.6121L43.5487 33.7858L43.4991 33.8255H43.2609C43.1784 33.832 43.0986 33.8575 43.0276 33.9C42.9401 33.9477 42.8626 34.0117 42.7993 34.0886C42.7096 34.2029 42.6346 34.3279 42.5759 34.4608C42.5759 34.5154 42.5263 34.58 42.4915 34.6544C42.4568 34.7289 42.3972 34.8778 42.3129 35.0912L41.9505 35.9995C41.7967 36.3966 41.5832 36.9326 41.3202 37.6126L41.0472 38.3124C40.9529 38.5556 40.8635 38.7839 40.7742 38.9974L40.5509 39.5731C40.4847 39.7386 40.44 39.8577 40.4168 39.9305L39.9205 40.0347L39.8063 40Z" fill="#272525"/>
<path d="M50.5868 33.5575H52.2148L52.2644 33.6468L52.2148 34.6941H51.9765L51.9368 34.6594C51.929 34.5405 51.9107 34.4226 51.8822 34.307C51.8691 34.2614 51.8444 34.2201 51.8104 34.187C51.7765 34.154 51.7345 34.1303 51.6887 34.1184C51.528 34.0694 51.36 34.0492 51.1923 34.0588H49.3906V34.4311C49.3906 34.5353 49.3906 34.6197 49.3906 34.6891C49.3906 34.7586 49.3906 34.843 49.3906 34.9472C49.3906 35.0515 49.3906 35.1706 49.3906 35.3145V36.3469H50.4975C50.6307 36.3499 50.7638 36.3383 50.8945 36.3122C50.9776 36.3002 51.0553 36.2639 51.1179 36.2079C51.1681 36.1617 51.213 36.1101 51.2519 36.0541C51.2949 35.9878 51.3158 35.9096 51.3114 35.8307L51.3611 35.7811H51.5249H51.5596C51.5596 35.93 51.5497 36.059 51.5298 36.1682C51.51 36.2774 51.51 36.4015 51.5298 36.5405C51.5298 36.6944 51.5298 36.8383 51.5298 36.9673C51.5298 37.0964 51.5298 37.2453 51.5596 37.3992H51.5249H51.3512L51.3114 37.3694C51.3128 37.2702 51.2925 37.172 51.2519 37.0815C51.2215 36.9994 51.176 36.9236 51.1179 36.8582C51.0534 36.8078 50.9759 36.7768 50.8945 36.7688C50.765 36.7473 50.6337 36.7373 50.5024 36.739H49.341V38.228C49.341 38.372 49.341 38.501 49.341 38.6152C49.341 38.7294 49.341 38.8286 49.341 38.9229C49.341 39.0172 49.341 39.1215 49.3708 39.2455C49.4005 39.3696 49.4353 39.4242 49.5643 39.4242H50.3833C50.7704 39.4242 51.0732 39.4242 51.2966 39.4242C51.4664 39.4156 51.6339 39.3805 51.7929 39.32C51.9002 39.2753 51.9869 39.1921 52.0361 39.0867C52.0943 38.9503 52.1408 38.8091 52.1751 38.6648L52.2148 38.6251H52.4679L52.2942 39.8411L52.2148 39.9404H47.7974L47.8222 39.7667L47.8718 39.727C47.9677 39.7323 48.0638 39.7323 48.1597 39.727C48.2411 39.7228 48.3192 39.6933 48.383 39.6426C48.4399 39.5913 48.4899 39.5329 48.5319 39.4689C48.5934 39.3544 48.6257 39.2266 48.6262 39.0966C48.6262 39.052 48.6262 38.9974 48.6262 38.9378C48.6262 38.8783 48.6262 38.7988 48.6262 38.7095C48.6262 38.6202 48.6262 38.511 48.6262 38.3819V34.9373C48.6262 34.8281 48.6262 34.7338 48.6262 34.6594V34.4261C48.6242 34.2964 48.5919 34.1689 48.5319 34.0538C48.4886 33.9908 48.4387 33.9326 48.383 33.8801C48.318 33.8316 48.2406 33.8023 48.1597 33.7957C48.0638 33.7904 47.9677 33.7904 47.8718 33.7957L47.8222 33.756L47.7974 33.5823H50.557L50.5868 33.5575Z" fill="#272525"/>
<path d="M69.14 39.9157H66.5193L66.5441 39.742L66.5938 39.7022H66.9412C67.0375 39.7052 67.132 39.6754 67.2092 39.6179C67.2703 39.5667 67.3268 39.5102 67.378 39.4491C67.4449 39.3345 67.4808 39.2045 67.4822 39.0719C67.4822 39.0272 67.4822 38.9726 67.4822 38.9131C67.4822 38.8535 67.4822 38.7741 67.4822 38.6847C67.4822 38.5954 67.4822 38.4862 67.4822 38.3572V35.8953C67.4822 35.4734 67.4822 35.1061 67.4822 34.7786C67.4822 34.451 67.4822 34.2078 67.4822 34.044H66.5838H66.0875L65.8095 34.0787C65.7638 34.0869 65.72 34.1038 65.6805 34.1284C65.6013 34.1851 65.5363 34.2595 65.4906 34.3456C65.445 34.4317 65.4199 34.5273 65.4174 34.6247L65.3777 34.6644H65.1196L65.1842 33.5625L65.2239 33.4781L65.2834 33.4484C65.3926 33.4847 65.5061 33.5063 65.6209 33.5129C65.8094 33.5235 65.9983 33.5235 66.1868 33.5129H69.408C69.5981 33.5236 69.7887 33.5236 69.9788 33.5129C70.0936 33.5057 70.207 33.4841 70.3163 33.4484L70.3709 33.4781L70.4106 33.5625L70.49 34.6644H70.2567L70.217 34.6247C70.2155 34.5276 70.1914 34.4322 70.1466 34.3461C70.1018 34.2599 70.0375 34.1854 69.9589 34.1284C69.9195 34.1038 69.8757 34.0869 69.8299 34.0787L69.547 34.044H69.0506H68.1672C68.1672 34.226 68.1672 34.4692 68.1672 34.7736C68.1672 35.0764 68.1672 35.4486 68.1672 35.8854V38.2182C68.1672 38.3621 68.1672 38.4812 68.1672 38.5756C68.1672 38.6699 68.1672 38.7542 68.1672 38.8237C68.1672 38.8932 68.1672 38.9627 68.1672 39.0421C68.1674 39.1756 68.2052 39.3064 68.2764 39.4193C68.3272 39.4791 68.3819 39.5355 68.4401 39.5881C68.5174 39.6457 68.6119 39.6754 68.7082 39.6725H69.0556L69.1052 39.7122L69.135 39.8859L69.14 39.9157Z" fill="#272525"/>
<path d="M81.5485 39.9256H79.2058L79.2355 39.7519L79.2703 39.7121C79.3695 39.7173 79.4689 39.7173 79.5681 39.7121C79.6495 39.7079 79.7276 39.6784 79.7914 39.6278C79.8493 39.5788 79.8981 39.52 79.9354 39.4541C79.9876 39.3364 80.0178 39.2103 80.0247 39.0818C80.0247 39.0371 80.0247 38.9825 80.0247 38.923C80.0247 38.8634 80.0247 38.784 80.0247 38.6947C80.0247 38.6053 80.0247 38.4961 80.0247 38.3671V36.7291H76.5901V38.2182C76.5901 38.3621 76.5901 38.4812 76.5901 38.5755C76.5901 38.6698 76.5901 38.7542 76.5901 38.8237C76.5901 38.8932 76.5901 38.9627 76.5901 39.0421C76.5919 39.1713 76.6224 39.2984 76.6794 39.4143C76.7167 39.4803 76.7654 39.5391 76.8233 39.5881C76.8872 39.6387 76.9653 39.6682 77.0467 39.6724C77.1459 39.6776 77.2453 39.6776 77.3445 39.6724L77.3792 39.7121L77.409 39.8859H75.0663L75.0961 39.7121L75.1457 39.6724C75.2416 39.6778 75.3377 39.6778 75.4336 39.6724C75.5148 39.6673 75.5926 39.6379 75.6569 39.5881C75.7138 39.5367 75.7638 39.4784 75.8058 39.4143C75.8672 39.2998 75.8996 39.172 75.9001 39.0421V38.8833C75.9001 38.8187 75.9001 38.7443 75.9001 38.6549C75.9001 38.5656 75.9001 38.4564 75.9001 38.3274V35.3344C75.9001 35.1806 75.9001 35.0466 75.9001 34.9374C75.9001 34.8282 75.9001 34.7339 75.9001 34.6594C75.9001 34.585 75.9001 34.5055 75.9001 34.4261C75.8968 34.2971 75.8664 34.1703 75.8108 34.0539C75.7706 33.9899 75.7222 33.9315 75.6669 33.8802C75.6014 33.8323 75.5242 33.8031 75.4435 33.7958C75.3476 33.7904 75.2515 33.7904 75.1556 33.7958L75.106 33.7561L75.0762 33.5824H77.4189L77.3892 33.7561L77.3544 33.7958C77.2552 33.7906 77.1558 33.7906 77.0566 33.7958C76.9757 33.8024 76.8983 33.8316 76.8333 33.8802C76.7754 33.9291 76.7266 33.9879 76.6893 34.0539C76.6324 34.1698 76.6019 34.297 76.6 34.4261C76.6 34.5155 76.6 34.5999 76.6 34.6793C76.6 34.7537 76.6 34.8431 76.6 34.9473C76.6 35.0515 76.6 35.1756 76.6 35.3245V36.3172H80.0346V35.3245C80.0346 35.1706 80.0346 35.0366 80.0346 34.9274C80.0346 34.8182 80.0346 34.7239 80.0346 34.6495V34.4162C80.0353 34.2867 80.0046 34.159 79.9453 34.0439C79.908 33.978 79.8593 33.9192 79.8014 33.8702C79.7363 33.8217 79.6589 33.7924 79.578 33.7859C79.4788 33.7807 79.3794 33.7807 79.2802 33.7859L79.2157 33.7511L79.1859 33.5774H81.5286L81.4988 33.7511L81.4492 33.7908C81.3533 33.7855 81.2572 33.7855 81.1613 33.7908C81.0806 33.7982 81.0034 33.8273 80.938 33.8752C80.8811 33.9265 80.8311 33.9849 80.7891 34.0489C80.7276 34.1632 80.6968 34.2914 80.6997 34.4212C80.6951 34.5055 80.6951 34.59 80.6997 34.6743C80.6997 34.7488 80.6997 34.8381 80.6997 34.9423V38.5855C80.6997 38.6847 80.6997 38.7641 80.6997 38.8336C80.6951 38.9064 80.6951 38.9793 80.6997 39.052C80.6968 39.1817 80.7276 39.31 80.7891 39.4243C80.8311 39.4883 80.8811 39.5467 80.938 39.598C81.0023 39.6478 81.0801 39.6772 81.1613 39.6824C81.2572 39.6877 81.3533 39.6877 81.4492 39.6824L81.4988 39.7221L81.5286 39.8958L81.5485 39.9256Z" fill="#272525"/>
<path d="M89.1623 33.5575H90.7853L90.83 33.6468L90.7953 34.6941H90.5521L90.5123 34.6594C90.5057 34.5407 90.4891 34.4228 90.4627 34.307C90.448 34.2623 90.4227 34.2218 90.389 34.189C90.3553 34.1562 90.3142 34.1319 90.2691 34.1184C90.1082 34.0707 89.9404 34.0505 89.7728 34.0588H87.9512V34.4311C87.9512 34.5353 87.9512 34.6197 87.9512 34.6891C87.9512 34.7586 87.9512 34.843 87.9512 34.9472C87.9512 35.0515 87.9512 35.1706 87.9512 35.3145V36.3469H89.0531C89.188 36.3499 89.3228 36.3383 89.4551 36.3122C89.5382 36.3002 89.6159 36.2639 89.6785 36.2079C89.7259 36.1592 89.7707 36.1078 89.8125 36.0541C89.8515 35.9863 89.8705 35.9089 89.8671 35.8307L89.9167 35.7811H90.0805H90.1202C90.1202 35.93 90.0954 36.059 90.0855 36.1682C90.0756 36.2774 90.0855 36.4015 90.0855 36.5405C90.0855 36.6795 90.0855 36.8383 90.0855 36.9673C90.0855 37.0964 90.0855 37.2453 90.1202 37.3992H90.0805H89.9068L89.8671 37.3694C89.8676 37.2708 89.8491 37.173 89.8125 37.0815C89.7783 37.0012 89.7332 36.9261 89.6785 36.8582C89.614 36.8078 89.5365 36.7768 89.4551 36.7688C89.3239 36.7473 89.191 36.7373 89.0581 36.739H87.9512V38.228C87.9512 38.372 87.9512 38.501 87.9512 38.6152C87.9459 38.7177 87.9459 38.8204 87.9512 38.9229C87.9512 39.0123 87.9512 39.1215 87.976 39.2455C88.0009 39.3696 88.0406 39.4242 88.1696 39.4242H88.9886C89.3757 39.4242 89.6785 39.4242 89.9018 39.4242C90.0718 39.4166 90.2395 39.3814 90.3982 39.32C90.5058 39.2739 90.5937 39.1913 90.6464 39.0867C90.7023 38.9494 90.7488 38.8085 90.7853 38.6648L90.8201 38.6251H91.0732L90.8995 39.8411L90.8201 39.9404H86.4076L86.4374 39.7667L86.4622 39.7071C86.5597 39.7125 86.6575 39.7125 86.755 39.7071C86.8349 39.7029 86.9114 39.6733 86.9734 39.6228C87.0329 39.5741 87.0834 39.5153 87.1223 39.449C87.1838 39.3345 87.2161 39.2067 87.2166 39.0768C87.2166 39.0321 87.2166 38.9775 87.2166 38.918C87.2166 38.8584 87.2166 38.779 87.2166 38.6896C87.2166 38.6003 87.2166 38.4911 87.2166 38.3621V34.9373C87.2166 34.8281 87.2166 34.7338 87.2166 34.6594V34.4261C87.2146 34.2964 87.1823 34.1689 87.1223 34.0538C87.082 33.9886 87.0318 33.9299 86.9734 33.8801C86.9103 33.8315 86.8345 33.8021 86.755 33.7957C86.6575 33.7904 86.5597 33.7904 86.4622 33.7957L86.4175 33.756L86.3878 33.5823H89.1424L89.1623 33.5575Z" fill="#272525"/>
<path d="M103.998 34.4262C103.995 34.3008 103.967 34.1774 103.914 34.0638C103.874 33.9935 103.822 33.9312 103.76 33.8802C103.704 33.847 103.644 33.822 103.581 33.8057C103.47 33.7941 103.359 33.7941 103.248 33.8057L103.199 33.766L103.169 33.5923V33.5576C103.233 33.5521 103.298 33.5521 103.363 33.5576C103.452 33.5628 103.541 33.5628 103.631 33.5576H106.112C106.574 33.5516 107.031 33.6394 107.457 33.8157C107.832 33.9739 108.169 34.207 108.45 34.5006C108.718 34.7893 108.928 35.1261 109.071 35.4933C109.355 36.279 109.355 37.1396 109.071 37.9254C108.934 38.2929 108.726 38.6302 108.46 38.918C108.179 39.214 107.842 39.4503 107.467 39.6129C107.02 39.7955 106.541 39.885 106.058 39.876H103.189L103.219 39.7022L103.268 39.6625H103.536C103.62 39.6642 103.701 39.6404 103.77 39.5943C103.84 39.5481 103.893 39.4819 103.923 39.4044C103.979 39.2877 104.011 39.1612 104.018 39.0322C104.018 38.9875 104.018 38.9329 104.018 38.8734C104.018 38.8138 104.018 38.7344 104.018 38.645C104.018 38.5557 104.018 38.4465 104.018 38.3175V35.1905C104.018 35.0416 104.018 34.8977 104.018 34.7537C104.018 34.6442 104.011 34.5349 103.998 34.4262ZM106.132 39.4293C106.484 39.4357 106.833 39.3645 107.155 39.2208C107.441 39.0837 107.695 38.8874 107.899 38.645C108.109 38.3942 108.266 38.1039 108.361 37.7913C108.47 37.4498 108.524 37.0928 108.52 36.7341C108.523 36.3703 108.468 36.0082 108.356 35.662C108.25 35.3485 108.081 35.0597 107.859 34.8133C107.654 34.5742 107.4 34.3813 107.115 34.2475C106.789 34.1095 106.437 34.0418 106.083 34.0489H104.752C104.752 34.2326 104.752 34.3864 104.752 34.5155V34.8927C104.752 35.0218 104.752 35.1657 104.752 35.3146V37.6623C104.752 38.0494 104.752 38.3472 104.752 38.5656C104.752 38.784 104.752 38.9428 104.777 39.062C104.776 39.1785 104.82 39.2909 104.901 39.3747C105.01 39.4228 105.13 39.4433 105.249 39.4342L106.132 39.4293Z" fill="#272525"/>
<path d="M117.265 33.483L118.848 37.8607C118.913 38.0543 118.967 38.2131 119.017 38.3571C119.067 38.501 119.106 38.5953 119.141 38.6847L119.231 38.913C119.26 38.9725 119.28 39.0271 119.3 39.0718C119.354 39.2045 119.428 39.3283 119.518 39.4391C119.58 39.5173 119.656 39.583 119.742 39.6327C119.815 39.6752 119.896 39.7007 119.98 39.7071H120.228L120.273 39.7468L120.303 39.9206V39.9553H120.099C120.007 39.9502 119.914 39.9502 119.821 39.9553H117.94L117.97 39.7816L118.01 39.7419C118.156 39.7495 118.303 39.7276 118.441 39.6774C118.546 39.6376 118.6 39.5235 118.6 39.3349C118.583 39.1211 118.531 38.9116 118.446 38.7145C118.347 38.4464 118.223 38.1089 118.079 37.7218L117.915 37.2602H115.756L115.587 37.7218C115.443 38.1238 115.319 38.4613 115.22 38.7145C115.137 38.9119 115.087 39.1214 115.071 39.3349C115.071 39.5235 115.121 39.6376 115.225 39.6774C115.363 39.7276 115.51 39.7495 115.657 39.7419L115.707 39.7816L115.736 39.9553H114.039C113.946 39.9502 113.853 39.9502 113.761 39.9553H113.567V39.9206V39.7468L113.612 39.7071H113.855C113.936 39.7014 114.015 39.6758 114.084 39.6327C114.172 39.5846 114.25 39.5187 114.312 39.4391C114.403 39.3265 114.479 39.2032 114.54 39.0718C114.561 39.0356 114.577 38.9973 114.59 38.9577C114.59 38.9179 114.634 38.8534 114.669 38.769C114.704 38.6847 114.749 38.5755 114.803 38.4365C114.858 38.2975 114.927 38.1188 115.017 37.9005C115.106 37.6821 115.21 37.4041 115.334 37.0865C115.458 36.7688 115.612 36.3717 115.791 35.9201C115.875 35.6917 115.965 35.4684 116.054 35.25C116.143 35.0316 116.228 34.8182 116.302 34.6246L116.511 34.1283C116.57 33.9794 116.615 33.8702 116.64 33.8007L117.21 33.5128L117.265 33.483ZM115.875 36.7887H117.732L116.818 34.307L115.875 36.7887Z" fill="#272525"/>
<path d="M127.882 39.9157H125.261L125.291 39.742L125.336 39.7022H125.683C125.781 39.704 125.876 39.6745 125.956 39.6179C126.014 39.5652 126.069 39.5089 126.12 39.4491C126.187 39.3345 126.223 39.2045 126.224 39.0719C126.224 39.0272 126.224 38.9726 126.224 38.9131C126.224 38.8535 126.224 38.7741 126.224 38.6847C126.224 38.5954 126.224 38.4862 126.224 38.3572V35.8953C126.224 35.4734 126.224 35.1061 126.224 34.7786C126.224 34.451 126.224 34.2078 126.224 34.044H125.326H124.829L124.551 34.0787C124.506 34.0869 124.462 34.1038 124.422 34.1284C124.343 34.1851 124.278 34.2595 124.232 34.3456C124.187 34.4317 124.162 34.5273 124.159 34.6247L124.125 34.6644H123.901L123.966 33.5625L124.005 33.4781L124.065 33.4484C124.174 33.4847 124.288 33.5063 124.402 33.5129C124.591 33.5235 124.78 33.5235 124.968 33.5129H128.155C128.345 33.5236 128.535 33.5236 128.726 33.5129C128.84 33.5057 128.954 33.4841 129.063 33.4484L129.118 33.4781L129.157 33.5625L129.237 34.6644H129.004L128.964 34.6247C128.962 34.5276 128.938 34.4322 128.893 34.3461C128.849 34.2599 128.784 34.1854 128.706 34.1284C128.666 34.1038 128.622 34.0869 128.577 34.0787L128.294 34.044H127.797H126.914C126.914 34.226 126.914 34.4692 126.914 34.7736C126.914 35.0764 126.914 35.4486 126.914 35.8854V38.2182C126.914 38.3621 126.914 38.4812 126.914 38.5756C126.914 38.6699 126.914 38.7542 126.914 38.8237C126.909 38.8964 126.909 38.9694 126.914 39.0421C126.91 39.1754 126.947 39.3068 127.018 39.4193C127.069 39.4791 127.124 39.5355 127.182 39.5881C127.259 39.6457 127.354 39.6754 127.45 39.6725H127.797L127.847 39.7122L127.877 39.8859L127.882 39.9157Z" fill="#272525"/>
<path d="M136.593 33.5575H138.211L138.26 33.6468L138.221 34.6941H137.982L137.943 34.6594C137.935 34.5405 137.917 34.4226 137.888 34.307C137.875 34.2614 137.85 34.2201 137.816 34.187C137.782 34.154 137.74 34.1303 137.694 34.1184C137.534 34.0694 137.366 34.0492 137.198 34.0588H135.377V34.4311C135.377 34.5353 135.377 34.6197 135.377 34.6891C135.377 34.7586 135.377 34.843 135.377 34.9472C135.377 35.0515 135.377 35.1706 135.377 35.3145V36.3469H136.483C136.617 36.3497 136.75 36.3381 136.88 36.3122C136.956 36.3047 137.028 36.2772 137.089 36.2328C137.136 36.184 137.181 36.1326 137.223 36.0789C137.266 36.0127 137.287 35.9344 137.283 35.8555L137.332 35.8059H137.496H137.531C137.531 35.9548 137.521 36.0839 137.501 36.1931C137.481 36.3022 137.481 36.4263 137.501 36.5653C137.501 36.7192 137.501 36.8631 137.501 36.9922C137.501 37.1212 137.501 37.2701 137.531 37.424H137.496H137.322L137.283 37.3942C137.284 37.295 137.264 37.1968 137.223 37.1063C137.189 37.0261 137.144 36.9509 137.089 36.883C137.024 36.8326 136.947 36.8016 136.866 36.7936C136.736 36.7721 136.605 36.7621 136.473 36.7638H135.362V38.2529C135.362 38.3968 135.362 38.5259 135.362 38.64C135.362 38.7542 135.362 38.8534 135.362 38.9477C135.362 39.042 135.362 39.1463 135.391 39.2704C135.421 39.3944 135.456 39.449 135.585 39.449H136.404C136.791 39.449 137.094 39.449 137.317 39.449C137.487 39.4404 137.655 39.4053 137.814 39.3448C137.921 39.3001 138.008 39.2169 138.057 39.1115C138.115 38.9751 138.161 38.834 138.196 38.6896L138.235 38.6499H138.489L138.315 39.866L138.235 39.9652H133.818L133.843 39.7915L133.893 39.7518C133.988 39.7571 134.085 39.7571 134.18 39.7518C134.262 39.7466 134.339 39.7173 134.404 39.6674C134.461 39.6161 134.511 39.5577 134.553 39.4937C134.614 39.3792 134.646 39.2514 134.647 39.1215C134.647 39.0768 134.647 39.0222 134.647 38.9626C134.647 38.9031 134.647 38.8237 134.647 38.7343C134.647 38.645 134.647 38.5358 134.647 38.4067V34.9373C134.647 34.8281 134.647 34.7338 134.647 34.6594C134.647 34.5849 134.647 34.5055 134.647 34.4261C134.645 34.2964 134.613 34.1689 134.553 34.0538C134.509 33.9908 134.459 33.9326 134.404 33.8801C134.338 33.8322 134.261 33.8031 134.18 33.7957C134.085 33.7904 133.988 33.7904 133.893 33.7957L133.843 33.756L133.818 33.5823H136.593V33.5575Z" fill="#272525"/>
<path d="M58.1014 36.5405C58.1014 36.2774 58.1794 36.0203 58.3256 35.8015C58.4717 35.5828 58.6795 35.4123 58.9225 35.3116C59.1656 35.2109 59.433 35.1846 59.6911 35.2359C59.9491 35.2872 60.1861 35.4139 60.3722 35.5999C60.5582 35.786 60.6849 36.023 60.7362 36.281C60.7875 36.539 60.7612 36.8065 60.6605 37.0496C60.5598 37.2926 60.3893 37.5004 60.1706 37.6465C59.9518 37.7927 59.6947 37.8707 59.4316 37.8707C59.0788 37.8707 58.7404 37.7306 58.491 37.4811C58.2415 37.2316 58.1014 36.8933 58.1014 36.5405Z" fill="#272525"/>
</g>
<defs>
<clipPath id="clip0">
<rect width="156.555" height="40" fill="white" transform="translate(0.0991821)"/>
</clipPath>
</defs>
</svg>
