<svg width="94" height="90" viewBox="0 0 94 90" fill="none" xmlns="http://www.w3.org/2000/svg">
<g clip-path="url(#clip0)">
<path d="M10.6009 43.9713H11.6437C11.9943 43.9753 12.3443 43.9388 12.6865 43.8626C13.8664 43.6552 14.9745 43.1523 15.9076 42.401C16.8768 41.6159 17.6848 40.6507 18.2871 39.5584C18.9487 38.3563 19.447 37.0714 19.7688 35.7375C20.1143 34.3384 20.2887 32.9026 20.2882 31.4615V30.1973C20.2882 29.7463 20.2882 29.2108 20.3164 28.5868C20.3446 27.9627 20.3486 27.2259 20.3486 26.3401V9.90874C20.3486 9.07932 20.3486 8.37471 20.3768 7.79493C20.405 7.21514 20.413 6.71588 20.4331 6.28104C20.4533 5.8462 20.4815 5.37914 20.5217 4.87183C20.5244 4.13596 20.7025 3.41134 21.0411 2.75802C21.2846 2.3934 21.5788 2.06532 21.9148 1.78365C22.3199 1.51298 22.7895 1.35459 23.2757 1.32465C23.8354 1.27231 24.4232 1.24413 25.0433 1.24413L25.2728 1.02671L25.4419 0.052342L25.3251 0H11.233L11.1163 0.052342L11.3136 1.02671L11.6035 1.24413C12.2195 1.24413 12.8113 1.27231 13.3428 1.32465C13.8196 1.35835 14.2791 1.51662 14.6755 1.78365C15.0152 2.07118 15.3085 2.40934 15.5452 2.7862C15.8774 3.43184 16.0552 4.14579 16.0646 4.87183C16.1049 5.30667 16.133 5.74151 16.1532 6.17233C16.1733 6.60314 16.1894 7.13059 16.2095 7.74258C16.2297 8.35458 16.2418 9.09542 16.2418 9.96511V24.1578C16.2418 28.9894 16.1545 32.7795 15.98 35.5281C15.8056 38.2767 15.1775 40.1557 14.0957 41.1649C13.6931 41.5431 13.2455 41.8703 12.763 42.1393C12.3928 42.2812 11.9999 42.3549 11.6035 42.3567H10.2546L10.0211 42.6547L10.1379 43.8183L10.6009 43.9713Z" fill="#272525"/>
<path d="M90.6318 82.8573C90.362 83.8316 90.1688 84.6128 90.052 85.2086C90.0052 85.4884 89.8943 85.7535 89.7281 85.9832C89.5619 86.213 89.3448 86.4013 89.0938 86.5333C88.2909 86.8916 87.4241 87.0847 86.5451 87.101C85.3641 87.1923 83.6193 87.2379 81.3109 87.2379H76.3666C75.5936 87.2379 75.1909 86.8957 75.1587 86.2112C75.1265 85.5267 75.0822 84.9107 75.042 84.3712C75.0017 83.8317 74.9735 83.2559 74.9574 82.6399C74.9413 82.0238 74.9292 81.3072 74.9292 80.4777V62.0896C74.9292 61.5138 74.9292 61.0065 74.9574 60.5757C74.9856 60.1449 75.0057 59.6738 75.042 59.1665C75.0496 58.4375 75.2392 57.722 75.5936 57.0849C75.8467 56.7133 76.1487 56.3775 76.4914 56.0864C76.8966 55.8129 77.3683 55.6543 77.8563 55.6274C78.4437 55.5696 79.0337 55.5414 79.6239 55.5428L79.8534 55.3294L80.0265 54.3551L79.9138 54.2987H65.8217L65.709 54.3551L65.8821 55.3294L66.172 55.5428C66.7529 55.5411 67.3334 55.5693 67.9114 55.6274C68.3887 55.658 68.8491 55.8166 69.2441 56.0864C69.5798 56.3672 69.8727 56.6954 70.1138 57.0608C70.3835 57.4634 70.5567 58.1599 70.6332 59.1665C70.6734 59.6013 70.7016 60.0322 70.7217 60.467C70.7419 60.9018 70.758 61.4212 70.7781 62.0332C70.7982 62.6452 70.8063 63.3861 70.8063 64.2517V82.966C70.8063 83.4693 70.8063 83.892 70.7781 84.2343C70.7499 84.5765 70.7298 84.8785 70.6935 85.1281C70.6292 85.8298 70.4325 86.5129 70.1138 87.1413C69.8909 87.5514 69.5964 87.9182 69.2441 88.2243C68.8473 88.4907 68.388 88.6489 67.9114 88.6833C67.3678 88.7357 66.788 88.7639 66.172 88.7639L65.8821 88.9813L65.709 89.9557L65.8217 90.008H90.7848L91.2478 89.4725L92.2906 82.6519H90.7848L90.6318 82.8573Z" fill="#272525"/>
<path d="M92.3068 0.80532C91.9922 0.803653 91.6837 0.892817 91.4185 1.06211C91.1533 1.2314 90.9426 1.47363 90.8117 1.75972C90.6808 2.04581 90.6352 2.3636 90.6804 2.67496C90.7256 2.98632 90.8598 3.27801 91.0667 3.51502C82.0639 12.5098 65.6325 28.9411 60.9942 33.5794C59.8444 34.7692 58.6134 35.8778 57.3101 36.8971C57.2097 36.7073 57.0967 36.5243 56.9719 36.3495C56.5416 35.7281 55.9687 35.2189 55.3011 34.8644C54.6335 34.5099 53.8907 34.3206 53.1348 34.3122C52.107 34.3269 51.0953 34.5696 50.1727 35.0229C49.2501 35.4762 48.4397 36.1287 47.8 36.9334C47.2815 37.5613 46.9094 38.297 46.7109 39.0868C46.5124 39.8766 46.4925 40.7007 46.6525 41.4992L46.3868 41.5878L45.9398 41.7327C41.3458 43.2627 38.5717 45.3564 37.4564 48.0741C36.6511 50.039 36.5787 52.1005 37.243 53.6788C35.9057 54.7271 34.6413 55.8652 33.4583 57.085L3.48245 87.0568C3.19859 86.8347 2.84841 86.7142 2.48795 86.7146C2.16305 86.7146 1.84544 86.8109 1.57529 86.9914C1.30515 87.172 1.0946 87.4285 0.970261 87.7287C0.845927 88.0289 0.813395 88.3592 0.87678 88.6778C0.940165 88.9965 1.09662 89.2892 1.32636 89.5189C1.5561 89.7487 1.84881 89.9051 2.16747 89.9685C2.48613 90.0319 2.81642 89.9994 3.11659 89.875C3.41676 89.7507 3.67332 89.5401 3.85383 89.27C4.03434 88.9998 4.13068 88.6822 4.13068 88.3573C4.13088 87.9862 4.00287 87.6263 3.76831 87.3387L33.7361 57.3709C34.8874 56.1828 36.1168 55.0731 37.4161 54.0492C37.5203 54.2439 37.6401 54.4297 37.7745 54.6048C38.207 55.2222 38.781 55.7272 39.4485 56.0774C40.1161 56.4276 40.8577 56.613 41.6116 56.618H41.7283C42.7336 56.5846 43.7197 56.3328 44.6179 55.8802C45.5162 55.4276 46.3053 54.7849 46.9303 53.9968C47.4445 53.3671 47.8144 52.6322 48.0141 51.8441C48.2137 51.056 48.2382 50.2337 48.0859 49.435L48.3677 49.3424L48.7985 49.2015C53.3845 47.6594 56.1626 45.5778 57.29 42.8399C58.0953 40.8751 58.1597 38.8136 57.4873 37.2474C58.8305 36.2031 60.0979 35.0648 61.2801 33.8412C65.9184 29.1988 82.3618 12.7594 91.3606 3.76465C91.5703 3.92102 91.8144 4.02504 92.0724 4.06804C92.3305 4.11105 92.595 4.09181 92.8441 4.01192C93.0933 3.93203 93.3197 3.7938 93.5046 3.60874C93.6895 3.42367 93.8275 3.19712 93.9072 2.94794C93.9869 2.69876 94.0059 2.43416 93.9626 2.17615C93.9194 1.91815 93.8152 1.6742 93.6586 1.4646C93.5021 1.25501 93.2977 1.08584 93.0626 0.971167C92.8274 0.856493 92.5683 0.799633 92.3068 0.80532ZM48.114 37.179C48.7148 36.4222 49.4761 35.8082 50.3429 35.3814C51.2098 34.9545 52.1607 34.7255 53.1268 34.7108C53.8203 34.7187 54.5018 34.8929 55.1142 35.2187C55.7265 35.5444 56.2517 36.0123 56.6458 36.5831C56.7732 36.7589 56.8863 36.9448 56.984 37.1387C56.1955 37.7244 55.3637 38.2493 54.4957 38.709C52.5324 39.6519 50.4847 40.4081 48.3798 40.9677L47.039 41.3703C46.9004 40.6356 46.9248 39.8794 47.1105 39.1551C47.2963 38.4309 47.6389 37.7562 48.114 37.179ZM46.6122 53.7673C46.0163 54.5245 45.2588 55.1391 44.3951 55.5661C43.5313 55.9931 42.5831 56.2218 41.6196 56.2355C40.9243 56.2266 40.2411 56.0513 39.6275 55.7241C39.0138 55.397 38.4875 54.9276 38.0926 54.3552C37.9596 54.1793 37.8423 53.992 37.7423 53.7955C38.5285 53.2037 39.3636 52.6798 40.2386 52.2293C42.143 51.2308 44.2407 50.6188 46.278 50.0027C46.7572 49.8618 47.2363 49.7169 47.7114 49.5679C47.8494 50.3056 47.8225 51.0647 47.6324 51.7908C47.4424 52.5169 47.094 53.1918 46.6122 53.7673ZM56.9155 42.7071C55.8365 45.3322 53.1389 47.3373 48.6737 48.8391L48.2429 48.9801C48.0926 49.0311 47.9436 49.0794 47.796 49.125C47.2524 49.2981 46.7008 49.4632 46.1532 49.6243C44.1079 50.2363 41.99 50.8644 40.0494 51.879C39.1862 52.329 38.3596 52.8459 37.5772 53.4251C36.9934 51.9716 37.0779 50.0511 37.8268 48.2231C38.8978 45.602 41.5914 43.6049 46.0647 42.1112L46.5156 41.9662L46.9182 41.8253L48.4764 41.3542C50.554 40.7302 52.7 40.09 54.6608 39.0633C55.5215 38.6075 56.3478 38.0894 57.133 37.5131C57.7409 38.9586 57.6644 40.8751 56.9155 42.7071Z" fill="#272525"/>
</g>
<defs>
<clipPath id="clip0">
<rect width="93.1083" height="90" fill="white" transform="translate(0.845215)"/>
</clipPath>
</defs>
</svg>
