<svg width="95" height="100" viewBox="0 0 95 100" fill="none" xmlns="http://www.w3.org/2000/svg">
<g clip-path="url(#clip0)">
<path d="M22.9201 17.094L22.6848 17.3133C22.5732 17.413 22.4615 17.5206 22.3459 17.6283L22.0109 17.9393L21.7757 18.1586L21.5803 18.342L21.345 18.5613L21.0101 18.8724L20.6752 19.1874L20.4399 19.4067H20.408L20.2684 19.1953V19.1395C20.3719 19.0435 20.4703 18.9424 20.5635 18.8365C20.6442 18.7494 20.6994 18.6418 20.723 18.5254C20.7304 18.4172 20.7223 18.3085 20.6991 18.2025C20.6413 18.0233 20.5477 17.8578 20.4239 17.716C20.3809 17.6523 20.3343 17.5911 20.2844 17.5326L20.093 17.2654C20.0093 17.1697 19.9016 17.0501 19.774 16.9145L19.2955 16.4042L18.183 15.2319L14.5505 18.6172L15.4556 19.5901L16.0139 20.1842C16.1534 20.3397 16.277 20.4633 16.3727 20.5829L16.6279 20.8342L16.8552 21.0495C16.9839 21.1886 17.1438 21.2952 17.3217 21.3605C17.4269 21.3898 17.5356 21.4045 17.6447 21.4044C17.7619 21.3883 17.8724 21.34 17.9637 21.2648C18.0785 21.1802 18.1877 21.0883 18.2907 20.9897H18.3704L18.5698 21.1452V21.1731L18.3345 21.3924L17.9956 21.7074L17.6607 22.0224L17.4254 22.2417L17.23 22.4211L16.9988 22.6404C16.8871 22.7401 16.7755 22.8478 16.6598 22.9554L16.3249 23.2665L16.0896 23.4858H16.0577L15.9182 23.2705V23.1827C16.0213 23.0891 16.1185 22.9893 16.2093 22.8837C16.2895 22.7984 16.3435 22.6918 16.3648 22.5766C16.3783 22.4667 16.3783 22.3556 16.3648 22.2457C16.3133 22.0627 16.219 21.8945 16.0896 21.7552C16.0458 21.7114 15.9939 21.6516 15.9381 21.5838C15.8823 21.516 15.8105 21.4323 15.7228 21.3366C15.6351 21.2409 15.5314 21.1173 15.4038 20.9817L14.9094 20.4673L12.9755 18.3979L12.4172 17.7958C12.2617 17.6323 12.1302 17.4927 12.0185 17.397L11.7354 17.1099L11.4922 16.8787C11.3625 16.7453 11.2063 16.6407 11.0336 16.5716C10.926 16.541 10.8145 16.5262 10.7027 16.5278C10.5871 16.5401 10.4776 16.5858 10.3877 16.6593C10.2763 16.7437 10.1698 16.8342 10.0687 16.9305H9.97696L9.77759 16.775V16.7471L10.0128 16.5278L10.3518 16.2128L10.6867 15.9017L10.922 15.6824L11.1174 15.499L11.3486 15.2797L11.6876 14.9687L12.0225 14.6537L12.2578 14.4344H12.2897L12.4292 14.6457V14.7255C12.3258 14.8214 12.2273 14.9226 12.1341 15.0285C12.052 15.1145 11.9966 15.2226 11.9746 15.3395C11.9639 15.4489 11.9707 15.5592 11.9946 15.6665C12.0467 15.8477 12.1426 16.0134 12.2737 16.149C12.3534 16.2526 12.4332 16.3443 12.505 16.4321L12.7602 16.7271L13.127 17.1259L13.7132 17.712L14.1398 18.1706L17.7723 14.7813L17.3736 14.3307L16.8153 13.7286L16.4166 13.3299L16.1056 13.0308C16.0258 12.9511 15.9421 12.8753 15.8584 12.7995C15.732 12.6596 15.5731 12.5528 15.3958 12.4885C15.2907 12.4592 15.182 12.4445 15.0729 12.4447C14.9555 12.4601 14.8449 12.5085 14.7539 12.5842C14.6383 12.6678 14.529 12.7598 14.4269 12.8594H14.3471L14.1438 12.7038V12.6759L14.379 12.4566L14.718 12.1416L15.0529 11.8266L15.3081 11.6033L15.4995 11.4239L15.7348 11.2046C15.8464 11.1049 15.9581 10.9972 16.0737 10.8896L16.4086 10.5786L16.6439 10.3593H16.6758L16.8153 10.5746V10.6623C16.711 10.7559 16.6125 10.8558 16.5203 10.9614C16.4426 11.0479 16.3902 11.1541 16.3688 11.2684C16.3534 11.3782 16.3534 11.4895 16.3688 11.5993C16.4202 11.7824 16.5145 11.9505 16.6439 12.0898L16.8752 12.3689C16.9469 12.4526 17.0347 12.5483 17.1383 12.66L17.5092 13.0587C17.6567 13.2182 17.8401 13.4176 18.0714 13.6608L19.8218 15.5389L20.3801 16.137L20.735 16.5357C20.8307 16.6394 20.9144 16.7231 20.9822 16.7909L21.2135 17.0062C21.3419 17.1448 21.5019 17.2502 21.68 17.3133C21.7882 17.3397 21.8995 17.3518 22.0109 17.3492C22.1265 17.3368 22.2359 17.2911 22.3259 17.2176C22.4373 17.1332 22.5438 17.0427 22.6449 16.9464H22.7366L22.936 17.1019L22.9201 17.094Z" fill="#272525"/>
<path d="M30.0613 3.13805L30.5757 2.93868L31.2575 2.66754L31.8915 2.42431L32.2344 2.29272L32.3461 2.38443L32.8525 3.8199L32.5255 3.9475L32.4537 3.9156C32.3822 3.75941 32.2968 3.60995 32.1986 3.46901C32.1571 3.41578 32.1027 3.37396 32.0407 3.34746C31.9786 3.32096 31.9108 3.31065 31.8437 3.31749C31.6104 3.33768 31.3817 3.39418 31.1658 3.48496L29.9696 3.95547L28.7176 4.43795L28.8651 4.94833C28.9089 5.08789 28.9488 5.20751 28.9807 5.30321L29.1003 5.6541C29.1482 5.79366 29.212 5.96113 29.2877 6.15253C29.3635 6.34392 29.539 6.81045 29.8261 7.54812L30.6235 7.24508L31.3333 6.97393C31.5148 6.90494 31.6896 6.81953 31.8556 6.71874C31.9616 6.6615 32.0468 6.57217 32.0989 6.46354C32.1398 6.37162 32.1744 6.27704 32.2025 6.18044C32.2249 6.06869 32.2109 5.95273 32.1627 5.84949L32.2025 5.75778L32.4139 5.65012H32.4537C32.5096 5.85746 32.5614 6.04886 32.6053 6.18841C32.6491 6.32797 32.7089 6.51139 32.7807 6.70279C32.8525 6.89418 32.9442 7.10153 33.0239 7.27299C33.1037 7.44445 33.1954 7.63185 33.2951 7.83122L33.2512 7.87907L33.008 7.94287L32.9402 7.92293C32.8884 7.78973 32.8112 7.66786 32.7129 7.56407C32.6254 7.47351 32.5246 7.39687 32.4139 7.33679C32.302 7.30332 32.1828 7.30332 32.071 7.33679C31.8832 7.37719 31.6991 7.43321 31.5207 7.50426L30.8149 7.7754L30.0174 8.08243L30.5039 9.33846L30.799 10.1001C30.8707 10.2914 30.9425 10.4629 31.0023 10.6144C31.0621 10.766 31.1259 10.9015 31.1818 11.0132C31.2376 11.1248 31.3094 11.2763 31.3891 11.4318C31.3981 11.4681 31.4155 11.5017 31.4399 11.53C31.4643 11.5584 31.4949 11.5806 31.5294 11.5949C31.5639 11.6093 31.6013 11.6153 31.6385 11.6126C31.6758 11.6099 31.7119 11.5985 31.744 11.5794L32.8525 11.1647C33.3748 10.9653 33.7815 10.7939 34.0487 10.6583C34.2799 10.56 34.494 10.4254 34.6827 10.2595C34.806 10.1424 34.8801 9.98275 34.89 9.81296C34.8989 9.59989 34.8895 9.38646 34.8621 9.17498L34.894 9.1032L35.233 8.97162L35.6317 10.7022L35.5759 10.8736L35.2768 10.9892L34.7505 11.1926L34.1643 11.4199L33.7018 11.5953L31.0701 12.6121L30.7711 12.7277L30.3404 12.8912L29.9138 13.0587L29.6626 13.1584H29.6307L29.5788 12.9112L29.6227 12.8314C29.759 12.784 29.8922 12.7281 30.0214 12.664C30.1272 12.6136 30.2169 12.5349 30.2806 12.4367C30.3281 12.337 30.3655 12.2328 30.3923 12.1257C30.4118 11.9362 30.3858 11.7448 30.3165 11.5674C30.2926 11.5076 30.2686 11.4358 30.2407 11.3521C30.2128 11.2684 30.1769 11.1647 30.1371 11.0411L29.9736 10.5945L29.6945 9.96847L28.6737 7.32482C28.5541 7.02178 28.4584 6.76659 28.3746 6.55526L28.1713 6.02493C28.1155 5.8774 28.0636 5.7498 28.0198 5.62619C27.9759 5.50258 27.928 5.42283 27.8802 5.32315C27.8091 5.14973 27.7001 4.99441 27.5612 4.86858C27.4707 4.80328 27.373 4.74844 27.2701 4.7051C27.158 4.67339 27.0393 4.67339 26.9272 4.7051C26.7915 4.7399 26.6583 4.78386 26.5285 4.83669L26.4447 4.80877L26.3171 4.58947V4.56554L26.6162 4.44991L27.0668 4.27845L27.5333 4.09503L27.9041 3.95148L30.0613 3.13805Z" fill="#272525"/>
<path d="M44.5875 1.31185C44.5816 1.12301 44.534 0.937814 44.448 0.769568C44.3879 0.677671 44.3154 0.594483 44.2327 0.522349C44.1365 0.455408 44.0228 0.417992 43.9057 0.41469C43.7729 0.40714 43.6398 0.40714 43.507 0.41469L43.4352 0.358866L43.3873 0.111647H43.4152H43.7382H44.1968H44.6593H44.9783H45.2136H45.5326H45.9951H46.4536L46.8085 0L46.7726 0.255194L46.7168 0.311017C46.5741 0.313258 46.4316 0.32391 46.2902 0.342916C46.1726 0.353925 46.0605 0.398182 45.9672 0.470513C45.8842 0.547349 45.8129 0.636029 45.7558 0.733682C45.6772 0.902251 45.6364 1.08597 45.6362 1.27198C45.6362 1.40356 45.6362 1.52319 45.6362 1.63483C45.6362 1.74648 45.6362 1.87807 45.6362 2.03357C45.6362 2.18908 45.6362 2.36453 45.6362 2.57985C45.6362 2.79517 45.6362 3.06631 45.6362 3.40125L45.7319 5.9811C45.7319 6.30807 45.7319 6.57522 45.7319 6.77858C45.7319 6.98194 45.7319 7.17732 45.7519 7.33682C45.7718 7.49631 45.7519 7.64385 45.7838 7.7834C45.8157 7.92296 45.8117 8.07847 45.8236 8.25392C45.8225 8.29179 45.8298 8.32945 45.845 8.36416C45.8602 8.39887 45.8829 8.42975 45.9116 8.45457C45.9402 8.47939 45.974 8.49752 46.0105 8.50764C46.047 8.51777 46.0854 8.51963 46.1227 8.5131L47.3189 8.48519C47.8771 8.48519 48.2958 8.4493 48.5789 8.4174C48.7913 8.40797 48.9992 8.3536 49.189 8.25791C49.2494 8.21998 49.3007 8.16924 49.3392 8.1093C49.3778 8.04935 49.4028 7.98165 49.4123 7.911C49.4362 7.75549 49.4761 7.55214 49.5359 7.30093L49.5758 7.24112H49.9386L49.7313 9.00754L49.6236 9.1471H49.3644H48.9338H48.4314L48.0047 9.17102L45.1856 9.24279H44.8627H44.4041H43.9456H43.6226H43.5947L43.6306 8.99159L43.6983 8.93178C43.8318 8.9289 43.9649 8.91825 44.0971 8.89988C44.2129 8.88951 44.3235 8.84666 44.4161 8.77627C44.4993 8.69333 44.5668 8.59608 44.6154 8.48917C44.6908 8.32617 44.7342 8.15019 44.743 7.97081C44.743 7.90701 44.743 7.82727 44.743 7.73954C44.743 7.65182 44.743 7.54416 44.743 7.41258C44.743 7.28099 44.743 7.12548 44.743 6.93808C44.743 6.75067 44.743 6.53934 44.743 6.24028L44.6713 3.40923C44.6713 3.08226 44.6713 2.80713 44.6713 2.58384C44.6713 2.36054 44.6713 2.1851 44.6713 2.01364C44.6713 1.84218 44.6713 1.71857 44.6473 1.6149C44.6234 1.51122 44.5955 1.4235 44.5875 1.31185Z" fill="#272525"/>
<path d="M64.0261 2.71937L64.5485 2.89083L65.2583 3.12609L65.9002 3.33742L66.2511 3.45305L66.279 3.59261L65.7487 5.01611L65.4177 4.90845L65.3819 4.83668C65.4255 4.6707 65.4549 4.50128 65.4696 4.33028C65.4713 4.26259 65.4557 4.19559 65.4243 4.13559C65.3929 4.0756 65.3467 4.02458 65.2902 3.98736C65.0974 3.85575 64.8847 3.75612 64.6601 3.6923L63.428 3.29356L62.1521 2.89482L61.9607 3.36932C61.9048 3.50489 61.857 3.62052 61.8211 3.71622C61.7852 3.81192 61.7454 3.92755 61.6935 4.06312C61.6417 4.1987 61.5859 4.37015 61.5221 4.56554C61.4583 4.76092 61.2988 5.23542 61.0515 5.98505L61.849 6.24822L62.5707 6.48746C62.7547 6.54978 62.9444 6.59385 63.137 6.61905C63.2552 6.64322 63.378 6.62926 63.4878 6.57917C63.5763 6.53458 63.6616 6.48396 63.743 6.42765C63.8315 6.35411 63.8955 6.25536 63.9265 6.14455L64.0142 6.10069L64.2454 6.14853L64.2893 6.1924L64.07 6.70677C64.0062 6.85032 63.9464 7.02177 63.8826 7.21317C63.8188 7.40457 63.751 7.61191 63.7072 7.80729C63.6633 8.00268 63.6115 8.20603 63.5596 8.41338H63.4958L63.2685 8.30971L63.2287 8.24989C63.275 8.11411 63.2927 7.97019 63.2805 7.82723C63.2683 7.70279 63.2388 7.58066 63.1928 7.46438C63.1271 7.36732 63.0361 7.29009 62.9296 7.24108C62.7588 7.15433 62.5815 7.08101 62.3993 7.02178L61.6816 6.77854L60.8841 6.51139L60.4654 7.79533C60.3577 8.11033 60.274 8.36952 60.2102 8.5649C60.1464 8.76028 60.0866 8.93971 60.0427 9.09522C59.9989 9.25073 59.955 9.39428 59.9231 9.52586L59.8154 9.98043C59.7995 10.0144 59.7917 10.0516 59.7927 10.0891C59.7938 10.1266 59.8036 10.1633 59.8215 10.1963C59.8393 10.2293 59.8647 10.2576 59.8955 10.279C59.9263 10.3003 59.9617 10.3142 59.9989 10.3194L61.1273 10.6902C61.6576 10.8656 62.0763 10.9932 62.3913 11.0889C62.6321 11.1585 62.8826 11.1881 63.133 11.1766C63.295 11.1602 63.4453 11.0851 63.5556 10.9653C63.7038 10.8063 63.8373 10.6341 63.9544 10.4509L64.0261 10.4151L64.3691 10.5267L63.5716 12.1217L63.424 12.2174L63.117 12.1177L62.5827 11.9622L61.9846 11.7628L61.5141 11.6073L58.8346 10.7261L58.5315 10.6264L58.0929 10.4828L57.6583 10.3393L57.3512 10.2396L57.3313 10.2157L57.4469 9.9884L57.5307 9.96049C57.6742 10.0043 57.8098 10.0442 57.9294 10.0721C58.0403 10.1027 58.1574 10.1027 58.2683 10.0721C58.3714 10.0299 58.468 9.97358 58.5554 9.90466C58.6898 9.7704 58.7909 9.60653 58.8505 9.42618C58.8704 9.36637 58.8983 9.29459 58.9302 9.21086L59.0459 8.90383L59.2014 8.45724C59.2572 8.27781 59.333 8.0585 59.4167 7.79134L60.3059 5.09985C60.4056 4.79282 60.4933 4.53364 60.5611 4.30237C60.6289 4.0711 60.6927 3.90363 60.7405 3.76008C60.7884 3.61654 60.8322 3.48096 60.8602 3.36134C60.8881 3.24172 60.92 3.14602 60.9479 3.03836C61.0035 2.85911 61.0171 2.66948 60.9877 2.48411C60.9605 2.37542 60.9189 2.27083 60.8641 2.1731C60.7964 2.07827 60.704 2.00381 60.597 1.95778C60.4668 1.90158 60.3337 1.85234 60.1982 1.81024L60.1464 1.73448L60.1863 1.48328H60.2182L60.5212 1.58296L60.9798 1.7305L61.4583 1.88999L61.8331 2.0136L64.0261 2.71937Z" fill="#272525"/>
<path d="M83.644 14.8291L83.4646 15.0005H83.3769C83.2612 14.9048 83.1496 14.8211 83.0379 14.7414C82.9458 14.6723 82.834 14.6346 82.7189 14.6337C82.6113 14.6353 82.5047 14.6555 82.4039 14.6935C82.2348 14.7767 82.0842 14.8934 81.9613 15.0364C81.8696 15.1281 81.7859 15.2159 81.7141 15.2996L81.451 15.5907C81.3513 15.7023 81.2316 15.8379 81.0961 15.9894L80.5657 16.6194L78.9708 18.5015C78.6358 18.9002 78.3607 19.2312 78.1494 19.4903L77.6071 20.1562C77.4596 20.3437 77.328 20.5111 77.2084 20.6626L76.8495 21.1651L76.7378 21.1252L76.0759 20.5669V20.3476L77.1127 11.4438L76.9292 11.6551C76.8654 11.7229 76.7897 11.8066 76.702 11.9103L76.4029 12.2692L75.9683 12.7596L74.3215 14.7533L74.0424 15.0883C73.9227 15.2278 73.8031 15.3754 73.6835 15.5269L73.3206 15.9495C73.209 16.0891 73.1173 16.2087 73.0535 16.3004C72.9421 16.4411 72.8594 16.6023 72.8103 16.7749C72.7784 16.8924 72.7784 17.0163 72.8103 17.1338C72.838 17.2352 72.89 17.3282 72.9618 17.4049C73.065 17.5198 73.1769 17.6265 73.2967 17.7239V17.8117L73.1691 18.031H73.1372L72.9099 17.8396L72.583 17.5644L72.256 17.2893L72.0287 17.0979L71.8254 16.9265L71.5781 16.7191L71.2273 16.424L70.8724 16.129L70.6292 15.9216V15.8937L70.8205 15.7262H70.9123C71.0196 15.8186 71.1328 15.9038 71.2512 15.9814C71.3438 16.0471 71.4529 16.0857 71.5662 16.0931C71.669 16.0972 71.7718 16.0823 71.8692 16.0492C72.0506 15.9708 72.2135 15.8553 72.3477 15.7103C72.3956 15.6664 72.4514 15.6106 72.5112 15.5468C72.571 15.483 72.6428 15.3993 72.7265 15.2996L73.0336 14.9367L73.4801 14.4024L75.3064 12.2293L75.8367 11.5993C75.9802 11.4278 76.1038 11.2843 76.2035 11.1607C76.3032 11.0371 76.3909 10.9374 76.4587 10.8457C76.5265 10.754 76.5943 10.6702 76.6581 10.5785C76.7597 10.439 76.8353 10.2823 76.8814 10.116C76.916 9.99553 76.9242 9.86903 76.9053 9.74515C76.8772 9.63432 76.8209 9.53266 76.7418 9.45008C76.6422 9.34739 76.5371 9.25021 76.4268 9.159V9.07526L76.5504 8.85994L76.6102 8.83203L76.8216 9.02741L77.1007 9.29058L77.3798 9.55774C77.4675 9.64147 77.5393 9.70926 77.5911 9.74913L77.962 10.0641L78.2052 10.2675C78.2881 10.3388 78.3807 10.3979 78.4803 10.4429L78.5082 10.5227C78.4345 10.7029 78.3785 10.8899 78.3408 11.0809C78.281 11.3321 78.2251 11.6152 78.1693 11.9342C78.1135 12.2532 78.0577 12.5921 78.0018 12.959C77.946 13.3258 77.8902 13.6847 77.8424 14.0475C77.6563 15.3767 77.5327 16.4812 77.4715 17.3611C77.4117 18.2503 77.3718 18.8205 77.3479 19.0796L77.4715 18.9481C77.5181 18.9014 77.562 18.8521 77.6031 18.8005L77.7825 18.5892L78.0696 18.2463L79.8919 16.0731L80.4222 15.4431C80.5697 15.2717 80.6894 15.1241 80.789 15.0005L81.0363 14.6815C81.104 14.5938 81.1718 14.5021 81.2356 14.4104C81.3589 14.2668 81.4464 14.096 81.4908 13.912C81.5068 13.8036 81.5068 13.6934 81.4908 13.585C81.4636 13.4709 81.4041 13.3671 81.3194 13.286C81.22 13.183 81.1149 13.0858 81.0044 12.9949V12.9151L81.132 12.6998L81.1878 12.6759C81.2396 12.7197 81.3074 12.7835 81.3951 12.8673L81.6623 13.1225L81.9334 13.3777C82.0211 13.4614 82.0889 13.5252 82.1368 13.5651L82.6392 13.9877L82.8545 14.1672C82.9462 14.2429 83.0459 14.3227 83.1496 14.3984L83.4566 14.6217C83.5563 14.6895 83.6321 14.7453 83.6879 14.7772L83.644 14.8291Z" fill="#272525"/>
<path d="M22.8083 79.0621L22.581 79.1778H22.5013C22.4171 79.0638 22.3265 78.9547 22.2301 78.8508C22.1539 78.7608 22.0547 78.6933 21.943 78.6554C21.7963 78.6232 21.6441 78.6252 21.4982 78.6612C21.3524 78.6971 21.2167 78.7661 21.1017 78.8628C20.9901 78.9305 20.8904 78.9983 20.7987 79.0621C20.7069 79.1259 20.5953 79.1977 20.4757 79.2814C20.3561 79.3652 20.2045 79.4728 20.0331 79.6004L19.3712 80.0909L17.3017 81.6101L16.6239 82.1125L16.1533 82.4514L15.8184 82.6907L15.5552 82.886C15.2557 83.1079 14.932 83.2952 14.5903 83.4443C14.2706 83.5859 13.9344 83.6864 13.5894 83.7433C13.2812 83.7962 12.9655 83.788 12.6604 83.7194C12.3743 83.6569 12.11 83.5193 11.8948 83.3207C11.8298 83.2673 11.7722 83.2057 11.7233 83.1373L11.5718 82.9339L11.5399 82.8223L11.7632 82.6189H11.8589L12.0503 82.8781C12.109 82.9526 12.1806 83.0161 12.2616 83.0655C12.3895 83.1189 12.5234 83.1564 12.6604 83.1771C13.1823 83.1791 13.6891 83.0018 14.0958 82.6747C14.69 82.276 15.4914 81.7217 16.4883 80.9801L18.7691 79.2934L19.431 78.803L19.8895 78.456L20.2045 78.2009C20.2923 78.1331 20.38 78.0613 20.4637 77.9855C20.6115 77.8739 20.7327 77.7309 20.8186 77.5669C20.8622 77.4639 20.8905 77.3551 20.9023 77.2439C20.9033 77.1266 20.8701 77.0116 20.8066 76.9129C20.7361 76.7931 20.6588 76.6773 20.5754 76.566V76.4743L20.7508 76.2909H20.7787L20.9701 76.5501L21.2452 76.9209L21.5204 77.2877L21.7118 77.5469L21.8673 77.7622L22.0587 78.0174L22.3338 78.3883L22.6049 78.7591C22.6967 78.8787 22.7605 78.9624 22.7963 79.0183L22.8083 79.0621Z" fill="#272525"/>
<path d="M31.7918 86.407L30.5398 93.0261C30.476 93.3132 30.4281 93.5564 30.3962 93.7518C30.3643 93.9471 30.3324 94.1146 30.3085 94.2542C30.2846 94.3937 30.2686 94.5094 30.2567 94.6011C30.2447 94.6928 30.2327 94.7805 30.2248 94.8523C30.1948 95.0586 30.1948 95.2681 30.2248 95.4743C30.2484 95.6142 30.2956 95.749 30.3643 95.8731C30.4271 95.9761 30.5098 96.0655 30.6076 96.1362C30.7033 96.2027 30.8029 96.2665 30.9066 96.3276L30.9385 96.4114L30.8468 96.6506L30.795 96.6825C30.7104 96.6319 30.6291 96.576 30.5517 96.515C30.4481 96.4393 30.3324 96.3635 30.2128 96.2917L29.8699 96.0924L29.6267 95.9448L29.2279 95.7096L28.9528 95.5461L28.554 95.3108L28.1553 95.0716L27.8682 94.9001V94.8762L28.0357 94.6808L28.1114 94.6609C28.2905 94.7758 28.4892 94.8569 28.6976 94.9001C28.8571 94.9241 29.0046 94.8204 29.1402 94.5891C29.2807 94.3118 29.3724 94.0124 29.4113 93.7039C29.4831 93.3052 29.5788 92.7868 29.6905 92.1728L29.83 91.475L27.1385 89.88L26.5922 90.3346L25.396 91.3195C25.146 91.5034 24.9278 91.7269 24.7501 91.9814C24.6145 92.2166 24.5946 92.3801 24.6903 92.5236C24.8293 92.6857 24.9969 92.8208 25.1847 92.9224L25.2166 93.0061L25.1249 93.2454H25.097L24.8298 93.0899L24.4311 92.8666L24.0323 92.6433L23.7692 92.4878L23.5419 92.3522L23.2907 92.2047L22.9398 91.9973C22.8261 91.93 22.709 91.8688 22.5889 91.8139C22.4733 91.762 22.3855 91.7182 22.3297 91.6863V91.6305L22.4812 91.4271H22.5729C22.6718 91.489 22.7744 91.545 22.88 91.5946C22.986 91.6448 23.1016 91.672 23.2189 91.6743C23.3646 91.676 23.5093 91.6503 23.6456 91.5986C23.8421 91.5242 24.0284 91.4251 24.1998 91.3035C24.2528 91.2763 24.3024 91.2429 24.3473 91.2038C24.3992 91.1639 24.4749 91.1041 24.5826 91.0284L24.9813 90.7134L25.6432 90.195L26.6361 89.3975L28.0676 88.281C28.3387 88.0617 28.6099 87.8504 28.8651 87.6391L29.6346 87.0489L30.2686 86.5625L30.6674 86.2515L31.5885 86.3113L31.7918 86.407ZM27.625 89.5052L29.9217 90.8609L30.6036 87.1008L27.625 89.5052Z" fill="#272525"/>
<path d="M53.0687 100H52.7457H52.2872H51.8247H50.9195H50.457H49.9984H49.6755H49.6356L49.6794 99.7488L49.7392 99.693C49.88 99.7011 50.0211 99.7011 50.1619 99.693C50.2776 99.688 50.3889 99.6476 50.4809 99.5773C50.5542 99.5027 50.6184 99.4198 50.6723 99.3301C50.7473 99.1596 50.7814 98.9739 50.772 98.7878C50.772 98.724 50.772 98.6483 50.772 98.5566C50.772 98.4649 50.772 98.3612 50.772 98.2296C50.772 98.098 50.772 97.9425 50.772 97.7551C50.772 97.5677 50.772 97.3364 50.7401 97.0573C50.6843 96.0804 50.6364 95.2989 50.6045 94.7167C50.5726 94.1345 50.5447 93.68 50.5208 93.353C50.4969 93.026 50.4809 92.7948 50.4729 92.6552C50.465 92.5157 50.449 92.4 50.441 92.3043L50.122 93.0779C49.9785 93.4208 49.811 93.8195 49.6196 94.2741C49.4282 94.7287 49.2209 95.2032 49.0175 95.7096L48.3875 97.2208C48.1802 97.7192 47.9888 98.1937 47.7934 98.6363C47.598 99.0789 47.4425 99.4577 47.3069 99.7727H46.649L43.9814 92.2485C43.9814 92.3442 43.9575 92.4399 43.9495 92.5436C43.9416 92.6472 43.9256 92.7669 43.9137 92.9104C43.9017 93.054 43.8897 93.2214 43.8698 93.4128L43.81 94.1186L43.5747 96.6825C43.5388 96.9975 43.5189 97.2567 43.5069 97.46C43.495 97.6634 43.479 97.8588 43.4671 97.9904C43.4551 98.1219 43.4671 98.2655 43.4671 98.3692C43.4671 98.4728 43.4671 98.5765 43.4671 98.6882C43.4496 98.8744 43.4784 99.062 43.5508 99.2344C43.6018 99.3294 43.6678 99.4156 43.7462 99.4896C43.8183 99.5558 43.9086 99.5988 44.0054 99.6132C44.1268 99.6309 44.2495 99.6389 44.3722 99.6372L44.428 99.697L44.4679 99.9482L44.436 100.004H44.1529L43.7542 99.9841L43.3554 99.9641H43.0723H42.8052H42.4902H42.0236H41.5611H41.2501H41.2222L41.266 99.7129L41.3498 99.6571C41.4826 99.6649 41.6157 99.6649 41.7485 99.6571C41.8684 99.6486 41.9839 99.6087 42.0834 99.5415C42.1705 99.4677 42.2494 99.3848 42.3187 99.2942C42.4222 99.1322 42.4851 98.9475 42.5021 98.7559C42.5021 98.6882 42.5021 98.6124 42.534 98.5247C42.5659 98.437 42.5579 98.3253 42.5739 98.1977C42.5898 98.0701 42.6098 97.9106 42.6297 97.7232C42.6497 97.5358 42.6736 97.3245 42.6975 97.0254L42.9407 94.1983C42.9726 93.8714 42.9966 93.5962 43.0165 93.3729C43.0364 93.1497 43.0444 92.9742 43.0524 92.8027C43.0604 92.6313 43.0524 92.5117 43.0723 92.404C43.0923 92.2963 43.0723 92.1807 43.0723 92.0691C43.092 91.8777 43.0545 91.6849 42.9647 91.5148C42.9012 91.4219 42.8247 91.3386 42.7374 91.2676C42.6451 91.1966 42.5344 91.1537 42.4184 91.144C42.2795 91.1261 42.1397 91.1168 41.9997 91.1161L41.9319 91.0563L41.8921 90.8051H41.924H42.2429H42.7015H43.164H43.483H43.9735H44.2885C44.4201 90.8051 44.5317 90.8051 44.6154 90.8051L44.6832 90.8489C44.6987 91.0129 44.7321 91.1747 44.7829 91.3314C44.8387 91.5348 44.9105 91.762 44.9942 92.0132L45.2654 92.8107C45.3651 93.0978 45.4608 93.3809 45.5605 93.66L46.4656 96.2598C46.6171 96.7064 46.7567 97.0892 46.8643 97.4042C46.972 97.7192 47.1036 97.9943 47.1993 98.2376C47.2272 98.1937 47.3109 98.0143 47.4465 97.7033C47.5821 97.3923 47.7495 97.0134 47.9449 96.5549C48.1403 96.0963 48.3437 95.5979 48.5789 95.0516C48.8142 94.5054 49.0135 93.9711 49.2169 93.4567C49.4203 92.9423 49.6156 92.4519 49.7432 92.0053C49.8658 91.6612 49.9605 91.3078 50.0263 90.9486L50.0981 90.8968H50.3334H50.5726H51.075H51.394H51.8566H52.3151H52.6381H52.666L52.6182 91.148L52.5464 91.2038C52.4056 91.1956 52.2645 91.1956 52.1237 91.2038C52.0081 91.2088 51.8967 91.2492 51.8047 91.3194C51.7142 91.3882 51.636 91.4718 51.5735 91.5666C51.4767 91.7302 51.4322 91.9194 51.4459 92.1089C51.4459 92.2365 51.4459 92.3601 51.4459 92.4718C51.4459 92.5834 51.4459 92.715 51.4459 92.8705C51.4459 93.026 51.4459 93.2015 51.4658 93.4128C51.4857 93.6242 51.4897 93.9033 51.5136 94.2382L51.6373 96.8101C51.6612 97.145 51.6771 97.4162 51.6891 97.6076C51.701 97.799 51.709 98.0063 51.721 98.1299C51.7329 98.2535 51.7449 98.3891 51.7569 98.4888C51.7688 98.5885 51.7848 98.6882 51.8007 98.7998C51.8324 98.9728 51.8974 99.1381 51.9921 99.2863C52.056 99.3788 52.1295 99.4644 52.2114 99.5415C52.3072 99.6116 52.4202 99.6543 52.5384 99.6651C52.674 99.6651 52.8135 99.689 52.9611 99.693L53.0328 99.7488L53.0687 100Z" fill="#272525"/>
<path d="M63.1926 86.69L63.679 86.4309L64.337 86.084L64.9351 85.765L65.262 85.5935L65.3857 85.6693L66.0436 87.0409L65.7365 87.2044L65.6608 87.1805C65.571 87.0384 65.4682 86.9049 65.3538 86.7818C65.3061 86.7339 65.2471 86.6989 65.1822 86.68C65.1174 86.6612 65.0488 86.6592 64.9829 86.6741C64.761 86.724 64.5483 86.8088 64.3529 86.9253L63.2045 87.5354L62.0083 88.1614L62.2356 88.6479C62.2954 88.7834 62.3473 88.8951 62.3911 88.9868L62.5546 89.3217C62.6184 89.4533 62.6981 89.6128 62.7978 89.7962L63.4956 91.1161L64.2373 90.7173L64.9072 90.3624C65.081 90.2746 65.2454 90.169 65.3976 90.0474C65.4966 89.9773 65.5718 89.8785 65.6129 89.7643C65.641 89.6689 65.6623 89.5716 65.6767 89.4732C65.6864 89.359 65.6599 89.2446 65.601 89.1463L65.6289 89.0546L65.8243 88.919H65.8881L66.1074 89.4374C66.1672 89.5809 66.2469 89.7444 66.3426 89.9238C66.4383 90.1033 66.55 90.3226 66.6497 90.4621C66.7493 90.6017 66.861 90.8011 66.9846 90.9885L66.9447 91.0363L66.7135 91.132H66.6417C66.5751 91.0053 66.4843 90.8929 66.3745 90.8011C66.275 90.7244 66.1665 90.6602 66.0515 90.6097C65.9358 90.5905 65.8169 90.6044 65.7086 90.6495C65.5258 90.7086 65.3495 90.7861 65.1823 90.8808L64.5164 91.2317L63.7628 91.6304L64.3968 92.8267L64.7756 93.5444C64.8713 93.7278 64.963 93.8913 65.0427 94.0348C65.1225 94.1784 65.1982 94.302 65.27 94.4336C65.3418 94.5652 65.4255 94.6768 65.5252 94.8323C65.5385 94.8673 65.5599 94.8987 65.5875 94.924C65.6152 94.9493 65.6484 94.9677 65.6845 94.9778C65.7205 94.9879 65.7585 94.9893 65.7952 94.9821C65.832 94.9748 65.8665 94.959 65.896 94.936L66.9407 94.3817C67.4352 94.1186 67.818 93.9033 68.0931 93.7318C68.3092 93.6061 68.5043 93.4474 68.6713 93.2613C68.7789 93.1287 68.8343 92.9614 68.8268 92.7908C68.8074 92.5783 68.7714 92.3676 68.7191 92.1608L68.743 92.085L69.062 91.9135L69.6641 93.5882L69.6322 93.7637L69.3491 93.9112L68.8467 94.1784L68.2925 94.4695L67.8539 94.7007L65.3657 96.0206L65.0786 96.1721L64.6799 96.3874L64.2811 96.6027L63.998 96.7542H63.9542L63.8744 96.511L63.9103 96.4313C64.0406 96.3595 64.1602 96.2877 64.2692 96.2159C64.3693 96.155 64.4497 96.0664 64.5004 95.9608C64.5372 95.8564 64.5613 95.7479 64.5722 95.6378C64.5719 95.4487 64.5254 95.2625 64.4367 95.0955C64.4048 95.0357 64.3689 94.9679 64.333 94.8881L64.1934 94.5931L63.9542 94.1026L63.6272 93.4846L62.2994 90.9805C62.1479 90.6934 62.0203 90.4502 61.9007 90.2548C61.781 90.0594 61.7093 89.8879 61.6335 89.7484C61.5577 89.6088 61.4939 89.4892 61.4381 89.3935C61.3823 89.2978 61.3225 89.2021 61.2627 89.1064C61.1737 88.9463 61.048 88.8097 60.8958 88.7077C60.7986 88.651 60.6939 88.608 60.5848 88.5801C60.47 88.5616 60.3523 88.5769 60.2459 88.6239C60.1091 88.6748 59.9759 88.7347 59.8472 88.8034L59.7594 88.7834L59.6079 88.5841V88.5561L59.891 88.4086L60.3177 88.1813L60.7603 87.9461L61.1112 87.7627L63.1926 86.69Z" fill="#272525"/>
<path d="M73.5878 80.9202C73.7607 81.0649 73.9682 81.1624 74.1899 81.2033C74.3977 81.2338 74.6098 81.2133 74.808 81.1435C75.0637 81.0543 75.3075 80.9337 75.5337 80.7847C75.7968 80.6172 76.0959 80.4138 76.4388 80.1706C76.7817 79.9274 77.0409 79.7719 77.3559 79.5924C77.66 79.4118 77.9892 79.2774 78.3328 79.1937C78.6682 79.1239 79.0143 79.1239 79.3496 79.1937C79.7324 79.2792 80.0901 79.4525 80.3943 79.7001C80.7377 79.9455 81.0123 80.275 81.1918 80.6571C81.337 80.9964 81.3998 81.3653 81.3752 81.7337C81.3456 82.1207 81.2456 82.499 81.0801 82.8501C80.8993 83.2412 80.6745 83.6104 80.4103 83.9507C80.0908 84.3756 79.7153 84.7552 79.2938 85.0791C78.9308 85.36 78.5392 85.6019 78.1255 85.8008L77.946 85.733L76.9093 84.6365L77.1206 84.3574H77.2283C77.4277 84.5049 77.66 84.602 77.9051 84.6402C78.1502 84.6784 78.401 84.6566 78.6359 84.5767C79.1767 84.352 79.6407 83.9753 79.9716 83.4921C80.3643 83.0536 80.5815 82.4857 80.5817 81.8971C80.5633 81.655 80.492 81.4199 80.3728 81.2084C80.2536 80.9969 80.0895 80.8141 79.8919 80.673C79.6702 80.4923 79.4021 80.3776 79.1183 80.3421C78.8551 80.322 78.5905 80.3559 78.3408 80.4417C78.0581 80.5379 77.7898 80.672 77.5433 80.8405L76.7458 81.3588C76.4405 81.5691 76.1237 81.7622 75.7968 81.937C75.5102 82.0968 75.203 82.2162 74.8837 82.2919C74.5767 82.369 74.256 82.3731 73.9471 82.3038C73.6383 82.2346 73.35 82.0939 73.1053 81.8932C72.793 81.6709 72.5386 81.3769 72.3637 81.0359C72.2213 80.7389 72.1529 80.412 72.1643 80.0829C72.1805 79.7376 72.2646 79.3989 72.4115 79.086C72.5755 78.7299 72.7802 78.3941 73.0216 78.0852C73.3122 77.7045 73.6409 77.3545 74.0025 77.0405C74.2852 76.7854 74.5971 76.5646 74.9316 76.3826L75.0871 76.4304L75.9523 77.3435L75.7131 77.6545H75.6174C75.4407 77.527 75.2246 77.4663 75.0073 77.4831C74.8043 77.5025 74.6075 77.5636 74.4292 77.6625C74.242 77.7704 74.0715 77.9047 73.9227 78.0613C73.7792 78.196 73.6459 78.3413 73.524 78.4959C73.1915 78.8785 72.9964 79.3613 72.9698 79.8676C72.9824 80.0794 73.0449 80.2852 73.1524 80.4681C73.2598 80.6511 73.409 80.806 73.5878 80.9202Z" fill="#272525"/>
<path d="M92.3445 50.5762C92.3445 50.5762 90.1674 48.7898 90.1674 47.6454C90.1655 47.3943 90.2525 47.1507 90.4128 46.9575C90.5732 46.7643 90.7967 46.634 91.0439 46.5896C91.291 46.5453 91.5459 46.5897 91.7634 46.715C91.981 46.8403 92.1473 47.0385 92.2329 47.2746C92.3184 47.0385 92.4847 46.8403 92.7023 46.715C92.9199 46.5897 93.1747 46.5453 93.4218 46.5896C93.669 46.634 93.8925 46.7643 94.0529 46.9575C94.2132 47.1507 94.3002 47.3943 94.2983 47.6454C94.3023 48.7898 92.3445 50.5762 92.3445 50.5762Z" fill="#272525"/>
<path d="M3.1304 50.5762C3.1304 50.5762 0.953276 48.7898 0.953276 47.6454C0.951413 47.3943 1.03835 47.1507 1.19873 46.9575C1.35911 46.7643 1.58261 46.634 1.82975 46.5896C2.07689 46.5453 2.33175 46.5897 2.54932 46.715C2.76689 46.8403 2.93316 47.0385 3.01875 47.2746C3.10434 47.0385 3.27061 46.8403 3.48818 46.715C3.70575 46.5897 3.96061 46.5453 4.20775 46.5896C4.45489 46.634 4.67839 46.7643 4.83877 46.9575C4.99915 47.1507 5.08609 47.3943 5.08422 47.6454C5.08821 48.7898 3.1304 50.5762 3.1304 50.5762Z" fill="#272525"/>
<path d="M77.0689 39.2639C76.9959 38.6427 76.6894 38.0725 76.2116 37.6689C75.9773 37.49 75.7067 37.3644 75.4188 37.301C75.1309 37.2376 74.8326 37.238 74.5448 37.3021C74.6089 37.1441 74.6492 36.9775 74.6645 36.8077C74.6959 36.5701 74.6767 36.3286 74.6079 36.099C74.5392 35.8694 74.4226 35.657 74.2657 35.4759C74.0958 35.2988 73.8855 35.1657 73.6529 35.0879C73.4202 35.0101 73.1721 34.99 72.9299 35.0293C72.65 35.0692 72.385 35.1805 72.1604 35.3523C72.2159 34.9892 72.1826 34.6182 72.0631 34.2709C71.9436 33.9236 71.7417 33.6106 71.4745 33.3586C71.2297 33.1392 70.935 32.983 70.6159 32.9038C70.2969 32.8245 69.9633 32.8246 69.6443 32.904C69.1666 33.0181 68.7094 33.205 68.2886 33.4582C68.2363 32.9398 68.0127 32.4535 67.6532 32.0763C67.2938 31.6991 66.8189 31.4523 66.3036 31.375C65.7882 31.2978 65.2619 31.3944 64.8075 31.6496C64.3532 31.9048 63.9969 32.3041 63.7948 32.7844C63.6256 32.5666 63.427 32.3733 63.2047 32.2102C63.0246 32.0715 62.8161 31.9746 62.5941 31.9263C62.372 31.878 62.142 31.8797 61.9207 31.9311C61.7182 31.995 61.5318 32.1019 61.3742 32.2443C61.2167 32.3867 61.0916 32.5614 61.0076 32.7565C60.9665 32.8456 60.9319 32.9375 60.9039 33.0316C60.6151 32.76 60.2488 32.5853 59.856 32.5317C59.4632 32.4782 59.0634 32.5484 58.7124 32.7327C58.3614 32.917 58.0766 33.2061 57.8977 33.5599C57.7187 33.9136 57.6545 34.3143 57.714 34.7063C57.4535 34.6145 57.1739 34.5908 56.9017 34.6376C56.6295 34.6844 56.3738 34.8 56.1589 34.9735C55.8823 35.2184 55.6738 35.5307 55.5536 35.88C55.4334 36.2294 55.4057 36.6039 55.4731 36.9672C55.6094 37.6317 55.922 38.2474 56.3782 38.7495C57.0307 39.4786 57.7638 40.1314 58.5633 40.6954L58.7826 40.8589C59.6283 41.4502 60.3752 42.1715 60.9956 42.9961C61.2812 43.3813 61.4842 43.8213 61.5919 44.2885C61.6996 44.7558 61.7097 45.2402 61.6217 45.7115C61.6197 45.7207 61.6197 45.7302 61.6217 45.7394C61.6217 45.7394 61.6217 45.7594 61.6217 45.7713C60.3288 47.2779 58.8182 48.5828 57.1398 49.6431C57.4351 48.8746 57.6255 48.0699 57.706 47.2507C58.1368 46.9222 58.4759 46.4887 58.691 45.9916C58.906 45.4944 58.9897 44.9504 58.9342 44.4116C58.9281 44.3559 58.9006 44.3047 58.8574 44.269C58.8142 44.2332 58.7588 44.2158 58.7029 44.2202C58.6751 44.2227 58.6481 44.2307 58.6234 44.2437C58.5987 44.2567 58.5768 44.2745 58.559 44.296C58.5412 44.3175 58.5278 44.3423 58.5197 44.369C58.5115 44.3957 58.5088 44.4237 58.5115 44.4515C58.5493 44.8545 58.5009 45.261 58.3696 45.6439C58.2383 46.0268 58.027 46.3774 57.7499 46.6725C57.8297 45.3876 57.5957 44.1026 57.0681 42.9283C57.2021 42.8035 57.2959 42.6416 57.3374 42.4632C57.379 42.2849 57.3665 42.0982 57.3014 41.927C57.2364 41.7558 57.1217 41.6079 56.9722 41.5022C56.8227 41.3964 56.6451 41.3376 56.462 41.3334C56.341 41.3307 56.2207 41.3519 56.1079 41.3958C55.9952 41.4396 55.8921 41.5053 55.8048 41.589C55.7174 41.6727 55.6473 41.7727 55.5986 41.8835C55.5499 41.9943 55.5235 42.1135 55.5209 42.2345C55.5158 42.4664 55.5983 42.6918 55.7521 42.8655C55.9058 43.0392 56.1195 43.1485 56.3503 43.1715H56.4221C56.5141 43.1748 56.606 43.1613 56.6932 43.1317C57.718 45.2769 57.411 48.2874 56.4899 50.0578C54.3091 51.3301 51.9994 52.3673 49.5997 53.152C49.4561 53.2038 49.3046 53.2477 49.161 53.2956C51.1149 50.1056 50.7999 45.2171 49.4322 42.0471C49.4195 42.0191 49.4004 41.9945 49.3764 41.9753C49.3637 41.9633 49.3488 41.9538 49.3325 41.9474H49.2009H49.173C49.1515 41.9549 49.1314 41.9656 49.1132 41.9793C47.7814 43.2353 46.9241 45.2968 46.8204 47.4939C46.7168 49.6909 47.3069 52.0435 48.3356 53.5587C46.5772 54.117 44.7869 54.5994 43.0125 55.058L41.5292 55.4368C40.2492 55.7598 38.9533 56.0867 37.6614 56.4416C38.2673 55.8035 38.7607 55.0674 39.1208 54.2645C39.9054 53.7903 40.6038 53.1862 41.1862 52.4781C41.2062 52.4781 43.2996 50.7675 45.054 51.3976C45.1038 51.4059 45.1549 51.3966 45.1985 51.3711C45.2421 51.3456 45.2753 51.3057 45.2924 51.2582C45.3095 51.2107 45.3094 51.1587 45.292 51.1113C45.2747 51.0639 45.2413 51.0241 45.1976 50.9988C43.9734 50.5602 42.6656 51.0746 41.8202 51.5491C42.46 50.383 42.7869 49.0711 42.7692 47.7411C43.0002 47.6912 43.2136 47.5806 43.3875 47.4207C43.5614 47.2608 43.6895 47.0574 43.7586 46.8315C43.8277 46.6056 43.8352 46.3653 43.7805 46.1355C43.7257 45.9057 43.6106 45.6946 43.4471 45.5241C43.3283 45.3907 43.1839 45.2826 43.0224 45.2064C42.8609 45.1301 42.6857 45.0872 42.5072 45.0802C42.3288 45.0732 42.1507 45.1023 41.9838 45.1657C41.8168 45.2291 41.6644 45.3256 41.5356 45.4493C41.4068 45.573 41.3042 45.7215 41.2341 45.8857C41.164 46.05 41.1277 46.2267 41.1275 46.4053C41.1273 46.5839 41.1631 46.7607 41.2328 46.9251C41.3025 47.0896 41.4046 47.2383 41.5331 47.3623C41.7437 47.5851 42.0261 47.7263 42.3306 47.761C42.3306 50.2611 41.3497 52.1472 39.3959 53.5627C39.7656 52.581 39.9808 51.548 40.0339 50.5004C40.184 50.4672 40.3243 50.3996 40.4438 50.303C40.5634 50.2063 40.6588 50.0832 40.7227 49.9434C40.7865 49.8036 40.8171 49.6509 40.8119 49.4972C40.8066 49.3436 40.7658 49.1933 40.6926 49.0581C40.6194 48.923 40.5158 48.8066 40.39 48.7183C40.2642 48.63 40.1196 48.5721 39.9676 48.5492C39.8156 48.5263 39.6604 48.5389 39.5141 48.5862C39.3678 48.6335 39.2346 48.7141 39.1248 48.8217C38.935 49.0035 38.8246 49.2528 38.8177 49.5155C38.8133 49.7477 38.8909 49.9741 39.0367 50.1549C39.1825 50.3357 39.3873 50.4595 39.6152 50.5044C39.5487 51.7255 39.2553 52.9236 38.7499 54.0372C38.3035 55.0888 37.5985 56.0106 36.7004 56.7168C35.3926 57.0876 34.0887 57.4943 32.8047 57.9528H32.7569C32.1747 58.1642 31.5926 58.3795 31.0184 58.6148C30.508 58.8221 30.0096 59.0454 29.5191 59.2727C29.9126 58.7317 30.2044 58.1237 30.3804 57.4783C30.6543 56.4835 30.7124 55.4415 30.5507 54.4224C30.3891 53.4032 30.0116 52.4304 29.4433 51.569L29.4075 51.5371L29.3756 51.5132H29.3477H29.3237H29.2719H29.248C29.2279 51.5192 29.209 51.5287 29.1921 51.5411C28.3489 52.257 27.6688 53.1452 27.1977 54.1459C26.7266 55.1467 26.4753 56.2367 26.4608 57.3428C26.4263 58.4456 26.7342 59.5321 27.342 60.4529C24.0045 62.3749 21.317 64.8072 19.5865 67.5146C19.571 67.5381 19.5604 67.5644 19.5552 67.5921C19.5501 67.6197 19.5505 67.6481 19.5564 67.6756C19.5623 67.703 19.5737 67.7291 19.5898 67.7521C19.606 67.7751 19.6265 67.7947 19.6503 67.8097C19.6802 67.8257 19.7125 67.8365 19.746 67.8416C19.7852 67.8452 19.8247 67.8378 19.8599 67.8202C19.8951 67.8026 19.9247 67.7755 19.9454 67.7419C22.2381 64.1533 26.2534 61.063 31.2457 59.0255C31.7481 58.8181 32.2624 58.6267 32.7768 58.4393C33.6859 61.7568 36.0505 63.5791 40.1974 64.1533C40.2326 64.1627 40.2698 64.1627 40.305 64.1533L40.329 64.1333C40.345 64.1264 40.3598 64.117 40.3728 64.1054C40.3728 64.1054 40.3728 64.1054 40.3728 64.0815C40.3739 64.0709 40.3739 64.0602 40.3728 64.0496V64.0177C40.3768 63.9953 40.3768 63.9723 40.3728 63.9499C39.9182 61.6412 38.746 58.9337 33.7617 58.1163C36.3535 57.2391 39.0211 56.5652 41.6209 55.9033L43.0882 55.5325C44.213 55.3467 45.3671 55.4722 46.4257 55.8953C47.9728 56.6928 48.1602 59.5319 47.5461 61.1069H47.4943C47.3438 61.0977 47.1929 61.1183 47.0503 61.1674C46.9077 61.2166 46.7762 61.2933 46.6633 61.3933C46.4352 61.5952 46.2967 61.8794 46.2782 62.1835C46.2596 62.4875 46.3627 62.7865 46.5646 63.0145C46.7665 63.2426 47.0507 63.3811 47.3547 63.3996H47.4465C47.7088 63.4044 47.9649 63.3192 48.172 63.1581C48.3792 62.9971 48.525 62.77 48.5851 62.5146C48.6453 62.2592 48.6161 61.9909 48.5025 61.7543C48.3889 61.5178 48.1978 61.3273 47.9608 61.2145C48.4672 59.8588 48.4393 57.7694 47.606 56.4536C48.4546 56.9411 49.2227 57.5572 49.8828 58.2798C49.7733 58.419 49.7033 58.5851 49.6799 58.7606C49.6566 58.9362 49.6808 59.1147 49.7501 59.2777C49.8194 59.4407 49.9311 59.5821 50.0737 59.6871C50.2163 59.7921 50.3844 59.8569 50.5606 59.8748H50.6404C50.7713 59.8774 50.9014 59.8542 51.0234 59.8065C51.1453 59.7588 51.2567 59.6876 51.3511 59.5969C51.4455 59.5062 51.5211 59.3978 51.5736 59.2778C51.6262 59.1579 51.6545 59.0288 51.6572 58.8979C51.6598 58.767 51.6366 58.6368 51.5889 58.5149C51.5412 58.3929 51.47 58.2816 51.3793 58.1871C51.2886 58.0927 51.1801 58.0171 51.0602 57.9646C50.9403 57.9121 50.8111 57.8837 50.6802 57.8811C50.5178 57.8788 50.3575 57.9171 50.2137 57.9927C49.2183 56.8866 47.9786 56.0278 46.5932 55.4846C46.0222 55.2569 45.4246 55.1028 44.8148 55.0261C46.1266 54.6752 47.4305 54.3004 48.7224 53.8857C49.0534 53.778 49.3883 53.6783 49.7193 53.5667C50.6324 53.2517 51.4977 52.9247 52.323 52.5818C52.4985 53.3474 53.28 55.4567 56.6613 56.1146C57.2196 56.2223 57.73 56.2981 58.2005 56.3459C62.0483 56.7447 63.109 55.3052 63.1568 55.2374C63.1568 55.2374 63.1568 55.2374 63.1568 55.2095V55.1776C63.1605 55.1592 63.1605 55.1402 63.1568 55.1218C63.1568 55.1218 63.1568 55.1218 63.1568 55.1019C63.1604 55.0767 63.1604 55.0512 63.1568 55.0261C63.1489 55.0097 63.1381 54.9948 63.1249 54.9822C61.0594 52.9168 57.1438 51.6408 54.0297 51.8481C54.984 51.3989 55.8745 50.9244 56.7012 50.4246H56.7251C57.2913 50.0777 57.8376 49.7228 58.352 49.352C59.4768 48.5512 60.8192 48.113 62.1998 48.096C62.9504 48.0806 63.7012 48.1072 64.4487 48.1757L64.9511 48.2076C65.6861 48.2433 66.388 48.524 66.9448 49.0051C67.0206 49.3321 66.8372 50.9988 65.9639 52.3705C65.6689 52.837 65.4217 53.5189 65.621 54.0213C65.6804 54.1648 65.7745 54.2913 65.8949 54.3895C66.0153 54.4876 66.1583 54.5543 66.3108 54.5835L66.4384 54.6074C66.5894 54.617 66.7404 54.5906 66.8791 54.5302C67.0177 54.4699 67.1401 54.3775 67.2359 54.2605L67.2997 54.3562C67.4122 54.4932 67.5562 54.6011 67.7193 54.6705C67.8825 54.7399 68.06 54.7689 68.2368 54.7549C68.4181 54.7456 68.5945 54.6929 68.7513 54.6013C68.9081 54.5098 69.0407 54.382 69.1379 54.2286C69.3385 53.9275 69.4454 53.5736 69.4449 53.2118C69.6363 53.3363 69.8555 53.4116 70.0829 53.4311C70.2509 53.4469 70.4198 53.413 70.5687 53.3336C70.7175 53.2542 70.8398 53.1328 70.9203 52.9845C71.2313 52.4263 70.9681 51.6408 70.6172 51.0945C70.2664 50.5482 68.8588 48.8695 67.2399 48.6502C67.0635 48.4932 66.8679 48.3592 66.6577 48.2515C67.5369 48.2445 68.4068 48.0713 69.2216 47.7411L69.2535 47.781C69.423 47.9594 69.6507 48.0711 69.8955 48.096H69.9793C70.1844 48.1007 70.3863 48.0444 70.5594 47.9343C70.7326 47.8241 70.8691 47.6651 70.9518 47.4773C71.0345 47.2895 71.0596 47.0814 71.0239 46.8793C70.9883 46.6772 70.8934 46.4903 70.7514 46.3422C70.6094 46.194 70.4267 46.0914 70.2263 46.0471C70.0259 46.0029 69.8169 46.0192 69.6258 46.0939C69.4347 46.1685 69.27 46.2982 69.1526 46.4665C69.0352 46.6348 68.9705 46.8342 68.9665 47.0393C68.9642 47.1489 68.9804 47.2581 69.0143 47.3623C68.1249 47.7041 67.1753 47.8614 66.2231 47.8248C65.6609 47.8248 65.0827 47.781 64.5285 47.7411C63.7648 47.6744 62.9982 47.6478 62.2317 47.6614C61.4835 47.6952 60.7432 47.8293 60.0307 48.0601C60.7218 47.4522 61.3681 46.7953 61.9646 46.0943C63.424 45.2968 65.0748 45.0137 66.6418 44.8104C67.4632 44.7027 68.3085 44.6708 69.1259 44.6429C69.732 44.6429 70.3581 44.599 70.9761 44.5472C72.7944 44.3917 74.1301 43.973 75.1828 43.2314C76.5226 42.2186 77.2722 40.6714 77.0689 39.2639ZM56.4221 42.7329C56.357 42.7324 56.2927 42.719 56.2328 42.6933C56.173 42.6677 56.1189 42.6304 56.0736 42.5837C56.0283 42.5369 55.9928 42.4816 55.9691 42.421C55.9454 42.3603 55.934 42.2956 55.9356 42.2305C55.9362 42.1655 55.9499 42.1012 55.976 42.0416C56.002 41.982 56.0398 41.9282 56.0872 41.8836C56.1341 41.838 56.1897 41.8022 56.2506 41.7782C56.3115 41.7543 56.3766 41.7427 56.442 41.7441H56.4819C56.6064 41.7599 56.7201 41.8225 56.8001 41.9192C56.8801 42.0158 56.9204 42.1393 56.9128 42.2645C56.9052 42.3897 56.8503 42.5074 56.7592 42.5936C56.6681 42.6799 56.5476 42.7282 56.4221 42.7289V42.7329ZM41.5571 46.4293C41.563 46.1906 41.6634 45.964 41.8362 45.7992C41.9211 45.7167 42.0216 45.652 42.1318 45.6089C42.2421 45.5658 42.3598 45.5451 42.4782 45.548H42.5499C42.7626 45.5712 42.9603 45.6686 43.1082 45.8232C43.2109 45.9302 43.2856 46.0609 43.3256 46.2037C43.3657 46.3466 43.3699 46.4971 43.3378 46.6419C43.3057 46.7867 43.2384 46.9214 43.1418 47.034C43.0452 47.1465 42.9223 47.2335 42.7841 47.2872C42.6458 47.3409 42.4964 47.3596 42.3491 47.3417C42.2019 47.3238 42.0613 47.2698 41.94 47.1845C41.8186 47.0992 41.7201 46.9853 41.6533 46.8529C41.5865 46.7204 41.5535 46.5736 41.5571 46.4253V46.4293ZM39.2324 49.5275C39.2339 49.4527 39.2501 49.379 39.2803 49.3105C39.3104 49.2421 39.3537 49.1803 39.4079 49.1287C39.4605 49.0771 39.5228 49.0365 39.5913 49.0091C39.6597 48.9817 39.7329 48.9682 39.8066 48.9692H39.8545C39.9958 48.9833 40.1265 49.0503 40.2205 49.1568C40.3144 49.2633 40.3646 49.4014 40.3609 49.5434C40.3618 49.6566 40.3288 49.7674 40.2662 49.8617C40.2036 49.9559 40.1141 50.0292 40.0094 50.0722C39.9047 50.1151 39.7895 50.1256 39.6787 50.1025C39.5679 50.0793 39.4667 50.0234 39.3879 49.9422C39.3358 49.8868 39.2953 49.8216 39.2686 49.7504C39.2419 49.6792 39.2296 49.6034 39.2324 49.5275ZM29.9418 57.3826C29.7627 58.0563 29.4449 58.6851 29.0087 59.2288C28.673 59.6491 28.2251 59.9657 27.7168 60.1419C27.8448 57.4302 28.3728 54.7523 29.2839 52.195C29.7289 52.9741 30.016 53.8333 30.1289 54.7234C30.2418 55.6135 30.1782 56.5171 29.9418 57.3826ZM28.7456 52.4981C27.9585 54.838 27.4826 57.2712 27.33 59.7352C26.9724 58.9894 26.7962 58.1696 26.8157 57.3428C26.8392 55.5488 27.5186 53.8255 28.7256 52.4981H28.7456ZM33.2832 58.8779C35.0833 60.5999 37.0328 62.1584 39.1088 63.5352C35.9787 62.8972 34.1365 61.4059 33.2513 58.8899L33.2832 58.8779ZM39.8305 63.4874C37.5409 62.0217 35.4036 60.3306 33.4507 58.4393C36.1581 58.838 38.8895 59.8508 39.8106 63.4993L39.8305 63.4874ZM48.2041 62.2114C48.2009 62.3541 48.1555 62.4926 48.0735 62.6095C47.9916 62.7264 47.8769 62.8163 47.7438 62.868C47.6108 62.9197 47.4654 62.9308 47.3261 62.8998C47.1867 62.8689 47.0597 62.7973 46.961 62.6942C46.8624 62.5911 46.7965 62.461 46.7717 62.3204C46.747 62.1799 46.7645 62.0351 46.822 61.9045C46.8795 61.7739 46.9744 61.6632 47.0948 61.5865C47.2152 61.5099 47.3556 61.4706 47.4983 61.4737C47.6848 61.488 47.8585 61.5742 47.9827 61.714C48.1069 61.8539 48.172 62.0365 48.1642 62.2234L48.2041 62.2114ZM50.6842 58.2678H50.7321C50.8651 58.2796 50.9888 58.3408 51.079 58.4393C51.13 58.4921 51.1701 58.5546 51.1968 58.6231C51.2235 58.6915 51.2363 58.7646 51.2345 58.838C51.2313 58.9875 51.1692 59.1297 51.0616 59.2335C50.9541 59.3374 50.8098 59.3944 50.6603 59.3923C50.5108 59.3881 50.3691 59.325 50.266 59.2167C50.1629 59.1083 50.1068 58.9636 50.11 58.8141C50.1124 58.6638 50.174 58.5205 50.2815 58.4154C50.3826 58.3286 50.5112 58.2806 50.6444 58.2798L50.6842 58.2678ZM48.8221 53.0842C48.212 47.8408 48.9457 44.1604 49.3006 42.7927C50.3971 45.8551 50.5566 50.2093 48.8022 53.0882L48.8221 53.0842ZM48.8221 42.9443C48.1152 46.1724 47.9575 49.4966 48.3556 52.7772C47.5287 51.1542 47.1333 49.3458 47.2072 47.5258C47.2665 45.8743 47.8224 44.279 48.8022 42.9483L48.8221 42.9443ZM70.0391 46.4133H70.0869C70.2244 46.4483 70.3454 46.5301 70.4291 46.6447C70.5128 46.7593 70.554 46.8994 70.5455 47.0411C70.537 47.1827 70.4794 47.317 70.3826 47.4207C70.2858 47.5245 70.1558 47.5912 70.0151 47.6095C69.9286 47.6197 69.8408 47.6106 69.7581 47.5831C69.6754 47.5555 69.5998 47.5101 69.5367 47.45C69.4813 47.3923 69.4379 47.3242 69.4092 47.2496C69.3804 47.1749 69.3668 47.0953 69.3692 47.0154C69.3712 46.9344 69.3893 46.8546 69.4223 46.7806C69.4554 46.7067 69.5027 46.64 69.5617 46.5844C69.6206 46.5288 69.6899 46.4854 69.7657 46.4567C69.8415 46.428 69.9222 46.4146 70.0032 46.4173L70.0391 46.4133ZM70.2823 51.2979C70.5734 51.7564 70.7767 52.3864 70.5734 52.7533C70.532 52.8312 70.4678 52.8947 70.3895 52.9353C70.3111 52.9759 70.2223 52.9917 70.1348 52.9806C69.9836 52.9707 69.8375 52.9227 69.7099 52.8412C69.5823 52.7596 69.4774 52.6471 69.4051 52.514C69.3846 52.4643 69.3462 52.424 69.2975 52.4011C69.2488 52.3782 69.1933 52.3744 69.1419 52.3904C69.0902 52.407 69.0467 52.4425 69.0201 52.4899C68.9935 52.5372 68.9857 52.5928 68.9984 52.6456C69.1035 53.087 69.041 53.5516 68.8229 53.9495C68.7657 54.0443 68.6874 54.1246 68.594 54.1841C68.5006 54.2436 68.3947 54.2806 68.2846 54.2924C68.1786 54.3035 68.0715 54.289 67.9723 54.2502C67.8731 54.2113 67.7847 54.1492 67.7144 54.0691C67.6713 54.0133 67.643 53.9475 67.6318 53.8779C67.6207 53.8082 67.6271 53.7369 67.6506 53.6704C67.6634 53.619 67.6564 53.5647 67.631 53.5182C67.6056 53.4717 67.5637 53.4364 67.5135 53.4194C67.4634 53.4023 67.4087 53.4047 67.3602 53.4261C67.3118 53.4475 67.2731 53.4863 67.2519 53.5348C67.1442 53.8378 66.8531 54.2525 66.5022 54.1648C66.4158 54.15 66.3343 54.1143 66.2648 54.0608C66.1953 54.0073 66.1399 53.9376 66.1035 53.8578C66.0655 53.6369 66.0728 53.4107 66.1249 53.1927C66.177 52.9747 66.2728 52.7696 66.4065 52.5898C66.9753 51.6686 67.3309 50.6318 67.4473 49.5554C67.7224 50.0897 67.7981 50.8473 67.5788 52.2229C67.5696 52.279 67.5828 52.3364 67.6157 52.3827C67.6485 52.429 67.6984 52.4604 67.7543 52.4702C67.8087 52.4769 67.8636 52.4619 67.907 52.4282C67.9503 52.3946 67.9786 52.3452 67.9856 52.2907C68.1635 51.4776 68.1635 50.6356 67.9856 49.8225C68.2374 50.1817 68.4125 50.5889 68.4999 51.0188C68.5097 51.0628 68.533 51.1026 68.5667 51.1327C68.6003 51.1627 68.6425 51.1814 68.6873 51.1862C68.7098 51.1902 68.7327 51.1902 68.7551 51.1862C68.7824 51.1805 68.8083 51.1695 68.8313 51.1538C68.8543 51.1381 68.8739 51.118 68.8891 51.0946C68.9043 51.0713 68.9147 51.0452 68.9198 51.0178C68.9248 50.9904 68.9244 50.9622 68.9186 50.935C68.809 50.3736 68.5656 49.847 68.2088 49.3999C69.0223 49.8728 69.7187 50.5229 70.2464 51.3019L70.2823 51.2979ZM61.3784 32.896C61.4377 32.757 61.5254 32.6319 61.636 32.5289C61.7466 32.4258 61.8775 32.3472 62.0204 32.2979C62.1804 32.2655 62.3455 32.268 62.5044 32.3052C62.6634 32.3423 62.8124 32.4133 62.9415 32.5132C63.2279 32.7409 63.4792 33.0097 63.6871 33.3107C63.7112 33.3437 63.7444 33.3689 63.7828 33.3831C63.8211 33.3973 63.8627 33.3998 63.9025 33.3905C63.9419 33.3819 63.9782 33.3624 64.0071 33.3342C64.036 33.306 64.0564 33.2702 64.0659 33.231C64.1693 32.7582 64.4473 32.3418 64.8443 32.0649C65.2413 31.7881 65.7281 31.6713 66.2075 31.7378C66.6869 31.8042 67.1235 32.0491 67.4302 32.4235C67.7369 32.7979 67.8911 33.2742 67.8619 33.7573C67.8594 33.7957 67.8675 33.8341 67.8852 33.8683C67.9029 33.9025 67.9296 33.9312 67.9624 33.9513C67.9953 33.9714 68.033 33.9822 68.0715 33.9824C68.11 33.9827 68.1479 33.9724 68.1809 33.9527C68.6512 33.6452 69.1683 33.4163 69.7121 33.2748C69.9624 33.2142 70.2235 33.2133 70.4742 33.2722C70.725 33.3311 70.9584 33.4481 71.1555 33.6137C72.0487 34.5029 71.7656 35.4918 71.3709 36.5046C70.366 39.0805 66.9847 41.8517 64.5205 43.6421C66.7455 41.138 67.2838 38.8173 67.3117 38.6897C67.3175 38.6625 67.3179 38.6344 67.3129 38.607C67.3078 38.5796 67.2974 38.5535 67.2822 38.5301C67.267 38.5068 67.2473 38.4867 67.2243 38.4709C67.2013 38.4552 67.1755 38.4442 67.1482 38.4385C67.0927 38.4266 67.0348 38.4371 66.987 38.4677C66.9392 38.4984 66.9054 38.5466 66.893 38.602C66.893 38.6339 66.1553 41.7919 62.9056 44.6628C64.5883 41.6324 64.0261 37.4855 63.9982 37.3021C63.9893 37.2462 63.9588 37.1961 63.9133 37.1625C63.8678 37.129 63.8109 37.1146 63.7549 37.1227C63.7274 37.1266 63.701 37.1359 63.6771 37.15C63.6532 37.1642 63.6323 37.1829 63.6156 37.2051C63.5989 37.2273 63.5868 37.2526 63.5799 37.2795C63.5731 37.3064 63.5715 37.3344 63.5755 37.3619C63.5755 37.4098 64.1098 41.2975 62.6624 44.2043C62.6943 44.0488 62.7222 43.8973 62.7421 43.7657C62.9145 42.2716 62.7566 40.758 62.2796 39.3317C62.1919 39.0087 62.0962 38.6897 62.0005 38.3667C61.5619 36.9233 61.0993 35.42 61.1631 33.8929C61.1673 33.5495 61.2405 33.2105 61.3784 32.896ZM59.0418 40.5199L58.8225 40.3564C58.0498 39.8102 57.3397 39.1804 56.7052 38.4784C56.297 38.0167 56.0215 37.4532 55.9077 36.8475C55.8556 36.5585 55.8768 36.2611 55.9695 35.9824C56.0621 35.7037 56.2232 35.4528 56.438 35.2526C56.6485 35.0774 56.9151 34.9838 57.1889 34.9889C57.4627 34.994 57.7255 35.0975 57.9293 35.2805C57.9632 35.3188 58.01 35.3432 58.0608 35.3491C58.1116 35.355 58.1627 35.3419 58.2045 35.3124C58.2475 35.2838 58.2786 35.2404 58.2918 35.1904C58.305 35.1405 58.2995 35.0874 58.2762 35.0412C58.131 34.7125 58.1097 34.3424 58.2162 33.9992C58.3228 33.656 58.55 33.363 58.8558 33.1743C59.1617 32.9856 59.5255 32.9141 59.88 32.9729C60.2345 33.0317 60.5557 33.2168 60.7843 33.4941C60.7843 33.6177 60.7564 33.7374 60.7524 33.845C60.6727 35.4679 61.1312 37.003 61.5738 38.4903C61.6695 38.8093 61.7652 39.1283 61.8529 39.4473C62.3123 40.8155 62.4661 42.2678 62.3035 43.7019C62.3035 43.7577 62.3035 43.8215 62.2756 43.8853C62.2451 42.8467 61.9906 41.8269 61.5296 40.8958C61.0685 39.9646 60.4116 39.1441 59.604 38.4903C59.5591 38.4571 59.5028 38.4431 59.4474 38.4513C59.3921 38.4595 59.3424 38.4893 59.309 38.5342C59.2755 38.5798 59.2614 38.6368 59.2696 38.6927C59.2778 38.7487 59.3077 38.7992 59.3528 38.8333C60.0917 39.4201 60.6966 40.1581 61.1271 40.9978C61.5576 41.8374 61.8037 42.7594 61.8489 43.7019C61.7179 43.3671 61.5508 43.0475 61.3505 42.7489C60.7051 41.8872 59.9256 41.1347 59.0418 40.5199ZM56.761 55.672C53.8861 55.1138 53.0527 53.5029 52.8135 52.7054C55.1694 54.0733 57.7827 54.9394 60.4892 55.2494C61.1158 55.3125 61.7456 55.3392 62.3753 55.3291C61.6775 55.7677 60.0546 56.33 56.777 55.688L56.761 55.672ZM62.471 54.8985C58.021 55.0101 54.3048 53.0842 53.0647 52.3585C55.9795 51.8122 60.1742 52.9407 62.471 54.9144V54.8985ZM74.9157 42.8127C73.9268 43.5105 72.6548 43.9052 70.9283 44.0528C70.3222 44.1046 69.7001 44.1285 69.098 44.1485C68.2726 44.1764 67.4154 44.2083 66.578 44.3159C65.4978 44.4353 64.4304 44.6502 63.3881 44.9579L63.6313 44.7904C65.7654 43.621 68.1522 42.9887 70.5853 42.9483C70.6134 42.9493 70.6414 42.9448 70.6677 42.9349C70.694 42.925 70.7181 42.9099 70.7385 42.8906C70.759 42.8713 70.7753 42.8481 70.7867 42.8224C70.798 42.7967 70.8041 42.769 70.8046 42.7409C70.8063 42.7127 70.8021 42.6844 70.7924 42.6579C70.7827 42.6313 70.7677 42.607 70.7483 42.5865C70.7289 42.566 70.7055 42.5496 70.6795 42.5384C70.6535 42.5273 70.6256 42.5216 70.5973 42.5216C68.8478 42.5365 67.1141 42.8549 65.4735 43.4626C67.8859 41.6484 70.8206 39.0765 71.7696 36.6521C71.8175 36.5285 71.8653 36.4049 71.9092 36.2773C72.0017 36.057 72.1474 35.8631 72.3332 35.7128C72.5189 35.5625 72.739 35.4606 72.9738 35.4161C73.1475 35.3865 73.3258 35.3998 73.4932 35.4547C73.6607 35.5096 73.8122 35.6044 73.9348 35.7311C74.1577 35.9973 74.2689 36.3394 74.2451 36.6858C74.2213 37.0322 74.0644 37.3559 73.8072 37.5892L73.7314 37.649C73.6884 37.6841 73.6609 37.7348 73.6549 37.79C73.649 37.8452 73.665 37.9006 73.6995 37.9441C73.7157 37.9661 73.736 37.9848 73.7594 37.999C73.7829 38.0131 73.8088 38.0225 73.8359 38.0266C73.863 38.0307 73.8906 38.0294 73.9171 38.0227C73.9437 38.0161 73.9686 38.0043 73.9906 37.9879L74.0703 37.9281C74.3473 37.7352 74.6784 37.6351 75.0159 37.6422C75.3533 37.6494 75.6799 37.7635 75.9484 37.968C76.3444 38.3084 76.5942 38.7881 76.6462 39.3078C76.8256 40.5837 76.1478 41.9634 74.9157 42.8286V42.8127Z" fill="#272525"/>
</g>
<defs>
<clipPath id="clip0">
<rect width="93.345" height="100" fill="white" transform="translate(0.953369)"/>
</clipPath>
</defs>
</svg>
