<svg width="40" height="40" viewBox="0 0 40 40" fill="none" xmlns="http://www.w3.org/2000/svg">
<g clip-path="url(#clip0)">
<path d="M21.6797 31.9858C21.4279 31.2937 20.764 30.8289 20.0279 30.8289C19.8229 30.8289 19.6207 30.8647 19.4268 30.9351C18.5161 31.2667 18.045 32.2774 18.3763 33.1882C18.6282 33.8801 19.2921 34.345 20.0282 34.345C20.2332 34.345 20.4354 34.3092 20.6292 34.2387C21.54 33.9072 22.0112 32.8965 21.6797 31.9858ZM20.2285 33.1375C20.1636 33.1612 20.0961 33.1732 20.0282 33.1732C19.7828 33.1732 19.5615 33.0182 19.4775 32.7874C19.367 32.4838 19.5241 32.1469 19.8276 32.0364C19.8925 32.0127 19.96 32.0008 20.0279 32.0008C20.2732 32.0008 20.4946 32.1558 20.5786 32.3866C20.6891 32.6901 20.5321 33.027 20.2285 33.1375Z" fill="#EC9DAB"/>
<path d="M39.9645 26.583L39.1627 24.3806C39.1079 24.2299 38.9976 24.1156 38.8634 24.0519C38.8622 24.0513 38.861 24.0506 38.8598 24.0501C38.8511 24.0459 38.842 24.0427 38.833 24.0391C38.8245 24.0356 38.8163 24.0317 38.8077 24.0287C38.8056 24.0279 38.8034 24.0274 38.8013 24.0268C38.6792 23.985 38.5426 23.9827 38.4119 24.0304L36.4959 24.7272L32.42 13.5282C32.42 13.5279 32.4197 13.5276 32.4197 13.5274L30.817 9.12369C30.7326 8.89322 30.5115 8.73845 30.2662 8.73845C30.1983 8.73845 30.1303 8.75017 30.0662 8.77361C29.7623 8.88377 29.6053 9.22126 29.7154 9.52439L31.1186 13.3784L23.5941 16.117C23.594 16.117 23.5938 16.117 23.5937 16.1171C23.5935 16.1172 23.5933 16.1173 23.5931 16.1173L19.0057 17.7868L15.9326 9.34509L19.9707 7.87557L20.8391 10.261C20.9227 10.4915 21.1438 10.647 21.3891 10.647C21.4578 10.647 21.525 10.6353 21.5899 10.611L24.5265 9.54228C24.6734 9.48915 24.7906 9.38134 24.857 9.23994C24.906 9.13478 24.922 9.02017 24.9057 8.90822C24.9056 8.90759 24.9056 8.90697 24.9056 8.90642C24.9033 8.89119 24.9 8.87588 24.8965 8.8608C24.8955 8.8565 24.8949 8.85244 24.8939 8.84814C24.8892 8.82916 24.8834 8.81033 24.8766 8.79158L24.0085 6.40605L28.0456 4.93676L28.9139 7.32198C28.9983 7.55245 29.2194 7.70791 29.4647 7.70791C29.5326 7.70791 29.6006 7.6962 29.6654 7.67198C29.9686 7.56182 30.1256 7.22503 30.0154 6.9212L28.9467 3.98458C28.8729 3.78294 28.6944 3.63927 28.4866 3.60645C28.4569 3.60177 28.4265 3.59934 28.3959 3.59934C28.328 3.59934 28.26 3.61106 28.1959 3.6345L23.0597 5.5041C23.0588 5.50441 23.0579 5.50449 23.0571 5.5048C23.0555 5.50535 23.0541 5.50613 23.0525 5.50668L20.1256 6.57214C20.1239 6.57276 20.1221 6.57292 20.1204 6.57355C20.1175 6.57464 20.1148 6.57605 20.1119 6.57714L14.9816 8.44455C14.8347 8.49767 14.7175 8.60549 14.6511 8.74689C14.5847 8.88908 14.5776 9.04837 14.6316 9.19533L18.1048 18.7386L21.4449 27.9161C21.0214 27.7867 20.5768 27.714 20.1215 27.7052L11.6599 4.45676C11.1074 2.93888 9.42307 2.15349 7.90503 2.70583C7.9048 2.70591 7.90456 2.70607 7.90433 2.70615L0.38695 5.41738C0.386872 5.41746 0.386716 5.41746 0.386559 5.41754C0.386169 5.41769 0.385778 5.41777 0.385309 5.41793C0.371794 5.42285 0.358981 5.42871 0.346091 5.43449C0.341169 5.43668 0.336013 5.43847 0.331169 5.44082C0.318513 5.44683 0.306482 5.45387 0.294451 5.46074C0.289529 5.46355 0.284294 5.46597 0.279451 5.46902C0.267888 5.47605 0.257107 5.48386 0.24617 5.4916C0.241326 5.49504 0.23617 5.49816 0.231482 5.50168C0.221326 5.50941 0.211873 5.51777 0.202264 5.52613C0.19742 5.53043 0.192186 5.53426 0.187498 5.53863C0.178436 5.54691 0.170154 5.55605 0.161717 5.56488C0.157108 5.5698 0.152186 5.57425 0.147733 5.57926C0.139764 5.58824 0.132498 5.59785 0.125077 5.6073C0.120858 5.61261 0.116249 5.61777 0.112264 5.62332C0.105545 5.63254 0.099608 5.64222 0.0934361 5.65183C0.0894518 5.65808 0.0850768 5.66402 0.0813268 5.67035C0.0757019 5.67988 0.0708581 5.68988 0.0657801 5.69972C0.0622644 5.70652 0.0583582 5.71316 0.055077 5.72011C0.0505458 5.7298 0.0468739 5.7398 0.0428114 5.74972C0.0397646 5.7573 0.0363271 5.76449 0.0336709 5.77214C0.0302334 5.78183 0.0275772 5.79183 0.0246865 5.80168C0.0222647 5.8098 0.0194522 5.81785 0.0173428 5.82613C0.014921 5.83582 0.0132804 5.84582 0.0113272 5.85566C0.00960851 5.86425 0.00749915 5.87285 0.00617103 5.88152C0.00460854 5.89152 0.00406166 5.90167 0.00304605 5.91175C0.00218668 5.9205 0.000858559 5.92925 0.000389812 5.93808C-0.00015706 5.94839 0.000233563 5.95871 0.000233563 5.96902C0.000233563 5.97785 -0.000235185 5.98667 0.000155438 5.9955C0.000624185 6.00597 0.00210855 6.01652 0.00312417 6.02699C0.00398354 6.03566 0.00445229 6.04441 0.00570228 6.05316C0.00726477 6.06355 0.00976476 6.07394 0.0118741 6.08433C0.013671 6.09316 0.0149991 6.10206 0.0171866 6.11089C0.0197647 6.12128 0.0234366 6.13152 0.0266397 6.14183C0.0292959 6.15035 0.0314053 6.15902 0.0344521 6.16753C0.0345302 6.16769 0.0346084 6.16792 0.0346865 6.16808C0.0347646 6.16847 0.0348427 6.16878 0.034999 6.16917L0.836635 8.3715C0.84265 8.38807 0.850932 8.40314 0.858197 8.41885C0.8639 8.43103 0.86851 8.444 0.874994 8.45564C0.884135 8.47213 0.89515 8.48682 0.905697 8.50221C0.912338 8.51182 0.917962 8.52236 0.92515 8.5315C0.937728 8.54767 0.952103 8.56205 0.966165 8.57658C0.972728 8.58338 0.978509 8.59111 0.985384 8.5976C1.00124 8.61252 1.01867 8.62549 1.03593 8.63845C1.04218 8.64322 1.04781 8.64877 1.05421 8.65314C1.07288 8.66603 1.09288 8.67689 1.11288 8.68744C1.11882 8.69056 1.12429 8.69463 1.13031 8.6976C1.15077 8.7076 1.17226 8.71533 1.19374 8.72283C1.19999 8.72502 1.20585 8.72814 1.21218 8.73017C1.23421 8.73713 1.25687 8.74158 1.27968 8.74595C1.28593 8.74713 1.29202 8.74931 1.29835 8.75025C1.32757 8.75486 1.35733 8.75713 1.38733 8.75713C1.4039 8.75713 1.42054 8.75635 1.43726 8.75502C1.44069 8.7547 1.44405 8.754 1.44749 8.75369C1.46077 8.75228 1.47397 8.7508 1.48726 8.74853C1.49335 8.74744 1.49944 8.7458 1.50554 8.74455C1.51608 8.74236 1.52663 8.74033 1.5371 8.73752C1.54827 8.73463 1.55929 8.7308 1.57038 8.72713C1.57561 8.72549 1.58085 8.72408 1.58601 8.7222L1.58663 8.72197C1.58694 8.72189 1.58726 8.72174 1.58757 8.72166C1.5878 8.72158 1.58804 8.72142 1.58827 8.72135L8.55596 6.20824L16.8186 28.9091C15.3448 30.1983 14.7309 32.3096 15.4399 34.2573C16.1396 36.1795 17.9836 37.4712 20.0285 37.4712C20.5974 37.4712 21.1591 37.3717 21.6981 37.1756C22.9236 36.7295 23.902 35.833 24.4533 34.651C24.7463 34.0226 24.8984 33.3538 24.911 32.6808L39.6141 27.334C39.6141 27.334 39.6142 27.334 39.6143 27.334H39.6144C39.6183 27.3326 39.6219 27.3307 39.6257 27.3292C39.6406 27.3234 39.6554 27.3176 39.6695 27.3107C39.6755 27.3078 39.6811 27.3043 39.687 27.3012C39.6986 27.2951 39.7102 27.2893 39.7212 27.2826C39.7274 27.2787 39.7332 27.2741 39.7393 27.2701C39.7493 27.2634 39.7595 27.2569 39.7691 27.2498C39.7721 27.2474 39.7748 27.2448 39.7777 27.2424C39.7898 27.2328 39.8017 27.2232 39.8129 27.2128C39.8148 27.2108 39.8165 27.2088 39.8184 27.207C39.8302 27.1956 39.8417 27.1841 39.8526 27.1719C39.8548 27.1695 39.8566 27.1668 39.8587 27.1643C39.8689 27.1524 39.8788 27.1404 39.888 27.1278C39.889 27.1265 39.8898 27.125 39.8907 27.1236C39.9006 27.1096 39.9102 27.0954 39.9188 27.0806C39.9204 27.078 39.9216 27.0751 39.9232 27.0723C39.9309 27.0587 39.9384 27.0451 39.945 27.0309C39.9476 27.0254 39.9496 27.0195 39.952 27.0139C39.957 27.0023 39.962 26.9908 39.9663 26.9789C39.9692 26.9707 39.9713 26.9623 39.9738 26.954C39.9768 26.9444 39.9802 26.9348 39.9826 26.9251C39.9862 26.9106 39.9888 26.8959 39.9913 26.8812C39.992 26.8773 39.993 26.8736 39.9936 26.8698C40.0076 26.7763 39.9991 26.678 39.9645 26.583ZM22.9074 6.80683L23.575 8.64197L21.7397 9.30994L21.0718 7.47487L22.9074 6.80683ZM26.3809 16.3501L27.0489 18.185L25.2131 18.8532L24.5452 17.0181L26.3809 16.3501ZM19.4068 18.8881L23.4442 17.4188L24.3127 19.8042C24.3963 20.0347 24.6174 20.1901 24.8634 20.1901C24.9314 20.1901 24.9986 20.1777 25.0634 20.1542L28.0001 19.0854C28.304 18.9753 28.461 18.6386 28.3501 18.3346L27.4817 15.9493L31.5197 14.4797L35.3951 25.1271L23.7046 29.3784C23.4851 29.1277 23.2417 28.9001 22.9777 28.6998L19.4068 18.8881ZM9.45752 5.25824C9.45408 5.24887 9.44979 5.24004 9.44596 5.23082C9.44213 5.22184 9.43869 5.21254 9.43447 5.20371C9.43065 5.19566 9.42612 5.18832 9.42198 5.18059C9.41682 5.17098 9.4119 5.16113 9.40627 5.15191C9.40237 5.14559 9.39791 5.1398 9.39377 5.13363C9.38713 5.12363 9.38073 5.11348 9.37346 5.10402C9.36971 5.09902 9.36541 5.09457 9.36151 5.08965C9.35338 5.07957 9.34534 5.06949 9.33651 5.06004C9.33299 5.05621 9.32901 5.05277 9.32533 5.04902C9.31565 5.03918 9.30604 5.02934 9.29573 5.0202C9.29276 5.01762 9.28955 5.01535 9.28659 5.01285C9.27518 5.00309 9.26362 4.99348 9.25151 4.98473C9.24979 4.98348 9.24791 4.98254 9.24619 4.98121C9.2326 4.97152 9.21869 4.96231 9.20432 4.95379C9.20323 4.95316 9.20205 4.95262 9.20096 4.95207C9.12096 4.90559 9.03034 4.87817 8.93659 4.87324C8.93573 4.87324 8.93495 4.87332 8.93409 4.87324C8.91596 4.87238 8.89776 4.87231 8.8794 4.87317C8.87604 4.87332 8.87268 4.87395 8.86932 4.87418C8.85354 4.8752 8.83776 4.87645 8.82198 4.87879C8.8144 4.87996 8.8069 4.88184 8.79932 4.88332C8.78776 4.88543 8.77612 4.88738 8.76456 4.89027C8.75143 4.89356 8.73839 4.89801 8.72534 4.90215C8.71956 4.90402 8.7137 4.90543 8.70792 4.90746L8.70714 4.90777C8.7069 4.90785 8.70659 4.90793 8.70628 4.90801C8.70604 4.90809 8.70581 4.90824 8.70557 4.90832L1.73788 7.42143L1.33702 6.32019L8.30386 3.80739C8.30401 3.80731 8.30409 3.80723 8.30425 3.80723C8.30464 3.80708 8.30503 3.807 8.3055 3.80684C9.21643 3.47536 10.227 3.94661 10.5585 4.85746L18.9204 27.8321C18.7306 27.8765 18.5427 27.9315 18.3576 27.999C18.1711 28.0669 17.9922 28.1462 17.8194 28.2337L9.45752 5.25824ZM23.391 34.1555C22.9721 35.0538 22.2285 35.7352 21.2971 36.0742C20.887 36.2235 20.46 36.2992 20.0283 36.2992C18.4742 36.2992 17.0727 35.3175 16.541 33.8564C15.8412 31.9337 16.8361 29.8 18.7588 29.1001C19.1689 28.9508 19.5958 28.8751 20.0276 28.8751C21.5817 28.8751 22.9832 29.8568 23.5149 31.3181C23.854 32.2495 23.81 33.2572 23.391 34.1555ZM24.7827 31.4804C24.7382 31.291 24.6837 31.103 24.6161 30.9174C24.5486 30.7318 24.4701 30.5523 24.3821 30.379L38.2619 25.3317L38.6627 26.433L24.7827 31.4804Z" fill="#EC9DAB"/>
</g>
<defs>
<clipPath id="clip0">
<rect width="40" height="40" fill="white"/>
</clipPath>
</defs>
</svg>
