<svg width="40" height="40" viewBox="0 0 40 40" fill="none" xmlns="http://www.w3.org/2000/svg">
<path d="M37.741 5.37719L36.0317 3.87206L37.741 2.36724C38.0068 2.13287 38.0978 1.76757 37.9729 1.43615C37.8475 1.10443 37.5378 0.890196 37.1835 0.890196H30.1101V0.586242C30.1101 0.262451 29.8477 0 29.5239 0C29.2001 0 28.9376 0.262451 28.9376 0.586242V8.49272L24.1229 11.1072C24.0963 10.8954 24.0329 10.6872 23.9324 10.4913L23.254 9.16685C22.7883 8.25743 21.6696 7.89702 20.7608 8.36241L20.2362 8.63097C19.7955 8.85679 19.4693 9.2401 19.3173 9.71129C19.1653 10.1822 19.2059 10.6842 19.4317 11.1246L20.1101 12.4493C20.2685 12.7585 20.5026 13.0032 20.7779 13.1747C20.4177 13.6596 20.2468 14.256 20.0711 14.8755L19.9447 15.3228C19.8565 15.6344 20.0378 15.9585 20.3494 16.0464C20.4025 16.0617 20.4562 16.0687 20.509 16.0687C20.7647 16.0687 20.9997 15.9002 21.073 15.6418L21.1993 15.1953C21.4563 14.2892 21.614 13.804 22.1164 13.5312L23.0169 13.042L23.128 12.9852C23.1649 12.9663 23.1994 12.9449 23.2345 12.9239L29.653 9.43846C29.6124 10.2408 29.1805 10.9988 28.4695 11.4306L24.2956 13.9666C24.2907 13.9694 24.2858 13.9721 24.2813 13.9752L22.9821 14.7644C22.7056 14.9325 22.6174 15.2932 22.7856 15.57C22.944 15.831 23.2736 15.9237 23.5424 15.7928L22.5567 18.7725L21.8362 19.068L19.877 19.8709L20.4416 17.875C20.5294 17.5634 20.3485 17.2393 20.0369 17.1512C19.725 17.0627 19.4012 17.2442 19.313 17.5558L18.421 20.7104C18.4094 20.751 18.4018 20.7956 18.3999 20.838L18.1665 25.1263C18.1595 25.2899 18.1942 25.599 18.1186 25.7586L15.5258 31.2133H13.6416C12.5378 31.2133 11.64 32.1111 11.64 33.2147V34.9069C11.3873 34.7912 11.1069 34.7265 10.8111 34.7265H6.0263C4.92278 34.7265 4.02496 35.624 4.02496 36.7278V38.8274H2.61749C2.2937 38.8274 2.03125 39.0899 2.03125 39.4137C2.03125 39.7375 2.2937 39.9999 2.61749 39.9999H37.1828C37.5066 39.9999 37.7691 39.7375 37.7691 39.4137C37.7691 39.0899 37.5066 38.8274 37.1828 38.8274H35.6582V23.7167C35.6582 22.6132 34.7604 21.7154 33.6569 21.7154H30.1101V11.488C30.7601 10.607 31.0009 9.45219 30.6991 8.35478C30.6518 8.18236 30.5282 8.04076 30.3634 7.97087C30.2825 7.93639 30.1959 7.92113 30.1101 7.92448V6.85424H37.1832C37.5378 6.85424 37.8475 6.64 37.9726 6.30858C38.0978 5.97716 38.0068 5.61156 37.741 5.37719ZM20.4333 10.0714C20.4892 9.89836 20.6088 9.75737 20.7705 9.67466L21.2951 9.40611C21.394 9.35545 21.4996 9.33134 21.604 9.33134C21.8512 9.33134 22.0901 9.46653 22.2103 9.70121L22.8891 11.026C23.0474 11.3354 22.9449 11.7105 22.6632 11.9L22.4722 12.0035L22.069 12.2101C21.7355 12.381 21.3247 12.2485 21.1538 11.9146L20.4751 10.5902C20.3924 10.4284 20.3775 10.2441 20.4333 10.0714ZM19.2553 31.3937C19.0561 31.3027 18.8394 31.2432 18.6117 31.2222L19.2553 30.3674V31.3937ZM22.0388 26.6699C22.3208 26.332 22.3986 25.9375 22.4615 25.6195C22.4774 25.5438 22.7667 23.9636 22.7667 23.9636C22.7667 23.9636 23.0404 24.1342 23.0691 24.1464C23.0889 24.1552 23.103 24.1748 23.1051 24.1976L23.424 27.4395H21.4593L22.0388 26.6699ZM25.5056 23.4341L25.0106 27.4368H24.602L24.2721 24.0829C24.23 23.6532 23.9669 23.2782 23.5815 23.0917L22.9919 22.7179L23.3847 20.541C23.3847 20.541 25.0393 22.5067 25.0778 22.5567C25.4202 23.002 25.5374 23.1802 25.5056 23.4341ZM19.1732 26.2713C19.2917 25.9149 19.3466 25.552 19.3374 25.1831L19.5504 21.2719L22.2619 20.1608L21.7691 22.8909C21.7675 22.8982 21.766 22.9058 21.7651 22.9132L21.3574 25.1705C21.3043 25.4043 21.2579 25.7589 21.112 25.9515L17.1505 31.2133H16.824L19.1732 26.2713ZM5.19744 36.7275C5.19744 36.2707 5.56915 35.899 6.0263 35.899H10.8111C11.2683 35.899 11.6403 36.2707 11.6403 36.7275V38.8274H5.19744V36.7275ZM12.8125 36.7275V33.2147C12.8125 32.7575 13.1845 32.3858 13.6416 32.3858H18.4265C18.8836 32.3858 19.2553 32.7575 19.2553 33.2147V38.8274H12.8128V36.7275H12.8125ZM34.4857 23.7167V38.8274H28.0432V35.3124C28.0432 34.9886 27.7807 34.7262 27.4569 34.7262C27.1328 34.7262 26.8704 34.9886 26.8704 35.3124V38.8274H20.4278V29.4406C20.4278 28.9837 20.7995 28.612 21.2567 28.612H26.0415C26.4987 28.612 26.8704 28.9837 26.8704 29.4406V32.3794C26.8704 32.7032 27.1328 32.9656 27.4566 32.9656C27.7807 32.9656 28.0429 32.7032 28.0429 32.3794V23.7167C28.0429 23.2595 28.4149 22.8878 28.872 22.8878H29.5178C29.5196 22.8878 29.5217 22.8881 29.5239 22.8881C29.5257 22.8881 29.5278 22.8878 29.5297 22.8878H33.6565C34.1137 22.8878 34.4857 23.2598 34.4857 23.7167ZM28.872 21.7154C27.7685 21.7154 26.8707 22.6132 26.8707 23.7167V27.6199C26.6607 27.5241 26.4318 27.4633 26.191 27.4456L26.6693 23.5784C26.7633 22.8247 26.3787 22.3251 26.007 21.8417C25.9677 21.7904 23.6889 19.0847 23.6889 19.0847L25.0869 14.8581L28.9376 12.5186V21.7154H28.872ZM30.1101 5.68145V2.06298H36.3122L34.9764 3.23913C34.7945 3.39935 34.6902 3.63006 34.6902 3.87237C34.6902 4.11468 34.7945 4.34539 34.9764 4.50561L36.3122 5.68175H30.1101V5.68145Z" fill="#EC9DAB"/>
</svg>
