<svg width="19" height="18" viewBox="0 0 19 18" fill="none" xmlns="http://www.w3.org/2000/svg">
<path fill-rule="evenodd" clip-rule="evenodd" d="M11.5429 1.05962C12.1901 0.791438 12.8838 0.653404 13.5844 0.653404C14.285 0.653404 14.9787 0.791438 15.626 1.05962C16.2732 1.3278 16.8613 1.72088 17.3565 2.21639C17.8519 2.71161 18.2449 3.29958 18.513 3.9467C18.7812 4.59393 18.9193 5.28766 18.9193 5.98826C18.9193 6.68885 18.7812 7.38258 18.513 8.02982C18.2449 8.67699 17.8519 9.265 17.3564 9.76026C17.3564 9.7603 17.3563 9.76034 17.3563 9.76038L9.98974 17.1269C9.84909 17.2676 9.65832 17.3466 9.45941 17.3466C9.2605 17.3466 9.06973 17.2676 8.92908 17.1269L1.56241 9.76026C0.562016 8.75986 0 7.40303 0 5.98826C0 4.57349 0.562017 3.21666 1.56241 2.21626C2.56281 1.21587 3.91964 0.65385 5.33441 0.65385C6.74918 0.65385 8.10601 1.21587 9.10641 2.21626L9.45941 2.56927L9.81229 2.21639C10.3076 1.72088 10.8956 1.3278 11.5429 1.05962ZM13.5844 2.1534C13.0809 2.1534 12.5822 2.25262 12.117 2.44537C11.6518 2.63813 11.2292 2.92065 10.8732 3.2768L10.8731 3.27692L9.98974 4.16026C9.84909 4.30091 9.65832 4.37993 9.45941 4.37993C9.2605 4.37993 9.06973 4.30091 8.92908 4.16026L8.04575 3.27692C7.32665 2.55783 6.35136 2.15385 5.33441 2.15385C4.31746 2.15385 3.34216 2.55783 2.62307 3.27692C1.90398 3.99601 1.5 4.97131 1.5 5.98826C1.5 7.00521 1.90398 7.98051 2.62307 8.6996L9.45941 15.5359L16.2957 8.6996L16.2959 8.69947C16.652 8.34349 16.9345 7.92083 17.1273 7.45563C17.3201 6.99043 17.4193 6.49181 17.4193 5.98826C17.4193 5.48471 17.3201 4.98609 17.1273 4.52089C16.9345 4.05569 16.652 3.63303 16.2959 3.27705L16.2956 3.2768C15.9396 2.92065 15.517 2.63813 15.0518 2.44537C14.5866 2.25262 14.088 2.1534 13.5844 2.1534Z" fill="#555555"/>
</svg>
