<svg width="258" height="79" viewBox="0 0 258 79" fill="none" xmlns="http://www.w3.org/2000/svg">
<g filter="url(#filter0_d)">
<path d="M188.6 41.5C188.6 41.5 190.6 38 196.1 37.5C204.083 36.7743 208.521 41.9634 206.6 43.5C204.679 45.0366 201.6 41 202.1 37.5C202.667 33.5338 205.671 30.7858 209.6 30C213.529 29.2142 217.858 29.3614 225.1 33.5C232.1 37.5 239.1 43.5 246.1 43.5C249.577 43.5 253.1 41.4766 253.1 38C253.1 36 251.881 34 249.6 34C246.1 34 245.6 37.5 247.1 38C248.1 38.3333 249.1 37.5 248.6 36.5" stroke="black" stroke-linecap="round"/>
<g opacity="0.53">
<circle cx="119.1" cy="20" r="19" stroke="#EC9DAB" stroke-width="2"/>
<circle cx="139.1" cy="20" r="19" stroke="#EC9DAB" stroke-width="2"/>
</g>
<path d="M109.523 49.6181C108.902 49.4556 108.282 49.3004 107.661 49.1526C107.055 48.9901 106.435 48.8423 105.799 48.7093C105.046 50.2461 104.248 51.7534 103.405 53.2311C102.563 54.7088 101.669 56.1643 100.723 57.5977C99.9992 58.6911 99.1865 59.7625 98.2851 60.8116C97.3985 61.8608 96.4528 62.8435 95.4479 63.7596C94.4579 64.6906 93.4235 65.5402 92.3448 66.3086C91.2808 67.0918 90.2021 67.7642 89.1086 68.3257C88.0299 68.902 86.9512 69.3453 85.8725 69.6556C84.8085 69.9659 83.7742 70.1211 82.7693 70.1211C81.8679 70.1211 80.9591 69.9585 80.043 69.6335C79.1268 69.3231 78.3067 68.8503 77.5826 68.2149C76.8438 67.5795 76.2453 66.7815 75.7872 65.821C75.3291 64.8753 75.1001 63.7596 75.1001 62.474C75.1001 61.8091 75.1814 61.1072 75.3439 60.3683C75.4917 59.6295 75.7429 58.8685 76.0975 58.0853C76.4522 57.3021 76.9103 56.4968 77.4718 55.6693C78.0333 54.8565 78.7204 54.0216 79.5332 53.1646C80.6119 52.0267 81.8236 51.0441 83.1683 50.2166C84.4982 49.3891 85.9168 48.7093 87.4241 48.1774C88.9313 47.6306 90.505 47.2316 92.1453 46.9804C93.7855 46.7144 95.4479 46.5815 97.1325 46.5815C98.2408 46.5815 99.3416 46.6332 100.435 46.7366C101.543 46.84 102.652 46.9878 103.76 47.1799C104.543 45.5545 105.252 43.9364 105.888 42.3257C106.523 40.715 107.077 39.1265 107.55 37.5601C108.26 35.1663 108.769 33.0901 109.08 31.3317C109.39 29.5732 109.545 28.0512 109.545 26.7656C109.545 25.6721 109.456 24.7338 109.279 23.9506C109.102 23.1526 108.873 22.4803 108.592 21.9335C108.311 21.372 107.986 20.9213 107.617 20.5815C107.247 20.2268 106.87 19.9608 106.486 19.7835C106.117 19.5914 105.747 19.4658 105.378 19.4067C105.023 19.3328 104.706 19.2959 104.425 19.2959C103.243 19.2959 102.186 19.5766 101.255 20.1381C100.324 20.6997 99.5337 21.4902 98.8836 22.5098C98.2482 23.5294 97.7605 24.7633 97.4206 26.2115C97.0808 27.6448 96.9108 29.2407 96.9108 30.9992C96.9108 32.3734 97.0291 33.6443 97.2655 34.8116C97.5019 35.979 97.7975 37.0429 98.1521 38.0034C98.5067 38.9639 98.8909 39.8136 99.3047 40.5525C99.7332 41.2913 100.125 41.9119 100.479 42.4144C100.849 42.9168 101.152 43.301 101.388 43.567C101.625 43.8329 101.75 43.9659 101.765 43.9659L101.078 44.6752C100.132 43.8625 99.2456 42.9611 98.4181 41.9711C97.5906 40.981 96.8739 39.9171 96.268 38.7792C95.6622 37.6414 95.1819 36.4371 94.8273 35.1663C94.4726 33.8807 94.2953 32.536 94.2953 31.1322C94.2953 29.5363 94.5244 27.9625 94.9825 26.4109C95.4405 24.8594 96.1055 23.4703 96.9773 22.2439C97.8492 21.0026 98.9205 20.0052 100.191 19.2515C101.462 18.4979 102.91 18.1211 104.536 18.1211C104.905 18.1211 105.334 18.158 105.821 18.2319C106.309 18.3058 106.811 18.461 107.329 18.6974C107.846 18.919 108.356 19.2368 108.858 19.6505C109.375 20.0643 109.826 20.6184 110.21 21.3129C110.609 21.9926 110.927 22.8349 111.163 23.8398C111.414 24.8298 111.54 26.0194 111.54 27.4084C111.54 28.0438 111.51 28.7235 111.451 29.4476C111.392 30.1569 111.304 30.9253 111.185 31.7528C110.772 34.5013 110.151 37.2055 109.323 39.8653C108.496 42.5104 107.484 45.1185 106.287 47.6897C106.907 47.8227 107.513 47.9631 108.104 48.1109C108.695 48.2586 109.279 48.4138 109.855 48.5763L109.523 49.6181ZM82.7472 68.9685C83.8554 69.0276 85.008 68.8133 86.205 68.3257C87.4019 67.8381 88.6062 67.1288 89.8179 66.1978C91.0296 65.2817 92.2339 64.1734 93.4309 62.873C94.6426 61.5726 95.8173 60.1467 96.9552 58.5951C98.1078 57.0435 99.2087 55.3959 100.258 53.6522C101.322 51.9085 102.312 50.1205 103.228 48.2882C102.474 48.1847 101.721 48.1035 100.967 48.0444C100.228 47.9853 99.4672 47.9557 98.6841 47.9557C96.3789 47.9557 94.2436 48.2143 92.2783 48.7315C90.3277 49.2487 88.5471 49.9358 86.9364 50.7929C85.3405 51.6499 83.9293 52.6326 82.7028 53.7409C81.4763 54.8491 80.4493 55.987 79.6218 57.1543C78.7943 58.3365 78.1663 59.5039 77.7378 60.6565C77.3092 61.8239 77.095 62.8878 77.095 63.8483C77.095 64.6019 77.228 65.289 77.494 65.9097C77.7452 66.5451 78.1146 67.0844 78.6022 67.5277C79.0751 67.9858 79.6662 68.3405 80.3755 68.5917C81.07 68.8429 81.8605 68.9685 82.7472 68.9685Z" fill="#111111"/>
<path d="M124.706 47.1356C124.765 47.1504 124.824 47.1578 124.884 47.1578C124.943 47.1578 125.009 47.1578 125.083 47.1578C125.497 47.1578 125.874 47.1208 126.213 47.0469C126.553 46.9583 126.864 46.8253 127.144 46.6479C127.44 46.4706 127.721 46.2416 127.987 45.9608C128.253 45.6653 128.511 45.3106 128.763 44.8969L129.56 45.5175C128.851 46.5223 128.12 47.2242 127.366 47.6232C126.612 48.0222 125.815 48.2217 124.972 48.2217C124.662 48.2217 124.389 48.1921 124.152 48.133C123.517 49.197 122.837 50.1057 122.113 50.8594C121.389 51.5982 120.65 52.2041 119.896 52.6769C119.143 53.1498 118.396 53.4897 117.658 53.6965C116.919 53.9182 116.232 54.029 115.596 54.029C114.946 54.029 114.34 53.9108 113.779 53.6744C113.232 53.4527 112.759 53.1276 112.36 52.6991C111.961 52.2706 111.651 51.7608 111.429 51.1697C111.208 50.5786 111.097 49.9137 111.097 49.1748C111.097 48.436 111.215 47.6823 111.451 46.9139C111.688 46.1455 112.005 45.3845 112.404 44.6309C112.818 43.8773 113.298 43.1532 113.845 42.4587C114.392 41.7494 114.983 41.0918 115.618 40.486C116.254 39.8801 116.911 39.3334 117.591 38.8457C118.271 38.3581 118.951 37.9591 119.63 37.6488L120.34 38.5797C119.556 39.1413 118.759 39.8506 117.946 40.7076C117.148 41.5647 116.416 42.503 115.751 43.5226C115.101 44.5422 114.562 45.6062 114.133 46.7144C113.72 47.8079 113.513 48.8719 113.513 49.9063C113.513 50.8372 113.72 51.5613 114.133 52.0785C114.547 52.5809 115.175 52.8321 116.017 52.8321C116.668 52.8321 117.31 52.6991 117.946 52.4331C118.581 52.1671 119.202 51.8051 119.808 51.347C120.414 50.8889 120.997 50.3496 121.559 49.7289C122.12 49.0935 122.652 48.4212 123.155 47.7119C122.726 47.4607 122.349 47.1282 122.024 46.7144C121.699 46.2859 121.426 45.8057 121.204 45.2737C120.982 44.7269 120.813 44.1433 120.694 43.5226C120.591 42.902 120.539 42.2666 120.539 41.6164C120.539 40.9662 120.62 40.353 120.783 39.7767C120.946 39.2004 121.167 38.698 121.448 38.2694C121.743 37.8261 122.083 37.4789 122.468 37.2277C122.852 36.9765 123.273 36.8508 123.731 36.8508C124.145 36.8508 124.514 36.9617 124.839 37.1833C125.164 37.3902 125.438 37.6857 125.659 38.0699C125.881 38.4394 126.051 38.8827 126.169 39.3999C126.287 39.9171 126.346 40.4712 126.346 41.0623C126.346 41.5056 126.31 41.9932 126.236 42.5252C126.162 43.0572 126.051 43.5965 125.903 44.1433C125.77 44.6752 125.6 45.2072 125.393 45.7392C125.201 46.2564 124.972 46.7218 124.706 47.1356ZM121.692 41.6164C121.692 42.0449 121.729 42.5104 121.803 43.0128C121.876 43.5152 121.995 44.0029 122.157 44.4757C122.32 44.9486 122.527 45.3919 122.778 45.8057C123.029 46.2046 123.339 46.5223 123.709 46.7588C123.975 46.2416 124.196 45.717 124.374 45.185C124.566 44.6383 124.721 44.1137 124.839 43.6113C124.972 43.1089 125.061 42.6434 125.105 42.2149C125.164 41.7716 125.194 41.3874 125.194 41.0623C125.194 40.619 125.157 40.2126 125.083 39.8432C125.009 39.4738 124.906 39.156 124.773 38.8901C124.655 38.6093 124.499 38.395 124.307 38.2473C124.13 38.0847 123.93 38.0034 123.709 38.0034C123.413 38.0034 123.14 38.1069 122.889 38.3138C122.637 38.5059 122.423 38.7718 122.246 39.1117C122.069 39.4368 121.928 39.821 121.825 40.2643C121.736 40.6928 121.692 41.1435 121.692 41.6164Z" fill="#111111"/>
<path d="M141.286 47.1356C141.345 47.1504 141.404 47.1578 141.463 47.1578C141.522 47.1578 141.589 47.1578 141.663 47.1578C142.077 47.1578 142.453 47.1208 142.793 47.0469C143.133 46.9583 143.443 46.8253 143.724 46.6479C144.02 46.4706 144.3 46.2416 144.566 45.9608C144.832 45.6653 145.091 45.3106 145.342 44.8969L146.14 45.5175C145.431 46.5223 144.699 47.2242 143.946 47.6232C143.192 48.0222 142.394 48.2217 141.552 48.2217C141.242 48.2217 140.968 48.1921 140.732 48.133C140.096 49.197 139.417 50.1057 138.693 50.8594C137.969 51.5982 137.23 52.2041 136.476 52.6769C135.722 53.1498 134.976 53.4897 134.237 53.6965C133.499 53.9182 132.811 54.029 132.176 54.029C131.526 54.029 130.92 53.9108 130.358 53.6744C129.812 53.4527 129.339 53.1276 128.94 52.6991C128.541 52.2706 128.231 51.7608 128.009 51.1697C127.787 50.5786 127.676 49.9137 127.676 49.1748C127.676 48.436 127.795 47.6823 128.031 46.9139C128.267 46.1455 128.585 45.3845 128.984 44.6309C129.398 43.8773 129.878 43.1532 130.425 42.4587C130.972 41.7494 131.563 41.0918 132.198 40.486C132.834 39.8801 133.491 39.3334 134.171 38.8457C134.851 38.3581 135.53 37.9591 136.21 37.6488L136.919 38.5797C136.136 39.1413 135.338 39.8506 134.526 40.7076C133.728 41.5647 132.996 42.503 132.331 43.5226C131.681 44.5422 131.142 45.6062 130.713 46.7144C130.299 47.8079 130.092 48.8719 130.092 49.9063C130.092 50.8372 130.299 51.5613 130.713 52.0785C131.127 52.5809 131.755 52.8321 132.597 52.8321C133.247 52.8321 133.89 52.6991 134.526 52.4331C135.161 52.1671 135.782 51.8051 136.387 51.347C136.993 50.8889 137.577 50.3496 138.138 49.7289C138.7 49.0935 139.232 48.4212 139.734 47.7119C139.306 47.4607 138.929 47.1282 138.604 46.7144C138.279 46.2859 138.005 45.8057 137.784 45.2737C137.562 44.7269 137.392 44.1433 137.274 43.5226C137.171 42.902 137.119 42.2666 137.119 41.6164C137.119 40.9662 137.2 40.353 137.363 39.7767C137.525 39.2004 137.747 38.698 138.028 38.2694C138.323 37.8261 138.663 37.4789 139.047 37.2277C139.431 36.9765 139.853 36.8508 140.311 36.8508C140.724 36.8508 141.094 36.9617 141.419 37.1833C141.744 37.3902 142.017 37.6857 142.239 38.0699C142.461 38.4394 142.631 38.8827 142.749 39.3999C142.867 39.9171 142.926 40.4712 142.926 41.0623C142.926 41.5056 142.889 41.9932 142.815 42.5252C142.741 43.0572 142.631 43.5965 142.483 44.1433C142.35 44.6752 142.18 45.2072 141.973 45.7392C141.781 46.2564 141.552 46.7218 141.286 47.1356ZM138.271 41.6164C138.271 42.0449 138.308 42.5104 138.382 43.0128C138.456 43.5152 138.574 44.0029 138.737 44.4757C138.899 44.9486 139.106 45.3919 139.358 45.8057C139.609 46.2046 139.919 46.5223 140.289 46.7588C140.554 46.2416 140.776 45.717 140.953 45.185C141.146 44.6383 141.301 44.1137 141.419 43.6113C141.552 43.1089 141.641 42.6434 141.685 42.2149C141.744 41.7716 141.774 41.3874 141.774 41.0623C141.774 40.619 141.737 40.2126 141.663 39.8432C141.589 39.4738 141.485 39.156 141.352 38.8901C141.234 38.6093 141.079 38.395 140.887 38.2473C140.71 38.0847 140.51 38.0034 140.289 38.0034C139.993 38.0034 139.72 38.1069 139.468 38.3138C139.217 38.5059 139.003 38.7718 138.826 39.1117C138.648 39.4368 138.508 39.821 138.404 40.2643C138.316 40.6928 138.271 41.1435 138.271 41.6164Z" fill="#111111"/>
<path d="M161.412 20.9139C161.929 20.9139 162.358 21.0395 162.698 21.2907C163.052 21.542 163.23 22 163.23 22.665C163.23 23.1231 163.134 23.6698 162.942 24.3052C162.764 24.9406 162.513 25.6352 162.188 26.3888C161.878 27.1276 161.508 27.9108 161.08 28.7383C160.651 29.551 160.186 30.3638 159.683 31.1765C159.196 31.9892 158.678 32.7798 158.132 33.5482C157.6 34.3166 157.068 35.0259 156.536 35.6761C155.472 36.9912 154.548 38.0995 153.765 39.0009C152.997 39.9023 152.332 40.6707 151.77 41.3061C151.209 41.9267 150.736 42.4365 150.352 42.8355C149.967 43.2197 149.628 43.5522 149.332 43.8329C149.036 44.1137 148.763 44.3723 148.512 44.6087C148.261 44.8304 148.002 45.0816 147.736 45.3624C147.618 45.9239 147.559 46.4632 147.559 46.9804C147.574 47.4828 147.581 47.9483 147.581 48.3769C147.581 49.6624 147.788 50.6156 148.202 51.2362C148.615 51.8568 149.199 52.1671 149.953 52.1671C150.455 52.1671 150.957 52.0415 151.46 51.7903C151.977 51.5243 152.487 51.1845 152.989 50.7707C153.492 50.357 153.979 49.8915 154.452 49.3743C154.925 48.8423 155.368 48.3104 155.782 47.7784C156.211 47.2316 156.595 46.7071 156.935 46.2046C157.275 45.7022 157.57 45.2663 157.821 44.8969L158.641 45.5175C158.597 45.5766 158.449 45.8131 158.198 46.2268C157.962 46.6258 157.644 47.1134 157.245 47.6897C156.846 48.266 156.373 48.8867 155.826 49.5516C155.28 50.2018 154.689 50.8077 154.053 51.3692C153.418 51.9307 152.745 52.3962 152.036 52.7656C151.342 53.135 150.632 53.3197 149.908 53.3197C149.302 53.3197 148.719 53.2089 148.157 52.9873C147.61 52.7508 147.123 52.3888 146.694 51.9011C146.281 51.3987 145.941 50.7633 145.675 49.9949C145.423 49.2265 145.298 48.303 145.298 47.2242C145.298 45.8795 145.453 44.4757 145.763 43.0128C146.088 41.5351 146.524 40.0574 147.071 38.5797C147.618 37.0873 148.261 35.617 149 34.1688C149.738 32.7207 150.522 31.3464 151.349 30.0461C152.191 28.7309 153.063 27.5192 153.965 26.4109C154.881 25.2879 155.775 24.32 156.647 23.5073C157.533 22.6946 158.383 22.0591 159.196 21.6011C160.008 21.143 160.747 20.9139 161.412 20.9139ZM148.135 43.3896C149.391 42.0893 150.603 40.7741 151.77 39.4442C152.952 38.0995 154.053 36.777 155.073 35.4766C156.107 34.1614 157.053 32.8906 157.91 31.6641C158.767 30.4229 159.499 29.2555 160.104 28.162C160.71 27.0685 161.183 26.0711 161.523 25.1697C161.863 24.2683 162.033 23.4925 162.033 22.8423C162.033 22.7241 161.974 22.5689 161.855 22.3768C161.737 22.17 161.597 22.0665 161.434 22.0665C160.976 22.0665 160.37 22.3695 159.617 22.9753C158.863 23.5812 158.043 24.4087 157.156 25.4578C156.285 26.4922 155.376 27.7039 154.43 29.093C153.499 30.482 152.62 31.9671 151.792 33.5482C150.965 35.1293 150.226 36.7622 149.576 38.4468C148.926 40.1313 148.445 41.779 148.135 43.3896Z" fill="#111111"/>
<path d="M167.774 33.5039C167.774 33.7994 167.7 34.1097 167.552 34.4348C167.404 34.7451 167.212 35.0259 166.976 35.2771C166.754 35.5283 166.503 35.7352 166.222 35.8977C165.941 36.0603 165.66 36.1416 165.38 36.1416C165.129 36.1416 164.936 36.0529 164.803 35.8756C164.67 35.6835 164.604 35.4544 164.604 35.1884C164.604 34.952 164.648 34.6713 164.737 34.3462C164.826 34.0211 164.959 33.7181 165.136 33.4374C165.313 33.1418 165.527 32.8906 165.779 32.6838C166.03 32.4769 166.318 32.3734 166.643 32.3734C166.953 32.3734 167.219 32.4917 167.441 32.7281C167.663 32.9645 167.774 33.2231 167.774 33.5039ZM163.629 38.4246C163.437 38.8088 163.163 39.3186 162.809 39.954C162.469 40.5746 162.099 41.2618 161.7 42.0154C161.301 42.7542 160.895 43.5374 160.481 44.3649C160.067 45.1776 159.691 45.9756 159.351 46.7588C159.026 47.5272 158.76 48.2512 158.553 48.931C158.346 49.6107 158.242 50.187 158.242 50.6599C158.242 51.0884 158.331 51.384 158.508 51.5465C158.686 51.6943 158.937 51.7682 159.262 51.7682C159.868 51.7682 160.459 51.5687 161.035 51.1697C161.612 50.7707 162.181 50.2535 162.742 49.6181C163.318 48.9679 163.88 48.2291 164.427 47.4016C164.973 46.5741 165.52 45.7392 166.067 44.8969L166.865 45.5175C166.436 46.2859 165.949 47.106 165.402 47.9779C164.87 48.8497 164.271 49.6624 163.606 50.4161C162.942 51.1549 162.21 51.7682 161.412 52.2558C160.614 52.7434 159.742 52.9873 158.797 52.9873C157.91 52.9873 157.23 52.7213 156.757 52.1893C156.285 51.6573 156.048 50.9702 156.048 50.1279C156.048 49.1379 156.277 48.1035 156.735 47.0248C157.193 45.946 157.762 44.8821 158.442 43.8329C159.136 42.769 159.883 41.7494 160.681 40.7741C161.493 39.7988 162.24 38.9122 162.919 38.1143L163.629 38.4246Z" fill="#111111"/>
<path d="M167.751 48.1109C167.722 48.2882 167.7 48.4655 167.685 48.6428C167.67 48.8202 167.663 48.9975 167.663 49.1748C167.663 49.7068 167.737 50.2166 167.884 50.7042C168.047 51.1771 168.276 51.5982 168.572 51.9676C168.882 52.3223 169.259 52.6031 169.702 52.8099C170.16 53.0168 170.677 53.1202 171.254 53.1202C173.189 53.1202 175.059 52.4627 176.861 51.1475C178.664 49.8324 180.46 47.7488 182.248 44.8969L183.001 45.5618C182.026 47.1873 181.036 48.5616 180.031 49.6846C179.026 50.7929 178.021 51.6943 177.017 52.3888C176.027 53.0833 175.051 53.5857 174.091 53.896C173.13 54.2063 172.214 54.3615 171.342 54.3615C170.707 54.3615 170.034 54.2728 169.325 54.0955C168.616 53.9182 167.958 53.6227 167.352 53.2089C166.761 52.7952 166.274 52.241 165.89 51.5465C165.491 50.852 165.291 49.9875 165.291 48.9531C165.291 47.8449 165.483 46.7809 165.867 45.7613C166.237 44.7269 166.724 43.7664 167.33 42.8798C167.936 41.9932 168.631 41.1879 169.414 40.4638C170.197 39.725 170.988 39.0969 171.786 38.5797C172.598 38.0626 173.389 37.6636 174.157 37.3828C174.926 37.0873 175.605 36.9395 176.196 36.9395C176.581 36.9395 176.972 36.9986 177.371 37.1168C177.77 37.235 178.125 37.4198 178.435 37.671C178.76 37.9222 179.019 38.2547 179.211 38.6684C179.418 39.0822 179.521 39.5772 179.521 40.1535C179.521 40.9367 179.337 41.6755 178.967 42.37C178.612 43.0498 178.132 43.6852 177.526 44.2763C176.921 44.8526 176.219 45.3771 175.421 45.85C174.623 46.3081 173.788 46.6997 172.916 47.0248C172.044 47.3499 171.165 47.6084 170.278 47.8005C169.392 47.9926 168.549 48.0961 167.751 48.1109ZM167.929 47.1578C168.919 47.0543 169.85 46.8474 170.722 46.5371C171.593 46.2268 172.391 45.85 173.115 45.4067C173.84 44.9486 174.482 44.4536 175.044 43.9216C175.62 43.3896 176.1 42.8503 176.485 42.3035C176.869 41.7568 177.164 41.2322 177.371 40.7298C177.578 40.2274 177.682 39.7767 177.682 39.3777C177.682 38.9787 177.571 38.661 177.349 38.4246C177.142 38.1882 176.891 38.0699 176.595 38.0699C175.945 38.0699 175.214 38.3064 174.401 38.7792C173.588 39.2373 172.776 39.8801 171.963 40.7076C171.15 41.5204 170.382 42.4809 169.658 43.5891C168.948 44.6974 168.372 45.8869 167.929 47.1578Z" fill="#111111"/>
<path d="M69.5 41.5002C69.5 41.5002 67.5 38.0002 62 37.5002C54.0173 36.7745 49.5793 41.9636 51.5 43.5002C53.4207 45.0368 56.5 41.0002 56 37.5002C55.4334 33.534 52.4286 30.7859 48.5 30.0002C44.5714 29.2144 40.2425 29.3616 33 33.5002C26 37.5002 19 43.5002 12 43.5002C8.52346 43.5002 5 41.4767 5 38.0002C5 36.0002 6.21875 34.0002 8.5 34.0002C12 34.0002 12.5 37.5002 11 38.0002C10 38.3335 9 37.5002 9.5 36.5002" stroke="black" stroke-linecap="round"/>
</g>
<defs>
<filter id="filter0_d" x="0.5" y="0" width="257.1" height="78.1211" filterUnits="userSpaceOnUse" color-interpolation-filters="sRGB">
<feFlood flood-opacity="0" result="BackgroundImageFix"/>
<feColorMatrix in="SourceAlpha" type="matrix" values="0 0 0 0 0 0 0 0 0 0 0 0 0 0 0 0 0 0 127 0" result="hardAlpha"/>
<feOffset dy="4"/>
<feGaussianBlur stdDeviation="2"/>
<feComposite in2="hardAlpha" operator="out"/>
<feColorMatrix type="matrix" values="0 0 0 0 0 0 0 0 0 0 0 0 0 0 0 0 0 0 0.25 0"/>
<feBlend mode="normal" in2="BackgroundImageFix" result="effect1_dropShadow"/>
<feBlend mode="normal" in="SourceGraphic" in2="effect1_dropShadow" result="shape"/>
</filter>
</defs>
</svg>
