<svg width="40" height="40" viewBox="0 0 40 40" fill="none" xmlns="http://www.w3.org/2000/svg">
<path d="M38.9382 13.7271L26.2721 1.06112C25.5884 0.377447 24.6766 0.00088501 23.7045 0.00088501C22.7326 0.00088501 21.8207 0.377291 21.137 1.06096L1.06023 21.1378C0.376563 21.8215 0 22.7332 0 23.7053C0 24.6773 0.376563 25.5892 1.06023 26.2728L2.62211 27.8346C2.62227 27.8347 2.62234 27.8349 2.6225 27.835C2.62266 27.8352 2.62281 27.8353 2.62297 27.8355L13.1198 38.3324H11.6664C11.2063 38.3324 10.8331 38.7054 10.8331 39.1657C10.8331 39.6258 11.2063 39.9989 11.6664 39.9989H16.2905C16.2916 39.9989 16.2927 39.999 16.2938 39.999C16.2948 39.999 16.2959 39.9989 16.297 39.9989L28.3323 39.9991C28.7925 39.9991 29.1656 39.626 29.1656 39.1658C29.1656 38.7056 28.7925 38.3325 28.3323 38.3325L19.468 38.3324L38.9383 18.8621C40.3539 17.4463 40.3539 15.1427 38.9382 13.7271ZM37.7598 17.6836L17.6829 37.7605C17.3147 38.1286 16.8225 38.3316 16.2968 38.3324H16.2905C15.7649 38.3315 15.2729 38.1286 14.9048 37.7605L4.39023 27.2458L23.6711 7.96479C23.9965 7.6394 23.9965 7.11174 23.6711 6.78635C23.3456 6.46096 22.8181 6.46096 22.4926 6.78643L3.21172 26.0674L2.23859 25.0943C1.86977 24.7255 1.66664 24.2322 1.66664 23.7053C1.66664 23.1785 1.86977 22.6851 2.23867 22.3162L22.3154 2.23948C22.6843 1.87065 23.1777 1.66753 23.7045 1.66753C24.2314 1.66753 24.7248 1.87065 25.0937 2.23956L29.6017 6.74753L10.3206 26.0288C9.99524 26.3541 9.99524 26.8817 10.3206 27.2073C10.4834 27.3699 10.6966 27.4513 10.9098 27.4513C11.123 27.4513 11.3363 27.3699 11.4991 27.2072L30.7802 7.92604L37.7598 14.9054C38.5256 15.6714 38.5256 16.9177 37.7598 17.6836Z" fill="#EC9DAB"/>
<path d="M20.5314 24.0675C20.206 23.7421 19.6785 23.7422 19.3529 24.0675L12.7956 30.6247C12.4702 30.9501 12.4702 31.4777 12.7956 31.8032C12.9583 31.966 13.1716 32.0473 13.3848 32.0473C13.598 32.0473 13.8113 31.9659 13.974 31.8032L20.5313 25.246C20.8568 24.9204 20.8568 24.3929 20.5314 24.0675Z" fill="#EC9DAB"/>
<path d="M17.8419 30.2923L15.1525 32.9818C14.8271 33.3072 14.8271 33.8348 15.1525 34.1603C15.3152 34.3229 15.5285 34.4043 15.7417 34.4043C15.9551 34.4043 16.1682 34.3229 16.3309 34.1603L19.0204 31.4708C19.3458 31.1454 19.3458 30.6178 19.0204 30.2923C18.695 29.9669 18.1676 29.9669 17.8419 30.2923Z" fill="#EC9DAB"/>
<path d="M20.3169 27.8177L19.9634 28.1711C19.6379 28.4965 19.6379 29.0241 19.9633 29.3496C20.1259 29.5123 20.3393 29.5938 20.5525 29.5938C20.7657 29.5938 20.979 29.5123 21.1416 29.3496L21.4951 28.9962C21.8206 28.6708 21.8206 28.1432 21.4952 27.8178C21.17 27.4924 20.6423 27.4923 20.3169 27.8177Z" fill="#EC9DAB"/>
<path d="M31.8033 12.7964C31.647 12.6401 31.4351 12.5523 31.214 12.5523C30.993 12.5523 30.7812 12.6401 30.6248 12.7964L27.0893 16.3319C26.933 16.4882 26.8452 16.7001 26.8452 16.9211C26.8452 17.1421 26.933 17.3541 27.0893 17.5103L29.4463 19.8671C29.609 20.0298 29.8223 20.1112 30.0355 20.1112C30.2489 20.1112 30.462 20.0298 30.6247 19.8671L34.1601 16.3318C34.4855 16.0064 34.4855 15.4787 34.1601 15.1534L31.8033 12.7964ZM30.0355 18.0995L28.8569 16.9211L31.214 14.5641L32.3924 15.7426L30.0355 18.0995Z" fill="#EC9DAB"/>
<path d="M25.0274 6.26464C25.2407 6.26464 25.454 6.18323 25.6167 6.02042L25.9702 5.66675C26.2955 5.34128 26.2954 4.81362 25.97 4.48831C25.6446 4.163 25.1168 4.16308 24.7915 4.48855L24.438 4.84222C24.1127 5.16769 24.1128 5.69534 24.4383 6.02066C24.601 6.18339 24.8141 6.26464 25.0274 6.26464Z" fill="#EC9DAB"/>
<path d="M8.37612 27.9731L8.02261 28.3266C7.69722 28.6519 7.69722 29.1796 8.02261 29.5051C8.18534 29.6678 8.39862 29.7491 8.61183 29.7491C8.82503 29.7491 9.03831 29.6678 9.20105 29.5051L9.55456 29.1516C9.87995 28.8261 9.87995 28.2985 9.55456 27.9731C9.22909 27.6476 8.70159 27.6476 8.37612 27.9731Z" fill="#EC9DAB"/>
</svg>
