<svg width="16" height="16" viewBox="0 0 16 16" fill="none" xmlns="http://www.w3.org/2000/svg">
<path d="M12.3862 9.9624C11.4533 9.9624 10.6181 10.388 10.0639 11.0551L6.45892 9.00838C6.57102 8.69291 6.63264 8.35371 6.63264 8.00021C6.63264 7.64679 6.57102 7.30758 6.45892 6.99211L10.0636 4.94486C10.6177 5.61221 11.4531 6.03796 12.3861 6.03796C14.0504 6.03796 15.4043 4.68347 15.4043 3.01852C15.4045 1.35406 14.0505 0 12.3862 0C10.7218 0 9.36766 1.35406 9.36766 3.01845C9.36766 3.37195 9.4292 3.71122 9.54138 4.02676L5.93649 6.07408C5.38238 5.40708 4.54722 4.98162 3.61447 4.98162C1.9498 4.98162 0.595459 6.33568 0.595459 8.00014C0.595459 9.66453 1.9498 11.0186 3.61447 11.0186C4.54722 11.0186 5.38231 10.5931 5.93642 9.9262L9.54138 11.973C9.4292 12.2886 9.36759 12.6279 9.36759 12.9815C9.36759 14.6459 10.7217 15.9999 12.3862 15.9999C14.0504 15.9999 15.4044 14.6458 15.4044 12.9815C15.4045 11.3168 14.0505 9.9624 12.3862 9.9624ZM12.3862 1.05626C13.4681 1.05626 14.3482 1.93648 14.3482 3.01845C14.3482 4.10098 13.4681 4.98162 12.3862 4.98162C11.3042 4.98162 10.4239 4.10098 10.4239 3.01845C10.4239 1.93648 11.3042 1.05626 12.3862 1.05626ZM3.61454 9.9624C2.53229 9.9624 1.65179 9.08211 1.65179 8.00021C1.65179 6.91817 2.53229 6.03796 3.61454 6.03796C4.69637 6.03796 5.57645 6.91817 5.57645 8.00021C5.57645 9.08211 4.6963 9.9624 3.61454 9.9624ZM12.3862 14.9437C11.3042 14.9437 10.4239 14.0634 10.4239 12.9816C10.4239 11.8992 11.3042 11.0187 12.3862 11.0187C13.4681 11.0187 14.3482 11.8992 14.3482 12.9816C14.3482 14.0634 13.4681 14.9437 12.3862 14.9437Z" fill="#888888"/>
</svg>
