<svg width="21" height="20" viewBox="0 0 21 20" fill="none" xmlns="http://www.w3.org/2000/svg">
<path d="M5.91931 1.66666L3.41931 5V16.6667C3.41931 17.1087 3.59491 17.5326 3.90747 17.8452C4.22003 18.1577 4.64395 18.3333 5.08598 18.3333H16.7526C17.1947 18.3333 17.6186 18.1577 17.9312 17.8452C18.2437 17.5326 18.4193 17.1087 18.4193 16.6667V5L15.9193 1.66666H5.91931Z" stroke="#555555" stroke-width="1.5" stroke-linecap="round" stroke-linejoin="round"/>
<path d="M3.41931 5H18.4193" stroke="#555555" stroke-width="1.5" stroke-linecap="round" stroke-linejoin="round"/>
<path d="M14.2526 8.33334C14.2526 9.21739 13.9014 10.0652 13.2763 10.6904C12.6512 11.3155 11.8033 11.6667 10.9193 11.6667C10.0352 11.6667 9.18737 11.3155 8.56225 10.6904C7.93713 10.0652 7.58594 9.21739 7.58594 8.33334" stroke="#555555" stroke-width="1.5" stroke-linecap="round" stroke-linejoin="round"/>
</svg>
