<svg width="66" height="16" viewBox="0 0 66 16" fill="none" xmlns="http://www.w3.org/2000/svg">
<path d="M1 12.7688C1 12.7688 3 9.26875 8.5 8.76876C16.4827 8.04308 20.9207 13.2322 19 14.7688C17.0793 16.3053 14 12.2688 14.5 8.76876C15.0666 4.80258 18.0714 2.05449 22 1.26873C25.9286 0.482962 30.2575 0.630133 37.5 4.76873C44.5 8.76874 51.5 14.7688 58.5 14.7688C61.9765 14.7688 65.5 12.7453 65.5 9.26875C65.5 7.26875 64.2812 5.26873 62 5.26873C58.5 5.26873 58 8.76873 59.5 9.26874C60.5 9.60208 61.5 8.76874 61 7.76874" stroke="#111111" stroke-linecap="round"/>
</svg>
