<svg width="66" height="16" viewBox="0 0 66 16" fill="none" xmlns="http://www.w3.org/2000/svg">
<path d="M65.5 12.5002C65.5 12.5002 63.5 9.00019 58 8.5002C50.0173 7.77452 45.5793 12.9636 47.5 14.5002C49.4207 16.0368 52.5 12.0002 52 8.5002C51.4334 4.53403 48.4286 1.78593 44.5 1.00017C40.5714 0.214408 36.2425 0.361578 29 4.50018C22 8.50018 15 14.5002 8 14.5002C4.52346 14.5002 1 12.4767 1 9.00019C1 7.0002 2.21875 5.00017 4.5 5.00017C8 5.00017 8.5 8.50018 7 9.00018C6 9.33352 5 8.50018 5.5 7.50019" stroke="#111111" stroke-linecap="round"/>
</svg>
