<svg width="66" height="16" viewBox="0 0 66 16" fill="none" xmlns="http://www.w3.org/2000/svg">
<path fill-rule="evenodd" clip-rule="evenodd" d="M27.9169 1.66409C25.5146 1.22222 23.5159 1.3757 21.5981 1.75926C17.8444 2.51005 15.0272 5.1149 14.4951 8.83972C14.4857 8.90549 14.4777 8.97153 14.471 9.03779C15.5714 9.43922 16.5094 9.95553 17.2636 10.5205C18.244 11.2548 18.9425 12.0936 19.2579 12.8989C19.5763 13.712 19.5236 14.5905 18.8124 15.1594C18.17 15.6734 17.4223 15.7086 16.7331 15.4371C16.0676 15.175 15.4502 14.6302 14.9433 13.959C14.1163 12.8639 13.4995 11.3193 13.4492 9.7526C11.9375 9.30186 10.1197 9.07837 8.04535 9.26695C5.40109 9.50733 3.6164 10.4655 2.49741 11.3489C1.93617 11.792 1.53991 12.2184 1.2863 12.53C1.15956 12.6857 1.06867 12.8124 1.01085 12.8979C0.98195 12.9406 0.961343 12.9729 0.948679 12.9933L0.935607 13.0147L0.934208 13.0171C0.934124 13.0172 0.934041 13.0174 0.933958 13.0175C0.934079 13.0173 0.934208 13.0171 0.500086 12.769L0.0659635 12.5209C-0.071041 12.7607 0.0122579 13.0661 0.252017 13.2031C0.49163 13.3401 0.796832 13.2569 0.933958 13.0175M0.500086 12.769C0.0659635 12.5209 0.0661074 12.5207 0.0662591 12.5204L0.0666017 12.5198L0.0674281 12.5184L0.0696485 12.5146L0.0763748 12.5032C0.0818807 12.4939 0.0894399 12.4814 0.0990998 12.4658C0.118418 12.4347 0.146151 12.3914 0.18268 12.3374C0.255721 12.2295 0.364053 12.0789 0.510741 11.8987C0.804015 11.5384 1.25151 11.0585 1.87776 10.5641C3.13377 9.57247 5.09908 8.53066 7.95482 8.27106C10.0481 8.08076 11.9137 8.28507 13.5011 8.72688C13.5024 8.71735 13.5037 8.70782 13.5051 8.69829C14.1062 4.49075 17.2985 1.59942 21.402 0.778683C23.4129 0.376482 25.5429 0.210659 28.0978 0.680588C30.6465 1.14938 33.5929 2.24611 37.2482 4.33486C39.0095 5.34134 40.7686 6.47221 42.5146 7.59464L42.5205 7.59839C44.2726 8.72474 46.0115 9.84247 47.7482 10.8349C51.2304 12.8247 54.6356 14.269 58.0001 14.269C59.6491 14.269 61.2939 13.7875 62.513 12.916C63.7229 12.051 64.5001 10.8166 64.5001 9.26899C64.5001 8.36381 64.2231 7.47727 63.7125 6.82807C63.2111 6.19051 62.4773 5.76897 61.5001 5.76897C59.9401 5.76897 59.1332 6.53256 58.8393 7.26717C58.6869 7.64824 58.671 8.02064 58.7479 8.30068C58.8235 8.57621 58.9756 8.73377 59.1582 8.79464C59.4923 8.906 59.7988 8.81459 59.9714 8.65346C60.1237 8.51137 60.2027 8.29232 60.0529 7.9926C59.9294 7.74561 60.0295 7.44527 60.2765 7.32178C60.5235 7.19828 60.8238 7.29839 60.9473 7.54538C61.2974 8.24566 61.1265 8.94326 60.6537 9.38451C60.2014 9.80672 59.5079 9.96531 58.842 9.74333C58.2746 9.5542 57.9267 9.08675 57.7835 8.5654C57.6417 8.04857 57.6883 7.45221 57.9108 6.89578C58.367 5.75539 59.5601 4.76897 61.5001 4.76897C62.8041 4.76897 63.8203 5.34745 64.4986 6.20989C65.1677 7.06071 65.5001 8.17417 65.5001 9.26899C65.5001 11.1979 64.5156 12.7135 63.0946 13.7294C61.6828 14.7387 59.8276 15.269 58.0001 15.269C54.3646 15.269 50.7698 13.7133 47.252 11.7031C45.4907 10.6966 43.7315 9.56576 41.9856 8.44334L41.9797 8.43957C40.2276 7.31322 38.4887 6.1955 36.752 5.2031C33.1648 3.15324 30.3254 2.10709 27.9169 1.66409M14.475 10.1102C14.5966 11.3119 15.0899 12.4938 15.7413 13.3564C16.1819 13.9398 16.6632 14.3348 17.0996 14.5067C17.5124 14.6693 17.8698 14.6329 18.1877 14.3786C18.4369 14.1792 18.5497 13.8329 18.3268 13.2635C18.1007 12.6864 17.551 11.9852 16.6641 11.3208C16.0692 10.8752 15.3354 10.4562 14.475 10.1102Z" fill="#111111"/>
</svg>
