<svg width="24" height="24" viewBox="0 0 24 24" fill="none" xmlns="http://www.w3.org/2000/svg">
<path d="M1 4V10H7" stroke="#EC9DAB" stroke-width="1.5" stroke-linecap="round" stroke-linejoin="round"/>
<path d="M23 20V14H17" stroke="#EC9DAB" stroke-width="1.5" stroke-linecap="round" stroke-linejoin="round"/>
<path d="M20.49 8.99928C19.9828 7.56607 19.1209 6.28469 17.9845 5.2747C16.8482 4.26472 15.4745 3.55905 13.9917 3.22354C12.5089 2.88803 10.9652 2.93362 9.50481 3.35606C8.04437 3.77849 6.71475 4.564 5.64 5.63928L1 9.99928M23 13.9993L18.36 18.3593C17.2853 19.4346 15.9556 20.2201 14.4952 20.6425C13.0348 21.0649 11.4911 21.1105 10.0083 20.775C8.52547 20.4395 7.1518 19.7339 6.01547 18.7239C4.87913 17.7139 4.01717 16.4325 3.51 14.9993" stroke="#EC9DAB" stroke-width="1.5" stroke-linecap="round" stroke-linejoin="round"/>
</svg>
