<svg xmlns="http://www.w3.org/2000/svg" viewBox="0 0 435.882 435.882"><g fill="#EC9DAB"><path d="M435.393 168.165a10.002 10.002 0 00-6.665-6.496l-127.28-37.785-75.269-109.376a10 10 0 00-16.476 0l-75.268 109.375-127.28 37.786a10.002 10.002 0 00-5.091 15.669L82.827 282.72 79.43 415.449a9.998 9.998 0 0013.329 9.684l125.182-44.245 125.183 44.245a9.996 9.996 0 009.21-1.338 10.001 10.001 0 004.119-8.346l-3.397-132.728 80.764-105.382a10.006 10.006 0 001.573-9.174zM335.032 273.36a10.005 10.005 0 00-2.06 6.339l3.116 121.734-114.814-40.581a9.99 9.99 0 00-6.665 0L99.795 401.434 102.91 279.7a9.995 9.995 0 00-2.06-6.339l-74.074-96.654 116.739-34.656a10.005 10.005 0 005.392-3.917L217.94 37.818l69.034 100.316a9.997 9.997 0 005.393 3.917l116.738 34.656-74.073 96.653z"/><path stroke="#EC9DAB" d="M169.441 176.177c-13.785 0-25 11.215-25 25v46c0 13.785 11.215 25 25 25s25-11.215 25-25v-46c0-13.785-11.215-25-25-25zm5 71c0 2.757-2.243 5-5 5s-5-2.243-5-5v-46c0-2.757 2.243-5 5-5s5 2.243 5 5v46zm92.001-71c-13.785 0-25 11.215-25 25v46c0 13.785 11.215 25 25 25s25-11.215 25-25v-46c0-13.785-11.215-25-25-25zm5 71c0 2.757-2.243 5-5 5s-5-2.243-5-5v-46c0-2.757 2.243-5 5-5s5 2.243 5 5v46z"/></g></svg>